<svg width="48" height="50" viewBox="0 0 48 50" fill="none" xmlns="http://www.w3.org/2000/svg">
<path d="M21.8492 33.9339C22.0769 33.7365 22.2591 33.3569 22.4869 32.9773C23.2158 31.2918 23.1399 30.1985 22.1832 29.6063C21.7732 29.3633 21.4695 28.9078 21.1962 28.437C21.0899 28.2396 21.1051 27.7082 21.257 27.4197C22.0314 25.9771 22.8513 24.5649 23.6713 23.1376C23.8384 22.8643 24.0054 22.6669 24.1876 22.5606C24.3394 22.4695 24.5065 22.4391 24.6735 22.4847C25.4479 22.6517 26.2527 22.758 27.0271 22.9554C27.2549 23.0161 27.4675 23.0313 27.6953 22.8946C27.8471 22.8035 27.999 22.6517 28.166 22.4087C28.2571 22.2569 28.3938 22.1202 28.5152 22.0291C29.6237 21.1788 29.897 20.131 29.973 18.9618C30.0185 18.2481 30.2159 17.4737 30.307 16.7296C30.383 16.1982 30.5652 15.7578 30.9903 15.3782C32.2355 14.6493 33.4958 13.9357 34.7561 13.2068C34.9687 13.5409 35.2572 13.8142 35.3635 14.2242C35.5761 14.9682 35.6824 15.7882 35.8039 16.593C35.8798 17.0333 36.1076 17.1396 36.472 17.2004C36.9276 17.2763 37.3679 17.1852 37.7779 16.9574C38.3245 16.6385 38.856 16.0463 39.3723 15.1808C39.7823 14.4975 40.3289 13.8901 40.8148 13.2372C40.9971 12.9942 41.1641 12.8272 41.3159 12.7361C41.5285 12.6146 41.7107 12.6146 41.9081 12.7361C42.6674 13.1916 43.4266 13.6168 44.1858 14.0571C44.5806 14.2697 44.5806 14.6949 44.2618 15.3934C43.7151 16.5778 43.2444 17.747 42.7129 18.9314C42.4852 19.4325 42.5307 19.721 42.6218 20.1158C42.9255 21.4976 43.8214 21.4673 45.0666 20.8447C45.5373 20.6169 46.0232 20.4347 46.4484 20.3588C46.7824 20.3132 47.0557 20.4803 47.3594 20.5562C47.3594 21.9987 47.3746 23.4413 47.3746 24.8838C47.0557 25.309 46.7672 25.8405 46.418 26.1593C45.5525 26.9338 44.6566 27.5867 43.7607 28.3004C43.6847 28.3611 43.5936 28.4067 43.5025 28.4826C43.0925 28.8926 42.4092 31.5347 42.6522 31.8232C43.1685 32.4002 43.6999 32.9773 44.2466 33.5239C44.611 33.9035 44.6414 34.4046 44.1403 35.2094C43.4266 36.3786 42.7585 37.563 42.0752 38.7626C41.8322 39.1878 41.5893 39.5067 41.3159 39.6585C41.1185 39.78 40.9059 39.7952 40.663 39.7345C39.9189 39.5219 39.1445 39.3852 38.3549 39.2789C38.2334 39.2637 38.0664 39.3245 37.8994 39.4308C37.7931 39.4915 37.702 39.5674 37.6109 39.6434C36.3202 40.7063 35.6672 41.997 35.652 43.5458C35.652 44.138 35.4546 44.8213 35.3635 45.4591C35.2876 45.9753 35.1206 46.4309 34.6954 46.8105C33.4806 47.509 32.281 48.2075 31.0663 48.906C30.6411 49.0275 30.4589 48.7845 30.383 48.3442C30.2311 47.4635 30.0337 46.6131 29.897 45.7172C29.8211 45.1858 29.563 45.0947 29.1226 45.0491C28.6671 45.0035 28.2571 45.0946 27.8623 45.3224C27.2853 45.6565 26.7386 46.279 26.2072 47.1446C25.8124 47.7823 25.3113 48.3442 24.8861 48.9516C24.6887 49.2401 24.4913 49.4375 24.3091 49.5438C24.0965 49.6652 23.8839 49.6652 23.6865 49.5438C22.9273 49.1034 22.168 48.663 21.3936 48.2379C21.0596 48.0405 21.014 47.6609 21.2873 47.0535C21.8492 45.7931 22.411 44.5328 22.9273 43.2725C23.0487 42.9688 23.0336 42.5892 22.988 42.3159C22.7299 40.8429 21.8188 40.7063 20.437 41.4655C19.9663 41.7237 19.4803 41.8603 19.0552 41.9362C18.7515 41.9818 18.4933 41.7996 18.22 41.7236C18.22 40.2811 18.2048 38.8386 18.2048 37.396C18.5237 36.9556 18.8122 36.4242 19.1615 36.1053C20.0726 35.3309 20.9684 34.6779 21.8492 33.9339ZM26.7083 34.7387C26.7994 38.5045 29.5326 40.023 32.7973 38.1401C32.8277 38.1249 32.8732 38.0945 32.9036 38.0793C36.2746 36.0597 38.9319 31.3373 38.8864 27.5108C38.8256 23.8665 36.2746 22.0898 32.7062 24.155C29.3656 26.1138 26.6323 31.0184 26.7083 34.7387Z" fill="white"/>
<path d="M3.15676 13.556C3.29342 13.4346 3.39972 13.2068 3.53638 12.979C3.97674 11.9768 3.916 11.3239 3.35416 10.9746C3.11121 10.8228 2.92899 10.5495 2.76196 10.2761C2.70122 10.1547 2.70122 9.83579 2.79233 9.66876C3.24787 8.80323 3.74897 7.96806 4.23488 7.11772C4.32598 6.95069 4.43228 6.8444 4.53857 6.76848C4.62968 6.72292 4.72079 6.69256 4.82708 6.72293C5.2978 6.82922 5.76853 6.88997 6.23925 6.99626C6.37592 7.02663 6.51258 7.04181 6.64924 6.96589C6.74035 6.92033 6.83146 6.82922 6.93775 6.67737C6.99849 6.58627 7.07441 6.49517 7.15034 6.44961C7.81846 5.94852 7.97031 5.32593 8.01586 4.62743C8.04623 4.20226 8.15253 3.73155 8.21326 3.29119C8.25882 2.97232 8.36511 2.71418 8.62325 2.48641C9.3673 2.06124 10.1265 1.62087 10.8706 1.1957C10.9921 1.3931 11.1743 1.56012 11.235 1.80308C11.3565 2.24343 11.4172 2.72936 11.4932 3.21527C11.5387 3.47341 11.6754 3.53415 11.888 3.57971C12.1613 3.62526 12.4194 3.5797 12.6624 3.42785C12.9964 3.23045 13.3001 2.88121 13.619 2.36493C13.862 1.95494 14.196 1.5905 14.4694 1.1957C14.5756 1.04385 14.6819 0.952749 14.773 0.89201C14.8945 0.816087 15.016 0.816087 15.1223 0.89201C15.5778 1.16533 16.0182 1.42348 16.4889 1.68162C16.7167 1.8031 16.7167 2.06122 16.5345 2.47121C16.2156 3.1697 15.9271 3.88338 15.6082 4.58188C15.4715 4.88557 15.5019 5.05261 15.5475 5.29556C15.7297 6.13072 16.2611 6.10035 17.0052 5.72073C17.2785 5.58407 17.567 5.47777 17.8404 5.43222C18.0378 5.40185 18.2048 5.50814 18.387 5.5537C18.387 6.40404 18.387 7.26959 18.387 8.13511C18.2048 8.39325 18.0226 8.71213 17.81 8.89435C17.2937 9.34989 16.7622 9.74469 16.2308 10.1699C16.1852 10.2154 16.1245 10.2306 16.0789 10.2761C15.836 10.5191 15.426 12.0983 15.5778 12.2653C15.8967 12.6146 16.2004 12.9487 16.5193 13.2827C16.7471 13.5105 16.7471 13.799 16.4586 14.3001C16.0334 14.9986 15.6386 15.7123 15.2286 16.4108C15.0767 16.6689 14.9401 16.8511 14.773 16.9422C14.6516 17.003 14.5301 17.0333 14.3934 16.9878C13.9531 16.8663 13.4824 16.7752 13.0268 16.7145C12.9509 16.7145 12.8598 16.7448 12.7535 16.8056C12.6927 16.8359 12.632 16.8815 12.5713 16.927C11.7969 17.5648 11.402 18.324 11.402 19.2503C11.402 19.5995 11.2806 20.0095 11.235 20.3891C11.1895 20.6928 11.0984 20.9662 10.8402 21.1939C10.1114 21.6191 9.39767 22.0291 8.66881 22.4391C8.41067 22.515 8.30437 22.3632 8.25882 22.105C8.16771 21.5736 8.04623 21.0725 7.97031 20.541C7.92476 20.2221 7.77291 20.1766 7.51477 20.1462C7.24144 20.1158 6.99849 20.1766 6.75553 20.3132C6.40629 20.5106 6.08741 20.8902 5.76853 21.4065C5.52557 21.7861 5.23706 22.1202 4.97892 22.4846C4.85745 22.6517 4.73597 22.7731 4.62968 22.8339C4.5082 22.9098 4.38672 22.9098 4.25006 22.8339C3.79452 22.5757 3.33898 22.3176 2.88344 22.0595C2.68604 21.938 2.65567 21.7254 2.8227 21.3458C3.15676 20.6017 3.49083 19.8425 3.79452 19.0833C3.87044 18.901 3.85526 18.6733 3.84007 18.5062C3.68823 17.6255 3.14158 17.5496 2.3216 18.0052C2.04828 18.157 1.75977 18.2481 1.48645 18.2937C1.30423 18.324 1.15238 18.2178 0.985352 18.1722C0.985352 17.3219 0.985352 16.4563 0.985352 15.5908C1.16757 15.3326 1.34978 15.0138 1.56237 14.8315C2.09383 14.3912 2.6253 13.9964 3.15676 13.556ZM6.05704 14.042C6.10259 16.2893 7.74254 17.2004 9.68618 16.0767C9.70136 16.0615 9.73173 16.0463 9.74692 16.0463C11.7513 14.8467 13.3457 12.0224 13.3153 9.74469C13.285 7.57328 11.7665 6.51034 9.62544 7.7403C7.63625 8.89433 6.01148 11.8098 6.05704 14.042Z" fill="white"/>
</svg>
