<svg width="143" height="88" viewBox="0 0 143 88" fill="none" xmlns="http://www.w3.org/2000/svg">
<path d="M0.625488 10.9822V10.9973C0.625488 11.0884 0.625488 11.1795 0.625488 11.2555C0.625488 11.3466 0.640676 11.4225 0.640676 11.5136C0.640676 11.6047 0.655856 11.6958 0.671041 11.7717C0.686225 11.8628 0.70142 11.954 0.716604 12.0299C0.716604 12.0754 0.731784 12.1058 0.746969 12.1362C0.746969 12.1514 0.746969 12.1514 0.746969 12.1666C0.762153 12.2121 0.76216 12.2425 0.777344 12.288C0.792529 12.3791 0.822892 12.4702 0.853261 12.5613C0.88363 12.6525 0.913996 12.7588 0.944365 12.8499C0.974735 12.941 1.02029 13.0321 1.06585 13.1232V13.1384C1.06585 13.1384 1.06585 13.1535 1.08103 13.1535C1.14177 13.2902 1.21769 13.4117 1.29362 13.5332C1.35436 13.6243 1.43028 13.7002 1.49102 13.7761C1.53657 13.8369 1.58213 13.9128 1.64287 13.9583C1.82509 14.1557 2.02249 14.3228 2.23507 14.4443L76.4426 57.5688C76.306 57.4928 76.1845 57.3713 76.063 57.2651C77.0652 58.1306 78.5989 58.1913 80.3299 57.1891C83.3365 55.4581 85.7661 51.2367 85.7661 47.7898C85.7661 46.0588 85.1435 44.844 84.1717 44.2822C84.1717 44.2822 84.1717 44.2822 84.1868 44.2822L9.97926 1.15765C9.8426 1.08173 9.69075 1.0058 9.53891 0.960245C9.41743 0.914691 9.29595 0.884311 9.17448 0.853941C9.17448 0.853941 9.17447 0.853941 9.15929 0.853941C9.053 0.838757 8.9467 0.823574 8.84041 0.808389C8.7493 0.793205 8.65819 0.793213 8.5519 0.793213C8.46079 0.793213 8.38487 0.793205 8.29376 0.808389C8.27858 0.808389 8.24821 0.808389 8.23302 0.808389C8.21784 0.808389 8.21784 0.808389 8.20266 0.808389C8.1571 0.808389 8.09636 0.823589 8.0508 0.823589C7.97488 0.838773 7.89896 0.853956 7.80785 0.869141C7.73193 0.884326 7.656 0.899508 7.58008 0.914693C7.50416 0.929878 7.42823 0.960237 7.35231 0.975422C7.30675 0.990606 7.24601 1.00579 7.18527 1.02097H7.1701C7.15491 1.02097 7.13972 1.03617 7.12453 1.03617C7.04861 1.06654 6.97269 1.08173 6.91195 1.1121C6.83603 1.14247 6.7601 1.17284 6.69936 1.20321C6.62344 1.23358 6.54753 1.26393 6.4716 1.30949C6.39568 1.33986 6.31975 1.38541 6.24383 1.43097C6.18309 1.46134 6.12235 1.4917 6.0768 1.52207C6.06161 1.53726 6.04643 1.53726 6.01606 1.55245C5.94013 1.598 5.86421 1.64355 5.78829 1.6891C5.71236 1.73466 5.63644 1.79541 5.56051 1.84096C5.48459 1.9017 5.40867 1.94725 5.31756 2.00799C5.24164 2.06873 5.15053 2.12946 5.0746 2.1902C5.04423 2.22057 5.01387 2.23576 4.9835 2.26613C4.96831 2.26613 4.96832 2.28131 4.95313 2.28131C4.90758 2.31168 4.86202 2.34206 4.83165 2.38761C4.75573 2.46353 4.66462 2.52427 4.58869 2.60019C4.51277 2.67612 4.42167 2.75203 4.34574 2.82796C4.26982 2.90388 4.1939 2.97982 4.11797 3.05574C4.05723 3.11648 4.01168 3.16203 3.95094 3.22277L3.93575 3.23795C3.92057 3.25313 3.90538 3.26832 3.8902 3.2835C3.81428 3.35942 3.75354 3.43534 3.67761 3.51126C3.60169 3.58719 3.54095 3.6783 3.46503 3.75422C3.38911 3.84533 3.32837 3.92125 3.25244 4.01236C3.17652 4.11865 3.08541 4.22496 3.00948 4.33125C2.88801 4.49828 2.78172 4.65011 2.66024 4.81715C2.52358 5.02973 2.38691 5.24231 2.25025 5.4549C2.23507 5.48527 2.21988 5.50046 2.2047 5.53083C2.18951 5.54601 2.18952 5.5764 2.17433 5.59158C2.11359 5.71306 2.03766 5.81934 1.97692 5.94082C1.91619 6.04711 1.85545 6.15342 1.80989 6.25971C1.76434 6.35082 1.71879 6.45709 1.67324 6.5482C1.62768 6.63931 1.59731 6.73044 1.55176 6.80636C1.55176 6.82155 1.53658 6.83673 1.53658 6.85191V6.86709C1.50621 6.92783 1.47583 7.00376 1.44546 7.0645C1.41509 7.15561 1.36954 7.24671 1.33917 7.32263C1.3088 7.41374 1.27843 7.50484 1.23288 7.59595C1.20251 7.68706 1.17214 7.77818 1.14177 7.86928C1.1114 7.96039 1.08103 8.0515 1.05066 8.1578C1.05066 8.17298 1.03548 8.18816 1.03548 8.20335V8.21853C1.0203 8.29445 0.989926 8.37036 0.974741 8.44629C0.944372 8.53739 0.929183 8.64369 0.898813 8.7348C0.868444 8.82591 0.853258 8.9322 0.838073 9.02331C0.822888 9.11442 0.792529 9.22072 0.777344 9.31182C0.76216 9.40293 0.746965 9.49403 0.731781 9.58514C0.716596 9.67625 0.701413 9.76737 0.686228 9.85847C0.671044 9.94958 0.671049 10.0407 0.655864 10.1318C0.640679 10.2229 0.640676 10.314 0.640676 10.4051C0.640676 10.4962 0.625488 10.5873 0.625488 10.6633C0.625488 10.8151 0.625488 10.891 0.625488 10.9822ZM75.2582 56.2629C75.1671 56.0655 75.1064 55.8377 75.0457 55.6099C75.1064 55.8377 75.1671 56.0807 75.2582 56.2781C75.2582 56.2781 75.2582 56.2781 75.2582 56.2629ZM74.8331 54.1067C74.8331 54.5318 74.8786 54.9266 74.9394 55.2911C74.9394 55.2911 74.9394 55.291 74.9394 55.2759C74.8786 54.9114 74.8331 54.5318 74.8331 54.1067ZM81.6814 44.1C81.5751 44.1303 81.484 44.1303 81.3777 44.1607C81.484 44.1303 81.5903 44.1303 81.6814 44.1ZM83.6858 44.1152C83.5643 44.0696 83.458 44.0088 83.3365 43.9785H83.3517C83.4732 44.024 83.5643 44.0848 83.6858 44.1152ZM82.4102 43.9481C82.5469 43.9329 82.6532 43.9633 82.7595 43.9633C82.638 43.9633 82.5317 43.9329 82.4102 43.9481ZM75.6834 56.931L75.6682 56.9158C75.5923 56.8247 75.5316 56.7032 75.4556 56.5969C75.5316 56.7032 75.6075 56.8247 75.6834 56.931Z" fill="#3F0706"/>
<path d="M57.4009 60.1806C57.4009 60.4235 57.4161 60.6816 57.4313 60.9246C57.4464 61.1372 57.4616 61.3498 57.4768 61.5624C57.492 61.7446 57.5224 61.9268 57.5527 62.109C57.5831 62.3216 57.6135 62.5342 57.659 62.7468C57.6894 62.929 57.7349 63.1112 57.7805 63.3086C57.8261 63.5212 57.8716 63.7186 57.9324 63.9312C57.9779 64.1134 58.0386 64.3108 58.0994 64.493C58.1601 64.6904 58.236 64.903 58.2968 65.1004C58.3575 65.2826 58.4334 65.4648 58.5094 65.6471C58.6005 65.8596 58.6764 66.0722 58.7827 66.2848C58.8586 66.467 58.9497 66.6492 59.0256 66.8163C59.1319 67.0288 59.2382 67.2414 59.3445 67.454C59.4356 67.6211 59.5267 67.8033 59.633 67.9703C59.7849 68.2133 59.9367 68.4714 60.0886 68.7143C60.1797 68.8662 60.286 69.0181 60.3923 69.1699C60.5745 69.4432 60.7871 69.7165 60.9845 69.9899C61.0756 70.1113 61.1515 70.2328 61.2426 70.3391C61.5919 70.7643 61.9563 71.2046 62.3359 71.6146C62.4422 71.7209 62.5485 71.8272 62.6548 71.9335C62.9585 72.2524 63.2774 72.5712 63.6114 72.8749C63.7633 73.0268 63.9151 73.1635 64.0821 73.3153C64.2795 73.4975 64.4769 73.6646 64.6895 73.8468C64.8869 74.0138 65.0843 74.1809 65.2817 74.3327C65.4943 74.4997 65.7221 74.6819 65.9347 74.849C66.1473 75.016 66.3598 75.1678 66.5724 75.3197C66.8002 75.4867 67.0432 75.6537 67.2861 75.8208C67.5139 75.9726 67.7265 76.1245 67.9694 76.2763C68.2124 76.4434 68.4705 76.5952 68.7287 76.7623C69.0475 76.9597 69.3664 77.1722 69.7157 77.3696C70.6267 77.9011 71.5986 78.4022 72.5704 78.8729C72.8285 78.9944 73.0867 79.1158 73.3448 79.2373C74.2255 79.6473 75.1214 80.0269 76.0477 80.3914C76.1692 80.4369 76.2906 80.4977 76.4121 80.5432C77.3991 80.9228 78.4165 81.2569 79.4491 81.591C80.1627 81.8188 80.8916 82.0162 81.6205 82.2136C82.1823 82.3654 82.7289 82.5324 83.2908 82.6691C84.0652 82.8513 84.8548 83.0183 85.6292 83.1702C86.1911 83.2916 86.7529 83.4131 87.3299 83.5194C87.5729 83.565 87.8158 83.5954 88.0588 83.6409C89.0306 83.7928 90.0024 83.9446 90.9894 84.0509C91.2779 84.0813 91.5513 84.1268 91.8398 84.1572C92.4016 84.2179 92.9786 84.2483 93.5404 84.2939C94.4971 84.3698 95.4385 84.4457 96.3952 84.4913C97.0026 84.5216 97.6251 84.5368 98.2325 84.5368C99.0069 84.552 99.7813 84.552 100.556 84.552C101.209 84.5368 101.846 84.5216 102.499 84.4913C103.213 84.4609 103.927 84.4305 104.64 84.3698C105.293 84.3242 105.946 84.2635 106.599 84.2027C107.313 84.142 108.011 84.0509 108.71 83.9598C109.348 83.8839 109.97 83.7928 110.608 83.6865C111.367 83.565 112.111 83.4435 112.855 83.2917C113.448 83.1854 114.025 83.0639 114.602 82.9424C115.497 82.745 116.363 82.5324 117.229 82.3047C117.79 82.1528 118.352 82.0161 118.914 81.8491C119.218 81.758 119.506 81.6669 119.81 81.5758C120.675 81.3025 121.541 81.014 122.376 80.6951C122.619 80.604 122.862 80.5128 123.105 80.4217C123.864 80.118 124.608 79.7992 125.352 79.4651C125.717 79.2981 126.096 79.1614 126.446 78.9944C127.509 78.4933 128.556 77.9467 129.543 77.3696C137.895 72.5561 142.071 66.2241 142.04 59.9072V62.1394C142.056 68.4562 137.88 74.7882 129.543 79.6018C128.541 80.1788 127.509 80.7102 126.446 81.2265C126.081 81.3935 125.717 81.5454 125.337 81.7124C124.699 81.9858 124.092 82.2895 123.439 82.5476C123.333 82.5932 123.211 82.6235 123.105 82.6691C122.862 82.7602 122.619 82.8513 122.361 82.9424C121.526 83.2613 120.66 83.5498 119.795 83.8231C119.491 83.9142 119.203 84.0053 118.899 84.0964C118.701 84.1572 118.504 84.2179 118.307 84.2787C117.957 84.3849 117.578 84.4457 117.229 84.5368C116.363 84.7646 115.482 84.9923 114.602 85.1745C114.359 85.2201 114.131 85.296 113.903 85.3416C113.554 85.4175 113.205 85.4631 112.855 85.5238C112.111 85.6605 111.367 85.7971 110.608 85.9186C110.304 85.9642 110.016 86.0249 109.712 86.0704C109.378 86.116 109.044 86.1464 108.725 86.1767C108.027 86.2678 107.328 86.3438 106.614 86.4197C106.28 86.4501 105.946 86.5108 105.597 86.526C105.278 86.5564 104.959 86.5564 104.656 86.5716C103.942 86.6171 103.228 86.6626 102.515 86.693C102.15 86.7082 101.801 86.7386 101.436 86.7538C101.148 86.7538 100.859 86.7386 100.586 86.7538C99.8117 86.769 99.0373 86.7538 98.2629 86.7386C97.8833 86.7386 97.4885 86.7538 97.1089 86.7386C96.8811 86.7234 96.6533 86.7082 96.4255 86.693C95.4689 86.6475 94.5123 86.5867 93.5708 86.4956C93.1912 86.4652 92.7964 86.4501 92.4168 86.4197C92.2346 86.4045 92.0523 86.3741 91.8701 86.3589C91.5816 86.3286 91.3083 86.2982 91.0198 86.2527C90.0328 86.1312 89.061 85.9945 88.0891 85.8427C87.8462 85.7971 87.6032 85.7668 87.3755 85.7212C87.254 85.706 87.1477 85.6908 87.0262 85.6605C86.5707 85.5845 86.1151 85.4631 85.6596 85.372C84.87 85.2201 84.0956 85.0531 83.3211 84.8709C82.7593 84.7342 82.2127 84.5672 81.6508 84.4153C80.922 84.2179 80.1931 84.0205 79.4794 83.7927C79.3276 83.7472 79.1605 83.7016 79.0087 83.6561C78.1432 83.3676 77.2776 83.0639 76.4425 82.745C76.321 82.6994 76.1995 82.6387 76.0781 82.5932C75.1518 82.2287 74.2559 81.8491 73.36 81.4391C73.1019 81.3176 72.8437 81.1962 72.5856 81.0747C71.6137 80.604 70.6419 80.1029 69.7309 79.5714C69.5638 79.4651 69.3816 79.374 69.2146 79.2677C69.0475 79.1766 68.9109 79.0703 68.7438 78.9792C68.4857 78.8122 68.2276 78.6603 67.9846 78.4933C67.7568 78.3414 67.5291 78.1896 67.3165 78.0378C67.0735 77.8707 66.8306 77.7037 66.6028 77.5366C66.3902 77.3848 66.1776 77.233 65.9802 77.0659C65.7525 76.8989 65.5247 76.7167 65.3121 76.5497C65.1147 76.3978 64.9325 76.2308 64.7351 76.0637C64.5225 75.8815 64.3251 75.6993 64.1125 75.5323C64.0366 75.4563 63.9455 75.3956 63.8696 75.3197C63.7936 75.2438 63.7329 75.183 63.657 75.1071C63.3229 74.7882 63.004 74.4694 62.7003 74.1505C62.5941 74.0442 62.4878 73.9379 62.3966 73.8316C62.0018 73.4064 61.6374 72.9812 61.3033 72.5561C61.2882 72.5409 61.273 72.5257 61.2578 72.4953C61.1819 72.389 61.1211 72.2979 61.0452 72.1917C60.8326 71.9183 60.6352 71.645 60.4378 71.3717C60.3315 71.2198 60.2404 71.068 60.1493 70.9161C59.9823 70.658 59.8304 70.415 59.6786 70.1569C59.633 70.0962 59.5875 70.0202 59.5571 69.9595C59.4964 69.8532 59.4508 69.7621 59.4053 69.6558C59.2838 69.4432 59.1775 69.2306 59.0712 69.0181C58.9801 68.8358 58.9042 68.6688 58.8282 68.4866C58.7371 68.274 58.646 68.0614 58.5549 67.8337C58.5245 67.7425 58.4638 67.6514 58.4334 67.5451C58.4031 67.454 58.3727 67.3781 58.3423 67.287C58.2664 67.0744 58.2057 66.877 58.1449 66.6644C58.0842 66.4822 58.0386 66.3 57.9779 66.1026C57.9172 65.89 57.8716 65.6926 57.8261 65.48C57.7957 65.3737 57.7653 65.2522 57.7501 65.1459C57.7349 65.07 57.735 64.9941 57.7198 64.9182C57.6742 64.7056 57.6438 64.493 57.6135 64.2804C57.5831 64.0982 57.5679 63.916 57.5375 63.7186C57.5224 63.506 57.5072 63.2934 57.492 63.0808C57.492 62.9594 57.4616 62.8379 57.4616 62.7012C57.4616 62.5797 57.4616 62.4583 57.4616 62.3368L57.4009 60.1806Z" fill="#1D6E73"/>
<path d="M69.8979 42.7336C53.3162 52.2999 53.2251 67.8339 69.7005 77.4002C86.1759 86.9817 112.977 86.9666 129.559 77.4002C146.14 67.8187 146.247 52.2999 129.771 42.7184C113.281 33.152 86.4796 33.152 69.8979 42.7336Z" fill="white" fill-opacity="0.5"/>
<path d="M129.756 56.6425C113.28 47.0761 86.4793 47.0761 69.8824 56.6425C64.6589 59.6643 61.0753 63.263 59.1317 67.0895C54.8799 58.738 58.4787 49.3235 69.8976 42.7181C86.4793 33.1366 113.295 33.1366 129.771 42.7181C141.053 49.2779 144.561 58.6317 140.324 66.9377C138.396 63.1719 134.873 59.6187 129.756 56.6425Z" fill="white" fill-opacity="0.5"/>
<path d="M70.3685 36.9328C71.3555 36.371 72.3729 35.8395 73.4206 35.3384C73.7698 35.1713 74.1343 35.0347 74.4835 34.8677C75.1061 34.5943 75.7135 34.3059 76.3512 34.0477C76.4575 34.0022 76.579 33.9718 76.7005 33.9262C76.9434 33.8351 77.1864 33.744 77.4294 33.6681C78.2645 33.3644 79.0997 33.0759 79.9652 32.8026C80.2537 32.7114 80.5422 32.6204 80.8307 32.5292C81.0281 32.4685 81.2103 32.4078 81.4077 32.347C81.757 32.2407 82.1214 32.18 82.4859 32.0889C83.3362 31.8611 84.2017 31.6485 85.0824 31.4511C85.3102 31.4055 85.538 31.3296 85.7657 31.2841C86.115 31.2082 86.4642 31.1626 86.8135 31.1019C87.5424 30.9652 88.2864 30.8286 89.0305 30.7223C89.319 30.6767 89.6075 30.616 89.9112 30.5704C90.23 30.5249 90.5641 30.4945 90.8982 30.4641C91.5967 30.373 92.2952 30.2971 92.9937 30.2363C93.3277 30.206 93.6466 30.1604 93.9807 30.13C94.2844 30.0997 94.6032 30.0997 94.9221 30.0845C95.6358 30.0389 96.3343 29.9934 97.048 29.9782C97.3972 29.963 97.7465 29.9327 98.0957 29.9175C98.3842 29.9175 98.6575 29.9327 98.9461 29.9175C99.7053 29.9023 100.48 29.9174 101.239 29.9326C101.619 29.9326 101.998 29.9174 102.378 29.9326C102.606 29.9478 102.818 29.963 103.046 29.9782C103.987 30.0237 104.929 30.0845 105.87 30.1604C106.25 30.1908 106.63 30.1908 107.009 30.2363C107.191 30.2515 107.358 30.2819 107.541 30.2971C107.814 30.3275 108.102 30.3578 108.376 30.4033C109.348 30.5248 110.304 30.6615 111.261 30.8134C111.504 30.8589 111.747 30.8893 111.975 30.9348C112.096 30.95 112.202 30.9652 112.324 30.9956C112.779 31.0715 113.204 31.193 113.66 31.2841C114.434 31.4359 115.209 31.5878 115.968 31.77C116.515 31.9067 117.061 32.0585 117.608 32.2103C118.322 32.4077 119.051 32.6052 119.749 32.8178C119.901 32.8633 120.068 32.9089 120.22 32.9544C121.07 33.2277 121.905 33.5314 122.74 33.8351C122.862 33.8807 122.968 33.9262 123.075 33.9718C123.986 34.321 124.882 34.7158 125.747 35.1106C126.005 35.2321 126.263 35.3536 126.506 35.4751C127.463 35.9458 128.404 36.4165 129.315 36.948C129.482 37.0543 129.649 37.1454 129.817 37.2517C129.968 37.3428 130.12 37.4491 130.272 37.5402C130.53 37.692 130.773 37.859 131.031 38.0109C131.259 38.1627 131.472 38.3146 131.699 38.4665C131.942 38.6335 132.17 38.8005 132.398 38.9675C132.611 39.1194 132.808 39.2712 133.021 39.4231C133.248 39.5901 133.461 39.7572 133.673 39.9394C133.871 40.0912 134.053 40.2583 134.25 40.4101C134.448 40.5771 134.66 40.7593 134.858 40.9415C134.934 41.0175 135.025 41.0782 135.101 41.1541C135.177 41.2301 135.237 41.2908 135.313 41.3667C135.632 41.6704 135.951 41.9893 136.255 42.3082C136.361 42.4145 136.467 42.5208 136.559 42.6271C136.938 43.037 137.303 43.4622 137.637 43.8874C137.652 43.9025 137.667 43.9177 137.682 43.9329C137.758 44.024 137.819 44.1303 137.895 44.2214C138.107 44.4948 138.305 44.7681 138.487 45.0414C138.593 45.1933 138.684 45.3299 138.775 45.4818C138.927 45.7247 139.094 45.9677 139.231 46.2258C139.277 46.2866 139.322 46.3625 139.353 46.4232C139.413 46.5295 139.459 46.6358 139.52 46.7269C139.626 46.9395 139.747 47.1369 139.838 47.3495C139.93 47.5165 140.005 47.6987 140.081 47.8657C140.172 48.0783 140.264 48.2909 140.355 48.5035C140.385 48.5946 140.431 48.6857 140.476 48.7768C140.507 48.8679 140.537 48.9439 140.567 49.035C140.643 49.2324 140.704 49.445 140.765 49.6424C140.825 49.8246 140.871 50.0068 140.917 50.189C140.977 50.3864 141.023 50.599 141.068 50.7964C141.099 50.9027 141.129 51.009 141.144 51.1153C141.16 51.1912 141.159 51.2671 141.175 51.3431C141.22 51.5556 141.251 51.7682 141.281 51.9808C141.311 52.163 141.327 52.3452 141.342 52.5275C141.357 52.74 141.372 52.9526 141.387 53.1652C141.387 53.2867 141.402 53.4082 141.418 53.5297C141.418 53.6511 141.418 53.7726 141.418 53.8941L141.448 62.8075C141.448 62.5646 141.433 62.3216 141.418 62.0786C141.402 61.8661 141.387 61.6534 141.372 61.4409C141.357 61.2586 141.327 61.0765 141.296 60.8942C141.266 60.6817 141.235 60.4691 141.205 60.2717C141.175 60.0894 141.129 59.9072 141.084 59.725C141.038 59.5276 140.992 59.315 140.932 59.1176C140.886 58.9354 140.825 58.7532 140.765 58.571C140.704 58.3736 140.643 58.161 140.567 57.9636C140.507 57.7814 140.431 57.5992 140.37 57.4321C140.279 57.2195 140.203 57.0069 140.097 56.7943C140.021 56.6273 139.945 56.4451 139.854 56.2781C139.747 56.0655 139.641 55.8529 139.535 55.6555C139.444 55.4885 139.353 55.3215 139.261 55.1544C139.11 54.9115 138.958 54.6533 138.806 54.4104C138.715 54.2585 138.624 54.1219 138.517 53.97C138.335 53.6967 138.123 53.4234 137.91 53.15C137.819 53.0437 137.743 52.9223 137.667 52.816C137.333 52.3908 136.969 51.9656 136.589 51.5557C136.483 51.4494 136.376 51.343 136.285 51.2367C135.982 50.9179 135.678 50.6142 135.344 50.3105C135.192 50.1738 135.04 50.022 134.888 49.8853C134.691 49.7031 134.493 49.5361 134.296 49.3691C134.114 49.202 133.916 49.0502 133.719 48.8831C133.506 48.7161 133.294 48.5491 133.066 48.3821C132.869 48.2302 132.656 48.0784 132.443 47.9113C132.216 47.7443 131.988 47.5773 131.745 47.4254C131.532 47.2736 131.305 47.1217 131.077 46.9699C130.834 46.8028 130.576 46.651 130.333 46.4991C130.014 46.3017 129.695 46.1044 129.376 45.907C128.48 45.3907 127.524 44.9048 126.567 44.434C126.309 44.3126 126.066 44.191 125.808 44.0696C124.927 43.6596 124.046 43.28 123.12 42.9307C123.014 42.8852 122.892 42.8396 122.786 42.7941C121.814 42.4296 120.812 42.0956 119.795 41.7767C119.096 41.5641 118.382 41.3667 117.669 41.1693C117.122 41.0175 116.575 40.8656 116.014 40.729C115.254 40.5468 114.495 40.3949 113.721 40.243C113.159 40.1216 112.597 40.0001 112.02 39.8938C111.777 39.8482 111.549 39.8179 111.306 39.7875C110.35 39.6357 109.393 39.499 108.421 39.3775C108.148 39.3471 107.859 39.3016 107.586 39.2712C107.039 39.2105 106.478 39.1801 105.931 39.1345C104.99 39.0586 104.048 38.9827 103.091 38.9523C102.499 38.922 101.892 38.9068 101.285 38.9068C100.525 38.8916 99.7508 38.8916 98.9916 38.8916C98.3539 38.9068 97.7161 38.922 97.0935 38.9372C96.3798 38.9676 95.6813 38.9979 94.9828 39.0434C94.3451 39.089 93.6921 39.1498 93.0544 39.2105C92.3559 39.2712 91.6574 39.3623 90.9741 39.4383C90.3515 39.5142 89.729 39.6053 89.1064 39.6964C88.3623 39.8179 87.6183 39.9394 86.8894 40.076C86.3124 40.1823 85.7354 40.3038 85.1735 40.4253C84.2928 40.6227 83.4425 40.8353 82.577 41.063C82.0303 41.2149 81.4685 41.3516 80.9218 41.5034C80.6333 41.5945 80.3448 41.6856 80.0563 41.7767C79.206 42.05 78.3556 42.3386 77.5205 42.6423C77.2775 42.7334 77.0346 42.8093 76.7916 42.9156C76.0324 43.2041 75.3035 43.5381 74.5746 43.857C74.2254 44.0089 73.8458 44.1607 73.5117 44.3277C72.464 44.8288 71.4466 45.3603 70.4596 45.9221C62.2599 50.6597 58.1752 56.8703 58.1904 63.096L58.16 54.1826C58.0841 47.8809 62.1687 41.6704 70.3685 36.9328Z" fill="#3F0706"/>
<path d="M56.7329 54.4863C56.7633 55.3063 56.8544 56.1414 57.0214 56.9614C57.1884 57.7814 57.4162 58.5862 57.7199 59.391C58.0236 60.2109 58.4184 61.0309 58.8739 61.8357C59.3599 62.7012 59.9369 63.5667 60.605 64.4019C61.3794 65.3889 62.2601 66.3456 63.2775 67.2718C64.8112 68.684 66.6181 70.0354 68.6984 71.2958C68.8655 71.402 69.0477 71.5083 69.2147 71.5994C72.0694 73.2545 75.243 74.6364 78.614 75.7297C81.2258 76.58 83.9439 77.2481 86.753 77.7492C88.56 78.0681 90.3974 78.3263 92.2499 78.5085C93.8291 78.6603 95.4235 78.7666 97.0331 78.8273C98.506 78.8729 99.9789 78.8881 101.452 78.8425C102.879 78.8122 104.291 78.7362 105.704 78.6147C107.116 78.4933 108.513 78.3414 109.895 78.144C111.337 77.9466 112.764 77.6885 114.161 77.4C115.68 77.0811 117.183 76.7167 118.656 76.3067C120.448 75.7904 122.194 75.2134 123.88 74.5453C126.051 73.6797 128.131 72.6927 130.06 71.5843C138.533 66.6948 142.754 60.2565 142.739 53.8334L142.769 62.7468C142.785 69.1699 138.563 75.6082 130.09 80.4977C128.162 81.6213 126.081 82.6083 123.91 83.4587C122.224 84.1268 120.478 84.7038 118.686 85.2201C117.214 85.6301 115.725 86.0097 114.192 86.3134C112.78 86.6019 111.367 86.8449 109.925 87.0575C108.543 87.2549 107.146 87.4067 105.734 87.5282C104.322 87.6497 102.91 87.7256 101.482 87.756C100.009 87.7863 98.5364 87.7863 97.0635 87.7407C95.4691 87.68 93.8595 87.5737 92.2803 87.4219C90.4277 87.2397 88.5904 86.9815 86.7834 86.6627C83.9742 86.1616 81.2562 85.4782 78.6444 84.6431C75.2734 83.5498 72.115 82.168 69.2451 80.5128C69.0629 80.4065 68.8959 80.3155 68.7288 80.2092C66.6485 78.964 64.8415 77.6126 63.3079 76.1852C62.3057 75.259 61.4098 74.3023 60.6354 73.3153C59.9672 72.4801 59.3902 71.6146 58.9043 70.7491C58.4488 69.9443 58.0692 69.1243 57.7503 68.3044C57.4466 67.4996 57.2188 66.6948 57.0518 65.8748C56.8848 65.0548 56.7936 64.2197 56.7633 63.3997C56.7633 63.2782 56.7633 63.1416 56.7633 63.0201L56.7329 54.1067C56.7329 54.2433 56.7329 54.3648 56.7329 54.4863Z" fill="#3F0706"/>
<path d="M130.242 36.371C146.961 46.0892 146.854 61.8812 130.03 71.5994C113.205 81.3176 85.9182 81.3176 69.215 71.5994C52.4967 61.8812 52.5878 46.074 69.4124 36.371C86.237 26.6528 113.524 26.6528 130.242 36.371ZM129.073 71.0376C145.366 61.6383 145.457 46.3321 129.27 36.9328C113.084 27.5183 86.6622 27.5183 70.369 36.9328C54.0759 46.3321 54 61.6383 70.1868 71.0376C86.3585 80.4369 112.78 80.4521 129.073 71.0376Z" fill="white"/>
</svg>
