<svg width="89" height="135" viewBox="0 0 89 135" fill="none" xmlns="http://www.w3.org/2000/svg">
<path d="M42.1281 36.9163C42.1129 36.9012 42.0977 36.9011 42.0674 36.886C41.9003 36.7949 41.7333 36.7037 41.5511 36.643C41.5207 36.6278 41.4903 36.6278 41.4448 36.6127C41.3841 36.5975 41.3233 36.5671 41.2778 36.5519C41.1867 36.5215 41.1107 36.4912 41.0196 36.4608C40.9285 36.4304 40.8222 36.4153 40.7311 36.4001C40.6704 36.3849 40.6096 36.3697 40.5489 36.3545C40.5185 36.3545 40.4882 36.3393 40.4578 36.3393C40.2604 36.3089 40.0478 36.2786 39.8504 36.2634C39.8352 36.2634 39.82 36.2634 39.8048 36.2634C39.7593 36.2634 39.6986 36.2634 39.653 36.2634C39.5011 36.2634 39.3341 36.2482 39.1671 36.2634C39.1063 36.2634 39.0608 36.2786 39.0001 36.2786C38.8938 36.2786 38.8027 36.2938 38.6964 36.3089C38.6053 36.3241 38.5141 36.3241 38.4079 36.3393C38.3167 36.3545 38.2408 36.3849 38.1497 36.4001C38.0131 36.4304 37.8764 36.4608 37.7397 36.4912C37.6638 36.5064 37.5879 36.5215 37.512 36.5367C37.436 36.5519 37.3601 36.5975 37.2842 36.6127C37.0412 36.6886 36.8135 36.7645 36.5705 36.8556C36.4794 36.886 36.4035 36.9011 36.3124 36.9467C36.2668 36.9619 36.2061 36.9923 36.1605 37.0226C35.7353 37.2048 35.3102 37.4022 34.885 37.6604L10.3314 51.8429C9.78471 52.1618 9.26843 52.5262 8.75215 52.921C8.66105 52.9817 8.56994 53.0425 8.49401 53.1184C8.0081 53.498 7.52219 53.9232 7.06665 54.3787C7.0211 54.4091 6.99073 54.4395 6.94517 54.485C6.86925 54.5609 6.79333 54.6369 6.73259 54.7128C6.50482 54.9406 6.27705 55.1835 6.06446 55.4265C5.98854 55.5024 5.91262 55.5783 5.85188 55.6542C5.79114 55.715 5.7304 55.7909 5.68484 55.8668C5.54818 56.0187 5.4267 56.1857 5.29004 56.3527C5.19893 56.459 5.10783 56.5653 5.0319 56.6716C4.95598 56.7627 4.89524 56.8538 4.8345 56.945C4.74339 57.0664 4.65229 57.2031 4.54599 57.3246C4.48525 57.4157 4.40933 57.4916 4.34859 57.5827C4.2423 57.7346 4.13601 57.8864 4.02971 58.0534C3.96897 58.1445 3.89305 58.2508 3.83231 58.3419C3.80194 58.3875 3.77158 58.4179 3.75639 58.4634C3.57417 58.7519 3.40714 59.0404 3.22493 59.3289C3.20974 59.3441 3.20974 59.3745 3.19456 59.3897C3.16419 59.4504 3.13382 59.5112 3.08826 59.5719C2.96679 59.7693 2.86049 59.9819 2.73902 60.1945C2.69346 60.2856 2.63272 60.3919 2.58717 60.4982C2.54162 60.6045 2.48088 60.6956 2.43532 60.8019C2.38977 60.893 2.34421 60.9689 2.29866 61.06C2.17718 61.3029 2.07089 61.5459 1.9646 61.7888C1.94941 61.8344 1.91904 61.8648 1.90386 61.9103C1.90386 61.9255 1.88867 61.9255 1.88867 61.9407C1.75201 62.2444 1.63053 62.5481 1.50905 62.8518C1.49387 62.9125 1.4635 62.9733 1.44832 63.0188C1.40276 63.1251 1.37239 63.2466 1.32684 63.3529C1.2661 63.5047 1.22055 63.6566 1.15981 63.8084C1.11425 63.9299 1.08388 64.0514 1.05352 64.1729C1.00796 64.3095 0.962407 64.4462 0.932038 64.598C0.901668 64.6891 0.871299 64.7651 0.856114 64.8562C0.81056 65.008 0.780191 65.175 0.734637 65.3269C0.689083 65.4939 0.643529 65.6761 0.613159 65.8432C0.597975 65.9039 0.58279 65.9647 0.567606 66.0254C0.537236 66.1469 0.52205 66.2683 0.506865 66.405C0.461311 66.6783 0.400574 66.9516 0.370204 67.225C0.35502 67.3009 0.339834 67.3768 0.324649 67.4528C0.309465 67.5287 0.32465 67.5894 0.309466 67.6653C0.233542 68.2727 0.187988 68.8649 0.187988 69.4571L0.263911 98.2625C0.279095 101.299 1.34202 103.44 3.07308 104.458L18.774 113.584C17.043 112.582 15.9649 110.441 15.9649 107.388L15.889 78.5831C15.889 77.9909 15.9345 77.3987 16.0104 76.7913C16.0256 76.6547 16.0408 76.5028 16.056 76.3662C16.1015 76.0928 16.1471 75.8195 16.1927 75.5462C16.223 75.364 16.2534 75.1817 16.2989 74.9843C16.3445 74.8173 16.3901 74.6351 16.4204 74.4681C16.4812 74.2251 16.5419 73.9822 16.6178 73.7392C16.6634 73.6026 16.7089 73.4659 16.7393 73.314C16.8304 73.0407 16.9215 72.7674 17.0126 72.4941C17.0582 72.3878 17.0885 72.2663 17.1341 72.16C17.2708 71.7804 17.4226 71.416 17.5896 71.0363C17.6048 70.9908 17.62 70.9604 17.6504 70.9149C17.8022 70.5808 17.9541 70.2467 18.1211 69.9278C18.1667 69.8215 18.2274 69.7304 18.273 69.6242C18.4248 69.3205 18.5918 69.0016 18.774 68.6979C18.8044 68.6371 18.8348 68.5764 18.8652 68.5309C19.0626 68.1816 19.2903 67.8324 19.5029 67.4831C19.5637 67.392 19.6396 67.2857 19.7003 67.1946C19.8673 66.9517 20.0344 66.7087 20.2014 66.4657C20.2925 66.3443 20.3836 66.2076 20.4899 66.0861C20.6418 65.8887 20.7936 65.6913 20.9455 65.4939C21.0821 65.3269 21.2036 65.175 21.3403 65.008C21.4617 64.8562 21.5984 64.7195 21.7351 64.5676C21.9628 64.3247 22.1754 64.0817 22.4184 63.854C22.5247 63.7477 22.6461 63.6262 22.7524 63.5199C23.208 63.0644 23.6939 62.6544 24.1798 62.2596C24.2709 62.1989 24.362 62.1229 24.4379 62.0622C24.9542 61.6674 25.4857 61.303 26.0171 60.9993L50.5708 46.8167C51.0112 46.5586 51.4363 46.3612 51.8463 46.179C51.983 46.1182 52.1196 46.0727 52.2411 46.012C52.4841 45.9208 52.727 45.8298 52.9548 45.769C53.1066 45.7235 53.2585 45.6779 53.4103 45.6475C53.547 45.6172 53.6837 45.5868 53.8203 45.5564C54.0025 45.5261 54.1847 45.4957 54.367 45.4805C54.4733 45.4653 54.5796 45.4501 54.6707 45.4501C54.8984 45.4349 55.111 45.435 55.3236 45.435C55.3692 45.435 55.4299 45.435 55.4754 45.435C55.7336 45.4501 55.9765 45.4805 56.2195 45.5261C56.2802 45.5412 56.341 45.5564 56.4017 45.5716C56.5991 45.6172 56.7813 45.6627 56.9635 45.7386C57.0243 45.7538 57.085 45.7842 57.1306 45.7994C57.3583 45.8905 57.5861 45.9968 57.7987 46.1183L42.1281 36.9163Z" fill="#3F0706"/>
<path d="M50.5859 46.7408C56.2043 43.4913 60.7749 46.1031 60.79 52.5566L60.866 81.3619C60.8811 87.4813 56.5839 94.937 51.2389 98.0195L25.6527 112.794C20.3228 115.877 15.9952 113.402 15.98 107.282L15.9041 78.4768C15.8889 72.0081 20.4291 64.1577 26.0323 60.9082L50.5859 46.7408Z" fill="white"/>
<path d="M45.742 44.9035L45.6661 18.7403C45.6509 14.6708 44.2235 11.8312 41.8851 10.5102L35.8264 6.9873C38.1497 8.30837 39.5922 11.1631 39.6074 15.2174L39.6833 41.3806C39.6833 42.1095 39.9415 42.6106 40.3515 42.8536L46.4101 46.3764C46.0002 46.1334 45.742 45.6323 45.742 44.9035Z" fill="#3F0706"/>
<path d="M39.1064 1.42968C39.0761 1.4145 39.0457 1.39932 39.0153 1.36895C38.7268 1.2171 38.4383 1.06526 38.1498 0.943782C38.0891 0.913412 38.0283 0.898215 37.9828 0.88303C37.8917 0.852661 37.7854 0.807119 37.6943 0.776749C37.5424 0.731195 37.3906 0.655262 37.2387 0.624893C37.0717 0.579339 36.9046 0.548967 36.7376 0.503413C36.6313 0.473043 36.5402 0.457877 36.4339 0.427508C36.3732 0.412323 36.3276 0.397132 36.2669 0.397132C35.9328 0.336393 35.5684 0.290836 35.2191 0.275652C35.204 0.275652 35.1736 0.275652 35.1432 0.275652C35.0521 0.275652 34.9762 0.275652 34.8851 0.275652C34.6118 0.260467 34.3384 0.260467 34.0651 0.275652C33.974 0.275652 33.8677 0.290843 33.7766 0.306028C33.6096 0.321212 33.4274 0.336395 33.2603 0.35158C33.0933 0.366764 32.9414 0.381947 32.7744 0.397132C32.6378 0.412317 32.4859 0.457867 32.3341 0.488236C32.0911 0.53379 31.8633 0.579354 31.6204 0.640093C31.4989 0.670462 31.3622 0.685651 31.2408 0.716021C31.1193 0.74639 30.9826 0.807123 30.846 0.852677C30.436 0.974155 30.0412 1.11082 29.616 1.27785C29.4642 1.33859 29.3275 1.36894 29.1908 1.42968C29.0542 1.49042 28.9023 1.56635 28.7657 1.62709C28.629 1.68783 28.4923 1.74856 28.3557 1.8093C27.8242 2.05225 27.3079 2.32559 26.7613 2.62928C26.1994 2.94816 25.6528 3.3126 25.1061 3.67703C24.9239 3.79851 24.7569 3.93517 24.5747 4.05665C24.2102 4.31479 23.8458 4.5881 23.4814 4.87661C23.284 5.04364 23.0866 5.1955 22.8892 5.36253C22.5551 5.63586 22.2362 5.92436 21.9022 6.21287C21.7048 6.39509 21.5074 6.57731 21.31 6.75952C21.1885 6.881 21.067 6.98729 20.9455 7.10876C20.8241 7.23024 20.7026 7.38208 20.5811 7.50356C20.1863 7.89836 19.8067 8.30836 19.4271 8.73354C19.3056 8.8702 19.1689 8.99167 19.0626 9.12833C18.9563 9.24981 18.8652 9.37128 18.7741 9.47757C18.5464 9.7509 18.3186 10.0242 18.106 10.2976C17.9542 10.4798 17.8023 10.6468 17.6656 10.8442C17.5442 10.9961 17.4379 11.1479 17.3316 11.2997C17.1646 11.5123 17.0127 11.7401 16.8457 11.9527C16.7394 12.1045 16.6179 12.2564 16.5116 12.4082C16.3294 12.6664 16.1624 12.9245 15.9801 13.1978C15.8739 13.3648 15.7524 13.5319 15.6461 13.6989C15.6005 13.7748 15.555 13.8356 15.5094 13.9115C15.2057 14.3974 14.902 14.8833 14.6135 15.3844C14.5983 15.4148 14.5832 15.4451 14.5528 15.4755C14.492 15.5666 14.4465 15.6729 14.3858 15.7792C14.1884 16.1285 13.9758 16.4929 13.7936 16.8422C13.7024 17.0092 13.6265 17.1762 13.5354 17.3433C13.4443 17.5103 13.3532 17.6925 13.2621 17.8747C13.1862 18.0266 13.1102 18.1784 13.0343 18.3302C12.8369 18.7402 12.6547 19.135 12.4725 19.545C12.4421 19.621 12.3966 19.6969 12.3662 19.7728C12.351 19.788 12.351 19.8184 12.3358 19.8335C12.1081 20.3498 11.8955 20.8661 11.6981 21.3976C11.6677 21.4887 11.6373 21.5798 11.5918 21.6861C11.5158 21.8835 11.4551 22.0657 11.3792 22.2631C11.2881 22.5212 11.1818 22.7794 11.0907 23.0527C11.0299 23.2501 10.9692 23.4627 10.9085 23.6601C10.8325 23.903 10.7566 24.1308 10.6959 24.3737C10.6503 24.5256 10.6048 24.6774 10.5592 24.8293C10.4833 25.0874 10.4377 25.3608 10.3618 25.6189C10.2859 25.9226 10.21 26.2111 10.1492 26.5148C10.1189 26.6211 10.0885 26.7274 10.0733 26.8337C10.0277 27.0463 9.99738 27.2589 9.96701 27.4714C9.8759 27.9422 9.79998 28.3977 9.72405 28.8533C9.70887 28.9899 9.6785 29.1114 9.66332 29.248C9.63295 29.5366 9.60258 29.8099 9.57221 30.0984C9.55702 30.311 9.52665 30.5084 9.51147 30.721C9.46592 31.3739 9.43555 32.0117 9.43555 32.6342L9.51147 58.7975C9.51147 59.5111 9.76961 60.0122 10.1796 60.2552L16.2383 63.778C15.8283 63.5351 15.5702 63.034 15.5702 62.3203L15.4942 36.1571C15.4942 35.5193 15.5246 34.8816 15.5702 34.2438C15.5853 34.0464 15.6157 33.8338 15.6309 33.6364C15.6765 33.2264 15.722 32.8013 15.7827 32.3913C15.8435 31.9357 15.9346 31.465 16.0257 31.0095C16.0864 30.6906 16.1472 30.3717 16.2079 30.0528C16.2687 29.7491 16.3446 29.4606 16.4205 29.1569C16.5268 28.747 16.6331 28.337 16.7546 27.9118C16.8305 27.6688 16.8912 27.4411 16.9672 27.1981C17.119 26.7274 17.2708 26.2718 17.4379 25.8011C17.4986 25.6189 17.5745 25.4215 17.6353 25.2393C17.8782 24.6015 18.1364 23.9638 18.4097 23.326C18.4401 23.2501 18.4856 23.1742 18.516 23.0982C18.7589 22.5364 19.0323 21.9746 19.3056 21.4279C19.3967 21.2609 19.4726 21.0787 19.5637 20.9116C19.8371 20.3802 20.1104 19.8639 20.4141 19.3476C20.4748 19.2413 20.5204 19.1502 20.5811 19.0439C20.9304 18.4365 21.2948 17.8443 21.6744 17.2673C21.7807 17.1003 21.9022 16.9333 22.0085 16.7662C22.2818 16.3411 22.5703 15.9311 22.874 15.5211C23.0258 15.2933 23.1929 15.0807 23.3599 14.8681C23.618 14.5341 23.8762 14.2 24.1495 13.8659C24.3773 13.5926 24.5899 13.3193 24.8176 13.046C25.0302 12.7878 25.258 12.5449 25.4858 12.3019C25.8654 11.8768 26.245 11.4668 26.6398 11.072C26.8828 10.829 27.1257 10.5709 27.3839 10.3279C27.5813 10.1457 27.7787 9.96348 27.9761 9.78126C28.2949 9.49275 28.629 9.20425 28.9631 8.91574C29.1605 8.74871 29.3579 8.58167 29.5553 8.42982C29.9197 8.14131 30.2841 7.868 30.6486 7.60986C30.8308 7.48838 30.9978 7.35172 31.18 7.23024C31.7267 6.85063 32.2733 6.50137 32.8352 6.1825C33.3666 5.8788 33.8981 5.60549 34.4295 5.36253C34.5662 5.30179 34.7029 5.24104 34.8395 5.1803C35.128 5.04364 35.4165 4.95254 35.7051 4.83106C36.115 4.67921 36.525 4.52737 36.935 4.40589C37.1932 4.32997 37.4513 4.25404 37.7094 4.1933C37.9524 4.13257 38.1802 4.087 38.4231 4.04145C38.7268 3.98071 39.0457 3.93516 39.3342 3.90479C39.5164 3.88961 39.6834 3.85924 39.8505 3.85924C40.2301 3.82887 40.5945 3.82888 40.959 3.84406C41.0501 3.84406 41.126 3.84406 41.2171 3.84406C41.6575 3.87443 42.0826 3.91999 42.4926 4.0111C42.5989 4.02628 42.69 4.05663 42.7963 4.087C43.1304 4.16292 43.4341 4.25404 43.7529 4.36034C43.8441 4.39071 43.9503 4.42106 44.0415 4.46662C44.4363 4.61846 44.8159 4.80068 45.1803 5.01327L39.1064 1.42968Z" fill="#3F0706"/>
<path d="M32.8198 6.16733C42.4165 0.624913 50.2214 5.07402 50.2518 16.0981L50.3277 42.2613C50.3277 43.719 49.3104 45.4653 48.05 46.2093C46.7897 46.9382 45.7571 46.3612 45.7571 44.9035L45.6812 18.7402C45.666 14.6707 44.2387 11.8312 41.9002 10.5101C39.577 9.18908 36.373 9.38647 32.835 11.4212C29.2969 13.4711 26.1081 16.9484 23.8001 20.9572C21.492 24.966 20.0646 29.4606 20.0798 33.5149L20.1557 59.6782C20.1557 61.1359 19.1384 62.8973 17.878 63.6262C16.6177 64.3551 15.5852 63.778 15.5852 62.3203L15.5092 36.1571C15.4637 25.133 23.2231 11.7097 32.8198 6.16733Z" fill="white"/>
<path d="M39.364 67.9994C43.1146 65.828 46.1667 67.5894 46.1667 71.8867C46.1819 75.1058 44.4812 78.8565 42.0517 81.453L42.082 93.206C42.082 94.9522 40.8673 97.0629 39.364 97.9284C37.8455 98.8091 36.6155 98.1106 36.6155 96.3644L36.5852 84.5355C34.2316 84.6418 32.6068 82.8804 32.5916 79.7372C32.5764 75.4247 35.5982 70.1708 39.364 67.9994Z" fill="#3F0706"/>
<path d="M79.2547 100.419C78.9966 100.267 78.7385 100.145 78.4499 100.039C78.4348 100.039 78.4196 100.024 78.4044 100.024C78.3588 100.009 78.3133 99.9936 78.2677 99.9784C78.1007 99.9176 77.9337 99.8569 77.7666 99.8113C77.6755 99.7809 77.5844 99.7658 77.4933 99.7506C77.4478 99.7354 77.387 99.7202 77.3415 99.7051C77.2959 99.6899 77.2504 99.6747 77.1896 99.6747C77.0074 99.6443 76.8252 99.5987 76.643 99.5836C76.5822 99.5684 76.5215 99.5684 76.4456 99.5684C76.4 99.5684 76.3545 99.5532 76.3089 99.5532C76.233 99.5532 76.1723 99.538 76.0963 99.5228C75.9141 99.5077 75.7319 99.4924 75.5497 99.4924C75.4889 99.4924 75.4434 99.4924 75.3826 99.4924C75.3371 99.4924 75.2764 99.4924 75.2308 99.4924C75.1397 99.4924 75.0638 99.4924 74.9727 99.4924C74.7601 99.4924 74.5627 99.5076 74.3653 99.538C74.3501 99.538 74.3197 99.538 74.3045 99.5532C74.2438 99.5532 74.1982 99.5684 74.1375 99.5684C73.9857 99.5836 73.8186 99.5987 73.6668 99.6291C73.5908 99.6443 73.5301 99.6595 73.4694 99.6747C73.2872 99.7202 73.1049 99.7658 72.9227 99.8113C72.8316 99.8417 72.7253 99.8569 72.6342 99.8873C72.5887 99.9024 72.5583 99.9328 72.5127 99.948C72.1179 100.085 71.7535 100.236 71.4194 100.434C71.4043 100.449 71.3739 100.464 71.3587 100.479C71.2524 100.54 71.1765 100.616 71.0854 100.677C70.9487 100.768 70.8121 100.859 70.6906 100.965C70.6754 100.981 70.6602 100.981 70.6602 100.996C70.5235 101.117 70.4173 101.239 70.311 101.36C70.2806 101.391 70.2654 101.421 70.2502 101.451C70.235 101.482 70.2047 101.512 70.1895 101.542C70.1591 101.588 70.1136 101.649 70.0832 101.694C70.0224 101.801 69.9769 101.907 69.9313 102.013C69.9313 102.028 69.9162 102.043 69.9162 102.059C69.9162 102.074 69.901 102.104 69.901 102.119C69.8858 102.18 69.8554 102.256 69.8402 102.317C69.825 102.423 69.8099 102.529 69.8099 102.636C69.8099 102.651 69.8099 102.666 69.8099 102.681L69.7947 107.753C69.7947 107.556 69.825 107.373 69.8858 107.176C69.8858 107.161 69.901 107.13 69.901 107.115C69.9617 106.933 70.0528 106.766 70.1591 106.599C70.1743 106.569 70.2047 106.538 70.2198 106.508C70.3413 106.341 70.4932 106.174 70.6602 106.022C70.7665 105.916 70.9183 105.824 71.055 105.733C71.1765 105.657 71.2676 105.566 71.3891 105.49C71.7231 105.293 72.1028 105.141 72.4824 105.004C72.619 104.959 72.7557 104.913 72.9075 104.883C73.0898 104.837 73.272 104.777 73.4542 104.746C73.682 104.701 73.8945 104.655 74.1375 104.625C74.1982 104.625 74.2438 104.61 74.3045 104.61C74.6082 104.579 74.9271 104.564 75.2308 104.564C75.2764 104.564 75.3371 104.564 75.3826 104.564C75.6863 104.564 75.99 104.579 76.3089 104.61C76.3545 104.61 76.4 104.625 76.4456 104.625C76.7493 104.655 77.0378 104.716 77.3415 104.777C77.4022 104.792 77.4478 104.807 77.4933 104.822C77.7515 104.883 78.0096 104.974 78.2677 105.05C78.3133 105.065 78.3588 105.08 78.4044 105.096C78.7081 105.217 78.9814 105.339 79.2547 105.49C80.348 106.128 80.8947 106.948 80.8947 107.783L80.9099 102.712C80.8947 101.876 80.348 101.041 79.2547 100.419Z" fill="#F79009"/>
<path d="M59.3932 108.679L59.3781 113.751C58.3303 112.506 57.7989 111.139 57.814 109.788L57.8292 104.716C57.814 106.067 58.3455 107.434 59.3932 108.679Z" fill="#F79009"/>
<path d="M67.2737 113.037L67.2585 118.109L66.1956 118.731L66.2107 113.66L67.2737 113.037Z" fill="white"/>
<path d="M88.8062 105.278C88.791 105.445 88.7758 105.612 88.7455 105.764C88.7151 105.9 88.6847 106.022 88.6392 106.159C88.5936 106.31 88.5633 106.462 88.5025 106.629C88.457 106.751 88.3962 106.887 88.3355 107.009C88.2596 107.176 88.1988 107.328 88.1077 107.495C88.047 107.616 87.971 107.723 87.8951 107.844C87.7888 108.026 87.6674 108.208 87.5307 108.391C87.4548 108.497 87.3637 108.603 87.2726 108.71C87.0752 108.953 86.8474 109.18 86.6196 109.423C86.5285 109.514 86.4526 109.59 86.3615 109.681C86.2096 109.818 86.0426 109.94 85.8907 110.076C85.7541 110.198 85.6174 110.304 85.4504 110.425C85.2682 110.547 85.086 110.668 84.8886 110.79C84.6912 110.911 84.5089 111.048 84.2964 111.169C83.7497 111.488 83.1575 111.777 82.5501 112.035C82.3527 112.126 82.1249 112.187 81.9275 112.278C81.5327 112.43 81.1228 112.582 80.7128 112.718C79.8776 112.976 79.0121 113.189 78.1314 113.356C77.6606 113.447 77.1899 113.508 76.704 113.569C76.4914 113.599 76.294 113.629 76.0814 113.66C75.4133 113.736 74.73 113.766 74.0467 113.781C73.8948 113.781 73.743 113.781 73.5911 113.781C73.0445 113.781 72.4827 113.781 71.936 113.751C71.7842 113.736 71.6171 113.736 71.4653 113.72C70.8123 113.675 70.1442 113.599 69.5065 113.508C69.385 113.493 69.2635 113.462 69.142 113.447C68.5043 113.341 67.8665 113.219 67.2439 113.068L67.2288 118.139C67.5173 118.215 67.821 118.276 68.1247 118.337C68.4587 118.413 68.7928 118.458 69.142 118.519C69.2635 118.534 69.385 118.564 69.5065 118.58C69.552 118.58 69.5976 118.595 69.6583 118.61C70.1594 118.686 70.6605 118.731 71.1616 118.777C71.2679 118.792 71.3742 118.792 71.4653 118.792C71.6171 118.807 71.7842 118.807 71.936 118.823C72.179 118.838 72.4371 118.853 72.6801 118.868C72.9838 118.883 73.2875 118.868 73.5911 118.868C73.743 118.868 73.8948 118.868 74.0467 118.868C74.1226 118.868 74.1985 118.868 74.2593 118.868C74.8363 118.853 75.4133 118.807 75.9751 118.747C76.0055 118.747 76.0359 118.731 76.0662 118.731C76.2788 118.716 76.4762 118.671 76.6888 118.64C77.114 118.58 77.5392 118.534 77.9492 118.458C78.0099 118.443 78.0554 118.428 78.1162 118.413C79.0121 118.246 79.8624 118.033 80.6976 117.775C80.7583 117.76 80.8039 117.744 80.8646 117.729C81.229 117.608 81.5783 117.471 81.9275 117.334C82.1401 117.259 82.3527 117.183 82.5501 117.091C83.1575 116.833 83.7497 116.545 84.2964 116.226C84.3571 116.196 84.4178 116.15 84.4786 116.12C84.6152 116.029 84.7367 115.937 84.8734 115.862C85.0556 115.74 85.253 115.619 85.4352 115.482C85.5871 115.376 85.7237 115.254 85.8604 115.148C86.0274 115.011 86.1944 114.89 86.3311 114.753C86.3615 114.723 86.3918 114.707 86.4222 114.677C86.4829 114.616 86.5285 114.556 86.5892 114.51C86.8322 114.282 87.0448 114.039 87.2422 113.796C87.2877 113.751 87.3485 113.69 87.3789 113.645C87.4244 113.599 87.4396 113.538 87.4851 113.493C87.6218 113.311 87.7433 113.128 87.8496 112.946C87.8951 112.87 87.9559 112.794 88.0014 112.718C88.0166 112.673 88.0318 112.642 88.0622 112.597C88.1533 112.43 88.214 112.278 88.2899 112.111C88.3355 112.02 88.381 111.929 88.4266 111.838C88.4418 111.807 88.4418 111.777 88.457 111.746C88.5177 111.595 88.5481 111.443 88.5936 111.276C88.624 111.169 88.6695 111.063 88.6847 110.957C88.6847 110.927 88.6847 110.896 88.6999 110.866C88.7303 110.699 88.7455 110.547 88.7607 110.38C88.7758 110.274 88.791 110.167 88.791 110.061C88.791 110.015 88.791 109.97 88.791 109.924L88.8062 104.853C88.8518 104.974 88.8214 105.126 88.8062 105.278Z" fill="#FAD2D4"/>
<path d="M67.4559 117.198L67.4407 122.269L61.625 121.541L61.6402 116.469L67.4559 117.198Z" fill="#FAD2D4"/>
<path d="M62.8404 119.885L62.8252 124.957L56.7817 124.198L56.7969 119.126L62.8404 119.885Z" fill="#FAD2D4"/>
<path d="M56.7964 119.126L56.7812 124.198L50.2366 127.994L50.2518 122.922L56.7964 119.126Z" fill="#FAD2D4"/>
<path d="M51.5121 126.46L51.4969 131.532L45.4382 130.788L45.4534 125.716L51.5121 126.46Z" fill="#FAD2D4"/>
<path d="M33.746 128.04L33.7309 133.111L32.9109 129.133L32.9261 124.061L33.746 128.04Z" fill="#FAD2D4"/>
<path d="M84.3413 111.124C79.7404 113.796 72.9376 114.434 67.2738 113.037L66.1956 113.66L67.456 117.198L61.6402 116.469L62.855 119.87L56.8115 119.111L50.2669 122.922L51.5272 126.46L45.4685 125.701L46.6985 129.254L40.655 128.495L33.7611 128.024L32.9412 124.046L59.4081 108.664C56.5989 105.323 57.5555 101.178 62.3387 98.3991C68.367 94.8914 78.1915 94.8914 84.2806 98.3991C90.3545 101.922 90.3849 107.616 84.3413 111.124ZM71.4495 104.959C73.6209 106.219 77.1286 106.219 79.2848 104.959C81.4562 103.699 81.4259 101.664 79.2545 100.419C77.0831 99.1584 73.5754 99.1584 71.4192 100.419C69.2629 101.664 69.2781 103.699 71.4495 104.959Z" fill="#3F0706"/>
<path d="M40.64 128.51L33.7461 128.04L33.731 133.111L40.6248 133.582L46.6683 134.341L46.6835 129.27L40.64 128.51Z" fill="#FAD2D4"/>
</svg>
