<svg width="127" height="154" viewBox="0 0 127 154" fill="none" xmlns="http://www.w3.org/2000/svg">
<path d="M45.171 47.9661L39.7197 46.3414C39.7197 46.3414 33.9951 49.1202 31.7326 48.8165C31.7326 48.8165 31.6718 46.645 35.7109 45.734L36.3487 45.4758C36.3487 45.4758 37.609 43.3196 34.8302 42.7578C32.3248 42.2415 26.0535 40.3282 26.0535 40.3282C26.0535 40.3282 24.8691 38.1416 35.0428 40.313C35.0428 40.313 26.6609 38.415 26.919 37.2154C27.1923 36.0158 34.9062 38.1872 34.9062 38.1872C34.9062 38.1872 28.8323 35.8639 28.4982 34.9073C28.1642 33.9506 36.212 36.4258 36.212 36.4258C36.212 36.4258 32.4159 34.6795 32.1122 33.1762C31.854 31.9159 38.2772 35.0591 40.3119 36.0765C40.7219 36.2739 41.0711 36.5776 41.3445 36.942L46.8565 44.1851L45.171 47.9661Z" fill="#FDBBA5"/>
<path d="M97.4362 31.3996C95.2496 32.4018 87.4143 52.3089 81.9478 62.1486C81.9478 62.1486 76.4965 74.1293 83.5878 73.5827C90.6639 73.036 105.833 50.4868 105.833 50.4868C105.833 50.4868 105.12 30.0937 97.4362 31.3996Z" fill="#F1AEB5"/>
<path d="M57.3344 132.94V136.159C57.3344 136.159 56.9396 139.393 52.9308 139.621C51.792 139.682 45.551 136.599 41.9067 133.957C41.3297 133.532 39.7353 131.862 41.6941 130.434C43.6833 128.976 46.6443 129.751 49.4231 131.026L57.3344 132.94Z" fill="white"/>
<path d="M58.0781 131.239V135.111C58.0781 135.111 57.6074 138.983 52.809 139.256C51.4424 139.332 43.9564 135.627 39.5832 132.454C38.8999 131.953 36.9866 129.948 39.325 128.217C41.709 126.471 45.2622 127.397 48.5877 128.931L58.0781 131.239Z" fill="#3F0706"/>
<path d="M48.1316 133.198L50.6675 88.5851L62.4052 96.8456C62.4052 96.8456 63.4074 105.577 62.4052 112.046C61.403 118.529 57.9257 135.597 57.9257 135.597C57.9257 135.597 51.0774 139.348 48.1316 133.198Z" fill="#C55D02"/>
<path d="M39.1268 143.523V146.743C39.1268 146.743 38.7321 149.977 34.7233 150.205C33.5844 150.265 27.3435 147.183 23.6992 144.541C23.1222 144.116 21.5278 142.46 23.4866 141.018C25.4758 139.56 28.4368 140.335 31.2156 141.61L39.1268 143.523Z" fill="white"/>
<path d="M39.7651 145.3V149.172C39.7651 149.172 39.2944 153.044 34.4961 153.318C33.1294 153.393 25.6434 149.688 21.2702 146.515C20.5869 146.014 18.6736 144.009 21.012 142.278C23.396 140.532 26.9493 141.458 30.2747 142.992L39.7651 145.3Z" fill="#3F0706"/>
<path d="M29.5613 143.797L32.0971 99.1841L43.8349 107.445C43.8349 107.445 44.8371 116.176 43.8349 122.644C42.8327 129.128 39.3402 146.196 39.3402 146.196C39.3402 146.196 32.5071 149.947 29.5613 143.797Z" fill="#C55D02"/>
<path d="M43.485 114.612C43.5002 114.657 43.5002 114.688 43.5154 114.733C43.6369 115.098 43.8343 115.447 44.0621 115.796C44.1076 115.857 44.138 115.918 44.1836 115.978C44.4265 116.328 44.7302 116.662 45.0794 116.981C45.3072 117.193 45.5957 117.375 45.8691 117.573C46.112 117.74 46.3094 117.922 46.5675 118.074V119.456C46.522 119.425 46.4764 119.395 46.4309 119.38C46.2183 119.243 46.0665 119.106 45.8691 118.955C45.5957 118.757 45.3072 118.575 45.0643 118.362C45.0491 118.347 45.0035 118.332 44.9883 118.302C44.715 118.059 44.4872 117.8 44.2898 117.542C44.2443 117.482 44.2139 117.421 44.1684 117.36C44.1228 117.299 44.0773 117.239 44.0469 117.178C43.971 117.072 43.895 116.965 43.8343 116.874C43.7128 116.662 43.6065 116.449 43.5306 116.221C43.5154 116.191 43.5154 116.161 43.5002 116.115C43.4851 116.069 43.4851 116.039 43.4699 115.994C43.4243 115.857 43.3788 115.72 43.3484 115.584C43.3028 115.371 43.2876 115.143 43.2725 114.931C43.2725 114.9 43.2725 114.87 43.2725 114.824V113.442C43.3028 113.822 43.3636 114.217 43.485 114.612Z" fill="url(#paint0_linear_1_22276)"/>
<path d="M95.9177 128.232V129.614C105.499 124.072 110.298 116.813 110.267 109.555V108.173C110.282 115.432 105.499 122.705 95.9177 128.232Z" fill="#858585"/>
<path d="M46.5981 118.059V119.44L79.6552 138.649L79.64 137.267L46.5981 118.059Z" fill="url(#paint1_linear_1_22276)"/>
<path d="M80.2622 137.267V138.649L95.9176 129.614V128.232L80.2622 137.267Z" fill="#898989"/>
<path d="M79.6394 137.267V138.649C79.6698 138.664 79.7001 138.679 79.7305 138.695V137.313C79.7001 137.298 79.6698 137.282 79.6394 137.267Z" fill="#B8B8B8"/>
<path d="M79.7451 137.313V138.695C79.7755 138.71 79.8059 138.71 79.8211 138.71V137.328C79.7907 137.328 79.7603 137.313 79.7451 137.313Z" fill="#B3B3B3"/>
<path d="M79.8215 137.328V138.71C79.8367 138.71 79.8519 138.71 79.8823 138.725V137.343C79.8671 137.343 79.8367 137.328 79.8215 137.328Z" fill="#ADADAD"/>
<path d="M79.8826 137.343V138.725C79.8978 138.725 79.9129 138.725 79.9281 138.725V137.343C79.9129 137.343 79.8978 137.343 79.8826 137.343Z" fill="#A8A8A8"/>
<path d="M79.9272 137.343V138.725C79.9424 138.725 79.9576 138.725 79.9728 138.725V137.343C79.9576 137.343 79.9424 137.343 79.9272 137.343Z" fill="#A3A3A3"/>
<path d="M79.9736 137.343V138.725C79.9888 138.725 80.004 138.725 80.0192 138.725V137.343C80.004 137.343 79.9888 137.343 79.9736 137.343Z" fill="#9E9E9E"/>
<path d="M80.019 137.343V138.725C80.0342 138.725 80.0494 138.725 80.0646 138.725V137.343C80.0494 137.343 80.0342 137.343 80.019 137.343Z" fill="#999999"/>
<path d="M80.0647 137.343V138.725C80.0799 138.725 80.0951 138.725 80.1102 138.725V137.343C80.0951 137.328 80.0799 137.328 80.0647 137.343Z" fill="#949494"/>
<path d="M80.0947 137.328V138.71C80.1099 138.71 80.1251 138.71 80.1403 138.695V137.313C80.1251 137.328 80.1099 137.328 80.0947 137.328Z" fill="#8F8F8F"/>
<path d="M80.1411 137.313V138.695C80.1563 138.695 80.1715 138.679 80.1867 138.679V137.298C80.1867 137.313 80.1715 137.313 80.1411 137.313Z" fill="#8A8A8A"/>
<path d="M80.2014 137.298V138.679C80.2166 138.664 80.247 138.664 80.2622 138.649V137.267C80.247 137.282 80.2166 137.298 80.2014 137.298Z" fill="#858585"/>
<path d="M46.674 108.735C42.1945 111.317 42.1793 115.492 46.6132 118.074L79.6551 137.282C79.8222 137.374 80.0955 137.374 80.2777 137.282L95.9331 128.248C114.99 117.254 115.081 99.4118 96.1609 88.4029L89.0544 84.2727L46.674 108.735Z" fill="#F79009"/>
<path d="M98.6967 31.8552C93.215 29.9419 83.6183 40.0397 73.4445 44.8836C73.4445 44.8836 74.0064 46.0832 45.9299 43.3196L41.6934 47.8143C41.6934 47.8143 58.6243 54.617 69.3902 55.6496C74.9023 57.2288 88.2193 53.9944 95.4927 51.9597C100.094 50.6842 103.708 46.888 104.345 42.1504C104.801 38.7338 104.254 33.814 98.6967 31.8552Z" fill="#930309"/>
<path d="M48.6631 43.5777C47.7976 43.5018 46.9017 43.4259 45.945 43.3348L41.7085 47.8294C41.7085 47.8294 42.7107 48.2242 44.3658 48.8468L48.6631 43.5777Z" fill="#F0EEEA"/>
<path d="M52.3836 83.0124C52.3684 83.0124 52.3533 83.0124 52.3381 83.0124C52.4444 82.8605 52.581 82.7239 52.7025 82.572C52.748 82.5113 52.7936 82.4506 52.8543 82.3898C53.1732 82.0406 53.5225 81.7369 53.8869 81.4484C53.9628 81.3876 54.0236 81.3421 54.0995 81.2965C54.4639 81.0384 54.8587 80.8106 55.2687 80.6436C55.3446 80.6132 55.4206 80.5828 55.4965 80.5525C55.9217 80.4006 56.362 80.2791 56.8176 80.2336C56.8783 80.2336 56.939 80.2336 56.9846 80.2336C57.4705 80.2032 57.9716 80.2184 58.4727 80.3247C87.8855 86.763 57.8349 79.7628 103.617 91.3184C103.617 91.3184 105.636 110.694 102.265 111.028C97.6796 111.484 51.0474 98.106 50.5766 88.6915C50.4855 86.6567 51.1992 84.5916 52.3836 83.0124Z" fill="#C55D02"/>
<path d="M34.3444 92.9128C34.6633 92.5484 35.0277 92.2295 35.4225 91.941C35.544 91.8499 35.6806 91.7739 35.8173 91.6828C36.0906 91.5006 36.3791 91.3336 36.6828 91.2121C36.8499 91.1362 37.0017 91.0754 37.1688 91.0299C37.4724 90.9236 37.7761 90.8629 38.095 90.8021C38.262 90.7718 38.4291 90.7414 38.5961 90.7262C38.672 90.7262 38.748 90.6958 38.8239 90.6958C38.8239 90.6958 38.9302 90.7262 39.1276 90.7566C39.4313 90.7718 39.735 90.7414 40.0387 90.8173C42.9238 91.4551 46.978 92.3965 51.4727 93.4746C60.7354 95.4942 72.6705 98.0452 78.4863 99.0778L78.6837 100.171C82.6165 101.158 85.1675 101.796 85.1675 101.796C85.1675 101.796 86.8379 121.08 83.4821 121.414C78.8963 121.87 32.5982 108.583 32.1274 99.1537C31.9908 96.8912 32.8715 94.5527 34.3444 92.9128Z" fill="#C55D02"/>
<path d="M79.321 103.117L79.2754 104.332C79.321 102.98 79.3817 102.1 79.3817 102.1L108.43 92.9887C108.43 92.9887 108.46 94.3553 108.445 96.3294C108.445 96.3445 108.445 96.3445 108.445 96.3597C108.445 96.3901 108.445 96.4508 108.445 96.466C108.445 96.6634 108.445 96.876 108.445 97.0886C108.445 97.286 108.445 97.4834 108.43 97.696C108.43 97.8782 108.43 98.0604 108.415 98.2578C108.415 98.6526 108.4 99.0474 108.385 99.4726C108.385 99.5941 108.369 99.7155 108.369 99.837C108.354 100.186 108.354 100.52 108.339 100.87C108.339 101.021 108.324 101.158 108.324 101.31C108.309 101.75 108.293 102.191 108.263 102.631C108.263 102.661 108.263 102.692 108.263 102.722C108.233 103.193 108.202 103.648 108.172 104.104C108.157 104.225 108.157 104.347 108.142 104.468C108.111 104.863 108.081 105.258 108.035 105.638C108.035 105.698 108.02 105.774 108.02 105.85C107.975 106.29 107.929 106.716 107.868 107.126C107.853 107.217 107.838 107.293 107.838 107.384C107.792 107.718 107.747 108.022 107.686 108.325C107.671 108.416 107.656 108.492 107.64 108.583C107.58 108.933 107.504 109.267 107.428 109.555C107.413 109.601 107.398 109.646 107.382 109.692C107.322 109.935 107.246 110.147 107.17 110.345C107.139 110.406 107.124 110.466 107.094 110.527C107.003 110.74 106.896 110.922 106.79 111.059C106.699 111.226 106.578 111.423 106.441 111.62C106.395 111.681 106.335 111.757 106.289 111.833C106.183 111.97 106.076 112.121 105.955 112.273C105.879 112.364 105.788 112.455 105.712 112.562C105.591 112.698 105.454 112.85 105.317 113.002C105.211 113.108 105.089 113.23 104.983 113.336C104.831 113.488 104.695 113.625 104.528 113.777C104.391 113.898 104.254 114.02 104.118 114.141C103.951 114.293 103.784 114.429 103.601 114.581C103.449 114.718 103.282 114.839 103.115 114.976C102.933 115.128 102.736 115.28 102.538 115.417C102.356 115.553 102.159 115.69 101.977 115.826C101.764 115.978 101.551 116.115 101.324 116.267C101.111 116.404 100.914 116.54 100.686 116.677C100.458 116.829 100.215 116.965 99.9722 117.102C99.7444 117.239 99.5167 117.36 99.2737 117.497C99.0156 117.633 98.7574 117.77 98.4841 117.907C98.226 118.028 97.983 118.165 97.7249 118.286C97.4516 118.423 97.163 118.545 96.8745 118.666C96.6012 118.787 96.3279 118.909 96.0394 119.015C95.7508 119.137 95.432 119.243 95.1283 119.365C94.8398 119.471 94.5513 119.577 94.2476 119.683C93.9287 119.79 93.5946 119.896 93.2606 119.987C92.9569 120.078 92.6532 120.185 92.3343 120.26C91.985 120.352 91.6206 120.443 91.2714 120.519C90.9525 120.594 90.6336 120.67 90.2995 120.746C89.9199 120.822 89.5099 120.883 89.1151 120.944C88.7963 121.004 88.4774 121.065 88.1433 121.111C87.6878 121.172 87.2171 121.217 86.7463 121.247C86.4578 121.278 86.1845 121.308 85.8808 121.339H85.8656C85.0912 121.384 84.3016 121.414 83.4816 121.414C79.564 121.597 79.1692 111.59 79.2603 105.911C79.4729 104.787 79.321 103.117 79.321 103.117Z" fill="url(#paint2_linear_1_22276)"/>
<path d="M67.8414 48.6494C67.8414 48.6494 76.5119 39.9182 97.4364 31.4148C99.6685 32.3259 107.003 47.7232 108.385 66.6585C110.419 94.2339 108.597 94.9779 108.597 94.9779C108.597 94.9779 101.855 106.002 87.2929 107.369C79.5639 108.097 76.5119 100.794 76.5119 100.794C76.6637 101.113 77.0889 101.325 73.5053 74.6912C71.8198 62.0423 63.9996 54.8751 67.8414 48.6494Z" fill="#930309"/>
<path d="M76.6641 111.119C76.7096 111.483 76.7399 111.711 76.7399 111.711C76.7248 111.514 76.6944 111.316 76.6641 111.119Z" fill="#1D2226"/>
<path d="M88.4324 7.84815C88.4324 7.84815 93.9748 32.4777 78.9875 31.7185L75.6013 16.8223L88.4324 7.84815Z" fill="#FDBBA5"/>
<path d="M81.7359 65.6259C91.8641 106.913 84.8791 104.499 86.5039 107.414C86.762 107.414 87.0202 107.399 87.2935 107.369C101.871 106.002 108.598 94.9779 108.598 94.9779C108.598 94.9779 108.977 94.1428 108.385 66.6585C107.975 47.6776 99.6691 32.3259 97.4369 31.4148C84.4084 36.7143 76.1328 42.0896 71.7444 45.3999C74.0676 47.0702 78.3649 51.9141 81.7359 65.6259Z" fill="#930309"/>
<path d="M74.3252 33.5103C74.3252 33.5103 78.8806 36.8813 77.2558 43.0615L90.4513 36.3043C90.4513 36.3043 87.7484 31.2022 88.8266 23.8376C89.191 20.3755 74.3252 33.5103 74.3252 33.5103Z" fill="#EDA790"/>
<path d="M74.7808 42.7122C74.7808 42.7122 81.0065 45.6125 87.5055 42.1504C92.8809 39.2805 91.3321 35.1047 91.3321 35.1047L89.1607 32.5233C89.1607 32.5233 90.2236 35.788 85.8504 37.762C80.6421 40.1156 76.4511 38.2783 76.4511 38.2783L74.7808 42.7122Z" fill="#F0EEEA"/>
<path d="M15.257 64.0012H7.8772C7.8772 64.0012 0.254493 60.9187 1.62112 60.2505C2.98774 59.5824 6.70797 61.5109 6.70797 61.5109C6.70797 61.5109 -0.185859 56.6821 0.770776 56.3481C1.72741 56.0292 7.285 59.4002 7.285 59.4002C7.285 59.4002 0.831511 54.6322 1.62112 53.6907C2.39553 52.7493 9.04643 58.2006 9.04643 58.2006C1.10483 51.489 3.77734 50.0009 3.77734 50.0009C3.77734 50.0009 8.1809 53.9944 10.8534 56.5303C12.7211 58.2917 13.9359 56.0747 13.9359 56.0747L13.7385 55.4066C11.9771 51.6408 13.7385 50.3653 13.7385 50.3653C15.3481 51.9749 16.6691 58.2006 16.6691 58.2006L21.3005 61.5109L15.257 64.0012Z" fill="#FDBBA5"/>
<path d="M60.4768 12.1302C60.4768 12.1302 62.0256 19.1456 64.273 24.3084C67.0973 30.8074 69.8609 37.8531 71.8198 37.8987C73.7938 37.9442 76.3448 38.1264 79.154 34.558L78.2884 18.4623L60.4768 12.1302Z" fill="#FDBBA5"/>
<path d="M78.9415 30.6404L77.7419 28.879C76.846 38.9616 71.334 37.762 71.334 37.762C71.501 37.8531 71.668 37.8987 71.8047 37.8987C73.7787 37.9442 76.3297 38.1264 79.1389 34.558L78.9415 30.6404Z" fill="#EDA790"/>
<path d="M87.9613 5.3275C82.1759 -1.65745 67.4923 -2.62929 59.7178 8.18221C55.1927 17.6726 65.0476 17.6878 67.2494 18.8874C69.4512 20.087 72.731 31.4755 75.5706 24.5361C75.7983 24.6728 77.6661 31.3692 79.9134 33.3736C82.0089 35.2413 86.4732 32.8877 88.7509 30.1393C92.4712 25.6902 89.9657 7.75705 87.9613 5.3275Z" fill="#3F0706"/>
<path d="M78.562 25.8116C78.7898 27.2694 77.8636 28.0286 76.4666 27.4971C75.0696 26.9657 73.7485 25.3409 73.5207 23.8832C73.293 22.4255 74.2192 21.6662 75.6162 22.1977C77.0132 22.7291 78.3342 24.3387 78.562 25.8116Z" fill="#FDBBA5"/>
<path d="M77.3319 25.3409C77.4534 26.085 76.9675 26.4798 76.2538 26.2065C75.5401 25.9331 74.872 25.1132 74.7506 24.3539C74.6291 23.6099 75.115 23.2151 75.8287 23.4884C76.5272 23.7617 77.2104 24.5817 77.3319 25.3409Z" fill="#EDA790"/>
<path d="M84.697 8.28852C86.0484 7.19522 86.9747 6.01081 87.5213 4.84159C81.4778 -1.68783 67.3105 -2.35596 59.7182 8.18222C59.6726 8.24295 59.6422 8.30371 59.5967 8.36445C60.4622 9.65515 61.9503 10.7788 64.0306 11.5684C70.2715 13.9524 79.5342 12.4795 84.697 8.28852Z" fill="#3F0706"/>
<path d="M87.2779 104.924C80.87 105.516 77.5749 100.763 76.5423 98.8956C76.5423 99.5333 76.5271 100.156 76.512 100.794C76.512 100.794 79.564 108.082 87.2931 107.369C101.87 106.002 108.597 94.9779 108.597 94.9779C108.658 94.2946 108.719 93.5657 108.764 92.8217C107.048 95.2361 100.124 103.724 87.2779 104.924Z" fill="#F1AEB5"/>
<path d="M78.076 69.1791C78.0912 68.8147 78.1064 68.4351 78.1215 68.0555C78.1367 67.8884 78.1519 67.7062 78.1671 67.5392C78.1671 67.4632 78.1822 67.3873 78.1822 67.3114C78.1974 67.1747 78.1975 67.0533 78.2126 66.9166C78.243 66.537 78.2886 66.1574 78.3341 65.7778C78.3797 65.383 78.4404 65.0033 78.5012 64.6085C78.5012 64.5933 78.5012 64.5782 78.5012 64.5782C78.5012 64.563 78.5011 64.5478 78.5163 64.5326C78.5771 64.1682 78.6378 63.8037 78.6986 63.4393C78.7745 63.0293 78.8504 62.6345 78.9415 62.2245C78.9719 62.0879 79.0022 61.936 79.0478 61.7994C79.063 61.7082 79.0934 61.6323 79.1085 61.5412C79.1541 61.359 79.1844 61.192 79.23 61.0098C79.3363 60.5998 79.4426 60.1898 79.5489 59.7798C79.64 59.4761 79.7311 59.1724 79.807 58.8687C79.8222 58.808 79.8374 58.7624 79.8526 58.7017C79.8678 58.6561 79.8829 58.5954 79.8981 58.5498C80.0196 58.155 80.1563 57.7451 80.2777 57.3503C80.4144 56.9554 80.5511 56.5606 80.6878 56.1658C80.7181 56.0899 80.7485 56.014 80.7789 55.9381C80.794 55.8773 80.8244 55.8166 80.8396 55.7559C80.9307 55.5129 81.0218 55.2699 81.1129 55.027C81.2648 54.6474 81.4166 54.2678 81.5685 53.9033C81.6899 53.63 81.7962 53.3567 81.9177 53.0834C81.9329 53.0378 81.9632 52.9922 81.9784 52.9467C81.9936 52.9011 82.024 52.8404 82.0392 52.7948C82.2062 52.4152 82.3732 52.0508 82.5554 51.6712C82.7528 51.2612 82.9503 50.8512 83.1477 50.4412C83.178 50.3805 83.2084 50.3197 83.2388 50.259C83.2843 50.1831 83.3147 50.1072 83.3602 50.016C83.5273 49.6972 83.6943 49.3631 83.8614 49.0442C84.0739 48.6494 84.3017 48.2546 84.5295 47.8446C84.651 47.6472 84.7572 47.4346 84.8787 47.2372C84.9243 47.1613 84.9698 47.0854 85.0154 47.0095C85.2128 46.6602 85.4406 46.3414 85.6531 45.9921C85.9568 45.491 86.2757 44.9899 86.5946 44.4888C86.6401 44.4129 86.6857 44.3218 86.7464 44.2459C87.2172 43.5322 87.7183 42.8337 88.2194 42.1504C88.5534 41.6948 88.9027 41.2393 89.2519 40.7989C89.5404 40.4345 89.8289 40.0852 90.1174 39.736C90.1174 39.7208 90.1326 39.7208 90.1326 39.7056C90.1326 39.7056 90.1326 39.6904 90.1478 39.6904C90.4363 39.3412 90.74 38.9919 91.0437 38.6427C91.3474 38.3086 91.6359 37.9746 91.9548 37.6405C92.0003 37.5798 92.0611 37.5342 92.1066 37.4735C92.1522 37.4128 92.2129 37.3672 92.2585 37.3065C92.4711 37.0787 92.6836 36.8509 92.8962 36.6383C93.2151 36.3043 93.5492 35.9854 93.8681 35.6665C93.9744 35.5754 94.0806 35.4843 94.1717 35.378C94.2477 35.3021 94.3236 35.2262 94.3995 35.1654C94.5666 35.0136 94.7184 34.8617 94.8854 34.725C95.2195 34.4214 95.5688 34.1177 95.918 33.8292C96.0699 33.7077 96.2217 33.5862 96.3735 33.4495C96.4494 33.3888 96.5254 33.3281 96.6165 33.2522C96.7228 33.161 96.8443 33.0699 96.9506 32.9788C97.2846 32.7055 97.6338 32.4474 97.9679 32.2044C98.2109 32.0222 98.469 31.8551 98.712 31.6729C98.7575 31.6426 98.8031 31.6122 98.8486 31.5818C98.8942 31.5515 98.9397 31.5211 98.9701 31.4907C99.3042 31.263 99.6231 31.0504 99.9571 30.8378C100.276 30.6252 100.61 30.4278 100.944 30.2304C101.02 30.1848 101.096 30.1393 101.172 30.0937C101.415 29.9571 101.658 29.8204 101.916 29.6837C102.235 29.5167 102.554 29.3497 102.873 29.1978C103.07 29.0915 103.283 29.0004 103.48 28.9093C103.526 28.879 103.586 28.8638 103.632 28.8334C103.693 28.803 103.753 28.7727 103.814 28.7423C104.133 28.6056 104.437 28.469 104.74 28.3475C105.059 28.226 105.363 28.1045 105.682 27.9982C105.742 27.9831 105.788 27.9679 105.849 27.9527C105.894 27.9375 105.94 27.9223 106.001 27.9071C106.213 27.8312 106.411 27.7705 106.623 27.7097C106.942 27.6186 107.261 27.5275 107.58 27.4516C107.732 27.406 107.884 27.3909 108.035 27.3453C108.096 27.3301 108.172 27.3149 108.233 27.2997C108.324 27.2845 108.43 27.2542 108.521 27.239C108.871 27.1783 109.205 27.1175 109.539 27.072C109.751 27.0416 109.949 27.0264 110.146 27.0112C110.222 27.0112 110.298 26.996 110.359 26.996C110.419 26.996 110.495 26.9809 110.556 26.9809C110.92 26.9505 111.285 26.9505 111.649 26.9505C111.816 26.9505 111.968 26.9657 112.12 26.9657C112.242 26.9657 112.363 26.9809 112.485 26.9809C112.606 26.9961 112.727 26.9809 112.864 26.996C113.32 27.0416 113.76 27.1023 114.2 27.1935C114.216 27.1935 114.216 27.1935 114.231 27.1935C114.322 27.2086 114.413 27.2542 114.519 27.2694C114.96 27.3757 115.415 27.482 115.825 27.6338C115.855 27.649 115.886 27.6642 115.931 27.6794C116.554 27.9071 117.146 28.1805 117.708 28.4993L119.318 29.4408C118.756 29.1067 118.164 28.8486 117.541 28.6208C117.085 28.4538 116.615 28.3323 116.144 28.2108C116.038 28.1805 115.947 28.1501 115.856 28.1349C115.294 28.0286 114.717 27.9527 114.124 27.9223C114.003 27.9071 113.881 27.9071 113.76 27.9071C113.183 27.892 112.606 27.892 111.999 27.9375C111.923 27.9375 111.862 27.9527 111.786 27.9527C111.163 28.0134 110.51 28.1045 109.858 28.2412C109.797 28.2564 109.721 28.2716 109.66 28.2868C108.992 28.4386 108.309 28.6208 107.625 28.8638C107.58 28.879 107.534 28.8941 107.474 28.9093C106.745 29.1523 106.016 29.456 105.272 29.79C105.226 29.8052 105.165 29.8356 105.12 29.866C104.361 30.2152 103.601 30.61 102.827 31.0656C102.037 31.5211 101.263 32.007 100.504 32.5385C100.458 32.5688 100.413 32.5992 100.367 32.6448C99.6534 33.1458 98.9549 33.6773 98.2564 34.224C98.1805 34.2847 98.1046 34.3454 98.0135 34.4214C97.3454 34.968 96.6924 35.545 96.0395 36.1372C95.9635 36.2132 95.8876 36.2891 95.7965 36.365C95.1436 36.9876 94.5058 37.6253 93.8681 38.2935C93.8225 38.3542 93.7618 38.3998 93.7162 38.4605C93.0481 39.1742 92.3951 39.9182 91.7574 40.6775C91.7574 40.6927 91.7422 40.6926 91.7422 40.7078C91.0893 41.4974 90.4515 42.3022 89.8441 43.1374C89.2823 43.8966 88.7508 44.671 88.2346 45.4606C87.9157 45.9465 87.5968 46.4628 87.2931 46.9639C87.0349 47.3739 86.7768 47.7839 86.5338 48.2091C86.4124 48.4065 86.3061 48.6191 86.1846 48.8165C85.7746 49.5301 85.395 50.2438 85.0154 50.9727C84.9698 51.0486 84.9243 51.1397 84.8939 51.2156C84.4535 52.0963 84.0284 53.0074 83.6184 53.9033C83.6032 53.9489 83.588 53.9944 83.5576 54.04C83.178 54.9359 82.8136 55.8318 82.4795 56.7277C82.4644 56.7884 82.434 56.8491 82.4188 56.9099C82.0847 57.8361 81.7659 58.7472 81.4925 59.6735C81.4774 59.7342 81.4622 59.7798 81.447 59.8405C81.1889 60.7364 80.9459 61.6171 80.7333 62.513C80.7181 62.6041 80.6877 62.6801 80.6726 62.7712C80.46 63.6823 80.2777 64.5933 80.1411 65.5044C80.1411 65.5196 80.1411 65.5348 80.1259 65.55C79.974 66.4611 79.8678 67.3721 79.7919 68.2832C79.7919 68.3591 79.7767 68.4351 79.7767 68.511C79.7007 69.4069 79.6704 70.3028 79.6704 71.1835L79.8678 138.755L78.2582 137.814L78.0608 70.2421C78.0608 69.8776 78.0608 69.5284 78.076 69.1791Z" fill="url(#paint3_linear_1_22276)"/>
<path d="M102.827 31.0656C89.9959 38.4757 79.6248 56.424 79.6703 71.1531L79.8677 138.725L121.064 114.931C123.964 113.26 126.303 109.221 126.287 105.865L126.105 44.3218C126.075 29.6078 115.643 23.6706 102.827 31.0656Z" fill="#F79009"/>
<path d="M71.3342 47.9357C65.8525 46.0225 56.2557 56.1203 46.082 60.9642C46.082 60.9642 46.6438 62.1638 18.5674 59.4002L14.3308 63.8949C14.3308 63.8949 31.2617 70.6976 42.0277 71.7302C47.5397 73.3094 60.8567 70.075 68.1302 68.0403C72.7311 66.7648 76.3451 62.9686 76.9829 58.231C77.4536 54.8144 76.9069 49.8794 71.3342 47.9357Z" fill="#930309"/>
<path d="M21.3005 59.6431C20.435 59.5672 19.5391 59.4913 18.5825 59.4002L14.3459 63.8949C14.3459 63.8949 15.3481 64.2897 17.0033 64.9122L21.3005 59.6431Z" fill="#F0EEEA"/>
<defs>
<linearGradient id="paint0_linear_1_22276" x1="46.6043" y1="116.442" x2="43.2963" y2="116.442" gradientUnits="userSpaceOnUse">
<stop stop-color="white"/>
<stop offset="1" stop-color="#DAFCF7"/>
</linearGradient>
<linearGradient id="paint1_linear_1_22276" x1="79.65" y1="128.358" x2="46.6003" y2="128.358" gradientUnits="userSpaceOnUse">
<stop stop-color="white"/>
<stop offset="1" stop-color="#DAFCF7"/>
</linearGradient>
<linearGradient id="paint2_linear_1_22276" x1="108.434" y1="107.212" x2="79.2217" y2="107.212" gradientUnits="userSpaceOnUse">
<stop stop-color="#471F54"/>
<stop offset="1" stop-color="#2D114F"/>
</linearGradient>
<linearGradient id="paint3_linear_1_22276" x1="119.341" y1="82.8379" x2="78.0596" y2="82.8379" gradientUnits="userSpaceOnUse">
<stop stop-color="white"/>
<stop offset="1" stop-color="#DAFCF7"/>
</linearGradient>
</defs>
</svg>
