<svg width="187" height="175" viewBox="0 0 187 175" fill="none" xmlns="http://www.w3.org/2000/svg">
<path d="M136.209 39.6905C136.209 39.903 136.194 40.1156 136.179 40.3282C136.164 40.5104 136.164 40.6926 136.133 40.8749C136.118 41.0267 136.103 41.1937 136.072 41.3456C136.042 41.5278 136.027 41.71 135.981 41.8922C135.951 42.0593 135.921 42.2111 135.875 42.363C135.83 42.5452 135.799 42.7122 135.754 42.8944C135.708 43.0615 135.663 43.2133 135.617 43.3803C135.556 43.5474 135.511 43.7296 135.45 43.8966C135.389 44.0485 135.328 44.2155 135.268 44.3673C135.192 44.5496 135.116 44.7318 135.04 44.914C134.979 45.0658 134.903 45.2177 134.827 45.3695C134.736 45.5518 134.645 45.734 134.554 45.9162C134.478 46.068 134.402 46.2047 134.311 46.3565C134.19 46.5691 134.053 46.7817 133.916 46.9943C133.84 47.1158 133.749 47.2524 133.658 47.3739C133.491 47.6017 133.324 47.8446 133.142 48.0724C133.066 48.1787 132.99 48.2698 132.914 48.3761C132.626 48.7405 132.307 49.105 131.973 49.4694C131.882 49.5605 131.79 49.6516 131.714 49.7427C131.456 50.0161 131.183 50.2894 130.895 50.5627C130.758 50.6842 130.636 50.8057 130.5 50.9271C130.333 51.079 130.15 51.2308 129.983 51.3827C129.816 51.5193 129.649 51.656 129.482 51.7927C129.3 51.9445 129.118 52.0812 128.921 52.233C128.738 52.3697 128.556 52.5063 128.374 52.643C128.176 52.7797 127.979 52.9315 127.766 53.0682C127.569 53.2048 127.387 53.3263 127.189 53.463C126.977 53.5996 126.764 53.7363 126.537 53.873C126.263 54.04 125.99 54.2222 125.701 54.3892L61.8193 91.5158C61.0297 91.9714 60.2098 92.3965 59.3746 92.7913C59.162 92.8976 58.9343 93.0039 58.7065 93.1102C57.9473 93.4595 57.1729 93.7935 56.3832 94.0972C56.277 94.1428 56.1858 94.1883 56.0795 94.2187C55.2292 94.5376 54.3637 94.8261 53.483 95.1146C52.8756 95.312 52.253 95.479 51.6153 95.6461C51.1445 95.7675 50.6738 95.9194 50.2031 96.0257C49.5501 96.1775 48.882 96.3142 48.2139 96.4508C47.728 96.5419 47.2421 96.6634 46.7561 96.7394C46.5587 96.7697 46.3462 96.8001 46.1488 96.8305C45.3136 96.9671 44.4785 97.0886 43.6433 97.1797C43.4003 97.2101 43.1574 97.2404 42.9144 97.2708C42.4285 97.3164 41.9426 97.3467 41.4567 97.3923C40.6519 97.453 39.8319 97.5138 39.012 97.5593C38.4957 97.5745 37.9642 97.5897 37.4479 97.6049C36.795 97.6201 36.1269 97.6201 35.4739 97.6201C34.9273 97.6201 34.3655 97.5897 33.8188 97.5745C33.2114 97.5441 32.604 97.5138 31.9814 97.4834C31.4196 97.4378 30.873 97.3923 30.3111 97.3467C29.7037 97.286 29.1115 97.2252 28.5042 97.1493C27.9575 97.0734 27.426 96.9975 26.8946 96.9216C26.2568 96.8153 25.6191 96.709 24.9813 96.5875C24.4802 96.4964 23.9791 96.3901 23.478 96.2838C22.7188 96.1168 21.9747 95.9346 21.2307 95.7372C20.7448 95.6157 20.274 95.4942 19.8033 95.3575C19.5452 95.2816 19.287 95.2057 19.0441 95.1146C18.3 94.8868 17.5712 94.6287 16.8575 94.3705C16.6449 94.2946 16.4323 94.2187 16.2349 94.1428C15.582 93.8846 14.9442 93.6113 14.3216 93.3228C14.0179 93.1861 13.6839 93.0647 13.3954 92.9128C12.4843 92.4876 11.6036 92.0169 10.7533 91.531C3.63163 87.4159 0.0784096 82.0254 0.0935943 76.6348L0.00248987 108.386C-0.0126948 113.777 3.54053 119.167 10.6621 123.282C11.5125 123.768 12.3932 124.239 13.3043 124.664C13.608 124.816 13.9269 124.937 14.2457 125.074C14.7772 125.317 15.3087 125.56 15.8705 125.788C15.9616 125.818 16.0679 125.864 16.159 125.894C16.3716 125.97 16.5842 126.046 16.7816 126.122C17.4953 126.38 18.2241 126.638 18.9682 126.866C19.2263 126.942 19.4693 127.033 19.7274 127.109C19.8944 127.154 20.0615 127.215 20.2285 127.261C20.5322 127.352 20.8511 127.412 21.1548 127.488C21.8988 127.686 22.6429 127.868 23.4021 128.035C23.5995 128.081 23.7969 128.141 23.9943 128.187C24.298 128.248 24.6017 128.293 24.8902 128.339C25.528 128.46 26.1657 128.566 26.8035 128.673C27.0616 128.718 27.3046 128.764 27.5627 128.809C27.836 128.855 28.1245 128.87 28.413 128.901C29.0052 128.976 29.6126 129.037 30.22 129.098C30.5085 129.128 30.797 129.174 31.0856 129.189C31.3589 129.204 31.6322 129.219 31.8903 129.235C32.4977 129.28 33.1051 129.311 33.7277 129.326C34.0314 129.341 34.3351 129.371 34.6388 129.371C34.8817 129.371 35.1247 129.371 35.3828 129.371C36.0358 129.386 36.7039 129.371 37.3568 129.356C37.6909 129.356 38.0098 129.356 38.3438 129.356C38.5412 129.356 38.7386 129.326 38.9209 129.311C39.7408 129.28 40.5456 129.219 41.3656 129.143C41.6997 129.113 42.0185 129.113 42.3526 129.083C42.5044 129.068 42.6715 129.037 42.8233 129.022C43.0663 128.992 43.3092 128.961 43.5522 128.931C44.3873 128.825 45.2225 128.718 46.0577 128.582C46.2551 128.551 46.4676 128.521 46.665 128.491C46.7561 128.475 46.8624 128.46 46.9535 128.445C47.3484 128.369 47.728 128.278 48.1228 128.202C48.7909 128.065 49.459 127.929 50.112 127.777C50.5979 127.655 51.0534 127.519 51.5241 127.397C52.1467 127.23 52.7693 127.063 53.3919 126.866C53.5285 126.82 53.6652 126.79 53.7867 126.759C54.5307 126.517 55.2596 126.258 55.9884 125.985C56.0947 125.94 56.1858 125.894 56.2921 125.864C57.0817 125.56 57.8561 125.226 58.6154 124.877C58.8431 124.77 59.0557 124.664 59.2835 124.558C60.1187 124.148 60.9386 123.738 61.7282 123.282L125.61 86.1556C125.762 86.0645 125.899 85.9886 126.051 85.8975C126.187 85.8216 126.309 85.7305 126.445 85.6393C126.673 85.5027 126.886 85.366 127.098 85.2294C127.296 85.0927 127.493 84.9712 127.675 84.8345C127.873 84.6979 128.085 84.546 128.283 84.4094C128.465 84.2727 128.647 84.1361 128.829 83.9994C129.027 83.8475 129.209 83.7109 129.391 83.559C129.558 83.4224 129.725 83.2857 129.892 83.1491C130.075 82.9972 130.242 82.8454 130.409 82.6935C130.485 82.6328 130.56 82.572 130.621 82.5113C130.682 82.4505 130.743 82.3898 130.803 82.3291C131.092 82.0557 131.365 81.7824 131.623 81.5091C131.714 81.418 131.806 81.3269 131.882 81.2358C132.216 80.8713 132.519 80.5069 132.823 80.1425C132.838 80.1273 132.853 80.1121 132.868 80.0969C132.929 80.0058 132.99 79.9299 133.051 79.8388C133.233 79.611 133.4 79.368 133.567 79.1403C133.658 79.0188 133.734 78.8821 133.825 78.7607C133.962 78.5481 134.098 78.3355 134.22 78.1229C134.25 78.0622 134.296 78.0014 134.326 77.9559C134.372 77.8648 134.417 77.7888 134.463 77.6977C134.554 77.5155 134.66 77.3333 134.751 77.1511C134.827 76.9992 134.903 76.8474 134.964 76.6956C135.04 76.5133 135.116 76.3311 135.192 76.1489C135.222 76.073 135.268 75.9819 135.298 75.906C135.328 75.83 135.344 75.7541 135.374 75.6782C135.435 75.5111 135.495 75.3289 135.541 75.1619C135.587 75.01 135.632 74.843 135.678 74.6912C135.723 74.509 135.769 74.3419 135.799 74.1597C135.814 74.0686 135.845 73.9623 135.875 73.8712C135.89 73.8105 135.89 73.7497 135.905 73.6738C135.936 73.4916 135.966 73.3094 135.997 73.1272C136.012 72.9753 136.042 72.8083 136.057 72.6564C136.072 72.4742 136.088 72.292 136.103 72.1098C136.103 72.0035 136.118 71.8972 136.118 71.7909C136.118 71.6846 136.118 71.5783 136.118 71.472L136.209 39.6905Z" fill="#660806"/>
<path d="M125.549 24.7943C139.701 32.9636 139.777 46.2047 125.701 54.3892L61.8192 91.5158C47.7581 99.6852 24.89 99.6852 10.7379 91.5158C-3.41427 83.3464 -3.49019 70.0902 10.5708 61.9208L74.4528 24.7943C88.529 16.6249 111.397 16.6249 125.549 24.7943Z" fill="#FAD2D4"/>
<path d="M120.113 38.8857C120.143 38.8553 120.158 38.8249 120.189 38.7946C120.158 38.8249 120.143 38.8553 120.113 38.8857ZM120.568 38.0202C120.568 37.9898 120.568 37.9442 120.583 37.9138C120.568 37.9442 120.568 37.9746 120.568 38.0202ZM120.507 38.2327C120.523 38.2024 120.523 38.1568 120.538 38.1264C120.523 38.172 120.523 38.2024 120.507 38.2327ZM120.416 38.4605C120.432 38.4301 120.447 38.3998 120.462 38.3542C120.447 38.3846 120.432 38.4301 120.416 38.4605ZM120.28 38.6731C120.295 38.6427 120.325 38.6123 120.34 38.582C120.325 38.6123 120.31 38.6427 120.28 38.6731ZM119.733 39.2197C119.718 39.2349 119.688 39.2501 119.672 39.2653C119.688 39.2653 119.703 39.2349 119.733 39.2197ZM119.991 39.0071C119.961 39.0375 119.946 39.0527 119.915 39.0831C119.93 39.0527 119.961 39.0375 119.991 39.0071ZM52.4649 77.637C52.6167 77.6218 52.7534 77.5914 52.89 77.5611C52.7534 77.5914 52.6015 77.6066 52.4649 77.637ZM51.4627 77.7281C51.5538 77.7281 51.6601 77.7129 51.7512 77.7129C51.6601 77.7129 51.569 77.7281 51.4627 77.7281ZM50.0657 77.5763C50.2175 77.6066 50.3694 77.637 50.5364 77.6522C50.3694 77.637 50.2175 77.6066 50.0657 77.5763ZM49.2761 77.3637C49.3976 77.4092 49.5342 77.4396 49.6557 77.4851C49.5342 77.4396 49.3976 77.4092 49.2761 77.3637ZM48.5624 77.0296C48.7446 77.1359 48.9268 77.2118 49.1242 77.3029C48.9268 77.227 48.7294 77.1359 48.5624 77.0296ZM25.0261 63.3482C25.0717 63.3786 25.1172 63.4089 25.178 63.4393C25.1172 63.4241 25.0717 63.3786 25.0261 63.3482ZM24.3276 62.7256C24.3428 62.7408 24.358 62.7712 24.3732 62.7864C24.358 62.7712 24.3428 62.7408 24.3276 62.7256ZM24.1758 62.4979C24.191 62.5282 24.2061 62.5434 24.2213 62.5738C24.2061 62.5434 24.191 62.5131 24.1758 62.4979ZM24.0847 62.2701C24.0999 62.3005 24.115 62.3308 24.1302 62.3612C24.0999 62.3308 24.0847 62.3005 24.0847 62.2701ZM24.0239 62.0423C24.0239 62.0727 24.0391 62.1031 24.0543 62.1334C24.0391 62.1031 24.0239 62.0727 24.0239 62.0423Z" fill="#F1AEB5"/>
<path d="M24.6466 59.7191C24.6466 59.7646 24.6466 59.8102 24.6618 59.8405C24.6618 59.8709 24.677 59.9165 24.6921 59.9468C24.7073 59.9924 24.7073 60.0228 24.7225 60.0683C24.7377 60.0987 24.7529 60.1291 24.7681 60.1746C24.7833 60.2202 24.7984 60.2657 24.8288 60.2961C24.844 60.3265 24.8592 60.3568 24.8895 60.3872C24.9199 60.4328 24.9503 60.4783 24.9807 60.5239C24.9958 60.5542 25.0262 60.5846 25.0414 60.5998C25.087 60.6605 25.1477 60.7213 25.2084 60.782C25.2236 60.7972 25.254 60.8276 25.2692 60.8427C25.3147 60.8731 25.3451 60.9187 25.3906 60.949C25.421 60.9794 25.4666 61.0098 25.4969 61.0401C25.5425 61.0705 25.588 61.1009 25.6488 61.1313C25.6943 61.1616 25.7551 61.192 25.8006 61.2224L49.1851 74.8127C49.3673 74.9189 49.5495 74.9949 49.7469 75.086C49.7924 75.1012 49.8532 75.1315 49.8987 75.1467C50.0202 75.1923 50.1569 75.2226 50.2784 75.2682C50.415 75.2986 50.5517 75.3441 50.6883 75.3745C50.8554 75.4049 51.0072 75.4352 51.1742 75.4656C51.2198 75.4656 51.2502 75.4808 51.2957 75.4808C51.5235 75.5112 51.7513 75.5112 51.979 75.5263C52.0094 75.5263 52.055 75.5263 52.0853 75.5263C52.3131 75.5263 52.5409 75.5111 52.7535 75.496C52.7838 75.496 52.8142 75.496 52.8597 75.4808C53.0875 75.4504 53.3001 75.42 53.5127 75.3745C53.5583 75.3593 53.5886 75.3593 53.6342 75.3441C53.8316 75.2985 54.0138 75.2378 54.196 75.1771C54.2264 75.1619 54.2567 75.1619 54.3023 75.1467C54.5149 75.0556 54.7275 74.9645 54.9249 74.8582L120.022 37.2761C120.826 36.8206 121.221 36.2132 121.221 35.6058V37.6709C121.221 38.2783 120.826 38.8857 120.022 39.3412L54.9249 76.9233C54.7426 77.0296 54.5452 77.1207 54.3327 77.1966C54.3175 77.1966 54.3175 77.1967 54.3023 77.2118C54.2719 77.227 54.2416 77.227 54.196 77.2422C54.0745 77.2877 53.9682 77.3333 53.8316 77.3637C53.7708 77.3789 53.6949 77.394 53.6342 77.4092C53.5886 77.4244 53.5583 77.4244 53.5127 77.4396C53.4823 77.4548 53.452 77.4548 53.4064 77.47C53.2697 77.5003 53.1331 77.5155 53.0116 77.5459C52.966 77.5459 52.9205 77.5611 52.8597 77.5611C52.8294 77.5611 52.799 77.5763 52.7535 77.5763C52.7079 77.5763 52.6623 77.5915 52.6016 77.5915C52.4649 77.6066 52.3435 77.6066 52.2068 77.6066C52.1613 77.6066 52.1157 77.6066 52.0853 77.6066C52.055 77.6066 52.0094 77.6066 51.979 77.6066C51.9183 77.6066 51.8576 77.6066 51.7968 77.6066C51.645 77.6066 51.4931 77.5914 51.3413 77.5763C51.3261 77.5763 51.3109 77.5763 51.2957 77.5763C51.2502 77.5763 51.2198 77.5611 51.1742 77.5611C51.0528 77.5459 50.9465 77.5307 50.8402 77.5155C50.7946 77.5003 50.7491 77.4851 50.6883 77.4851C50.5517 77.4548 50.415 77.4244 50.2784 77.3789C50.2024 77.3637 50.1265 77.3485 50.0658 77.3181C50.005 77.3029 49.9595 77.2726 49.8987 77.2574C49.838 77.2422 49.7924 77.2118 49.7469 77.1966C49.5495 77.1207 49.3521 77.0296 49.1851 76.9233L25.8006 63.333C25.7855 63.3178 25.7702 63.3178 25.7551 63.3027C25.7247 63.2875 25.6792 63.2571 25.6488 63.2267C25.6032 63.1964 25.5425 63.166 25.4969 63.1356C25.4514 63.1053 25.421 63.0749 25.3906 63.0445C25.3451 63.0142 25.2995 62.9838 25.2692 62.9382C25.254 62.9382 25.254 62.923 25.2388 62.923C25.2236 62.9079 25.2084 62.8927 25.1932 62.8775C25.1325 62.8167 25.0718 62.756 25.0262 62.6953C25.011 62.6801 24.9958 62.6649 24.9807 62.6497C24.9655 62.6345 24.9655 62.6193 24.9503 62.6042C24.9199 62.5586 24.8895 62.513 24.8592 62.4675C24.844 62.4523 24.8288 62.4219 24.8136 62.4068C24.8136 62.3916 24.7984 62.3916 24.7984 62.3764C24.7833 62.3308 24.7529 62.2853 24.7377 62.2549C24.7225 62.2245 24.7073 62.2094 24.7073 62.179C24.7073 62.1638 24.7073 62.1638 24.7073 62.1486C24.6922 62.1031 24.677 62.0727 24.677 62.0271C24.677 61.9968 24.6618 61.9664 24.6466 61.9512V61.936C24.6314 61.8905 24.6314 61.8449 24.6314 61.8146C24.6314 61.7842 24.6162 61.7538 24.6162 61.7235C24.6162 61.7083 24.6162 61.6931 24.6162 61.6931V59.628C24.6466 59.628 24.6466 59.6735 24.6466 59.7191Z" fill="#FAD2D4"/>
<path d="M25.8308 57.9273C24.2364 58.8384 24.2364 60.3265 25.8156 61.2527L49.2 74.843C50.7792 75.7541 53.3454 75.7693 54.9398 74.843L120.037 37.2609C121.631 36.3498 121.631 34.8617 120.052 33.9355L96.6674 20.3452C95.0881 19.4341 92.5219 19.4341 90.9275 20.3452L25.8308 57.9273Z" fill="white"/>
<path d="M90.7454 23.6403V24.4754L93.7671 26.3887V25.5535L90.7454 23.6403Z" fill="#64A5B8"/>
<path d="M93.7666 25.5535V26.3887L97.0769 24.6272V23.8073L93.7666 25.5535Z" fill="#6FA7AB"/>
<path d="M90.7456 23.6403L93.7674 25.5535L97.0776 23.8073L94.0559 21.894L90.7456 23.6403Z" fill="white"/>
<path d="M85.2793 26.2672L85.2945 27.0872L88.301 29.0004V28.1805L85.2793 26.2672Z" fill="#64A5B8"/>
<path d="M88.3013 28.1805V29.0004L91.6115 27.2542V26.419L88.3013 28.1805Z" fill="#6FA7AB"/>
<path d="M85.2793 26.2672L88.301 28.1805L91.6113 26.419L88.5895 24.5058L85.2793 26.2672Z" fill="white"/>
<path d="M81.7412 28.3627L81.7564 29.1827L84.7629 31.0959V30.2608L81.7412 28.3627Z" fill="#64A5B8"/>
<path d="M84.7634 30.2608V31.0959L88.0737 29.3345V28.5145L84.7634 30.2608Z" fill="#6FA7AB"/>
<path d="M81.741 28.3627L84.7627 30.2608L88.073 28.5145L85.0512 26.6013L81.741 28.3627Z" fill="white"/>
<path d="M77.9448 30.4278V31.2629L80.9666 33.1762L80.9514 32.3411L77.9448 30.4278Z" fill="#64A5B8"/>
<path d="M80.9514 32.3411L80.9666 33.1762L84.2769 31.4148L84.2617 30.5948L80.9514 32.3411Z" fill="#6FA7AB"/>
<path d="M77.9448 30.4278L80.9514 32.3411L84.2617 30.5948L81.2551 28.6816L77.9448 30.4278Z" fill="white"/>
<path d="M74.27 32.5233V33.3433L77.2918 35.2565V34.4366L74.27 32.5233Z" fill="#64A5B8"/>
<path d="M77.2922 34.4366V35.2565L80.6025 33.4951V32.6751L77.2922 34.4366Z" fill="#6FA7AB"/>
<path d="M74.2703 32.5233L77.292 34.4366L80.6023 32.6751L77.5805 30.7619L74.2703 32.5233Z" fill="white"/>
<path d="M53.9377 44.0029V44.8229L56.9595 46.7362L56.9443 45.9162L53.9377 44.0029Z" fill="#64A5B8"/>
<path d="M56.9446 45.9162L56.9598 46.7362L60.27 44.9899L60.2548 44.1548L56.9446 45.9162Z" fill="#6FA7AB"/>
<path d="M53.938 44.0029L56.9446 45.9162L60.2548 44.1548L57.2482 42.2415L53.938 44.0029Z" fill="white"/>
<path d="M50.1267 46.0832V46.9032L53.1333 48.8165V47.9965L50.1267 46.0832Z" fill="#64A5B8"/>
<path d="M53.1331 47.9965V48.8165L56.4585 47.0702V46.2351L53.1331 47.9965Z" fill="#6FA7AB"/>
<path d="M50.1267 46.0832L53.1333 47.9965L56.4587 46.2351L53.437 44.3218L50.1267 46.0832Z" fill="white"/>
<path d="M96.5173 27.8768V28.6967L99.5391 30.61V29.79L96.5173 27.8768Z" fill="#64A5B8"/>
<path d="M99.5383 29.79V30.61L102.849 28.8638V28.0286L99.5383 29.79Z" fill="#6FA7AB"/>
<path d="M96.5171 27.8768L99.5389 29.79L102.849 28.0286L99.8274 26.1153L96.5171 27.8768Z" fill="white"/>
<path d="M92.9788 29.9571V30.7922L96.0005 32.7055V31.8703L92.9788 29.9571Z" fill="#64A5B8"/>
<path d="M96.0005 31.8703V32.7055L99.3107 30.9441V30.1241L96.0005 31.8703Z" fill="#6FA7AB"/>
<path d="M92.9788 29.9571L96.0005 31.8703L99.3108 30.1241L96.289 28.2108L92.9788 29.9571Z" fill="white"/>
<path d="M89.1677 32.0374V32.8725L92.1895 34.7706V33.9506L89.1677 32.0374Z" fill="#64A5B8"/>
<path d="M92.1895 33.9506V34.7706L95.4997 33.0244V32.1892L92.1895 33.9506Z" fill="#6FA7AB"/>
<path d="M89.1675 32.0374L92.1892 33.9506L95.4995 32.1892L92.4777 30.2911L89.1675 32.0374Z" fill="white"/>
<path d="M85.5081 34.1177V34.9528L88.5298 36.8661V36.0309L85.5081 34.1177Z" fill="#64A5B8"/>
<path d="M88.53 36.0309V36.8661L91.8403 35.1047V34.2847L88.53 36.0309Z" fill="#6FA7AB"/>
<path d="M85.5078 34.1177L88.5296 36.0309L91.8398 34.2847L88.8181 32.3714L85.5078 34.1177Z" fill="white"/>
<path d="M81.7112 36.2283V37.0483L84.7177 38.9616V38.1416L81.7112 36.2283Z" fill="#64A5B8"/>
<path d="M84.7175 38.1416V38.9616L88.043 37.2154L88.0278 36.3802L84.7175 38.1416Z" fill="#6FA7AB"/>
<path d="M81.7112 36.2283L84.7177 38.1416L88.028 36.3802L85.0215 34.4669L81.7112 36.2283Z" fill="white"/>
<path d="M78.158 38.3238V39.1438L81.1797 41.0571V40.2371L78.158 38.3238Z" fill="#64A5B8"/>
<path d="M81.1797 40.2371V41.0571L84.49 39.2957V38.4757L81.1797 40.2371Z" fill="#6FA7AB"/>
<path d="M78.1577 38.3238L81.1795 40.2371L84.4897 38.4757L81.468 36.5624L78.1577 38.3238Z" fill="white"/>
<path d="M74.3616 40.389V41.2241L77.3681 43.1374V42.3022L74.3616 40.389Z" fill="#64A5B8"/>
<path d="M77.3682 42.3022V43.1374L80.6784 41.376V40.556L77.3682 42.3022Z" fill="#6FA7AB"/>
<path d="M74.3616 40.389L77.3681 42.3022L80.6784 40.556L77.6718 38.6427L74.3616 40.389Z" fill="white"/>
<path d="M70.6868 42.4844V43.3044L73.7085 45.2177V44.3977L70.6868 42.4844Z" fill="#64A5B8"/>
<path d="M73.7085 44.3977V45.2177L77.0188 43.4563V42.6363L73.7085 44.3977Z" fill="#6FA7AB"/>
<path d="M70.687 42.4844L73.7088 44.3977L77.019 42.6363L73.9973 40.723L70.687 42.4844Z" fill="white"/>
<path d="M67.0129 44.7773L67.0281 45.5973L70.0347 47.5106V46.6906L67.0129 44.7773Z" fill="#64A5B8"/>
<path d="M70.0349 46.6906V47.5106L73.3452 45.7643V44.9292L70.0349 46.6906Z" fill="#6FA7AB"/>
<path d="M67.0127 44.7773L70.0344 46.6906L73.3447 44.9292L70.3381 43.0159L67.0127 44.7773Z" fill="white"/>
<path d="M63.4749 46.8576V47.6928L66.4966 49.6061V48.7709L63.4749 46.8576Z" fill="#64A5B8"/>
<path d="M66.4961 48.7709V49.6061L69.8064 47.8446V47.0247L66.4961 48.7709Z" fill="#6FA7AB"/>
<path d="M63.4749 46.8576L66.4966 48.7709L69.8069 47.0247L66.7851 45.1114L63.4749 46.8576Z" fill="white"/>
<path d="M59.9519 48.7405V49.5757L62.9737 51.489V50.6538L59.9519 48.7405Z" fill="#64A5B8"/>
<path d="M62.9741 50.6538V51.489L66.2844 49.7275V48.9076L62.9741 50.6538Z" fill="#6FA7AB"/>
<path d="M59.9519 48.7405L62.9737 50.6538L66.2839 48.9076L63.2622 46.9943L59.9519 48.7405Z" fill="white"/>
<path d="M56.1409 50.8208V51.6408L59.1626 53.5541V52.7341L56.1409 50.8208Z" fill="#64A5B8"/>
<path d="M59.1624 52.7341V53.5541L62.4726 51.8078V50.9727L59.1624 52.7341Z" fill="#6FA7AB"/>
<path d="M56.1406 50.8208L59.1624 52.7341L62.4726 50.9727L59.4509 49.0594L56.1406 50.8208Z" fill="white"/>
<path d="M99.887 30.2608V31.0807L102.894 32.994V32.174L99.887 30.2608Z" fill="#64A5B8"/>
<path d="M102.894 32.174V32.994L106.219 31.2478V30.4126L102.894 32.174Z" fill="#6FA7AB"/>
<path d="M99.887 30.2608L102.894 32.174L106.219 30.4126L103.197 28.4994L99.887 30.2608Z" fill="white"/>
<path d="M96.3333 32.3411L96.3484 33.1762L99.355 35.0895V34.2543L96.3333 32.3411Z" fill="#64A5B8"/>
<path d="M99.355 34.2543V35.0895L102.68 33.3281L102.665 32.5081L99.355 34.2543Z" fill="#6FA7AB"/>
<path d="M96.3335 32.3411L99.3552 34.2543L102.666 32.5081L99.6589 30.5948L96.3335 32.3411Z" fill="white"/>
<path d="M92.5374 34.4214V35.2565L95.5591 37.1698V36.3347L92.5374 34.4214Z" fill="#64A5B8"/>
<path d="M95.5596 36.3347V37.1698L98.8698 35.4084V34.5884L95.5596 36.3347Z" fill="#6FA7AB"/>
<path d="M92.5374 34.4214L95.5591 36.3347L98.8694 34.5884L95.8476 32.6751L92.5374 34.4214Z" fill="white"/>
<path d="M88.8782 36.5169V37.3368L91.8847 39.2501V38.4301L88.8782 36.5169Z" fill="#64A5B8"/>
<path d="M91.8845 38.4301V39.2501L95.1948 37.4887V36.6687L91.8845 38.4301Z" fill="#6FA7AB"/>
<path d="M88.8782 36.5169L91.8847 38.4301L95.195 36.6687L92.1884 34.7554L88.8782 36.5169Z" fill="white"/>
<path d="M85.0669 38.6124V39.4475L88.0886 41.3608V40.5256L85.0669 38.6124Z" fill="#64A5B8"/>
<path d="M88.0891 40.5256V41.3608L91.3994 39.5994V38.7794L88.0891 40.5256Z" fill="#6FA7AB"/>
<path d="M85.0671 38.6124L88.0889 40.5256L91.3992 38.7794L88.3774 36.8661L85.0671 38.6124Z" fill="white"/>
<path d="M81.5288 40.7078V41.5278L84.5505 43.4411V42.6211L81.5288 40.7078Z" fill="#64A5B8"/>
<path d="M84.5505 42.6211V43.4411L87.8608 41.6949V40.8597L84.5505 42.6211Z" fill="#6FA7AB"/>
<path d="M81.5288 40.7078L84.5505 42.6211L87.8608 40.8597L84.8391 38.9464L81.5288 40.7078Z" fill="white"/>
<path d="M77.7173 42.7882V43.6081L80.739 45.5214V44.7014L77.7173 42.7882Z" fill="#64A5B8"/>
<path d="M80.739 44.7014V45.5214L84.0493 43.7752V42.94L80.739 44.7014Z" fill="#6FA7AB"/>
<path d="M77.7175 42.7882L80.7393 44.7014L84.0495 42.94L81.0278 41.0267L77.7175 42.7882Z" fill="white"/>
<path d="M74.0586 44.8684V45.6884L77.0803 47.6017V46.7817L74.0586 44.8684Z" fill="#64A5B8"/>
<path d="M77.0803 46.7817V47.6017L80.3906 45.8554V45.0203L77.0803 46.7817Z" fill="#6FA7AB"/>
<path d="M74.0583 44.8684L77.0801 46.7817L80.3904 45.0203L77.3686 43.107L74.0583 44.8684Z" fill="white"/>
<path d="M70.3831 47.1613V47.9813L73.4048 49.8946V49.0746L70.3831 47.1613Z" fill="#64A5B8"/>
<path d="M73.4048 49.0746V49.8946L76.7151 48.1483V47.3132L73.4048 49.0746Z" fill="#6FA7AB"/>
<path d="M70.3831 47.1613L73.4048 49.0746L76.7151 47.3132L73.6933 45.3999L70.3831 47.1613Z" fill="white"/>
<path d="M66.845 49.2568V50.0768L69.8667 51.9901V51.1701L66.845 49.2568Z" fill="#64A5B8"/>
<path d="M69.8672 51.1701V51.9901L73.1775 50.2286V49.4087L69.8672 51.1701Z" fill="#6FA7AB"/>
<path d="M66.8452 49.2568L69.867 51.1701L73.1772 49.4087L70.1555 47.4954L66.8452 49.2568Z" fill="white"/>
<path d="M63.3074 51.1245L63.3225 51.9597L66.3291 53.8729V53.0378L63.3074 51.1245Z" fill="#64A5B8"/>
<path d="M66.3291 53.0378V53.8729L69.6394 52.1115V51.2915L66.3291 53.0378Z" fill="#6FA7AB"/>
<path d="M63.3071 51.1245L66.3289 53.0378L69.6391 51.2916L66.6174 49.3783L63.3071 51.1245Z" fill="white"/>
<path d="M59.511 53.2049V54.04L62.5327 55.9533L62.5175 55.1181L59.511 53.2049Z" fill="#64A5B8"/>
<path d="M62.5176 55.1181L62.5328 55.9533L65.843 54.1919L65.8278 53.3719L62.5176 55.1181Z" fill="#6FA7AB"/>
<path d="M59.511 53.2048L62.5175 55.1181L65.8278 53.3719L62.8212 51.4586L59.511 53.2048Z" fill="white"/>
<path d="M103.182 32.584V33.404L106.204 35.3173V34.4973L103.182 32.584Z" fill="#64A5B8"/>
<path d="M106.204 34.4973V35.3173L109.514 33.5558V32.7359L106.204 34.4973Z" fill="#6FA7AB"/>
<path d="M103.182 32.584L106.204 34.4973L109.514 32.7359L106.492 30.8226L103.182 32.584Z" fill="white"/>
<path d="M99.6448 34.6643V35.4995L102.667 37.4127V36.5776L99.6448 34.6643Z" fill="#64A5B8"/>
<path d="M102.667 36.5776V37.4127L105.977 35.6513V34.8313L102.667 36.5776Z" fill="#6FA7AB"/>
<path d="M99.6445 34.6643L102.666 36.5776L105.977 34.8313L102.955 32.9181L99.6445 34.6643Z" fill="white"/>
<path d="M95.8328 36.7446V37.5646L98.8545 39.4779V38.6579L95.8328 36.7446Z" fill="#64A5B8"/>
<path d="M98.8538 38.6579V39.4779L102.164 37.7316V36.8965L98.8538 38.6579Z" fill="#6FA7AB"/>
<path d="M95.8328 36.7446L98.8545 38.6579L102.165 36.8965L99.143 34.9832L95.8328 36.7446Z" fill="white"/>
<path d="M92.1731 38.8249V39.6601L95.1949 41.5733L95.1797 40.7382L92.1731 38.8249Z" fill="#64A5B8"/>
<path d="M95.1792 40.7382L95.1944 41.5733L98.5047 39.8119L98.4895 38.992L95.1792 40.7382Z" fill="#6FA7AB"/>
<path d="M92.1733 38.8249L95.1799 40.7382L98.4902 38.992L95.4836 37.0787L92.1733 38.8249Z" fill="white"/>
<path d="M88.3618 40.9356L88.377 41.7556L91.3836 43.6688V42.8489L88.3618 40.9356Z" fill="#64A5B8"/>
<path d="M91.384 42.8489V43.6688L94.6943 41.9226V41.0874L91.384 42.8489Z" fill="#6FA7AB"/>
<path d="M88.3618 40.9356L91.3836 42.8489L94.6938 41.0874L91.6873 39.1742L88.3618 40.9356Z" fill="white"/>
<path d="M84.8237 43.0159V43.8511L87.8455 45.7643V44.9292L84.8237 43.0159Z" fill="#64A5B8"/>
<path d="M87.8452 44.9292V45.7643L91.1555 44.0029V43.1829L87.8452 44.9292Z" fill="#6FA7AB"/>
<path d="M84.8237 43.0159L87.8455 44.9292L91.1557 43.1829L88.1492 41.2697L84.8237 43.0159Z" fill="white"/>
<path d="M81.0127 45.0962L81.0279 45.9314L84.0345 47.8446V47.0095L81.0127 45.0962Z" fill="#64A5B8"/>
<path d="M84.0342 47.0095V47.8446L87.3445 46.0832V45.2632L84.0342 47.0095Z" fill="#6FA7AB"/>
<path d="M81.0125 45.0962L84.0342 47.0095L87.3445 45.2632L84.3227 43.35L81.0125 45.0962Z" fill="white"/>
<path d="M77.3525 47.1917V48.0117L80.3743 49.9249V49.105L77.3525 47.1917Z" fill="#64A5B8"/>
<path d="M80.3748 49.105V49.9249L83.685 48.1787V47.3435L80.3748 49.105Z" fill="#6FA7AB"/>
<path d="M77.3525 47.1917L80.3743 49.105L83.6846 47.3435L80.6628 45.4303L77.3525 47.1917Z" fill="white"/>
<path d="M73.677 49.4846L73.6922 50.3046L76.6987 52.2178V51.3979L73.677 49.4846Z" fill="#64A5B8"/>
<path d="M76.6987 51.3979V52.2178L80.009 50.4716V49.6364L76.6987 51.3979Z" fill="#6FA7AB"/>
<path d="M73.6772 49.4846L76.699 51.3979L80.0093 49.6364L77.0027 47.7232L73.6772 49.4846Z" fill="white"/>
<path d="M70.1404 51.5649V52.4001L73.1621 54.3133V53.4782L70.1404 51.5649Z" fill="#64A5B8"/>
<path d="M73.1624 53.4781V54.3133L76.4726 52.5519V51.7319L73.1624 53.4781Z" fill="#6FA7AB"/>
<path d="M70.1401 51.5649L73.1619 53.4782L76.4721 51.7319L73.4504 49.8186L70.1401 51.5649Z" fill="white"/>
<path d="M66.6169 53.4478V54.2678L69.6235 56.1962V55.3611L66.6169 53.4478Z" fill="#64A5B8"/>
<path d="M69.6235 55.3611V56.1962L72.9338 54.4348V53.6148L69.6235 55.3611Z" fill="#6FA7AB"/>
<path d="M66.6169 53.4478L69.6235 55.3611L72.9338 53.6148L69.9272 51.6864L66.6169 53.4478Z" fill="white"/>
<path d="M62.8054 55.5281V56.3632L65.8272 58.2613L65.812 57.4414L62.8054 55.5281Z" fill="#64A5B8"/>
<path d="M65.812 57.4414L65.8272 58.2613L69.1375 56.5151V55.6799L65.812 57.4414Z" fill="#6FA7AB"/>
<path d="M62.8057 55.5281L65.8122 57.4414L69.1377 55.6799L66.1159 53.7818L62.8057 55.5281Z" fill="white"/>
<path d="M106.386 35.0288V35.8487L109.408 37.762V36.942L106.386 35.0288Z" fill="#64A5B8"/>
<path d="M109.408 36.942V37.762L112.718 36.0006V35.1806L109.408 36.942Z" fill="#6FA7AB"/>
<path d="M106.386 35.0288L109.408 36.942L112.718 35.1806L109.696 33.2673L106.386 35.0288Z" fill="white"/>
<path d="M102.847 37.1091V37.9442L105.869 39.8575V39.0223L102.847 37.1091Z" fill="#64A5B8"/>
<path d="M105.869 39.0223V39.8575L109.179 38.0961V37.2761L105.869 39.0223Z" fill="#6FA7AB"/>
<path d="M102.848 37.1091L105.869 39.0223L109.18 37.2761L106.158 35.3628L102.848 37.1091Z" fill="white"/>
<path d="M99.0364 39.1894V40.0093L102.058 41.9226V41.1026L99.0364 39.1894Z" fill="#64A5B8"/>
<path d="M102.058 41.1026V41.9226L105.368 40.1764V39.3412L102.058 41.1026Z" fill="#6FA7AB"/>
<path d="M99.0364 39.1894L102.058 41.1026L105.368 39.3412L102.347 37.4279L99.0364 39.1894Z" fill="white"/>
<path d="M80.3132 49.4542V50.2742L83.335 52.1874V51.3675L80.3132 49.4542Z" fill="#64A5B8"/>
<path d="M83.335 51.3675V52.1874L101.936 42.3326V41.5126L83.335 51.3675Z" fill="#6FA7AB"/>
<path d="M80.3135 49.4542L83.3352 51.3675L101.936 41.5126L98.9147 39.5993L80.3135 49.4542Z" fill="white"/>
<path d="M76.9573 51.5952V52.4152L79.979 54.3285V53.5085L76.9573 51.5952Z" fill="#64A5B8"/>
<path d="M79.979 53.5085V54.3285L83.2893 52.5822L83.2741 51.7471L79.979 53.5085Z" fill="#6FA7AB"/>
<path d="M76.9573 51.5952L79.979 53.5085L83.2741 51.7471L80.2675 49.8338L76.9573 51.5952Z" fill="white"/>
<path d="M73.4197 53.6756V54.5107L76.4414 56.424L76.4263 55.5888L73.4197 53.6756Z" fill="#64A5B8"/>
<path d="M76.4268 55.5888L76.4419 56.424L79.737 54.6626V53.8426L76.4268 55.5888Z" fill="#6FA7AB"/>
<path d="M73.4199 53.6756L76.4265 55.5888L79.7368 53.8426L76.7302 51.9293L73.4199 53.6756Z" fill="white"/>
<path d="M69.8821 55.5584V56.3936L72.9038 58.2917V57.4717L69.8821 55.5584Z" fill="#64A5B8"/>
<path d="M72.9031 57.4717V58.2917L76.2134 56.5455V55.7255L72.9031 57.4717Z" fill="#6FA7AB"/>
<path d="M69.8818 55.5584L72.9036 57.4717L76.2138 55.7255L73.1921 53.8122L69.8818 55.5584Z" fill="white"/>
<path d="M66.0706 57.6388V58.4587L69.0923 60.372V59.552L66.0706 57.6388Z" fill="#64A5B8"/>
<path d="M69.0916 59.552V60.372L72.4018 58.6258V57.7906L69.0916 59.552Z" fill="#6FA7AB"/>
<path d="M66.0706 57.6388L69.0923 59.552L72.4026 57.7906L69.3808 55.8773L66.0706 57.6388Z" fill="white"/>
<path d="M50.1113 54.2222V55.0422L53.1331 56.9555V56.1355L50.1113 54.2222Z" fill="#64A5B8"/>
<path d="M53.1335 56.1355V56.9555L56.4438 55.2092L56.4286 54.3741L53.1335 56.1355Z" fill="#6FA7AB"/>
<path d="M50.1116 54.2222L53.1333 56.1355L56.4284 54.374L53.4218 52.4608L50.1116 54.2222Z" fill="white"/>
<path d="M46.4375 56.3025L46.4527 57.1377L49.4592 59.0509V58.2158L46.4375 56.3025Z" fill="#64A5B8"/>
<path d="M49.4595 58.2158V59.0509L52.7697 57.2895V56.4696L49.4595 58.2158Z" fill="#6FA7AB"/>
<path d="M46.4373 56.3025L49.459 58.2158L52.7693 56.4695L49.7627 54.5563L46.4373 56.3025Z" fill="white"/>
<path d="M42.8074 58.1854V59.0054L45.8139 60.9186V60.0987L42.8074 58.1854Z" fill="#64A5B8"/>
<path d="M45.814 60.0987V60.9186L49.1242 59.1724V58.3372L45.814 60.0987Z" fill="#6FA7AB"/>
<path d="M42.8076 58.1854L45.8142 60.0987L49.1244 58.3373L46.1027 56.424L42.8076 58.1854Z" fill="white"/>
<path d="M39.1331 60.2657V61.0857L42.1548 62.999V62.179L39.1331 60.2657Z" fill="#64A5B8"/>
<path d="M42.1548 62.179V62.999L45.4651 61.2527V60.4176L42.1548 62.179Z" fill="#6FA7AB"/>
<path d="M39.1331 60.2657L42.1548 62.179L45.4651 60.4176L42.4433 58.5043L39.1331 60.2657Z" fill="white"/>
<path d="M69.6853 35.0895V35.9247L72.6919 37.8379V37.0028L69.6853 35.0895Z" fill="#64A5B8"/>
<path d="M72.6917 37.0028V37.8379L76.0019 36.0765V35.2565L72.6917 37.0028Z" fill="#6FA7AB"/>
<path d="M69.6851 35.0895L72.6916 37.0028L76.0019 35.2565L72.9953 33.3433L69.6851 35.0895Z" fill="white"/>
<path d="M66.1321 37.185L66.1473 38.0202L69.1538 39.9334V39.0983L66.1321 37.185Z" fill="#64A5B8"/>
<path d="M69.1531 39.0983V39.9334L72.4634 38.172V37.352L69.1531 39.0983Z" fill="#6FA7AB"/>
<path d="M66.1321 37.185L69.1538 39.0983L72.4641 37.352L69.4423 35.4236L66.1321 37.185Z" fill="white"/>
<path d="M62.3357 39.2653V40.0853L65.3574 41.9985L65.3423 41.1786L62.3357 39.2653Z" fill="#64A5B8"/>
<path d="M65.3425 41.1786L65.3577 41.9985L68.668 40.2523L68.6528 39.4171L65.3425 41.1786Z" fill="#6FA7AB"/>
<path d="M62.3354 39.2653L65.342 41.1786L68.6523 39.4172L65.6457 37.5039L62.3354 39.2653Z" fill="white"/>
<path d="M58.6609 41.3456V42.1808L61.6826 44.094V43.2589L58.6609 41.3456Z" fill="#64A5B8"/>
<path d="M61.6831 43.2589V44.094L64.9934 42.3326V41.5126L61.6831 43.2589Z" fill="#6FA7AB"/>
<path d="M58.6609 41.3456L61.6826 43.2589L64.9929 41.5126L61.9711 39.5994L58.6609 41.3456Z" fill="white"/>
<path d="M44.9639 50.1527V50.9879L47.9704 52.9012V52.066L44.9639 50.1527Z" fill="#64A5B8"/>
<path d="M47.9705 52.066V52.9011L51.2959 51.1397L51.2807 50.3198L47.9705 52.066Z" fill="#6FA7AB"/>
<path d="M44.9641 50.1527L47.9707 52.066L51.2809 50.3197L48.2744 48.4065L44.9641 50.1527Z" fill="white"/>
<path d="M41.4111 52.2482V53.0682L44.4329 54.9815V54.1615L41.4111 52.2482Z" fill="#64A5B8"/>
<path d="M44.4324 54.1615V54.9815L47.7426 53.2352V52.4001L44.4324 54.1615Z" fill="#6FA7AB"/>
<path d="M41.4111 52.2482L44.4329 54.1615L47.7431 52.4001L44.7366 50.4868L41.4111 52.2482Z" fill="white"/>
<path d="M37.6147 54.3285V55.1485L40.6213 57.0618V56.2418L37.6147 54.3285Z" fill="#64A5B8"/>
<path d="M40.6216 56.2418V57.0618L43.9318 55.3155V54.4804L40.6216 56.2418Z" fill="#6FA7AB"/>
<path d="M37.6147 54.3285L40.6213 56.2418L43.9316 54.4804L40.9098 52.5671L37.6147 54.3285Z" fill="white"/>
<path d="M33.9404 56.4088V57.244L36.9622 59.1421V58.3221L33.9404 56.4088Z" fill="#64A5B8"/>
<path d="M36.9622 58.3221V59.1421L40.2724 57.3958V56.5607L36.9622 58.3221Z" fill="#6FA7AB"/>
<path d="M33.9402 56.4088L36.9619 58.3221L40.2722 56.5607L37.2505 54.6626L33.9402 56.4088Z" fill="white"/>
<path d="M57.0356 59.0054V59.8254L60.0574 61.7386V60.9187L57.0356 59.0054Z" fill="#64A5B8"/>
<path d="M60.0569 60.9187V61.7386L63.3671 59.9924V59.1572L60.0569 60.9187Z" fill="#6FA7AB"/>
<path d="M57.0356 59.0054L60.0574 60.9186L63.3677 59.1572L60.3459 57.244L57.0356 59.0054Z" fill="white"/>
<path d="M53.376 61.0857V61.9208L56.3977 63.8341V62.999L53.376 61.0857Z" fill="#64A5B8"/>
<path d="M56.3982 62.999V63.8341L59.7084 62.0727V61.2527L56.3982 62.999Z" fill="#6FA7AB"/>
<path d="M53.376 61.0857L56.3977 62.999L59.708 61.2527L56.6863 59.3395L53.376 61.0857Z" fill="white"/>
<path d="M49.7317 62.9686V63.7886L52.7535 65.7018V64.8819L49.7317 62.9686Z" fill="#64A5B8"/>
<path d="M52.7529 64.8819V65.7018L56.0632 63.9404V63.1205L52.7529 64.8819Z" fill="#6FA7AB"/>
<path d="M49.7317 62.9686L52.7535 64.8819L56.0637 63.1204L53.0419 61.2072L49.7317 62.9686Z" fill="white"/>
<path d="M46.0715 65.0489V65.8689L49.0933 67.7821L49.0781 66.9622L46.0715 65.0489Z" fill="#64A5B8"/>
<path d="M49.0781 66.9622L49.0933 67.7821L52.4036 66.0359L52.3884 65.2007L49.0781 66.9622Z" fill="#6FA7AB"/>
<path d="M46.0718 65.0489L49.0783 66.9622L52.3886 65.2007L49.3821 63.2875L46.0718 65.0489Z" fill="white"/>
<path d="M60.5129 61.3894V62.2245L63.5347 64.1378L63.5195 63.3027L60.5129 61.3894Z" fill="#64A5B8"/>
<path d="M63.5193 63.3027L63.5345 64.1378L66.8447 62.3764V61.5564L63.5193 63.3027Z" fill="#6FA7AB"/>
<path d="M60.5127 61.3894L63.5193 63.3027L66.8447 61.5564L63.823 59.6431L60.5127 61.3894Z" fill="white"/>
<path d="M56.8381 63.4848L56.8533 64.3048L59.8599 66.2181V65.3981L56.8381 63.4848Z" fill="#64A5B8"/>
<path d="M59.8604 65.3981V66.2181L63.1706 64.4567V63.6367L59.8604 65.3981Z" fill="#6FA7AB"/>
<path d="M56.8381 63.4849L59.8599 65.3981L63.1701 63.6367L60.1484 61.7235L56.8381 63.4849Z" fill="white"/>
<path d="M53.2092 65.3526V66.1878L56.231 68.0858L56.2158 67.2659L53.2092 65.3526Z" fill="#64A5B8"/>
<path d="M56.2156 67.2659L56.2308 68.0858L59.541 66.3396L59.5258 65.5044L56.2156 67.2659Z" fill="#6FA7AB"/>
<path d="M53.209 65.3526L56.2156 67.2659L59.5258 65.5044L56.5193 63.6064L53.209 65.3526Z" fill="white"/>
<path d="M49.5344 67.4329V68.2681L52.5562 70.1813V69.3462L49.5344 67.4329Z" fill="#64A5B8"/>
<path d="M52.5562 69.3462V70.1813L55.8664 68.4199V67.5999L52.5562 69.3462Z" fill="#6FA7AB"/>
<path d="M49.5344 67.4329L52.5562 69.3462L55.8664 67.5999L52.8447 65.6867L49.5344 67.4329Z" fill="white"/>
<path d="M53.5891 56.6062V57.4413L56.5957 59.3546V58.5195L53.5891 56.6062Z" fill="#64A5B8"/>
<path d="M56.5957 58.5195V59.3546L59.9211 57.5932L59.906 56.7732L56.5957 58.5195Z" fill="#6FA7AB"/>
<path d="M53.5891 56.6062L56.5957 58.5195L59.9059 56.7732L56.8994 54.86L53.5891 56.6062Z" fill="white"/>
<path d="M50.0349 58.7017V59.5217L53.0567 61.4349V60.615L50.0349 58.7017Z" fill="#64A5B8"/>
<path d="M53.0571 60.615V61.4349L56.3674 59.6887V58.8536L53.0571 60.615Z" fill="#6FA7AB"/>
<path d="M50.0352 58.7017L53.0569 60.615L56.3672 58.8535L53.3454 56.9403L50.0352 58.7017Z" fill="white"/>
<path d="M46.2395 60.782V61.602L49.2461 63.5152V62.6953L46.2395 60.782Z" fill="#64A5B8"/>
<path d="M49.2458 62.6953V63.5152L52.5713 61.769V60.9338L49.2458 62.6953Z" fill="#6FA7AB"/>
<path d="M46.2393 60.782L49.2458 62.6953L52.5713 60.9338L49.5495 59.0206L46.2393 60.782Z" fill="white"/>
<path d="M42.5647 62.8623V63.6974L45.5865 65.6107V64.7756L42.5647 62.8623Z" fill="#64A5B8"/>
<path d="M45.5869 64.7756V65.6107L48.8972 63.8493V63.0293L45.5869 64.7756Z" fill="#6FA7AB"/>
<path d="M42.5647 62.8623L45.5865 64.7756L48.8967 63.0293L45.8749 61.1161L42.5647 62.8623Z" fill="white"/>
<path d="M137.348 146.439C137.18 146.439 137.013 146.408 136.846 146.333L123.59 140.274V143.645C123.59 144.313 123.044 144.86 122.375 144.86C121.707 144.86 121.161 144.313 121.161 143.645V138.391C121.161 137.981 121.373 137.586 121.722 137.374C122.072 137.146 122.512 137.115 122.877 137.298L137.849 144.146C138.456 144.419 138.729 145.148 138.441 145.756C138.243 146.166 137.803 146.439 137.348 146.439Z" fill="#3F0706"/>
<path d="M149.434 146.439C149.009 146.439 148.584 146.211 148.371 145.801C148.052 145.209 148.265 144.48 148.857 144.161L165.241 135.202C165.621 134.99 166.077 135.005 166.441 135.217C166.805 135.43 167.033 135.825 167.033 136.265V142.248C167.033 142.916 166.487 143.463 165.818 143.463C165.15 143.463 164.604 142.916 164.604 142.248V138.315L150.011 146.302C149.829 146.378 149.632 146.439 149.434 146.439Z" fill="#3F0706"/>
<path d="M134.053 147.623C134.068 147.654 134.068 147.699 134.083 147.73C134.189 148.018 134.341 148.307 134.523 148.595C134.554 148.641 134.584 148.701 134.63 148.747C134.827 149.02 135.07 149.294 135.358 149.552C135.541 149.719 135.784 149.871 136.011 150.038C136.209 150.174 136.361 150.326 136.588 150.448C137.15 150.766 137.773 151.025 138.411 151.252C138.638 151.328 138.866 151.404 139.109 151.465C139.413 151.556 139.716 151.632 140.035 151.693C140.4 151.769 140.779 151.845 141.159 151.89C141.25 151.905 141.341 151.921 141.432 151.936C141.949 151.996 142.465 152.012 142.996 152.027C143.072 152.027 143.163 152.027 143.239 152.027C143.756 152.027 144.272 151.996 144.773 151.936C144.849 151.921 144.925 151.921 145.001 151.905C145.502 151.845 146.003 151.753 146.489 151.647C146.58 151.632 146.671 151.602 146.762 151.586C147.203 151.48 147.628 151.344 148.053 151.192C148.129 151.161 148.205 151.146 148.281 151.116C148.782 150.918 149.252 150.706 149.693 150.448C151.515 149.4 152.426 148.018 152.426 146.636V148.61C152.426 149.992 151.515 151.374 149.693 152.422C149.268 152.665 148.827 152.877 148.357 153.059C148.326 153.075 148.311 153.075 148.281 153.09C148.205 153.12 148.129 153.135 148.053 153.166C147.78 153.257 147.506 153.363 147.233 153.439C147.081 153.485 146.929 153.515 146.777 153.545C146.686 153.56 146.595 153.591 146.504 153.606C146.428 153.621 146.352 153.652 146.261 153.667C145.957 153.728 145.654 153.788 145.35 153.834C145.244 153.849 145.137 153.864 145.016 153.864C144.94 153.879 144.864 153.879 144.788 153.895C144.682 153.91 144.56 153.925 144.454 153.94C144.15 153.97 143.847 153.986 143.543 153.986C143.452 153.986 143.346 153.986 143.255 153.986C143.179 153.986 143.087 153.986 143.012 153.986C142.875 153.986 142.738 153.986 142.602 153.986C142.252 153.97 141.918 153.955 141.569 153.91C141.523 153.91 141.493 153.895 141.448 153.895C141.356 153.879 141.265 153.864 141.174 153.849C140.916 153.819 140.643 153.788 140.385 153.743C140.263 153.727 140.157 153.682 140.051 153.667C139.732 153.606 139.428 153.515 139.124 153.439C138.957 153.393 138.79 153.363 138.638 153.318C138.562 153.287 138.502 153.257 138.426 153.226C137.773 152.999 137.15 152.74 136.604 152.422C136.573 152.406 136.528 152.376 136.497 152.361C136.315 152.255 136.194 152.133 136.027 152.012C135.799 151.86 135.571 151.708 135.389 151.541C135.374 151.526 135.343 151.511 135.328 151.495C135.116 151.298 134.918 151.085 134.751 150.873C134.706 150.827 134.69 150.766 134.645 150.721C134.614 150.675 134.569 150.615 134.538 150.569C134.478 150.478 134.417 150.402 134.371 150.311C134.28 150.144 134.189 149.962 134.129 149.779C134.113 149.749 134.113 149.719 134.098 149.704C134.083 149.673 134.083 149.628 134.068 149.597C134.037 149.491 133.992 149.369 133.977 149.263C133.946 149.081 133.916 148.914 133.916 148.732C133.916 148.701 133.916 148.671 133.916 148.656V146.682C133.901 147.001 133.961 147.32 134.053 147.623Z" fill="#3F0706"/>
<path d="M136.634 142.855C132.989 144.951 132.989 148.367 136.588 150.448C140.202 152.543 146.063 152.543 149.708 150.448C153.337 148.352 153.352 144.966 149.738 142.855C146.139 140.775 140.263 140.76 136.634 142.855Z" fill="#3F0706"/>
<path d="M137.772 97.7567C137.772 97.9389 137.802 98.1212 137.863 98.3034C137.863 98.3186 137.878 98.3489 137.878 98.3641C137.939 98.5311 138.03 98.6982 138.136 98.85C138.152 98.8804 138.182 98.9108 138.197 98.9411C138.319 99.1082 138.455 99.26 138.622 99.4118C138.729 99.503 138.865 99.5941 138.987 99.6852C139.093 99.7611 139.199 99.8522 139.321 99.9281C139.807 100.201 140.369 100.414 140.961 100.551C141.052 100.566 141.128 100.596 141.219 100.611C141.811 100.748 142.434 100.809 143.071 100.824C143.087 100.824 143.117 100.824 143.132 100.824C143.785 100.824 144.453 100.748 145.076 100.596C145.106 100.596 145.121 100.581 145.152 100.581C145.774 100.429 146.367 100.217 146.883 99.9129C147.931 99.3055 148.447 98.516 148.447 97.7112L148.583 145.133C148.583 145.923 148.067 146.727 147.019 147.335C146.776 147.471 146.518 147.593 146.245 147.699C146.032 147.775 145.82 147.851 145.592 147.912C145.486 147.942 145.395 147.957 145.288 147.988C145.258 147.988 145.243 148.003 145.212 148.003C145.152 148.018 145.091 148.033 145.03 148.048C144.848 148.079 144.681 148.109 144.499 148.14C144.332 148.17 144.15 148.185 143.983 148.2C143.815 148.215 143.633 148.231 143.451 148.231C143.39 148.231 143.33 148.231 143.269 148.231C143.238 148.231 143.223 148.231 143.208 148.231C143.117 148.231 143.011 148.231 142.92 148.231C142.722 148.231 142.525 148.215 142.327 148.185C142.1 148.17 141.872 148.124 141.644 148.094C141.553 148.079 141.462 148.048 141.356 148.018C141.264 148.003 141.189 147.972 141.097 147.957C140.946 147.912 140.779 147.881 140.627 147.836C140.217 147.699 139.822 147.532 139.457 147.32C139.442 147.304 139.412 147.289 139.397 147.274C139.29 147.213 139.215 147.137 139.123 147.077C139.002 146.986 138.865 146.894 138.759 146.803C138.744 146.788 138.729 146.788 138.729 146.773C138.607 146.651 138.501 146.545 138.395 146.424C138.379 146.393 138.364 146.363 138.334 146.333C138.319 146.302 138.288 146.272 138.273 146.241C138.243 146.196 138.197 146.15 138.182 146.09C138.121 145.983 138.076 145.892 138.045 145.786C138.045 145.771 138.03 145.756 138.03 145.74C138.03 145.725 138.015 145.695 138.015 145.68C138 145.619 137.969 145.558 137.954 145.482C137.939 145.376 137.924 145.285 137.924 145.179C137.924 145.163 137.924 145.148 137.924 145.133L137.772 97.7567Z" fill="#3F0706"/>
<path d="M139.352 95.5398C137.256 96.7394 137.241 98.6982 139.306 99.9129C141.386 101.113 144.757 101.113 146.853 99.8978C148.933 98.6982 148.948 96.7394 146.883 95.5398C144.803 94.3402 141.432 94.3402 139.352 95.5398Z" fill="#DCDCDC"/>
<path d="M167.094 167.029C166.426 167.029 165.879 166.483 165.879 165.815V159.574L148.994 153.166C148.371 152.923 148.053 152.224 148.295 151.602C148.538 150.979 149.237 150.66 149.86 150.903L167.519 157.6C167.99 157.782 168.309 158.222 168.309 158.738V165.83C168.309 166.483 167.777 167.029 167.094 167.029Z" fill="#3F0706"/>
<path d="M123.287 168.198C122.618 168.198 122.072 167.652 122.072 166.984V161.001C122.072 160.591 122.269 160.211 122.603 159.999L136.027 151.025C136.588 150.66 137.332 150.797 137.712 151.359C138.092 151.92 137.94 152.665 137.378 153.044L124.501 161.654V166.984C124.486 167.652 123.955 168.198 123.287 168.198Z" fill="#3F0706"/>
<path d="M118.943 169.93C118.943 172.329 120.887 174.272 123.286 174.272C125.685 174.272 127.629 172.329 127.629 169.93C127.629 167.53 125.685 165.587 123.286 165.587C120.887 165.587 118.943 167.53 118.943 169.93Z" fill="#3F0706"/>
<path d="M120.583 166.543C120.31 167.105 120.143 167.743 120.143 168.411C120.143 170.81 122.087 172.754 124.486 172.754C125.503 172.754 126.445 172.39 127.173 171.797C126.475 173.255 125.002 174.272 123.271 174.272C120.872 174.272 118.928 172.329 118.928 169.93C118.943 168.548 119.596 167.348 120.583 166.543Z" fill="#3F0706"/>
<path d="M163.085 166.984C163.085 169.383 165.029 171.327 167.428 171.327C169.827 171.327 171.771 169.383 171.771 166.984C171.771 164.585 169.827 162.641 167.428 162.641C165.029 162.641 163.085 164.585 163.085 166.984Z" fill="#3F0706"/>
<path d="M164.74 163.613C164.467 164.175 164.3 164.812 164.3 165.48C164.3 167.88 166.243 169.823 168.643 169.823C169.66 169.823 170.601 169.459 171.33 168.867C170.632 170.324 169.159 171.342 167.428 171.342C165.029 171.342 163.085 169.398 163.085 166.999C163.085 165.617 163.738 164.402 164.74 163.613Z" fill="#3F0706"/>
<path d="M161.476 145.224C161.476 147.623 163.42 149.567 165.819 149.567C168.218 149.567 170.162 147.623 170.162 145.224C170.162 142.825 168.218 140.881 165.819 140.881C163.42 140.881 161.476 142.825 161.476 145.224Z" fill="#3F0706"/>
<path d="M163.131 141.838C162.858 142.4 162.691 143.037 162.691 143.706C162.691 146.105 164.634 148.048 167.034 148.048C168.051 148.048 168.992 147.684 169.721 147.092C169.023 148.55 167.55 149.567 165.819 149.567C163.42 149.567 161.476 147.623 161.476 145.224C161.476 143.842 162.129 142.643 163.131 141.838Z" fill="#3F0706"/>
<path d="M117.333 146.651C117.333 149.051 119.277 150.994 121.676 150.994C124.075 150.994 126.019 149.051 126.019 146.651C126.019 144.252 124.075 142.309 121.676 142.309C119.277 142.324 117.333 144.252 117.333 146.651Z" fill="#3F0706"/>
<path d="M118.974 143.28C118.701 143.842 118.534 144.48 118.534 145.148C118.534 147.547 120.477 149.491 122.876 149.491C123.894 149.491 124.835 149.127 125.564 148.534C124.866 149.992 123.393 151.009 121.662 151.009C119.263 151.009 117.319 149.066 117.319 146.667C117.334 145.285 117.987 144.07 118.974 143.28Z" fill="#3F0706"/>
<path d="M105.171 47.9661L99.7197 46.3414C99.7197 46.3414 93.9951 49.1202 91.7326 48.8165C91.7326 48.8165 91.6718 46.645 95.7109 45.734L96.3487 45.4758C96.3487 45.4758 97.609 43.3196 94.8302 42.7578C92.3248 42.2415 86.0535 40.3282 86.0535 40.3282C86.0535 40.3282 84.8691 38.1416 95.0428 40.313C95.0428 40.313 86.6609 38.415 86.919 37.2154C87.1923 36.0158 94.9062 38.1872 94.9062 38.1872C94.9062 38.1872 88.8323 35.8639 88.4982 34.9073C88.1642 33.9506 96.212 36.4258 96.212 36.4258C96.212 36.4258 92.4159 34.6795 92.1122 33.1762C91.854 31.9159 98.2772 35.0591 100.312 36.0765C100.722 36.2739 101.071 36.5776 101.344 36.942L106.856 44.1851L105.171 47.9661Z" fill="#FDBBA5"/>
<path d="M157.436 31.3996C155.25 32.4018 147.414 52.3089 141.948 62.1486C141.948 62.1486 136.497 74.1293 143.588 73.5827C150.664 73.036 165.833 50.4868 165.833 50.4868C165.833 50.4868 165.12 30.0937 157.436 31.3996Z" fill="#F1AEB5"/>
<path d="M117.334 132.94V136.159C117.334 136.159 116.94 139.393 112.931 139.621C111.792 139.682 105.551 136.599 101.907 133.957C101.33 133.532 99.7353 131.862 101.694 130.434C103.683 128.976 106.644 129.751 109.423 131.026L117.334 132.94Z" fill="white"/>
<path d="M118.078 131.239V135.111C118.078 135.111 117.607 138.983 112.809 139.256C111.442 139.332 103.956 135.627 99.5832 132.454C98.8999 131.953 96.9866 129.948 99.325 128.217C101.709 126.471 105.262 127.397 108.588 128.931L118.078 131.239Z" fill="#3F0706"/>
<path d="M108.132 133.198L110.667 88.5851L122.405 96.8456C122.405 96.8456 123.407 105.577 122.405 112.046C121.403 118.529 117.926 135.597 117.926 135.597C117.926 135.597 111.077 139.348 108.132 133.198Z" fill="#C55D02"/>
<path d="M99.1268 143.523V146.743C99.1268 146.743 98.7321 149.977 94.7233 150.205C93.5844 150.265 87.3435 147.183 83.6992 144.541C83.1222 144.116 81.5278 142.46 83.4866 141.018C85.4758 139.56 88.4368 140.335 91.2156 141.61L99.1268 143.523Z" fill="white"/>
<path d="M99.7651 145.3V149.172C99.7651 149.172 99.2944 153.044 94.4961 153.318C93.1294 153.393 85.6434 149.688 81.2702 146.515C80.5869 146.014 78.6736 144.009 81.012 142.278C83.396 140.532 86.9493 141.458 90.2747 142.992L99.7651 145.3Z" fill="#3F0706"/>
<path d="M89.5613 143.797L92.0971 99.1841L103.835 107.445C103.835 107.445 104.837 116.176 103.835 122.644C102.833 129.128 99.3402 146.196 99.3402 146.196C99.3402 146.196 92.5071 149.947 89.5613 143.797Z" fill="#C55D02"/>
<path d="M103.485 114.612C103.5 114.657 103.5 114.688 103.515 114.733C103.637 115.098 103.834 115.447 104.062 115.796C104.108 115.857 104.138 115.918 104.184 115.978C104.427 116.328 104.73 116.662 105.079 116.981C105.307 117.193 105.596 117.375 105.869 117.573C106.112 117.74 106.309 117.922 106.568 118.074V119.456C106.522 119.425 106.476 119.395 106.431 119.38C106.218 119.243 106.066 119.106 105.869 118.955C105.596 118.757 105.307 118.575 105.064 118.362C105.049 118.347 105.004 118.332 104.988 118.302C104.715 118.059 104.487 117.8 104.29 117.542C104.244 117.482 104.214 117.421 104.168 117.36C104.123 117.299 104.077 117.239 104.047 117.178C103.971 117.072 103.895 116.965 103.834 116.874C103.713 116.662 103.607 116.449 103.531 116.221C103.515 116.191 103.515 116.161 103.5 116.115C103.485 116.069 103.485 116.039 103.47 115.994C103.424 115.857 103.379 115.72 103.348 115.584C103.303 115.371 103.288 115.143 103.272 114.931C103.272 114.9 103.272 114.87 103.272 114.824V113.442C103.303 113.822 103.364 114.217 103.485 114.612Z" fill="url(#paint0_linear_1_21601)"/>
<path d="M155.918 128.232V129.614C165.499 124.072 170.298 116.813 170.267 109.555V108.173C170.282 115.432 165.499 122.705 155.918 128.232Z" fill="#858585"/>
<path d="M106.598 118.059V119.44L139.655 138.649L139.64 137.267L106.598 118.059Z" fill="url(#paint1_linear_1_21601)"/>
<path d="M140.262 137.267V138.649L155.918 129.614V128.232L140.262 137.267Z" fill="#898989"/>
<path d="M139.639 137.267V138.649C139.67 138.664 139.7 138.679 139.731 138.695V137.313C139.7 137.298 139.67 137.282 139.639 137.267Z" fill="#B8B8B8"/>
<path d="M139.745 137.313V138.695C139.775 138.71 139.806 138.71 139.821 138.71V137.328C139.791 137.328 139.76 137.313 139.745 137.313Z" fill="#B3B3B3"/>
<path d="M139.822 137.328V138.71C139.837 138.71 139.852 138.71 139.882 138.725V137.343C139.867 137.343 139.837 137.328 139.822 137.328Z" fill="#ADADAD"/>
<path d="M139.883 137.343V138.725C139.898 138.725 139.913 138.725 139.928 138.725V137.343C139.913 137.343 139.898 137.343 139.883 137.343Z" fill="#A8A8A8"/>
<path d="M139.927 137.343V138.725C139.942 138.725 139.958 138.725 139.973 138.725V137.343C139.958 137.343 139.942 137.343 139.927 137.343Z" fill="#A3A3A3"/>
<path d="M139.974 137.343V138.725C139.989 138.725 140.004 138.725 140.019 138.725V137.343C140.004 137.343 139.989 137.343 139.974 137.343Z" fill="#9E9E9E"/>
<path d="M140.019 137.343V138.725C140.034 138.725 140.049 138.725 140.065 138.725V137.343C140.049 137.343 140.034 137.343 140.019 137.343Z" fill="#999999"/>
<path d="M140.065 137.343V138.725C140.08 138.725 140.095 138.725 140.11 138.725V137.343C140.095 137.328 140.08 137.328 140.065 137.343Z" fill="#949494"/>
<path d="M140.095 137.328V138.71C140.11 138.71 140.125 138.71 140.14 138.695V137.313C140.125 137.328 140.11 137.328 140.095 137.328Z" fill="#8F8F8F"/>
<path d="M140.141 137.313V138.695C140.156 138.695 140.171 138.679 140.187 138.679V137.298C140.187 137.313 140.171 137.313 140.141 137.313Z" fill="#8A8A8A"/>
<path d="M140.201 137.298V138.679C140.217 138.664 140.247 138.664 140.262 138.649V137.267C140.247 137.282 140.217 137.298 140.201 137.298Z" fill="#858585"/>
<path d="M106.674 108.735C102.195 111.317 102.179 115.492 106.613 118.074L139.655 137.282C139.822 137.374 140.095 137.374 140.278 137.282L155.933 128.248C174.99 117.254 175.081 99.4118 156.161 88.4029L149.054 84.2727L106.674 108.735Z" fill="#F79009"/>
<path d="M158.697 31.8552C153.215 29.9419 143.618 40.0397 133.445 44.8836C133.445 44.8836 134.006 46.0832 105.93 43.3196L101.693 47.8143C101.693 47.8143 118.624 54.617 129.39 55.6496C134.902 57.2288 148.219 53.9944 155.493 51.9597C160.094 50.6842 163.708 46.888 164.345 42.1504C164.801 38.7338 164.254 33.814 158.697 31.8552Z" fill="#930309"/>
<path d="M108.663 43.5777C107.798 43.5018 106.902 43.4259 105.945 43.3348L101.708 47.8294C101.708 47.8294 102.711 48.2242 104.366 48.8468L108.663 43.5777Z" fill="#F0EEEA"/>
<path d="M112.384 83.0124C112.368 83.0124 112.353 83.0124 112.338 83.0124C112.444 82.8605 112.581 82.7239 112.702 82.572C112.748 82.5113 112.794 82.4506 112.854 82.3898C113.173 82.0406 113.522 81.7369 113.887 81.4484C113.963 81.3876 114.024 81.3421 114.1 81.2965C114.464 81.0384 114.859 80.8106 115.269 80.6436C115.345 80.6132 115.421 80.5828 115.497 80.5525C115.922 80.4006 116.362 80.2791 116.818 80.2336C116.878 80.2336 116.939 80.2336 116.985 80.2336C117.47 80.2032 117.972 80.2184 118.473 80.3247C147.885 86.763 117.835 79.7628 163.617 91.3184C163.617 91.3184 165.636 110.694 162.265 111.028C157.68 111.484 111.047 98.106 110.577 88.6915C110.486 86.6567 111.199 84.5916 112.384 83.0124Z" fill="#C55D02"/>
<path d="M94.3444 92.9128C94.6633 92.5484 95.0277 92.2295 95.4225 91.941C95.544 91.8499 95.6806 91.7739 95.8173 91.6828C96.0906 91.5006 96.3791 91.3336 96.6828 91.2121C96.8499 91.1362 97.0017 91.0754 97.1688 91.0299C97.4724 90.9236 97.7761 90.8629 98.095 90.8021C98.262 90.7718 98.4291 90.7414 98.5961 90.7262C98.672 90.7262 98.748 90.6958 98.8239 90.6958C98.8239 90.6958 98.9302 90.7262 99.1276 90.7566C99.4313 90.7718 99.735 90.7414 100.039 90.8173C102.924 91.4551 106.978 92.3965 111.473 93.4746C120.735 95.4942 132.671 98.0452 138.486 99.0778L138.684 100.171C142.617 101.158 145.168 101.796 145.168 101.796C145.168 101.796 146.838 121.08 143.482 121.414C138.896 121.87 92.5982 108.583 92.1274 99.1537C91.9908 96.8912 92.8715 94.5527 94.3444 92.9128Z" fill="#C55D02"/>
<path d="M139.321 103.117L139.275 104.332C139.321 102.98 139.382 102.1 139.382 102.1L168.43 92.9887C168.43 92.9887 168.46 94.3553 168.445 96.3294C168.445 96.3445 168.445 96.3445 168.445 96.3597C168.445 96.3901 168.445 96.4508 168.445 96.466C168.445 96.6634 168.445 96.876 168.445 97.0886C168.445 97.286 168.445 97.4834 168.43 97.696C168.43 97.8782 168.43 98.0604 168.415 98.2578C168.415 98.6526 168.4 99.0474 168.385 99.4726C168.385 99.5941 168.369 99.7155 168.369 99.837C168.354 100.186 168.354 100.52 168.339 100.87C168.339 101.021 168.324 101.158 168.324 101.31C168.309 101.75 168.293 102.191 168.263 102.631C168.263 102.661 168.263 102.692 168.263 102.722C168.233 103.193 168.202 103.648 168.172 104.104C168.157 104.225 168.157 104.347 168.142 104.468C168.111 104.863 168.081 105.258 168.035 105.638C168.035 105.698 168.02 105.774 168.02 105.85C167.975 106.29 167.929 106.716 167.868 107.126C167.853 107.217 167.838 107.293 167.838 107.384C167.792 107.718 167.747 108.022 167.686 108.325C167.671 108.416 167.656 108.492 167.64 108.583C167.58 108.933 167.504 109.267 167.428 109.555C167.413 109.601 167.398 109.646 167.382 109.692C167.322 109.935 167.246 110.147 167.17 110.345C167.139 110.406 167.124 110.466 167.094 110.527C167.003 110.74 166.896 110.922 166.79 111.059C166.699 111.226 166.578 111.423 166.441 111.62C166.395 111.681 166.335 111.757 166.289 111.833C166.183 111.97 166.076 112.121 165.955 112.273C165.879 112.364 165.788 112.455 165.712 112.562C165.591 112.698 165.454 112.85 165.317 113.002C165.211 113.108 165.089 113.23 164.983 113.336C164.831 113.488 164.695 113.625 164.528 113.777C164.391 113.898 164.254 114.02 164.118 114.141C163.951 114.293 163.784 114.429 163.601 114.581C163.449 114.718 163.282 114.839 163.115 114.976C162.933 115.128 162.736 115.28 162.538 115.417C162.356 115.553 162.159 115.69 161.977 115.826C161.764 115.978 161.551 116.115 161.324 116.267C161.111 116.404 160.914 116.54 160.686 116.677C160.458 116.829 160.215 116.965 159.972 117.102C159.744 117.239 159.517 117.36 159.274 117.497C159.016 117.633 158.757 117.77 158.484 117.907C158.226 118.028 157.983 118.165 157.725 118.286C157.452 118.423 157.163 118.545 156.875 118.666C156.601 118.787 156.328 118.909 156.039 119.015C155.751 119.137 155.432 119.243 155.128 119.365C154.84 119.471 154.551 119.577 154.248 119.683C153.929 119.79 153.595 119.896 153.261 119.987C152.957 120.078 152.653 120.185 152.334 120.26C151.985 120.352 151.621 120.443 151.271 120.519C150.953 120.594 150.634 120.67 150.3 120.746C149.92 120.822 149.51 120.883 149.115 120.944C148.796 121.004 148.477 121.065 148.143 121.111C147.688 121.172 147.217 121.217 146.746 121.247C146.458 121.278 146.184 121.308 145.881 121.339H145.866C145.091 121.384 144.302 121.414 143.482 121.414C139.564 121.597 139.169 111.59 139.26 105.911C139.473 104.787 139.321 103.117 139.321 103.117Z" fill="url(#paint2_linear_1_21601)"/>
<path d="M127.841 48.6494C127.841 48.6494 136.512 39.9182 157.436 31.4148C159.669 32.3259 167.003 47.7232 168.385 66.6585C170.419 94.2339 168.597 94.9779 168.597 94.9779C168.597 94.9779 161.855 106.002 147.293 107.369C139.564 108.097 136.512 100.794 136.512 100.794C136.664 101.113 137.089 101.325 133.505 74.6912C131.82 62.0423 124 54.8751 127.841 48.6494Z" fill="#930309"/>
<path d="M136.664 111.119C136.71 111.483 136.74 111.711 136.74 111.711C136.725 111.514 136.694 111.316 136.664 111.119Z" fill="#1D2226"/>
<path d="M148.432 7.84815C148.432 7.84815 153.975 32.4777 138.987 31.7185L135.601 16.8223L148.432 7.84815Z" fill="#FDBBA5"/>
<path d="M141.736 65.6259C151.864 106.913 144.879 104.499 146.504 107.414C146.762 107.414 147.02 107.399 147.293 107.369C161.871 106.002 168.598 94.9779 168.598 94.9779C168.598 94.9779 168.977 94.1428 168.385 66.6585C167.975 47.6776 159.669 32.3259 157.437 31.4148C144.408 36.7143 136.133 42.0896 131.744 45.3999C134.068 47.0702 138.365 51.9141 141.736 65.6259Z" fill="#930309"/>
<path d="M134.325 33.5103C134.325 33.5103 138.881 36.8813 137.256 43.0615L150.451 36.3043C150.451 36.3043 147.748 31.2022 148.827 23.8376C149.191 20.3755 134.325 33.5103 134.325 33.5103Z" fill="#EDA790"/>
<path d="M134.781 42.7122C134.781 42.7122 141.006 45.6125 147.506 42.1504C152.881 39.2805 151.332 35.1047 151.332 35.1047L149.161 32.5233C149.161 32.5233 150.224 35.788 145.85 37.762C140.642 40.1156 136.451 38.2783 136.451 38.2783L134.781 42.7122Z" fill="#F0EEEA"/>
<path d="M75.257 64.0012H67.8772C67.8772 64.0012 60.2545 60.9187 61.6211 60.2505C62.9877 59.5824 66.708 61.5109 66.708 61.5109C66.708 61.5109 59.8141 56.6821 60.7708 56.3481C61.7274 56.0292 67.285 59.4002 67.285 59.4002C67.285 59.4002 60.8315 54.6322 61.6211 53.6907C62.3955 52.7493 69.0464 58.2006 69.0464 58.2006C61.1048 51.489 63.7773 50.0009 63.7773 50.0009C63.7773 50.0009 68.1809 53.9944 70.8534 56.5303C72.7211 58.2917 73.9359 56.0747 73.9359 56.0747L73.7385 55.4066C71.9771 51.6408 73.7385 50.3653 73.7385 50.3653C75.3481 51.9749 76.6691 58.2006 76.6691 58.2006L81.3005 61.5109L75.257 64.0012Z" fill="#FDBBA5"/>
<path d="M120.477 12.1302C120.477 12.1302 122.026 19.1456 124.273 24.3084C127.097 30.8074 129.861 37.8531 131.82 37.8987C133.794 37.9442 136.345 38.1264 139.154 34.558L138.288 18.4623L120.477 12.1302Z" fill="#FDBBA5"/>
<path d="M138.941 30.6404L137.742 28.879C136.846 38.9616 131.334 37.762 131.334 37.762C131.501 37.8531 131.668 37.8987 131.805 37.8987C133.779 37.9442 136.33 38.1264 139.139 34.558L138.941 30.6404Z" fill="#EDA790"/>
<path d="M147.961 5.3275C142.176 -1.65745 127.492 -2.62929 119.718 8.18221C115.193 17.6726 125.048 17.6878 127.249 18.8874C129.451 20.087 132.731 31.4755 135.571 24.5361C135.798 24.6728 137.666 31.3692 139.913 33.3736C142.009 35.2413 146.473 32.8877 148.751 30.1393C152.471 25.6902 149.966 7.75705 147.961 5.3275Z" fill="#3F0706"/>
<path d="M138.562 25.8116C138.79 27.2694 137.864 28.0286 136.467 27.4971C135.07 26.9657 133.749 25.3409 133.521 23.8832C133.293 22.4255 134.219 21.6662 135.616 22.1977C137.013 22.7291 138.334 24.3387 138.562 25.8116Z" fill="#FDBBA5"/>
<path d="M137.332 25.3409C137.453 26.085 136.968 26.4798 136.254 26.2065C135.54 25.9331 134.872 25.1132 134.751 24.3539C134.629 23.6099 135.115 23.2151 135.829 23.4884C136.527 23.7617 137.21 24.5817 137.332 25.3409Z" fill="#EDA790"/>
<path d="M144.697 8.28852C146.048 7.19522 146.975 6.01081 147.521 4.84159C141.478 -1.68783 127.311 -2.35596 119.718 8.18222C119.673 8.24295 119.642 8.30371 119.597 8.36445C120.462 9.65515 121.95 10.7788 124.031 11.5684C130.272 13.9524 139.534 12.4795 144.697 8.28852Z" fill="#3F0706"/>
<path d="M147.278 104.924C140.87 105.516 137.575 100.763 136.542 98.8956C136.542 99.5333 136.527 100.156 136.512 100.794C136.512 100.794 139.564 108.082 147.293 107.369C161.87 106.002 168.597 94.9779 168.597 94.9779C168.658 94.2946 168.719 93.5657 168.764 92.8217C167.048 95.2361 160.124 103.724 147.278 104.924Z" fill="#F1AEB5"/>
<path d="M138.076 69.1791C138.091 68.8147 138.106 68.4351 138.122 68.0555C138.137 67.8884 138.152 67.7062 138.167 67.5392C138.167 67.4632 138.182 67.3873 138.182 67.3114C138.197 67.1747 138.197 67.0533 138.213 66.9166C138.243 66.537 138.289 66.1574 138.334 65.7778C138.38 65.383 138.44 65.0033 138.501 64.6085C138.501 64.5933 138.501 64.5782 138.501 64.5782C138.501 64.563 138.501 64.5478 138.516 64.5326C138.577 64.1682 138.638 63.8037 138.699 63.4393C138.774 63.0293 138.85 62.6345 138.941 62.2245C138.972 62.0879 139.002 61.936 139.048 61.7994C139.063 61.7082 139.093 61.6323 139.109 61.5412C139.154 61.359 139.184 61.192 139.23 61.0098C139.336 60.5998 139.443 60.1898 139.549 59.7798C139.64 59.4761 139.731 59.1724 139.807 58.8687C139.822 58.808 139.837 58.7624 139.853 58.7017C139.868 58.6561 139.883 58.5954 139.898 58.5498C140.02 58.155 140.156 57.7451 140.278 57.3503C140.414 56.9554 140.551 56.5606 140.688 56.1658C140.718 56.0899 140.748 56.014 140.779 55.9381C140.794 55.8773 140.824 55.8166 140.84 55.7559C140.931 55.5129 141.022 55.2699 141.113 55.027C141.265 54.6474 141.417 54.2678 141.568 53.9033C141.69 53.63 141.796 53.3567 141.918 53.0834C141.933 53.0378 141.963 52.9922 141.978 52.9467C141.994 52.9011 142.024 52.8404 142.039 52.7948C142.206 52.4152 142.373 52.0508 142.555 51.6712C142.753 51.2612 142.95 50.8512 143.148 50.4412C143.178 50.3805 143.208 50.3197 143.239 50.259C143.284 50.1831 143.315 50.1072 143.36 50.016C143.527 49.6972 143.694 49.3631 143.861 49.0442C144.074 48.6494 144.302 48.2546 144.529 47.8446C144.651 47.6472 144.757 47.4346 144.879 47.2372C144.924 47.1613 144.97 47.0854 145.015 47.0095C145.213 46.6602 145.441 46.3414 145.653 45.9921C145.957 45.491 146.276 44.9899 146.595 44.4888C146.64 44.4129 146.686 44.3218 146.746 44.2459C147.217 43.5322 147.718 42.8337 148.219 42.1504C148.553 41.6948 148.903 41.2393 149.252 40.7989C149.54 40.4345 149.829 40.0852 150.117 39.736C150.117 39.7208 150.133 39.7208 150.133 39.7056C150.133 39.7056 150.133 39.6904 150.148 39.6904C150.436 39.3412 150.74 38.9919 151.044 38.6427C151.347 38.3086 151.636 37.9746 151.955 37.6405C152 37.5798 152.061 37.5342 152.107 37.4735C152.152 37.4128 152.213 37.3672 152.258 37.3065C152.471 37.0787 152.684 36.8509 152.896 36.6383C153.215 36.3043 153.549 35.9854 153.868 35.6665C153.974 35.5754 154.081 35.4843 154.172 35.378C154.248 35.3021 154.324 35.2262 154.4 35.1654C154.567 35.0136 154.718 34.8617 154.885 34.725C155.219 34.4214 155.569 34.1177 155.918 33.8292C156.07 33.7077 156.222 33.5862 156.374 33.4495C156.449 33.3888 156.525 33.3281 156.616 33.2522C156.723 33.161 156.844 33.0699 156.951 32.9788C157.285 32.7055 157.634 32.4474 157.968 32.2044C158.211 32.0222 158.469 31.8551 158.712 31.6729C158.758 31.6426 158.803 31.6122 158.849 31.5818C158.894 31.5515 158.94 31.5211 158.97 31.4907C159.304 31.263 159.623 31.0504 159.957 30.8378C160.276 30.6252 160.61 30.4278 160.944 30.2304C161.02 30.1848 161.096 30.1393 161.172 30.0937C161.415 29.9571 161.658 29.8204 161.916 29.6837C162.235 29.5167 162.554 29.3497 162.873 29.1978C163.07 29.0915 163.283 29.0004 163.48 28.9093C163.526 28.879 163.586 28.8638 163.632 28.8334C163.693 28.803 163.753 28.7727 163.814 28.7423C164.133 28.6056 164.437 28.469 164.74 28.3475C165.059 28.226 165.363 28.1045 165.682 27.9982C165.742 27.9831 165.788 27.9679 165.849 27.9527C165.894 27.9375 165.94 27.9223 166.001 27.9071C166.213 27.8312 166.411 27.7705 166.623 27.7097C166.942 27.6186 167.261 27.5275 167.58 27.4516C167.732 27.406 167.884 27.3909 168.035 27.3453C168.096 27.3301 168.172 27.3149 168.233 27.2997C168.324 27.2845 168.43 27.2542 168.521 27.239C168.871 27.1783 169.205 27.1175 169.539 27.072C169.751 27.0416 169.949 27.0264 170.146 27.0112C170.222 27.0112 170.298 26.996 170.359 26.996C170.419 26.996 170.495 26.9809 170.556 26.9809C170.92 26.9505 171.285 26.9505 171.649 26.9505C171.816 26.9505 171.968 26.9657 172.12 26.9657C172.242 26.9657 172.363 26.9809 172.485 26.9809C172.606 26.9961 172.727 26.9809 172.864 26.996C173.32 27.0416 173.76 27.1023 174.2 27.1935C174.216 27.1935 174.216 27.1935 174.231 27.1935C174.322 27.2086 174.413 27.2542 174.519 27.2694C174.96 27.3757 175.415 27.482 175.825 27.6338C175.855 27.649 175.886 27.6642 175.931 27.6794C176.554 27.9071 177.146 28.1805 177.708 28.4993L179.318 29.4408C178.756 29.1067 178.164 28.8486 177.541 28.6208C177.085 28.4538 176.615 28.3323 176.144 28.2108C176.038 28.1805 175.947 28.1501 175.856 28.1349C175.294 28.0286 174.717 27.9527 174.124 27.9223C174.003 27.9071 173.881 27.9071 173.76 27.9071C173.183 27.892 172.606 27.892 171.999 27.9375C171.923 27.9375 171.862 27.9527 171.786 27.9527C171.163 28.0134 170.51 28.1045 169.858 28.2412C169.797 28.2564 169.721 28.2716 169.66 28.2868C168.992 28.4386 168.309 28.6208 167.625 28.8638C167.58 28.879 167.534 28.8941 167.474 28.9093C166.745 29.1523 166.016 29.456 165.272 29.79C165.226 29.8052 165.165 29.8356 165.12 29.866C164.361 30.2152 163.601 30.61 162.827 31.0656C162.037 31.5211 161.263 32.007 160.504 32.5385C160.458 32.5688 160.413 32.5992 160.367 32.6448C159.653 33.1458 158.955 33.6773 158.256 34.224C158.18 34.2847 158.105 34.3454 158.013 34.4214C157.345 34.968 156.692 35.545 156.039 36.1372C155.964 36.2132 155.888 36.2891 155.797 36.365C155.144 36.9876 154.506 37.6253 153.868 38.2935C153.823 38.3542 153.762 38.3998 153.716 38.4605C153.048 39.1742 152.395 39.9182 151.757 40.6775C151.757 40.6927 151.742 40.6926 151.742 40.7078C151.089 41.4974 150.452 42.3022 149.844 43.1374C149.282 43.8966 148.751 44.671 148.235 45.4606C147.916 45.9465 147.597 46.4628 147.293 46.9639C147.035 47.3739 146.777 47.7839 146.534 48.2091C146.412 48.4065 146.306 48.6191 146.185 48.8165C145.775 49.5301 145.395 50.2438 145.015 50.9727C144.97 51.0486 144.924 51.1397 144.894 51.2156C144.454 52.0963 144.028 53.0074 143.618 53.9033C143.603 53.9489 143.588 53.9944 143.558 54.04C143.178 54.9359 142.814 55.8318 142.48 56.7277C142.464 56.7884 142.434 56.8491 142.419 56.9099C142.085 57.8361 141.766 58.7472 141.493 59.6735C141.477 59.7342 141.462 59.7798 141.447 59.8405C141.189 60.7364 140.946 61.6171 140.733 62.513C140.718 62.6041 140.688 62.6801 140.673 62.7712C140.46 63.6823 140.278 64.5933 140.141 65.5044C140.141 65.5196 140.141 65.5348 140.126 65.55C139.974 66.4611 139.868 67.3721 139.792 68.2832C139.792 68.3591 139.777 68.4351 139.777 68.511C139.701 69.4069 139.67 70.3028 139.67 71.1835L139.868 138.755L138.258 137.814L138.061 70.2421C138.061 69.8776 138.061 69.5284 138.076 69.1791Z" fill="url(#paint3_linear_1_21601)"/>
<path d="M162.827 31.0656C149.996 38.4757 139.625 56.424 139.67 71.1531L139.868 138.725L181.064 114.931C183.964 113.26 186.303 109.221 186.287 105.865L186.105 44.3218C186.075 29.6078 175.643 23.6706 162.827 31.0656Z" fill="#F79009"/>
<path d="M131.334 47.9357C125.852 46.0225 116.256 56.1203 106.082 60.9642C106.082 60.9642 106.644 62.1638 78.5674 59.4002L74.3308 63.8948C74.3308 63.8948 91.2617 70.6976 102.028 71.7302C107.54 73.3094 120.857 70.075 128.13 68.0403C132.731 66.7647 136.345 62.9686 136.983 58.231C137.454 54.8144 136.907 49.8794 131.334 47.9357Z" fill="#930309"/>
<path d="M81.3005 59.6431C80.435 59.5672 79.5391 59.4913 78.5825 59.4002L74.3459 63.8949C74.3459 63.8949 75.3481 64.2897 77.0033 64.9122L81.3005 59.6431Z" fill="#F0EEEA"/>
<defs>
<linearGradient id="paint0_linear_1_21601" x1="106.604" y1="116.442" x2="103.296" y2="116.442" gradientUnits="userSpaceOnUse">
<stop stop-color="white"/>
<stop offset="1" stop-color="#DAFCF7"/>
</linearGradient>
<linearGradient id="paint1_linear_1_21601" x1="139.65" y1="128.358" x2="106.6" y2="128.358" gradientUnits="userSpaceOnUse">
<stop stop-color="white"/>
<stop offset="1" stop-color="#DAFCF7"/>
</linearGradient>
<linearGradient id="paint2_linear_1_21601" x1="168.434" y1="107.212" x2="139.222" y2="107.212" gradientUnits="userSpaceOnUse">
<stop stop-color="#471F54"/>
<stop offset="1" stop-color="#2D114F"/>
</linearGradient>
<linearGradient id="paint3_linear_1_21601" x1="179.341" y1="82.8379" x2="138.06" y2="82.8379" gradientUnits="userSpaceOnUse">
<stop stop-color="white"/>
<stop offset="1" stop-color="#DAFCF7"/>
</linearGradient>
</defs>
</svg>
