<svg width="124" height="121" viewBox="0 0 124 121" fill="none" xmlns="http://www.w3.org/2000/svg">
<path d="M77.6284 83.5699L87.5592 77.7997C87.8933 77.6023 88.0603 77.1771 88.1514 76.6153C88.3336 75.4765 88.7588 74.4894 88.774 73.2595C88.8043 71.4221 89.2599 70.2681 90.1254 69.7518L80.1946 75.522C79.3291 76.0231 78.8735 77.1923 78.8432 79.0297C78.828 80.2596 78.4028 81.2466 78.2206 82.3855C78.1295 82.9473 77.9625 83.3877 77.6284 83.5699Z" fill="#FAD2D4"/>
<path d="M77.6284 83.5699L87.5592 77.7997C87.8933 77.6023 88.0603 77.1771 88.1514 76.6153C88.3336 75.4765 88.7588 74.4894 88.774 73.2595C88.8043 71.4221 89.2599 70.2681 90.1254 69.7518L80.1946 75.522C79.3291 76.0231 78.8735 77.1923 78.8432 79.0297C78.828 80.2596 78.4028 81.2466 78.2206 82.3855C78.1295 82.9473 77.9625 83.3877 77.6284 83.5699Z" fill="#F0EEEA"/>
<path d="M43.3713 22.6793C43.3561 22.6793 43.3257 22.6793 43.3106 22.6945C43.2498 22.6945 43.1891 22.7096 43.1436 22.7248C43.0524 22.74 42.9461 22.7704 42.855 22.8008H42.8398C42.7184 22.8311 42.6121 22.8767 42.4906 22.907C42.3995 22.9374 42.3084 22.9678 42.2173 22.9981C42.1869 22.9981 42.1717 23.0133 42.1414 23.0285H42.1262C42.0351 23.0589 41.9439 23.0741 41.8376 23.1044L51.7684 17.3343C51.8596 17.3191 51.9507 17.2887 52.057 17.2583C52.0873 17.2431 52.1177 17.2432 52.1329 17.228C52.224 17.1976 52.3151 17.1672 52.4214 17.1368C52.5429 17.0913 52.6492 17.0609 52.7706 17.0306H52.7858C52.8769 17.0002 52.9832 16.985 53.0743 16.9546C53.0895 16.9546 53.0895 16.9546 53.1047 16.9395C53.1503 16.9243 53.1958 16.9243 53.2414 16.9243C53.2565 16.9243 53.2869 16.9243 53.3021 16.9091H53.3173C53.378 16.9091 53.4387 16.9091 53.4995 16.9091C53.5147 16.9091 53.5298 16.9091 53.545 16.9091C53.5602 16.9091 53.5754 16.9091 53.5906 16.9091C53.621 16.9091 53.6513 16.9091 53.6665 16.9243C53.7273 16.9394 53.7728 16.9395 53.8335 16.9546C53.8335 16.9546 53.8336 16.9546 53.8487 16.9546C54.1221 17.0306 54.3954 17.1217 54.6687 17.2128C54.8661 17.2735 55.0483 17.3191 55.2457 17.395C55.4583 17.4709 55.6709 17.5468 55.8835 17.6228C57.0831 18.0479 58.2979 18.5187 59.4975 18.8831C59.5886 18.9135 59.6645 18.9135 59.7404 18.9135H59.7556C59.8315 18.9135 59.9074 18.8983 59.9834 18.8679H59.9985C60.0593 18.8527 60.12 18.8224 60.1656 18.792C60.2111 18.7616 60.2719 18.7464 60.3174 18.7161C60.363 18.6857 60.4085 18.6705 60.4389 18.6401L50.5081 24.4103C50.4777 24.4255 50.4626 24.4407 50.4322 24.4559C50.417 24.4711 50.4018 24.4711 50.3866 24.4863C50.3411 24.5166 50.2803 24.547 50.2348 24.5622C50.2196 24.5773 50.2044 24.5774 50.174 24.5925C50.1285 24.6077 50.0981 24.6229 50.0526 24.6381H50.0374C50.007 24.6533 49.9614 24.6533 49.9311 24.6685C49.9007 24.6685 49.8703 24.6836 49.84 24.6836H49.8248H49.8096C49.7944 24.6836 49.7792 24.6836 49.7641 24.6836C49.7337 24.6836 49.7033 24.6837 49.673 24.6685C49.6426 24.6685 49.6122 24.6533 49.5818 24.6533C49.5667 24.6533 49.5666 24.6533 49.5514 24.6533C49.0807 24.5166 48.61 24.3496 48.1393 24.1825C47.7141 24.0307 47.3041 23.8789 46.879 23.727C46.7271 23.6663 46.5753 23.6207 46.4234 23.56C46.0438 23.4233 45.6794 23.2867 45.2998 23.1652C45.1631 23.1196 45.0112 23.0741 44.8746 23.0285C44.5405 22.9222 44.2217 22.8159 43.9028 22.7248C43.8117 22.7096 43.7358 22.6945 43.6598 22.6793C43.6446 22.6793 43.6295 22.6793 43.6143 22.6793C43.5232 22.6793 43.4472 22.6793 43.3713 22.6793Z" fill="#FAD2D4"/>
<path d="M50.9333 24.1825L60.8641 18.4124C60.8185 18.4428 60.773 18.4579 60.7274 18.4883L50.7966 24.2585C50.827 24.2281 50.8877 24.1977 50.9333 24.1825Z" fill="#A3A3A3"/>
<path d="M50.781 24.2582L60.7118 18.488C60.6814 18.5032 60.6511 18.5184 60.6359 18.5336L50.7051 24.3038C50.7354 24.2886 50.7658 24.2734 50.781 24.2582Z" fill="#9E9E9E"/>
<path d="M92.5239 84.6328L102.455 78.8626C103.017 78.5286 103.578 78.1945 104.14 77.8756L94.2094 83.6458C93.6476 83.9799 93.0858 84.3139 92.5239 84.6328Z" fill="#858585"/>
<path d="M63.7035 29.8009L73.6343 24.0307C71.22 25.4277 69.7471 28.4191 69.8078 32.5493C69.8078 33.0049 69.8533 33.4756 69.8837 33.9311C69.8989 34.0526 69.9141 34.1741 69.9293 34.3108C69.9596 34.5841 70.0052 34.8574 70.0356 35.1307C70.0811 35.4951 70.1418 35.8444 70.2178 36.2088C70.2633 36.467 70.3241 36.7099 70.3696 36.9681C70.4304 37.1958 70.4759 37.4388 70.5366 37.6666C70.6126 37.9702 70.7037 38.2891 70.7948 38.5928C70.8555 38.775 70.9011 38.9573 70.9618 39.1395C71.0833 39.5191 71.22 39.9139 71.3566 40.2935C71.387 40.3998 71.4326 40.4909 71.4629 40.5972C71.6451 41.0831 71.8425 41.5538 72.0551 42.0246C72.1007 42.146 72.1614 42.2523 72.2222 42.3738C72.3892 42.7383 72.5562 43.1027 72.7384 43.4671C72.7992 43.6038 72.8751 43.7404 72.9358 43.8619C73.1636 44.2871 73.3914 44.7274 73.6343 45.1526C73.6495 45.183 73.6647 45.2134 73.6799 45.2437C73.938 45.6993 74.2114 46.1396 74.4999 46.5648C74.591 46.7014 74.6821 46.8381 74.7732 46.9748C74.9706 47.2785 75.1832 47.567 75.3806 47.8555C75.502 48.0225 75.6235 48.1896 75.745 48.3566C75.9272 48.5995 76.1246 48.8425 76.3068 49.0854C76.4739 49.298 76.6409 49.5106 76.8231 49.708C76.975 49.8902 77.142 50.0725 77.309 50.2547C77.5975 50.5736 77.886 50.8772 78.1745 51.1809C78.3567 51.3632 78.5238 51.5454 78.706 51.7124C78.8427 51.8491 78.9945 51.9705 79.1312 52.1072C79.3741 52.3198 79.6019 52.5324 79.8449 52.745C79.9815 52.8664 80.1334 52.9879 80.27 53.0942C80.5282 53.3068 80.8015 53.5042 81.0596 53.7016C81.1811 53.7927 81.3178 53.8838 81.4392 53.9749C81.834 54.2482 82.2288 54.5064 82.6388 54.7342C82.7148 54.7797 82.8059 54.8253 82.8818 54.8708C83.2766 55.0986 83.6714 55.2808 84.0662 55.463C84.1421 55.4934 84.2181 55.5238 84.2788 55.5693C84.6584 55.7363 85.0228 55.873 85.3873 55.9945C85.4632 56.0249 85.5239 56.04 85.5999 56.0552C85.858 56.1311 86.1161 56.2071 86.3743 56.2678C86.5565 56.3134 86.7387 56.3437 86.9057 56.3893C87.1335 56.4348 87.3613 56.4652 87.5891 56.4804C87.7105 56.4956 87.8472 56.5108 87.9687 56.5108C88.2876 56.5259 88.6064 56.5411 88.9253 56.5259C88.9405 56.5259 88.9557 56.5259 88.9709 56.5259C89.2897 56.5108 89.6086 56.4652 89.9123 56.4045C90.0034 56.3893 90.0793 56.3589 90.1704 56.3437C90.3982 56.283 90.626 56.2222 90.8538 56.1463C90.9297 56.116 91.0056 56.1008 91.0664 56.0704C91.3549 55.9489 91.6434 55.8274 91.9015 55.6756L81.9707 61.4458C81.9403 61.461 81.9252 61.4762 81.8948 61.4913C81.6822 61.6128 81.4696 61.7191 81.2419 61.8102C81.2115 61.8254 81.1659 61.8406 81.1356 61.8558C81.0596 61.8861 80.9837 61.9013 80.923 61.9317C80.8015 61.9772 80.6952 62.0228 80.5737 62.0532C80.4674 62.0835 80.3612 62.0987 80.2397 62.1291C80.1637 62.1443 80.0726 62.1747 79.9815 62.1898C79.936 62.205 79.8752 62.2202 79.8297 62.2202C79.5715 62.2658 79.3134 62.2961 79.0401 62.3113C79.0401 62.3113 79.0401 62.3113 79.0249 62.3113C79.0097 62.3113 78.9945 62.3113 78.9793 62.3113C78.7212 62.3265 78.4479 62.3265 78.1745 62.3113C78.129 62.3113 78.0682 62.2961 78.0227 62.2961C77.9012 62.2961 77.7645 62.2657 77.6431 62.2657C77.4912 62.2506 77.3546 62.2506 77.2027 62.2202C77.1268 62.205 77.0357 62.1746 76.9598 62.1746C76.7776 62.1443 76.6105 62.0987 76.4283 62.0532C76.3068 62.0228 76.2005 62.0076 76.079 61.9773C75.9424 61.9469 75.7905 61.8861 75.6539 61.8406C75.5779 61.8254 75.5172 61.795 75.4413 61.7799C75.1376 61.6736 74.8187 61.5673 74.515 61.4306C74.4543 61.4002 74.3935 61.3699 74.3328 61.3547C74.2569 61.3243 74.181 61.2939 74.1202 61.2484C73.7254 61.0662 73.3458 60.8839 72.9358 60.6562C72.8599 60.6106 72.7688 60.5651 72.6929 60.5195C72.2829 60.2917 71.8881 60.0336 71.4933 59.7603C71.3718 59.6692 71.2351 59.5781 71.1137 59.4869C70.8403 59.2895 70.5822 59.0922 70.3241 58.8796C70.1722 58.7581 70.0356 58.6366 69.8989 58.5303C69.6559 58.3329 69.413 58.1203 69.1852 57.8926C69.0486 57.7559 68.8967 57.6344 68.7601 57.4978C68.6689 57.4218 68.593 57.3459 68.5019 57.2548C68.4108 57.1637 68.3197 57.0574 68.2286 56.9663C67.9401 56.6626 67.6515 56.3589 67.363 56.04C67.2719 55.9489 67.1809 55.8578 67.1049 55.7515C67.029 55.6604 66.9531 55.5693 66.8923 55.4782C66.7101 55.2656 66.5431 55.0682 66.376 54.8556C66.2698 54.719 66.1635 54.5975 66.0572 54.4608C65.9661 54.3545 65.8901 54.233 65.8142 54.1268C65.6927 53.9597 65.5712 53.7927 65.4498 53.6257C65.3586 53.5042 65.2827 53.3979 65.1916 53.2764C65.0702 53.0942 64.9487 52.912 64.8272 52.745C64.7361 52.6083 64.645 52.4716 64.5539 52.335C64.5083 52.2742 64.4628 52.2135 64.4324 52.1528C64.2046 51.7883 63.9617 51.4087 63.7491 51.0291C63.7491 51.0291 63.7491 51.0139 63.7339 51.0139C63.7187 50.9835 63.7035 50.9532 63.6732 50.9228C63.4758 50.5887 63.2936 50.2547 63.1113 49.9206C63.0658 49.8295 63.0202 49.7384 62.9747 49.6473C62.8988 49.5106 62.838 49.374 62.7773 49.2525C62.7014 49.1006 62.6254 48.9488 62.5495 48.8121C62.4432 48.5995 62.3521 48.3869 62.261 48.1744C62.2003 48.0529 62.1547 47.9466 62.094 47.8251C62.0636 47.7796 62.0484 47.7188 62.018 47.6733C61.851 47.2785 61.684 46.8837 61.5321 46.4889C61.5169 46.4585 61.517 46.4281 61.5018 46.413C61.4562 46.3067 61.4258 46.2155 61.3955 46.1092C61.2892 45.8207 61.1829 45.5322 61.0918 45.2437C61.0614 45.1526 61.031 45.0463 61.0007 44.9552C60.9399 44.773 60.8944 44.5908 60.8336 44.4086C60.7881 44.2415 60.7273 44.0593 60.6818 43.8923C60.6362 43.7556 60.621 43.619 60.5755 43.4823C60.5147 43.2545 60.454 43.0116 60.4085 42.7838C60.3781 42.6471 60.3326 42.5257 60.3174 42.389C60.287 42.2675 60.2718 42.146 60.2566 42.0246C60.1807 41.6601 60.12 41.3109 60.0744 40.9465C60.0592 40.8098 60.0288 40.6731 59.9985 40.5365C59.9833 40.3998 59.9681 40.2631 59.9529 40.1417C59.9377 40.0202 59.9226 39.8987 59.9226 39.762C59.877 39.2913 59.8466 38.8358 59.8466 38.3802C59.8163 34.1893 61.3043 31.1979 63.7035 29.8009Z" fill="white"/>
<path d="M72.997 39.5191C72.9515 39.4887 72.9059 39.4735 72.8604 39.4432C69.9449 37.8488 67.5305 39.3217 67.5457 42.6471C67.5761 45.8967 70.036 50.0876 72.8908 51.7428C75.7455 53.3979 78.2509 51.8794 78.1902 48.554C78.1447 45.3196 75.6999 41.0831 72.997 39.5191Z" fill="#660806"/>
<path d="M69.1548 39.185L79.0856 33.4149C79.1008 33.4149 79.1008 33.3997 79.1159 33.3997C79.207 33.3541 79.2982 33.3086 79.4045 33.263C79.4196 33.263 79.4348 33.2478 79.45 33.2478C79.4804 33.2326 79.5107 33.2326 79.5411 33.2175C79.6018 33.2023 79.6474 33.1719 79.7082 33.1567C79.7385 33.1415 79.7841 33.1415 79.8296 33.1264C79.8752 33.1112 79.9056 33.1112 79.9511 33.096C79.9815 33.096 80.0118 33.0808 80.027 33.0808C80.103 33.0656 80.1789 33.0656 80.27 33.0504C80.3004 33.0504 80.3156 33.0504 80.3459 33.0352H80.3611C80.4826 33.0352 80.6041 33.02 80.7256 33.0352C80.7407 33.0352 80.7407 33.0352 80.7559 33.0352C80.8015 33.0352 80.847 33.0504 80.8926 33.0504C80.9685 33.0504 81.0444 33.0656 81.1355 33.0808C81.1659 33.0808 81.1811 33.096 81.2114 33.096C81.2874 33.1112 81.3633 33.1264 81.4392 33.1415C81.4999 33.1567 81.5607 33.1567 81.6214 33.1871C81.6366 33.1871 81.667 33.2023 81.6974 33.2175C81.8492 33.263 82.001 33.3086 82.1529 33.3693C82.1832 33.3845 82.2288 33.3845 82.2592 33.4149C82.2744 33.4149 82.2744 33.43 82.2896 33.43C82.4718 33.506 82.654 33.5971 82.8514 33.7034C82.897 33.7337 82.9425 33.7489 82.9881 33.7793C83.231 33.916 83.474 34.083 83.7017 34.2652C83.7473 34.3108 83.808 34.3411 83.8536 34.3867C84.0814 34.5689 84.3091 34.7663 84.5217 34.9789C84.5369 34.9941 84.5521 34.9941 84.5521 35.0092C84.5976 35.0548 84.628 35.1004 84.6735 35.1459C84.795 35.2674 84.9013 35.3889 85.0228 35.5255C85.0532 35.5559 85.0683 35.5863 85.0987 35.6166C85.1443 35.6622 85.1898 35.7229 85.2354 35.7837C85.3113 35.8748 85.3721 35.9507 85.448 36.0418C85.4783 36.0722 85.5087 36.1177 85.5391 36.1481C85.5846 36.2088 85.6454 36.2848 85.6909 36.3455C85.7365 36.4214 85.7972 36.4822 85.8428 36.5581C85.858 36.5885 85.8883 36.6188 85.9035 36.6492C85.9794 36.7555 86.0402 36.8618 86.1161 36.9681C86.1465 37.0136 86.1768 37.0592 86.2072 37.1047C86.2072 37.1199 86.2224 37.1199 86.2224 37.1351C86.3287 37.287 86.4198 37.454 86.5261 37.621C86.5261 37.6362 86.5413 37.6514 86.5413 37.6514C86.5716 37.6969 86.5868 37.7425 86.6172 37.7729C86.6779 37.8792 86.7387 37.9854 86.7994 38.0917C86.8146 38.1373 86.845 38.1828 86.8601 38.2132C86.8905 38.274 86.9209 38.3347 86.9512 38.3954C86.9816 38.4562 87.012 38.5169 87.0423 38.5777C87.0879 38.6688 87.1183 38.7447 87.1639 38.8358C87.1942 38.8965 87.2094 38.9421 87.2398 39.0028C87.2549 39.0332 87.2702 39.0484 87.2702 39.0788C87.3461 39.2458 87.4068 39.4128 87.4827 39.595C87.4827 39.595 87.4827 39.595 87.4827 39.6102C87.4827 39.6254 87.4979 39.6406 87.4979 39.6558C87.5587 39.8076 87.6194 39.9595 87.6649 40.1265C87.6801 40.1569 87.6801 40.1872 87.6953 40.2024C87.7257 40.2783 87.7408 40.3543 87.756 40.415C87.7864 40.5061 87.8168 40.582 87.832 40.6731C87.8472 40.7187 87.8472 40.7642 87.8623 40.7946C87.8927 40.8857 87.9079 40.9768 87.9383 41.0831C87.9535 41.1439 87.9687 41.2198 87.9838 41.2805C87.999 41.3261 87.999 41.3565 87.999 41.402C88.0294 41.5539 88.0446 41.6905 88.0749 41.8272C88.0901 41.8879 88.1053 41.9487 88.1053 42.0094C88.1053 42.0398 88.1053 42.055 88.1053 42.0853C88.1357 42.3283 88.1509 42.5864 88.166 42.8142C88.1964 44.4997 87.5738 45.7145 86.5716 46.2915L76.6409 52.0617C77.6431 51.4846 78.2656 50.2699 78.2352 48.5844C78.2352 48.3414 78.2049 48.0985 78.1745 47.8555C78.1593 47.7644 78.1441 47.6885 78.1441 47.5974C78.129 47.4607 78.0986 47.3089 78.0682 47.1722C78.0531 47.0659 78.0227 46.9596 77.9923 46.8533C77.9771 46.7622 77.9468 46.6711 77.9164 46.5648C77.886 46.4433 77.8404 46.3067 77.8101 46.1852C77.7949 46.1093 77.7645 46.0333 77.7493 45.9726C77.6886 45.7904 77.6278 45.6082 77.5519 45.4259C77.5519 45.4108 77.5368 45.3956 77.5368 45.3652C77.4608 45.1678 77.3849 44.9704 77.2938 44.773C77.2634 44.7123 77.2482 44.6667 77.2179 44.606C77.1571 44.4693 77.0812 44.3175 77.0053 44.1808C76.9749 44.1201 76.9446 44.0593 76.9142 43.9986C76.8383 43.8467 76.7471 43.6949 76.6712 43.543C76.6409 43.4975 76.6257 43.4671 76.6105 43.4216C76.5042 43.2394 76.3827 43.0419 76.2764 42.8597C76.246 42.8142 76.2157 42.7686 76.1853 42.7231C76.0942 42.5864 76.0031 42.4498 75.912 42.3283C75.8664 42.2524 75.8057 42.1916 75.7601 42.1157C75.6842 42.0094 75.6083 41.9031 75.5172 41.812C75.4413 41.7209 75.3805 41.6298 75.3046 41.5538C75.2287 41.4627 75.1679 41.3868 75.092 41.3109C74.9705 41.1894 74.8643 41.0528 74.7428 40.9313C74.682 40.8706 74.6365 40.825 74.5757 40.7643C74.3631 40.5517 74.1354 40.3543 73.9076 40.1721C73.862 40.1265 73.8013 40.0961 73.7557 40.0506C73.528 39.8684 73.285 39.7013 73.0421 39.5647C72.9965 39.5343 72.951 39.5191 72.9054 39.4887C72.7232 39.3824 72.5258 39.2913 72.3436 39.2154C72.298 39.2002 72.2525 39.185 72.2069 39.1699C72.0551 39.1091 71.9032 39.0636 71.7514 39.018C71.6603 38.9876 71.5843 38.9725 71.4932 38.9573C71.4173 38.9421 71.3414 38.9269 71.2655 38.9117C71.1592 38.8965 71.0529 38.8814 70.9618 38.8662C70.9162 38.8662 70.8707 38.851 70.8251 38.851C70.6884 38.851 70.5366 38.851 70.3999 38.851C70.3696 38.851 70.3544 38.851 70.324 38.8662C70.2177 38.8814 70.1114 38.8965 70.0051 38.9117C69.9596 38.9269 69.9292 38.9269 69.8837 38.9421C69.7926 38.9724 69.7015 38.9877 69.6104 39.0332C69.58 39.0484 69.5496 39.0484 69.5192 39.0636C69.3826 39.0636 69.2611 39.1243 69.1548 39.185Z" fill="white"/>
<path d="M54.1224 6.09759C54.1224 6.09759 54.1224 6.11278 54.1224 6.09759C54.0313 6.09759 53.9403 6.0976 53.8643 6.12797H53.8491C53.758 6.14315 53.6821 6.18871 53.591 6.23426C52.8469 6.65943 52.1029 7.06942 51.374 7.49459L61.3048 1.7244C62.0337 1.29923 62.7777 0.874059 63.5218 0.464072C63.5673 0.448887 63.5977 0.418517 63.6433 0.403332C63.6736 0.388147 63.7192 0.372964 63.7495 0.35778C63.7647 0.35778 63.7648 0.35778 63.7799 0.35778H63.7951C63.8103 0.35778 63.8407 0.342603 63.8558 0.342603C63.8862 0.342603 63.9166 0.327415 63.9621 0.327415C63.9925 0.327415 64.0229 0.327415 64.0532 0.327415C64.0836 0.327415 64.1292 0.327419 64.1596 0.342603C64.2051 0.342603 64.2355 0.357783 64.281 0.372968C64.2962 0.372968 64.3114 0.388156 64.3114 0.388156C64.3265 0.388156 64.3418 0.403332 64.3418 0.403332C64.3721 0.418517 64.4025 0.418523 64.4177 0.433708C64.4784 0.464077 64.5391 0.494443 64.5999 0.524812C64.6758 0.570366 64.7669 0.631106 64.8428 0.691845C64.8884 0.722214 64.9339 0.782956 64.9795 0.813325C65.0099 0.843694 65.0554 0.87406 65.0858 0.90443C65.1617 0.980353 65.2225 1.05628 65.2984 1.1322C65.3136 1.14739 65.3136 1.14738 65.3288 1.16257C65.3439 1.17775 65.3743 1.20813 65.3895 1.23849C65.4199 1.28405 65.4654 1.32961 65.4958 1.37516C65.5261 1.42072 65.5717 1.46627 65.6021 1.51182C67.2572 3.78952 68.9731 6.00649 70.5978 8.29938C70.7193 8.46641 70.8408 8.63344 70.9623 8.78529C71.0686 8.92195 71.1749 9.04343 71.2812 9.16491C71.3115 9.19527 71.3419 9.22564 71.3723 9.25601C71.4482 9.34712 71.5241 9.42304 71.6152 9.48378C71.6456 9.51415 71.676 9.54452 71.7063 9.57489C71.8126 9.66599 71.9189 9.74192 72.0252 9.80266C72.1011 9.84821 72.1771 9.87858 72.253 9.90895C72.2682 9.90895 72.2833 9.92414 72.2985 9.92414C72.3744 9.95451 72.4504 9.9697 72.5111 9.98488C72.6022 10.0001 72.6781 10.0001 72.7692 10.0001C72.8604 10.0001 72.9515 9.98487 73.0274 9.9545C73.0578 9.93932 73.1033 9.93932 73.1337 9.92414C73.1793 9.92414 73.2248 9.90895 73.2552 9.90895C73.3007 9.90895 73.3311 9.90895 73.3766 9.90895C73.4222 9.90895 73.4678 9.90895 73.4981 9.92414C73.5437 9.92414 73.5892 9.93932 73.6348 9.9545C73.6803 9.96969 73.7259 9.98487 73.7562 10.0001C73.9688 10.0912 74.1663 10.1519 74.3485 10.1975C74.3788 10.2126 74.4092 10.2127 74.4548 10.2127C74.6218 10.243 74.7736 10.2734 74.9255 10.2734C74.9407 10.2734 74.9406 10.2734 74.9406 10.2734C75.0925 10.2734 75.2292 10.2582 75.3658 10.2278C75.381 10.2278 75.381 10.2278 75.3962 10.2278C75.5329 10.1975 75.6543 10.1519 75.7606 10.0912L65.8298 15.8613C65.8298 15.8613 65.8147 15.8614 65.8147 15.8765C65.7691 15.9069 65.7236 15.9221 65.678 15.9525C65.6325 15.9676 65.5869 15.9828 65.5262 15.998C65.511 15.998 65.4806 16.0132 65.4654 16.0132C65.4502 16.0132 65.4502 16.0132 65.4351 16.0284C65.4047 16.0284 65.3895 16.0436 65.3591 16.0436C65.2984 16.0588 65.2376 16.0588 65.1769 16.0588C65.1162 16.0588 65.0706 16.0588 65.0099 16.0588C64.9947 16.0588 64.9947 16.0588 64.9795 16.0588H64.9643C64.8732 16.0588 64.7973 16.0436 64.7062 16.0284C64.6454 16.0132 64.5847 15.998 64.524 15.9828C64.4936 15.9676 64.4632 15.9677 64.4177 15.9677C64.3873 15.9677 64.3721 15.9525 64.3418 15.9525C64.1747 15.9069 64.0077 15.8462 63.8255 15.7702C63.6888 15.7247 63.5521 15.6943 63.4307 15.6943C63.3092 15.6943 63.1877 15.7095 63.0814 15.7399C63.0359 15.7551 62.9903 15.7702 62.9448 15.7702C62.8992 15.7702 62.8537 15.7854 62.8233 15.7854C62.7777 15.7854 62.7322 15.7854 62.7018 15.7854C62.6562 15.7854 62.6107 15.7854 62.5803 15.7702C62.5348 15.7702 62.4892 15.7551 62.4437 15.7399C62.4133 15.7247 62.3829 15.7247 62.3526 15.7095C62.3374 15.7095 62.3222 15.6943 62.307 15.6943C62.2918 15.6943 62.2918 15.6943 62.2766 15.6791C62.2159 15.6488 62.14 15.6184 62.0792 15.588C61.9729 15.5273 61.8666 15.4514 61.7603 15.3603C61.73 15.3299 61.6996 15.2995 61.6692 15.2691C61.6237 15.2388 61.5933 15.2084 61.5478 15.1629C61.5022 15.1173 61.4718 15.0717 61.4263 15.0262C61.3959 14.9958 61.3655 14.9655 61.3352 14.9351C61.32 14.9199 61.3048 14.9047 61.2896 14.8895C61.1985 14.7832 61.1074 14.6769 61.0163 14.5555C61.0163 14.5555 61.0163 14.5555 61.0163 14.5403C60.8948 14.3884 60.7734 14.2214 60.6519 14.0544C59.0271 11.7463 57.3112 9.52934 55.6561 7.26682C55.5802 7.16053 55.5042 7.0846 55.4435 6.99349C55.4283 6.96312 55.398 6.94794 55.3828 6.91757C55.3069 6.82646 55.2158 6.73535 55.1398 6.65943C55.0943 6.61387 55.0335 6.56833 54.988 6.52277C54.9576 6.4924 54.9273 6.46203 54.8969 6.43166C54.821 6.37092 54.7298 6.31018 54.6539 6.26462C54.5628 6.21907 54.4717 6.17352 54.3958 6.14315C54.3806 6.14315 54.3654 6.12797 54.3654 6.12797C54.3047 6.12797 54.2136 6.11278 54.1224 6.09759Z" fill="white"/>
<path d="M93.739 70.4048C93.739 70.3744 93.739 70.344 93.739 70.3137C93.7542 70.1314 93.7846 69.9492 93.815 69.7366C93.815 69.7063 93.8301 69.6911 93.8301 69.6607C93.8757 69.4481 93.9212 69.2356 93.982 69.023C94.0427 68.8104 94.1187 68.5978 94.1946 68.3852C94.2098 68.3548 94.2098 68.3397 94.2249 68.3093C94.3009 68.1119 94.3768 67.9145 94.4679 67.7323C94.4831 67.7019 94.4983 67.6715 94.5134 67.6412C94.5894 67.4589 94.6805 67.2919 94.7716 67.1401C94.7868 67.1097 94.802 67.0945 94.8172 67.0641C94.9083 66.9123 94.9994 66.7756 95.0905 66.6693C95.1057 66.6542 95.1056 66.639 95.1208 66.639C95.2119 66.5327 95.3182 66.4416 95.4093 66.3808L105.34 60.6106C105.249 60.6714 105.158 60.7625 105.052 60.8688C105.036 60.884 105.036 60.8992 105.021 60.8992C104.93 61.0054 104.839 61.1421 104.748 61.2939C104.733 61.3243 104.718 61.3395 104.702 61.3699C104.611 61.5217 104.52 61.6888 104.444 61.871C104.429 61.9013 104.414 61.9317 104.399 61.9621C104.323 62.1443 104.232 62.3417 104.156 62.5391C104.141 62.5695 104.141 62.5847 104.125 62.615C104.049 62.8276 103.974 63.0402 103.913 63.2528C103.913 63.2528 103.913 63.2528 103.913 63.268C103.852 63.4805 103.806 63.6931 103.761 63.9057C103.761 63.9361 103.746 63.9513 103.746 63.9816C103.715 64.179 103.685 64.3764 103.67 64.5435C103.67 64.5738 103.67 64.6042 103.67 64.6346C103.655 64.8016 103.655 64.9686 103.67 65.1205C103.67 65.1812 103.685 65.2572 103.7 65.3179C103.715 65.3938 103.746 65.4849 103.776 65.5457C104.869 68.0511 105.978 70.5718 107.117 73.0773C107.147 73.1532 107.193 73.2291 107.223 73.305C107.284 73.4265 107.329 73.548 107.375 73.6695C107.42 73.7758 107.451 73.8821 107.481 73.9732C107.496 74.0339 107.527 74.1098 107.542 74.1706C107.542 74.1858 107.557 74.2009 107.557 74.2161C107.557 74.2313 107.557 74.2313 107.572 74.2465C107.603 74.3376 107.618 74.4287 107.633 74.5046C107.648 74.5502 107.648 74.5957 107.663 74.6413C107.663 74.6717 107.679 74.6869 107.679 74.7172C107.679 74.7324 107.694 74.7628 107.694 74.778C107.694 74.8235 107.694 74.8539 107.694 74.8843C107.709 74.9906 107.709 75.0968 107.709 75.2031C107.709 75.2639 107.694 75.3094 107.694 75.355C107.679 75.4461 107.663 75.522 107.633 75.6131C107.618 75.6587 107.603 75.7042 107.587 75.7498C107.557 75.8257 107.496 75.9016 107.451 75.9775C107.42 76.0079 107.405 76.0383 107.375 76.0838C107.284 76.1749 107.177 76.2661 107.056 76.342L97.1252 82.1122C97.2467 82.0362 97.353 81.9451 97.4441 81.854C97.4745 81.8237 97.4897 81.7933 97.52 81.7477C97.5808 81.6718 97.6263 81.6111 97.6567 81.52C97.6719 81.4744 97.6871 81.4289 97.7022 81.3833C97.7326 81.3074 97.7478 81.2163 97.7629 81.1251C97.7781 81.0796 97.7781 81.0189 97.7781 80.9733C97.7781 80.867 97.7781 80.7759 97.7629 80.6544C97.7629 80.5937 97.763 80.5481 97.7478 80.4722C97.7478 80.4418 97.7326 80.4267 97.7326 80.3963C97.7022 80.2596 97.6719 80.123 97.6415 79.9711C97.6415 79.9559 97.6263 79.9408 97.6263 79.9256C97.5807 79.7585 97.52 79.5915 97.4593 79.4245C97.3834 79.2423 97.3074 79.0449 97.2163 78.8323C96.0775 76.3268 94.969 73.8061 93.8757 71.3007C93.8757 71.2855 93.8605 71.2703 93.8605 71.2551C93.8605 71.2399 93.8453 71.2247 93.8453 71.2095C93.8453 71.1944 93.8301 71.1792 93.8301 71.1488C93.8301 71.1336 93.815 71.1033 93.815 71.0729C93.7998 71.0273 93.7998 70.9818 93.7846 70.9211C93.7846 70.9059 93.7846 70.8907 93.7846 70.8755C93.739 70.7388 93.739 70.5718 93.739 70.4048Z" fill="white"/>
<path d="M68.76 7.72235C68.6081 7.73754 68.4867 7.76792 68.3804 7.82866L78.3111 2.05847C78.3111 2.05847 78.3111 2.05847 78.3263 2.05847C78.3567 2.04329 78.387 2.0281 78.4022 2.01292C78.4326 1.99773 78.463 1.99773 78.4934 1.98254C78.5237 1.96736 78.5541 1.96737 78.5845 1.96737C78.6149 1.96737 78.6604 1.95218 78.6907 1.95218C78.7363 1.95218 78.7667 1.95218 78.8122 1.95218C78.8578 1.95218 78.9185 1.95218 78.9641 1.96737C79.0248 1.98255 79.1007 1.99773 79.1767 2.01292L69.2459 7.78309C69.0788 7.72236 68.9118 7.70717 68.76 7.72235Z" fill="#F0EEEA"/>
<path d="M103.928 68.1574L113.858 62.3872C113.874 59.3199 113.874 56.2526 113.889 53.1853L103.958 58.9555C103.943 62.0228 103.943 65.0901 103.928 68.1574Z" fill="#FAD2D4"/>
<path d="M79.1913 2.01291C81.8638 3.56175 84.5363 5.0954 87.1936 6.62906L77.2628 12.3992C74.5903 10.8656 71.933 9.31674 69.2605 7.78308L79.1913 2.01291Z" fill="#FAD2D4"/>
<path d="M49.5517 24.6381C50.0376 24.7899 50.4476 24.4255 50.9183 24.1674C52.4824 22.3756 52.3305 19.8397 50.3413 16.2865C49.4758 14.7377 48.8228 13.0218 48.261 11.3819C48.0332 10.6834 48.0636 9.60526 48.3977 9.37749C50.0528 8.19308 51.8294 7.23645 53.5908 6.23426C53.9401 6.03685 54.3045 6.05204 54.6993 6.27981C55.0182 6.46202 55.3674 6.81128 55.7167 7.282C57.3718 9.55971 59.0877 11.7767 60.7124 14.0696C61.1983 14.7681 61.6691 15.3147 62.1398 15.6032C62.4587 15.7854 62.8079 15.8462 63.1572 15.7551C63.3698 15.6943 63.6431 15.6943 63.9164 15.8006C66.2852 16.7573 66.8623 15.1629 67.0597 12.9003C67.1811 11.5033 67.5911 10.3189 67.8037 8.98268C67.9555 8.02605 68.3503 7.54013 69.2614 7.78309C71.9339 9.33193 74.6064 10.8656 77.2637 12.3992C77.7193 13.6444 78.3267 14.9199 78.5696 16.1043C78.9948 18.1694 79.2074 20.189 79.4807 22.2086C79.6326 23.317 80.1185 24.1066 80.8777 25.1088C81.8647 26.4147 82.791 27.2954 83.6717 27.8117C84.8409 28.495 85.9494 28.495 87.0731 27.9332C87.969 27.4928 89.1382 27.5536 90.1556 27.3258C90.5352 27.2347 90.8844 27.2954 91.2185 27.4928C91.6588 27.7358 92.0688 28.2217 92.4636 28.9354C94.058 31.7445 95.6828 34.5385 97.3075 37.3477C98.1427 38.7751 98.1275 39.6861 97.4594 40.3694C96.3205 41.5538 95.2728 42.8749 94.1339 44.0745C93.648 44.606 93.724 45.3045 93.9062 46.3826C94.5288 50.0725 96.442 52.2135 99.0842 53.9294C100.086 54.5823 101.104 55.3871 102.03 56.3286C102.728 57.0422 103.321 58.0748 103.958 58.9707C103.943 62.038 103.943 65.1053 103.928 68.1726C103.245 68.3093 102.622 68.7345 101.878 68.5219C100.026 68.0208 98.1123 67.2464 96.2294 66.5782C96.0472 66.5175 95.8498 66.3808 95.6828 66.3353C94.7869 66.1682 93.314 70.1163 93.8454 71.331C94.9387 73.8365 96.0472 76.3572 97.1861 78.8626C97.9757 80.5785 98.006 81.6718 96.9431 82.1881C95.4247 82.9321 93.9821 83.7977 92.5244 84.6632C91.9929 84.9821 91.4766 85.0276 90.8996 84.7087C90.4744 84.4658 90.0189 84.0103 89.5178 83.2814C87.9538 81.0189 86.2986 78.8171 84.6283 76.6609C84.3702 76.3268 84.0209 76.0535 83.6717 75.8561C83.4591 75.7346 83.2465 75.6283 83.0491 75.5676C80.3007 74.6717 78.8885 75.7802 78.8278 79.0601C78.8126 80.29 78.3874 81.277 78.2052 82.4159C78.0534 83.3421 77.6889 83.904 76.7779 83.6458C74.1965 82.1577 71.6302 80.6696 69.0489 79.1815C68.1378 78.3767 67.7429 77.4201 67.5911 76.2964C67.2874 74.0491 66.8622 71.741 66.5737 69.5089C66.4067 68.203 65.86 67.3526 64.949 66.1834C63.9771 64.9535 63.0965 64.1335 62.2613 63.6476C61.0161 62.9339 59.8773 62.9491 58.7232 63.4654C57.8729 63.845 56.81 63.8146 55.8837 64.0576C55.4433 64.179 55.0334 64.1335 54.6386 63.9057C54.183 63.6476 53.7578 63.1465 53.3175 62.3872C51.7079 59.5781 50.0984 56.7841 48.4584 53.9749C47.7296 52.7146 47.6536 51.8339 48.2458 51.181C49.4454 49.8751 50.6602 48.5844 51.7535 47.157C52.0268 46.8077 52.0116 45.9726 51.9053 45.2893C51.3739 41.5235 49.4302 38.9876 46.4844 37.211C45.4974 36.6188 44.4648 35.7381 43.5385 34.7967C42.8856 34.1285 42.3542 33.1415 41.762 32.2912C41.7771 29.2239 41.7771 26.1566 41.7923 23.0893C42.4756 22.9526 43.0982 22.5274 43.8574 22.74C45.7707 23.2259 47.684 24.0763 49.5517 24.6381ZM59.8925 38.3195C60.0291 46.5193 65.8297 56.4804 72.7843 60.4892C72.8602 60.5347 72.9513 60.5803 73.0272 60.6258C80.2096 64.6194 85.9342 61.1421 85.8583 52.8816C85.7823 45.0008 80.3918 34.9789 72.7539 30.5753C65.6171 26.4906 59.7558 30.1957 59.8925 38.3195Z" fill="#660806"/>
<path d="M87.1942 6.62907C87.2398 6.76573 87.3005 6.90239 87.3461 7.03905C87.5283 7.52496 87.7409 8.01087 87.9231 8.49678C88.0294 8.7701 88.1205 9.04342 88.2116 9.30156C88.2724 9.48378 88.3179 9.65082 88.3786 9.83304C88.4242 9.98488 88.4546 10.1367 88.4849 10.2886C88.4849 10.3038 88.485 10.3189 88.5001 10.3341C88.7886 11.7007 88.9709 13.0522 89.1531 14.4036C89.229 14.9655 89.2897 15.5273 89.3656 16.0891C89.3808 16.2106 89.396 16.3169 89.4112 16.4384C89.4264 16.5599 89.4416 16.6813 89.4719 16.8028C89.4871 16.8939 89.5175 16.9698 89.5327 17.061C89.5479 17.1369 89.5783 17.1976 89.5934 17.2735C89.6086 17.3343 89.639 17.395 89.6541 17.4557C89.6845 17.5165 89.6997 17.5772 89.7301 17.638C89.7605 17.6987 89.7908 17.7594 89.806 17.8202C89.8364 17.8809 89.8667 17.9417 89.8971 18.0024C89.9275 18.0783 89.9731 18.1391 90.0186 18.215C90.0642 18.2909 90.1249 18.382 90.1704 18.4731C90.2463 18.5946 90.3223 18.7009 90.3982 18.8224C90.5197 18.9894 90.6563 19.1716 90.793 19.3538C90.8385 19.3994 90.8689 19.4601 90.9145 19.5057C91.1119 19.7638 91.3093 20.0068 91.5067 20.2345C91.7193 20.4775 91.9319 20.7053 92.1445 20.9179C92.6304 21.4038 93.1162 21.7834 93.587 22.0567C93.7692 22.163 93.9362 22.2541 94.1184 22.3148C94.2703 22.3756 94.4222 22.4211 94.574 22.4667C94.6955 22.4971 94.817 22.5274 94.9384 22.5426C95.0447 22.5578 95.1662 22.573 95.2725 22.573C95.3788 22.573 95.5003 22.573 95.6066 22.573C95.7129 22.573 95.8343 22.5578 95.9406 22.5274C96.0621 22.5122 96.1836 22.4819 96.305 22.4363C96.4417 22.3908 96.5784 22.3452 96.7151 22.2845C96.8062 22.2389 96.8973 22.2086 96.9884 22.163C97.0339 22.1326 97.0947 22.1174 97.1402 22.1023C97.2617 22.0567 97.3832 22.0111 97.5046 21.9808C97.6869 21.9352 97.8691 21.8897 98.0665 21.8593C98.6283 21.7682 99.2357 21.7226 99.8127 21.6315C99.9038 21.6164 99.995 21.6012 100.086 21.5708C100.116 21.5708 100.147 21.5556 100.177 21.5556C100.238 21.5404 100.283 21.5404 100.344 21.5404C100.39 21.5404 100.45 21.5404 100.496 21.5404C100.542 21.5404 100.587 21.5404 100.648 21.5556C100.693 21.5556 100.754 21.5708 100.8 21.586C100.86 21.6012 100.921 21.6163 100.982 21.6467C101.043 21.6771 101.103 21.7075 101.179 21.7378C101.331 21.8289 101.483 21.9504 101.635 22.0871C101.696 22.1478 101.756 22.2086 101.802 22.2693C101.847 22.33 101.893 22.3908 101.954 22.4515C101.999 22.5122 102.045 22.573 102.09 22.6489C102.136 22.7248 102.182 22.7856 102.242 22.8615C102.288 22.9374 102.349 23.0285 102.394 23.1196C102.409 23.1348 102.424 23.1652 102.424 23.1804C104.019 25.9895 105.644 28.7835 107.268 31.5927C107.314 31.6838 107.375 31.7749 107.42 31.8508C107.466 31.9267 107.496 32.0027 107.542 32.0786C107.572 32.1545 107.602 32.2153 107.633 32.276C107.663 32.3367 107.678 32.3975 107.709 32.4582C107.724 32.519 107.754 32.5797 107.77 32.6253C107.785 32.686 107.8 32.7316 107.815 32.7923C107.83 32.853 107.845 32.9138 107.861 32.9745C107.876 33.0504 107.891 33.1112 107.891 33.1719C107.967 33.7489 107.8 34.2044 107.42 34.5993C106.266 35.7837 105.234 37.1047 104.095 38.3043C103.7 38.7295 103.685 39.2761 103.776 40.0202C103.806 40.2024 103.837 40.3998 103.867 40.5972C103.897 40.7946 103.928 40.9768 103.973 41.159C104.019 41.402 104.08 41.6298 104.14 41.8576C104.186 42.0398 104.247 42.222 104.307 42.4042C104.353 42.556 104.414 42.7079 104.474 42.8597C104.52 42.9964 104.581 43.1331 104.641 43.2545C104.702 43.376 104.748 43.4975 104.808 43.619C104.869 43.7404 104.915 43.8467 104.975 43.953C105.036 44.0593 105.097 44.1808 105.158 44.2871C105.218 44.3934 105.294 44.5149 105.355 44.6212C105.431 44.7426 105.507 44.8489 105.583 44.9704C105.674 45.0919 105.765 45.2134 105.856 45.3348C105.963 45.4867 106.084 45.6233 106.205 45.76C106.388 45.9574 106.57 46.1548 106.767 46.3522C107.435 47.0203 108.21 47.5974 109.045 48.144C109.986 48.7514 110.958 49.5106 111.839 50.3913C111.885 50.4369 111.945 50.4976 111.991 50.5432C112.082 50.6343 112.158 50.7254 112.234 50.8165C112.325 50.9228 112.416 51.0291 112.492 51.1354C112.598 51.272 112.705 51.4239 112.826 51.5757C113.16 52.0617 113.494 52.5779 113.828 53.0638C113.859 53.1094 113.889 53.1398 113.919 53.1853L103.988 58.9555C103.958 58.91 103.928 58.8796 103.897 58.834C103.563 58.3481 103.229 57.8318 102.895 57.3459C102.789 57.1941 102.683 57.0422 102.561 56.9056C102.47 56.7993 102.394 56.693 102.303 56.5867C102.227 56.4956 102.136 56.4045 102.06 56.3134C102.015 56.2678 101.954 56.2071 101.908 56.1615C101.027 55.2808 100.056 54.5368 99.1142 53.9142C98.2791 53.3675 97.5046 52.7905 96.8365 52.1224C96.6391 51.9402 96.4569 51.7428 96.2747 51.5302C96.1532 51.3935 96.0317 51.2417 95.9254 51.105C95.8343 50.9835 95.7432 50.8621 95.6521 50.7406C95.5762 50.6343 95.5003 50.5128 95.4244 50.3913C95.3484 50.285 95.2877 50.1788 95.2269 50.0573C95.1662 49.951 95.1055 49.8447 95.0447 49.7232C94.984 49.6169 94.9232 49.4954 94.8777 49.3891C94.8169 49.2677 94.7714 49.1462 94.7107 49.0247C94.6499 48.888 94.6044 48.7666 94.5436 48.6299C94.4829 48.4781 94.4373 48.3262 94.3766 48.1744C94.3159 47.9922 94.2551 47.8099 94.2095 47.6277C94.1488 47.3999 94.0881 47.1722 94.0425 46.9292C93.997 46.747 93.9666 46.5648 93.9362 46.3674C93.9059 46.1548 93.8755 45.9726 93.8451 45.7904C93.754 45.0311 93.7692 44.4997 94.164 44.0745C95.3028 42.8749 96.3506 41.5387 97.4894 40.3694C97.8691 39.9746 98.0361 39.5191 97.9602 38.9421C97.945 38.8813 97.945 38.8054 97.9298 38.7447C97.9146 38.6839 97.8995 38.6232 97.8843 38.5625C97.8691 38.5017 97.8539 38.4562 97.8387 38.3954C97.8235 38.3347 97.7931 38.2891 97.778 38.2284C97.7476 38.1677 97.7324 38.1069 97.7021 38.0462C97.6717 37.9854 97.6413 37.9095 97.611 37.8488C97.5806 37.7728 97.535 37.6969 97.4894 37.621C97.4439 37.5299 97.3983 37.454 97.3376 37.3629C95.7128 34.5689 94.1033 31.7597 92.4937 28.9506C92.4785 28.9354 92.4633 28.905 92.4633 28.8898C92.4178 28.7987 92.357 28.7228 92.3115 28.6317C92.2659 28.5558 92.2204 28.4798 92.1597 28.4191C92.1141 28.3584 92.0685 28.2824 92.023 28.2217C91.9774 28.1609 91.9319 28.1002 91.8711 28.0395C91.8104 27.9787 91.7496 27.918 91.7041 27.8573C91.5522 27.7054 91.4004 27.5991 91.2486 27.508C91.1878 27.4776 91.1271 27.4473 91.0512 27.4169C90.9904 27.3865 90.9297 27.3714 90.8689 27.3562C90.8234 27.341 90.7626 27.3258 90.7171 27.3258C90.6715 27.3258 90.626 27.3106 90.5652 27.3106C90.5197 27.3106 90.4589 27.3106 90.4134 27.3106C90.3526 27.3106 90.3071 27.3258 90.2464 27.3258C90.216 27.3258 90.1856 27.341 90.1553 27.341C90.0642 27.3562 89.9731 27.3714 89.8819 27.4017C89.3049 27.508 88.7127 27.5384 88.1357 27.6295C87.9535 27.6599 87.7561 27.7054 87.5738 27.751C87.4524 27.7813 87.3309 27.8269 87.2094 27.8724C87.1639 27.8876 87.1031 27.918 87.0576 27.9332C86.9665 27.9787 86.8754 28.0243 86.7843 28.0547C86.6476 28.1154 86.5109 28.161 86.3742 28.2065C86.2528 28.2369 86.1313 28.2672 86.0098 28.2976C85.9035 28.3128 85.7821 28.328 85.6758 28.3432C85.5695 28.3432 85.4632 28.3584 85.3417 28.3432C85.2354 28.3432 85.1139 28.328 85.0076 28.3128C84.8862 28.2976 84.7647 28.2673 84.6432 28.2369C84.4914 28.1913 84.3395 28.1458 84.1877 28.085C84.0055 28.0091 83.8384 27.918 83.6562 27.8269C83.1855 27.5536 82.7147 27.1891 82.2137 26.688C82.0011 26.4755 81.7885 26.2477 81.5759 26.0047C81.3785 25.777 81.1811 25.534 80.9837 25.2759C80.9381 25.2303 80.9078 25.1696 80.8622 25.124C80.7256 24.9418 80.5889 24.7596 80.4674 24.5925C80.3915 24.4711 80.3004 24.3648 80.2397 24.2433C80.1789 24.1522 80.1334 24.0763 80.0878 23.9852C80.0423 23.9092 80.0119 23.8485 79.9663 23.7726C79.936 23.7118 79.9056 23.6511 79.8752 23.5904C79.8448 23.5296 79.8145 23.4689 79.7993 23.4081C79.7689 23.3474 79.7538 23.2867 79.7234 23.2259C79.693 23.1652 79.6778 23.1044 79.6626 23.0437C79.6323 22.9678 79.6171 22.907 79.6019 22.8311C79.5715 22.74 79.5563 22.6641 79.5411 22.573C79.5108 22.4515 79.4956 22.33 79.4804 22.2086C79.4652 22.0871 79.4501 21.9808 79.4349 21.8593C79.359 21.2975 79.2982 20.7356 79.2223 20.1738C79.04 18.8224 78.8578 17.4709 78.5693 16.1043C78.5693 16.0891 78.5693 16.0739 78.5541 16.0588C78.5238 15.9069 78.4782 15.7551 78.4479 15.6032C78.4023 15.4362 78.3416 15.254 78.2808 15.0717C78.1897 14.7984 78.0986 14.5403 77.9923 14.267C77.8101 13.781 77.5975 13.2951 77.4153 12.8092C77.3545 12.6726 77.309 12.5359 77.2634 12.3992L87.1942 6.62907Z" fill="white"/>
<path d="M35.3232 48.4933C35.3384 48.5084 35.3688 48.5236 35.384 48.5388C35.4751 48.5995 35.5358 48.6603 35.6269 48.721C35.7484 48.8121 35.8851 48.9032 35.9913 48.9943C36.0065 49.0095 36.0217 49.0095 36.0369 49.0247C36.1584 49.131 36.2647 49.2525 36.3558 49.374C36.371 49.4043 36.3862 49.4195 36.4014 49.4499C36.4165 49.4803 36.4317 49.5106 36.4621 49.5258C36.4924 49.5714 36.538 49.6321 36.5684 49.6777C36.6291 49.7688 36.6747 49.8751 36.705 49.9662C36.705 49.9814 36.705 49.9965 36.7202 50.0117C36.7202 50.0269 36.7354 50.0421 36.7354 50.0573C36.7506 50.118 36.7809 50.1939 36.7961 50.2547C36.8113 50.3458 36.8265 50.4521 36.8265 50.5432C36.8265 50.5584 36.8265 50.5736 36.8265 50.5887L36.8569 61.2484C36.8569 61.0662 36.8265 60.884 36.7658 60.7017C36.7658 60.6865 36.7506 60.6714 36.7506 60.6562C36.6898 60.4892 36.5988 60.3373 36.4925 60.1703C36.4773 60.1399 36.4621 60.1095 36.4317 60.0944C36.3254 59.9425 36.1888 59.7906 36.0217 59.654C35.9155 59.5629 35.7788 59.4718 35.6573 59.3807C35.551 59.3048 35.4599 59.2288 35.3536 59.1681L19.8197 50.1332L19.7893 39.4735L35.3232 48.4933Z" fill="#3F0706"/>
<path d="M46.9397 56.8448L46.97 67.5045C47.6685 66.1682 48.0178 64.7864 48.0178 63.4198L47.9874 52.7601C48.0026 54.142 47.6534 55.5238 46.9397 56.8448Z" fill="#2A4470"/>
<path d="M0.945415 53.6105C0.9606 53.8534 0.990966 54.1116 1.03652 54.3545C1.06689 54.552 1.12761 54.7493 1.18835 54.9619C1.24909 55.1897 1.30984 55.4327 1.38576 55.6604C1.46168 55.8578 1.53761 56.04 1.62872 56.2374C1.73501 56.4804 1.8413 56.7234 1.97796 56.9663C2.06907 57.1485 2.19056 57.3156 2.29685 57.4978C2.46388 57.7711 2.6461 58.0444 2.8435 58.3026C3.0409 58.5607 3.23829 58.834 3.46606 59.0922C3.51161 59.1529 3.55717 59.2136 3.61791 59.2744C3.92161 59.6084 4.25566 59.9273 4.60491 60.2462C4.83268 60.4436 5.07564 60.641 5.31859 60.8384C5.53118 61.0206 5.74379 61.1877 5.98674 61.3699C6.24488 61.5521 6.53337 61.7343 6.82188 61.9317C7.12558 62.1291 7.41406 62.3265 7.74813 62.5239C8.52255 62.9643 9.32734 63.3743 10.1777 63.7539C10.4662 63.8754 10.7699 63.9816 11.0584 64.0879C11.6354 64.3157 12.2125 64.5435 12.8047 64.7409C13.5943 64.999 14.399 65.2268 15.219 65.4394C15.3709 65.4697 15.5227 65.5001 15.6594 65.5305C16.3275 65.6823 17.0108 65.819 17.7093 65.9405C18.2712 66.0316 18.833 66.1075 19.3948 66.1682C19.82 66.229 20.2603 66.2897 20.6855 66.3201C21.0348 66.3504 21.3992 66.3656 21.7484 66.396C22.3254 66.4264 22.9025 66.4719 23.4795 66.4871C23.7984 66.4871 24.1324 66.4871 24.4513 66.4871C25.0587 66.4871 25.6509 66.4719 26.2583 66.4416C26.562 66.4264 26.8657 66.4112 27.1694 66.396C28.0045 66.3353 28.8549 66.2594 29.6748 66.1531L29.7052 76.8127C29.0523 76.9038 28.4145 76.9645 27.7464 77.0253C27.5642 77.0405 27.3668 77.0405 27.1846 77.0557C26.8809 77.0708 26.5772 77.086 26.2735 77.1012C25.985 77.1164 25.7116 77.1468 25.4231 77.1468C25.1043 77.1619 24.7854 77.1468 24.4817 77.1468C24.1628 77.1468 23.8287 77.1468 23.5098 77.1468C23.3428 77.1468 23.1758 77.1468 23.0088 77.1468C22.5988 77.1316 22.1888 77.086 21.7636 77.0708C21.4144 77.0405 21.0499 77.0253 20.7007 76.9949C20.5944 76.9797 20.5033 76.9797 20.397 76.9797C20.0629 76.9494 19.7289 76.8886 19.3948 76.8431C18.833 76.7671 18.2711 76.7064 17.7245 76.6153C17.603 76.6001 17.4967 76.5849 17.3753 76.5697C16.7982 76.4634 16.2364 76.342 15.6745 76.2053C15.5227 76.1749 15.3709 76.1446 15.219 76.1142C14.4598 75.932 13.7005 75.7194 12.9717 75.4765C12.9109 75.4613 12.8654 75.4309 12.8047 75.4157C12.1973 75.2183 11.6354 74.9905 11.0584 74.7476C10.7699 74.6261 10.4662 74.535 10.1777 74.4135C9.32734 74.0339 8.52255 73.6391 7.74813 73.1836C7.64183 73.1228 7.53556 73.0621 7.42926 73.0013C7.21668 72.8647 7.03447 72.728 6.82188 72.5914C6.53337 72.4091 6.24488 72.2269 5.98674 72.0295C5.74379 71.8625 5.54636 71.6803 5.31859 71.4981C5.07564 71.3007 4.83268 71.1033 4.60491 70.9059C4.55935 70.8603 4.49863 70.8299 4.45308 70.7844C4.14938 70.511 3.87605 70.2225 3.61791 69.934C3.55717 69.8733 3.51161 69.8126 3.46606 69.7518C3.29902 69.5696 3.14718 69.3874 2.99533 69.2052C2.9346 69.1293 2.88904 69.0381 2.8283 68.9622C2.6309 68.6889 2.44868 68.4308 2.28165 68.1574C2.20573 68.036 2.11463 67.9297 2.05389 67.8082C2.02352 67.7474 2.00834 67.6867 1.96279 67.626C1.82612 67.383 1.71982 67.1401 1.61352 66.8971C1.55278 66.7604 1.46169 66.6086 1.41614 66.4719C1.40095 66.4264 1.38577 66.3656 1.37058 66.3201C1.29466 66.0923 1.23392 65.8494 1.17318 65.6216C1.12762 65.4697 1.06689 65.3027 1.03652 65.1509C1.02134 65.1053 1.0365 65.0598 1.02132 65.0294C0.975766 64.7864 0.960585 64.5283 0.930216 64.2853C0.915031 64.1183 0.884672 63.9665 0.869487 63.7994C0.869487 63.7235 0.869487 63.6628 0.869487 63.5868L0.839111 52.9272C0.884665 53.1398 0.930231 53.3827 0.945415 53.6105Z" fill="#3F0706"/>
<path d="M92.8125 86.9713L92.8429 97.6309H106.494L106.464 86.9713H92.8125Z" fill="#3F0706"/>
<path d="M83.1399 92.5592L83.1702 103.219L92.8429 97.6309L92.8125 86.9713L83.1399 92.5592Z" fill="#3F0706"/>
<path d="M106.463 86.9713L106.494 97.6309L116.106 103.219L116.075 92.5592L106.463 86.9713Z" fill="#3F0706"/>
<path d="M55.003 78.7867C55.6256 79.1511 56.2329 79.5156 56.8251 79.88C57.0529 80.0167 57.2807 80.1533 57.4932 80.3052C57.9184 80.5633 58.3436 80.8367 58.7688 81.0948C59.3002 81.4289 59.8469 81.7781 60.3632 82.1122C60.7732 82.3855 61.1831 82.6436 61.5931 82.917C62.1094 83.2662 62.6257 83.6003 63.142 83.9495C63.5368 84.2076 63.9316 84.481 64.3264 84.7391C64.8426 85.0884 65.3589 85.4376 65.86 85.802C66.2245 86.0602 66.604 86.3183 66.9685 86.5765C67.4848 86.9409 67.9859 87.2901 68.487 87.6546C68.8362 87.8975 69.1703 88.1405 69.5195 88.3834C70.051 88.7631 70.5824 89.1427 71.0987 89.5223C71.3872 89.7349 71.6909 89.9475 71.9795 90.1601C72.602 90.6156 73.2094 91.0559 73.8016 91.4963C74.743 92.1948 75.6845 92.8781 76.5956 93.5311L76.626 104.191C75.6693 103.492 74.6975 102.779 73.7105 102.05C73.1487 101.64 72.602 101.23 72.025 100.82C71.7213 100.592 71.4024 100.364 71.0987 100.152C70.5976 99.7871 70.0814 99.4227 69.5651 99.0431C69.2158 98.8001 68.8666 98.542 68.5173 98.299C68.0163 97.9498 67.5151 97.5853 67.014 97.2361C66.6496 96.978 66.27 96.7198 65.8904 96.4617C65.3893 96.1124 64.8882 95.7632 64.3719 95.4139C63.9771 95.1406 63.5823 94.8825 63.1875 94.6092C62.6712 94.2599 62.155 93.9259 61.6387 93.5766C61.2287 93.3033 60.8187 93.0451 60.4087 92.7718C59.8773 92.4378 59.3458 92.1037 58.8143 91.7544C58.3891 91.4811 57.964 91.223 57.5236 90.9496C56.7036 90.4485 55.8685 89.9323 55.0181 89.4464C46.3021 84.3291 37.6924 80.5026 29.6749 76.8127L29.6445 66.1531C37.6772 69.8278 46.287 73.6695 55.003 78.7867Z" fill="#3F0706"/>
<path d="M83.0945 100.455L83.1248 111.115L83.1704 103.219L83.14 92.5592L83.0945 100.455Z" fill="#08162E"/>
<path d="M76.0792 97.2817C76.0943 97.5246 76.1248 97.7828 76.1703 98.0257C76.2007 98.2231 76.2614 98.4205 76.3221 98.6331C76.3829 98.8609 76.4436 99.1038 76.5195 99.3316C76.5955 99.529 76.6866 99.7112 76.7625 99.9086C76.8688 100.152 76.9751 100.395 77.0966 100.637C77.1877 100.82 77.3091 100.987 77.4154 101.169C77.5824 101.442 77.7647 101.716 77.9621 101.974C78.1595 102.232 78.3569 102.505 78.5847 102.763C78.6302 102.824 78.6757 102.885 78.7365 102.93C79.0402 103.264 79.3743 103.583 79.7235 103.902C79.9513 104.1 80.1942 104.297 80.4372 104.494C80.6498 104.677 80.8624 104.844 81.1053 105.026C81.3635 105.223 81.652 105.405 81.9405 105.588C82.2442 105.785 82.5327 105.982 82.8516 106.18C83.5501 106.59 84.3093 106.954 85.0685 107.304C85.2963 107.41 85.5089 107.501 85.7366 107.592C86.344 107.85 86.9514 108.078 87.5892 108.291C87.8169 108.366 88.0447 108.458 88.2725 108.518C88.6673 108.64 89.0773 108.761 89.4873 108.868C89.791 108.959 90.0946 109.035 90.4135 109.111C90.8387 109.217 91.2791 109.308 91.7194 109.384C92.0079 109.445 92.3116 109.505 92.6001 109.566C93.4808 109.718 94.3767 109.839 95.2878 109.946C95.5612 109.976 95.8496 109.991 96.123 110.022C96.6544 110.067 97.1859 110.098 97.7173 110.128C98.0514 110.143 98.4007 110.143 98.7347 110.158C99.1599 110.173 99.6003 110.173 100.025 110.158C100.39 110.158 100.739 110.143 101.104 110.128C101.498 110.113 101.893 110.098 102.303 110.067C102.668 110.037 103.032 110.006 103.396 109.976C103.791 109.931 104.186 109.9 104.581 109.839C104.93 109.794 105.279 109.748 105.629 109.688C106.054 109.627 106.464 109.551 106.874 109.475C107.208 109.414 107.527 109.353 107.846 109.278C108.347 109.171 108.833 109.05 109.303 108.913C109.577 108.837 109.85 108.776 110.108 108.701C110.974 108.442 111.824 108.169 112.629 107.85C113.039 107.698 113.434 107.516 113.813 107.349C114.011 107.258 114.223 107.182 114.42 107.091C115.013 106.802 115.59 106.514 116.152 106.195C118.475 104.859 120.221 103.295 121.375 101.64C122.529 99.9845 123.106 98.2231 123.106 96.4617L123.137 107.121C123.152 110.644 120.828 114.167 116.182 116.84C115.62 117.158 115.043 117.462 114.451 117.735C114.253 117.827 114.056 117.902 113.859 117.994C113.509 118.145 113.16 118.312 112.796 118.464C112.75 118.479 112.705 118.495 112.659 118.51C111.839 118.829 111.004 119.117 110.138 119.36C110.063 119.375 110.002 119.406 109.941 119.436C109.744 119.497 109.531 119.527 109.334 119.588C108.848 119.709 108.362 119.831 107.876 119.952C107.739 119.983 107.618 120.013 107.481 120.044C107.284 120.089 107.086 120.104 106.889 120.15C106.479 120.226 106.054 120.302 105.644 120.362C105.477 120.393 105.31 120.423 105.143 120.454C104.96 120.484 104.778 120.499 104.581 120.514C104.186 120.56 103.791 120.605 103.412 120.651C103.229 120.666 103.047 120.696 102.85 120.712C102.668 120.727 102.501 120.727 102.318 120.742C101.923 120.772 101.529 120.788 101.119 120.803C100.921 120.818 100.724 120.833 100.527 120.833C100.359 120.833 100.208 120.833 100.041 120.833C99.6154 120.833 99.1751 120.833 98.7499 120.833C98.5373 120.833 98.3247 120.833 98.1122 120.833C97.9907 120.833 97.854 120.818 97.7325 120.803C97.2011 120.772 96.6696 120.742 96.1382 120.696C95.9256 120.681 95.713 120.681 95.5004 120.651C95.4397 120.651 95.3637 120.636 95.303 120.621C94.4071 120.529 93.5112 120.408 92.6305 120.241C92.585 120.226 92.5394 120.226 92.4939 120.226C92.2357 120.18 91.9928 120.119 91.7346 120.059C91.2943 119.968 90.8691 119.892 90.4287 119.785C90.1098 119.709 89.8062 119.618 89.5025 119.542C89.0925 119.436 88.6825 119.315 88.2877 119.193C88.1966 119.163 88.1055 119.148 88.0295 119.117C87.8929 119.072 87.7562 119.011 87.6044 118.965C86.9666 118.753 86.3592 118.51 85.7518 118.267C85.5241 118.176 85.2963 118.085 85.0837 117.978C84.3093 117.629 83.5652 117.265 82.8667 116.855C82.7604 116.794 82.6541 116.733 82.5479 116.673C82.3353 116.536 82.1531 116.399 81.9405 116.263C81.652 116.08 81.3635 115.898 81.1053 115.701C80.8776 115.534 80.665 115.351 80.4372 115.169C80.1942 114.972 79.9513 114.774 79.7235 114.577C79.678 114.531 79.6172 114.501 79.5717 114.456C79.268 114.182 78.9946 113.894 78.7365 113.605C78.6909 113.544 78.6454 113.484 78.5847 113.438C78.4176 113.256 78.2658 113.074 78.1139 112.892C78.0532 112.816 78.0076 112.74 77.9469 112.649C77.7495 112.375 77.5673 112.102 77.4003 111.829C77.3243 111.707 77.2332 111.601 77.1725 111.479C77.1421 111.419 77.1269 111.358 77.0966 111.297C76.9599 111.054 76.8536 110.811 76.7473 110.568C76.6865 110.432 76.5955 110.28 76.5499 110.143C76.5347 110.098 76.5195 110.052 76.5043 109.991C76.4284 109.763 76.3677 109.521 76.307 109.293C76.2614 109.141 76.2007 108.974 76.1703 108.822C76.1551 108.776 76.1703 108.731 76.1551 108.701C76.1096 108.458 76.0944 108.215 76.064 107.957C76.0488 107.789 76.0184 107.638 76.0033 107.471C76.0033 107.395 76.0033 107.334 76.0033 107.258L75.9729 96.5983C76.0185 96.8109 76.064 97.0387 76.0792 97.2817Z" fill="#3F0706"/>
<path d="M55.003 78.7867C46.287 73.6695 37.6773 69.8429 29.6597 66.1531C22.0067 67.1704 13.6551 65.9556 7.71784 62.5087C1.93247 59.1377 -0.178187 54.4608 1.37065 50.118L16.9957 59.1985C18.3016 59.9577 20.23 60.2462 22.0218 59.9577L30.1912 58.6214C31.0567 58.4848 31.8159 58.2115 32.4385 57.8622C33.0155 57.5281 33.4559 57.1182 33.714 56.6626L36.5688 51.515C37.161 50.4521 36.675 49.298 35.3236 48.5084L19.7897 39.4735C28.035 38.5017 36.9787 40.0961 42.8248 44.2567C47.8206 47.8251 49.1873 52.5931 46.9399 56.8448C52.3457 61.218 59.2699 66.153 67.9555 71.1944C76.7323 76.2661 85.3116 80.29 92.8888 83.4332C100.921 82.0514 109.972 83.1903 116.288 86.8498C125.46 92.1796 125.414 100.835 116.182 106.165C106.95 111.495 92.0233 111.495 82.8517 106.165C76.9449 102.733 74.8645 97.9346 76.6108 93.5159C70.4002 88.9756 63.2938 83.6306 55.003 78.7867ZM92.7066 106.043H106.342L116.015 100.455L116.061 92.5592L106.449 86.9713H92.8129L83.1402 92.5592L83.0947 100.455L92.7066 106.043Z" fill="white"/>
</svg>
