<svg width="20" height="16" viewBox="0 0 20 16" fill="none" xmlns="http://www.w3.org/2000/svg">
<path d="M19.7068 8.70731L12.7068 15.7073C12.5118 15.9023 12.2559 16.0003 11.9999 16.0003C11.7439 16.0003 11.4879 15.9023 11.2929 15.7073C10.9019 15.3163 10.9019 14.6842 11.2929 14.2933L16.5859 9.00028H0.999878C0.446878 9.00028 -0.00012207 8.55328 -0.00012207 8.00028C-0.00012207 7.44728 0.446878 7.00028 0.999878 7.00028H16.5859L11.2929 1.70731C10.9019 1.31631 10.9019 0.68425 11.2929 0.29325C11.6839 -0.09775 12.3158 -0.09775 12.7068 0.29325L19.7068 7.29325C20.0978 7.68425 20.0978 8.31631 19.7068 8.70731Z" fill="#F2ED7D"/>
</svg>
