<svg width="20" height="20" viewBox="0 0 20 20" fill="none" xmlns="http://www.w3.org/2000/svg">
<mask id="mask0_254_110359" style="mask-type:alpha" maskUnits="userSpaceOnUse" x="11" y="1" width="9" height="8">
<path fill-rule="evenodd" clip-rule="evenodd" d="M11.9617 1.66699H19.0775V8.77767H11.9617V1.66699Z" fill="white"/>
</mask>
<g mask="url(#mask0_254_110359)">
<path fill-rule="evenodd" clip-rule="evenodd" d="M18.4523 8.77767C18.1381 8.77767 17.8681 8.54184 17.8323 8.22267C17.5164 5.40934 15.3314 3.226 12.5173 2.9135C12.1748 2.87517 11.9273 2.56684 11.9656 2.2235C12.0031 1.881 12.3089 1.6285 12.6556 1.67184C16.0539 2.04934 18.6931 4.68517 19.0739 8.08267C19.1123 8.426 18.8656 8.73517 18.5231 8.7735C18.4998 8.776 18.4756 8.77767 18.4523 8.77767Z" fill="#262424"/>
</g>
<path fill-rule="evenodd" clip-rule="evenodd" d="M15.5021 8.78647C15.2088 8.78647 14.948 8.5798 14.8896 8.28147C14.6496 7.04814 13.6988 6.0973 12.4671 5.85813C12.128 5.7923 11.9071 5.4648 11.973 5.12563C12.0388 4.78647 12.3721 4.5648 12.7055 4.63147C14.4396 4.96813 15.7788 6.30647 16.1163 8.04147C16.1821 8.38147 15.9613 8.70897 15.623 8.7748C15.5821 8.7823 15.5421 8.78647 15.5021 8.78647Z" fill="#262424"/>
<path fill-rule="evenodd" clip-rule="evenodd" d="M2.74062 3.40638L2.80108 3.3432C4.40726 1.73687 5.45323 1.3111 6.56924 1.95286C6.89027 2.13746 7.19123 2.39586 7.60047 2.81151L8.85578 4.1132C9.54914 4.86978 9.70676 5.59549 9.48099 6.44538L9.44989 6.55789L9.41536 6.66977L9.24755 7.16212C8.88837 8.26627 9.03833 8.88924 10.3162 10.1668C11.6452 11.4954 12.2655 11.6041 13.4548 11.1885L13.6668 11.1148L13.9231 11.0316L14.0353 11.0004C14.9386 10.7594 15.7017 10.9518 16.511 11.7605L17.5225 12.7375L17.8202 13.0303C18.1503 13.3669 18.3685 13.6337 18.5296 13.9156C19.1674 15.0313 18.7411 16.0766 17.0886 17.7229L16.9314 17.8822C16.6847 18.12 16.4542 18.2904 16.1155 18.4512C15.5471 18.7211 14.8755 18.8228 14.0952 18.7143C12.1723 18.4469 9.73349 16.9297 6.64325 13.8402C6.3917 13.5887 6.15077 13.3421 5.92023 13.1002L5.47292 12.6228C1.28137 8.06888 0.911594 5.27141 2.62933 3.51692L2.74062 3.40638ZM6.5887 3.56727C6.3172 3.29962 6.11999 3.13645 5.94612 3.03647C5.56151 2.8153 5.14627 2.90879 4.37776 3.57023L4.13629 3.78596C4.09417 3.82484 4.05109 3.8652 4.007 3.90707L3.73011 4.17676L3.70516 4.20794L3.51744 4.39653C3.06382 4.85987 2.84894 5.42537 3.03411 6.3979C3.33795 7.99375 4.7287 10.1586 7.52702 12.9562C10.4428 15.8712 12.6643 17.2533 14.2674 17.4762C15.2019 17.6062 15.6785 17.3798 16.1646 16.8818L16.5353 16.5077C16.7092 16.3258 16.8577 16.1609 16.9831 16.0103L17.1542 15.7948C17.5914 15.2124 17.6314 14.863 17.4444 14.5359C17.3732 14.4114 17.2698 14.275 17.1191 14.1082L16.9147 13.8924L16.7938 13.7713L15.5178 12.5392C15.0913 12.1459 14.7999 12.0901 14.3575 12.2082L14.2298 12.2449L13.7012 12.4244C12.1678 12.9196 11.0615 12.6795 9.43247 11.0508C7.74527 9.36404 7.54739 8.23765 8.11271 6.61581L8.14897 6.51159L8.24925 6.20945L8.29855 6.01686C8.38597 5.59772 8.28616 5.30548 7.8356 4.85484C7.81704 4.83629 7.79631 4.81539 7.77375 4.79251L6.5887 3.56727Z" fill="#262424"/>
</svg>
