<svg width="15" height="17" viewBox="0 0 15 17" fill="none" xmlns="http://www.w3.org/2000/svg">
<path fill-rule="evenodd" clip-rule="evenodd" d="M7.2087 6.08301C6.40453 6.08301 5.75037 6.73717 5.75037 7.54217C5.75037 8.34634 6.40453 8.99967 7.2087 8.99967C8.01287 8.99967 8.66703 8.34634 8.66703 7.54217C8.66703 6.73717 8.01287 6.08301 7.2087 6.08301ZM7.2087 10.2497C5.71537 10.2497 4.50037 9.03551 4.50037 7.54217C4.50037 6.04801 5.71537 4.83301 7.2087 4.83301C8.70203 4.83301 9.91703 6.04801 9.91703 7.54217C9.91703 9.03551 8.70203 10.2497 7.2087 10.2497Z" fill="#262424"/>
<mask id="mask0_371_78454" style="mask-type:alpha" maskUnits="userSpaceOnUse" x="0" y="0" width="15" height="17">
<path fill-rule="evenodd" clip-rule="evenodd" d="M0.333313 0.666504H14.0829V16.9165H0.333313V0.666504Z" fill="white"/>
</mask>
<g mask="url(#mask0_371_78454)">
<path fill-rule="evenodd" clip-rule="evenodd" d="M7.20789 1.9165C4.10622 1.9165 1.58289 4.464 1.58289 7.594C1.58289 11.5765 6.26955 15.4565 7.20789 15.6632C8.14622 15.4557 12.8329 11.5757 12.8329 7.594C12.8329 4.464 10.3096 1.9165 7.20789 1.9165ZM7.20789 16.9165C5.71289 16.9165 0.332886 12.2898 0.332886 7.594C0.332886 3.774 3.41705 0.666504 7.20789 0.666504C10.9987 0.666504 14.0829 3.774 14.0829 7.594C14.0829 12.2898 8.70289 16.9165 7.20789 16.9165Z" fill="#262424"/>
</g>
</svg>
