<svg width="20" height="20" viewBox="0 0 20 20" fill="none" xmlns="http://www.w3.org/2000/svg">
<path fill-rule="evenodd" clip-rule="evenodd" d="M9.81407 11.2207C9.25657 11.2207 8.70073 11.0366 8.23573 10.6682L4.49823 7.65491C4.22907 7.43824 4.1874 7.04408 4.40323 6.77574C4.62073 6.50824 5.01407 6.46574 5.2824 6.68158L9.01657 9.69158C9.48573 10.0632 10.1466 10.0632 10.6191 9.68824L14.3157 6.68324C14.5841 6.46408 14.9774 6.50574 15.1957 6.77408C15.4132 7.04158 15.3724 7.43491 15.1049 7.65324L11.4016 10.6632C10.9332 11.0349 10.3732 11.2207 9.81407 11.2207Z" fill="#262424"/>
<mask id="mask0_254_110362" style="mask-type:alpha" maskUnits="userSpaceOnUse" x="0" y="1" width="19" height="17">
<path fill-rule="evenodd" clip-rule="evenodd" d="M0.833313 1.6665H18.7499V17.9165H0.833313V1.6665Z" fill="white"/>
</mask>
<g mask="url(#mask0_254_110362)">
<path fill-rule="evenodd" clip-rule="evenodd" d="M5.69909 16.6665H13.8824C13.8841 16.6648 13.8908 16.6665 13.8958 16.6665C14.8466 16.6665 15.6899 16.3265 16.3366 15.6807C17.0874 14.9332 17.4999 13.859 17.4999 12.6565V6.93317C17.4999 4.60567 15.9783 2.9165 13.8824 2.9165H5.70075C3.60492 2.9165 2.08325 4.60567 2.08325 6.93317V12.6565C2.08325 13.859 2.49659 14.9332 3.24659 15.6807C3.89325 16.3265 4.73742 16.6665 5.68742 16.6665H5.69909ZM5.68492 17.9165C4.39909 17.9165 3.25075 17.4498 2.36409 16.5665C1.37659 15.5815 0.833252 14.1932 0.833252 12.6565V6.93317C0.833252 3.93067 2.92575 1.6665 5.70075 1.6665H13.8824C16.6574 1.6665 18.7499 3.93067 18.7499 6.93317V12.6565C18.7499 14.1932 18.2066 15.5815 17.2191 16.5665C16.3333 17.449 15.1841 17.9165 13.8958 17.9165H13.8824H5.70075H5.68492Z" fill="#262424"/>
</g>
</svg>
