<svg width="19" height="17" viewBox="0 0 19 17" fill="none" xmlns="http://www.w3.org/2000/svg">
<path fill-rule="evenodd" clip-rule="evenodd" d="M9.81407 10.2207C9.25657 10.2207 8.70073 10.0366 8.23573 9.66824L4.49823 6.65491C4.22907 6.43824 4.1874 6.04408 4.40323 5.77574C4.62073 5.50824 5.01407 5.46574 5.2824 5.68158L9.01657 8.69158C9.48573 9.06324 10.1466 9.06324 10.6191 8.68824L14.3157 5.68324C14.5841 5.46408 14.9774 5.50574 15.1957 5.77408C15.4132 6.04158 15.3724 6.43491 15.1049 6.65324L11.4016 9.66324C10.9332 10.0349 10.3732 10.2207 9.81407 10.2207Z" fill="#262424"/>
<mask id="mask0_371_78471" style="mask-type:alpha" maskUnits="userSpaceOnUse" x="0" y="0" width="19" height="17">
<path fill-rule="evenodd" clip-rule="evenodd" d="M0.833313 0.666504H18.7499V16.9165H0.833313V0.666504Z" fill="white"/>
</mask>
<g mask="url(#mask0_371_78471)">
<path fill-rule="evenodd" clip-rule="evenodd" d="M5.69909 15.6665H13.8824C13.8841 15.6648 13.8908 15.6665 13.8958 15.6665C14.8466 15.6665 15.6899 15.3265 16.3366 14.6807C17.0874 13.9332 17.4999 12.859 17.4999 11.6565V5.93317C17.4999 3.60567 15.9783 1.9165 13.8824 1.9165H5.70075C3.60492 1.9165 2.08325 3.60567 2.08325 5.93317V11.6565C2.08325 12.859 2.49659 13.9332 3.24659 14.6807C3.89325 15.3265 4.73742 15.6665 5.68742 15.6665H5.69909ZM5.68492 16.9165C4.39909 16.9165 3.25075 16.4498 2.36409 15.5665C1.37659 14.5815 0.833252 13.1932 0.833252 11.6565V5.93317C0.833252 2.93067 2.92575 0.666504 5.70075 0.666504H13.8824C16.6574 0.666504 18.7499 2.93067 18.7499 5.93317V11.6565C18.7499 13.1932 18.2066 14.5815 17.2191 15.5665C16.3333 16.449 15.1841 16.9165 13.8958 16.9165H13.8824H5.70075H5.68492Z" fill="#262424"/>
</g>
</svg>
