<svg width="151" height="203" viewBox="0 0 151 203" fill="none" xmlns="http://www.w3.org/2000/svg">
<g filter="url(#filter0_ddddd_371_44199)">
<rect x="47.6666" y="20" width="56" height="56" rx="28" fill="#F79009"/>
<path d="M67.0933 62.2667C63.9733 62.2667 61.3333 59.6267 61.3333 56.5067V48.2934C61.2666 44.4001 62.7066 40.7334 65.3999 37.9867C68.0933 35.2534 71.7066 33.7334 75.5999 33.7334C83.5466 33.7334 89.9999 40.2001 89.9999 48.1334V56.3467C89.9999 59.5201 87.4133 62.1067 84.2399 62.1067C81.1199 62.1067 78.4799 59.4667 78.4799 56.3467V52.6001C78.4799 50.6667 79.9999 49.1467 81.9333 49.1467C83.8666 49.1467 85.3866 50.6667 85.3866 52.6001V56.6401C85.3866 57.1867 84.9333 57.6401 84.3866 57.6401C83.8399 57.6401 83.3866 57.1867 83.3866 56.6401V52.6001C83.3866 51.6934 82.6533 51.1467 81.9333 51.1467C81.0266 51.1467 80.4799 51.8801 80.4799 52.6001V56.3467C80.4799 58.3867 82.1999 60.1067 84.2399 60.1067C86.2799 60.1067 87.9999 58.3867 87.9999 56.3467V48.1334C87.9999 41.2934 82.4399 35.7334 75.5999 35.7334C72.2533 35.7334 69.1466 37.0267 66.8266 39.3867C64.5066 41.7467 63.2666 44.9067 63.3333 48.2667V56.5067C63.3333 58.5467 65.0533 60.2667 67.0933 60.2667C69.1333 60.2667 70.8533 58.5467 70.8533 56.5067V52.7601C70.8533 51.8534 70.1199 51.3067 69.3999 51.3067C68.4933 51.3067 67.9466 52.0401 67.9466 52.7601V56.6534C67.9466 57.2001 67.4933 57.6534 66.9466 57.6534C66.3999 57.6534 65.9466 57.2001 65.9466 56.6534V52.7601C65.9466 50.8267 67.4666 49.3067 69.3999 49.3067C71.3333 49.3067 72.8533 50.8267 72.8533 52.7601V56.5067C72.8533 59.6267 70.2133 62.2667 67.0933 62.2667Z" fill="#FDFDFD"/>
<rect x="46.6666" y="19" width="58" height="58" rx="29" stroke="#FDFDFD" stroke-width="2"/>
</g>
<defs>
<filter id="filter0_ddddd_371_44199" x="0.666626" y="0" width="150" height="203" filterUnits="userSpaceOnUse" color-interpolation-filters="sRGB">
<feFlood flood-opacity="0" result="BackgroundImageFix"/>
<feColorMatrix in="SourceAlpha" type="matrix" values="0 0 0 0 0 0 0 0 0 0 0 0 0 0 0 0 0 0 127 0" result="hardAlpha"/>
<feOffset/>
<feColorMatrix type="matrix" values="0 0 0 0 0.976471 0 0 0 0 0.670588 0 0 0 0 0.27451 0 0 0 0.1 0"/>
<feBlend mode="normal" in2="BackgroundImageFix" result="effect1_dropShadow_371_44199"/>
<feColorMatrix in="SourceAlpha" type="matrix" values="0 0 0 0 0 0 0 0 0 0 0 0 0 0 0 0 0 0 127 0" result="hardAlpha"/>
<feOffset dy="5"/>
<feGaussianBlur stdDeviation="8"/>
<feColorMatrix type="matrix" values="0 0 0 0 0.976471 0 0 0 0 0.670588 0 0 0 0 0.27451 0 0 0 0.1 0"/>
<feBlend mode="normal" in2="effect1_dropShadow_371_44199" result="effect2_dropShadow_371_44199"/>
<feColorMatrix in="SourceAlpha" type="matrix" values="0 0 0 0 0 0 0 0 0 0 0 0 0 0 0 0 0 0 127 0" result="hardAlpha"/>
<feOffset dy="15"/>
<feGaussianBlur stdDeviation="14"/>
<feColorMatrix type="matrix" values="0 0 0 0 0.976471 0 0 0 0 0.670588 0 0 0 0 0.27451 0 0 0 0.09 0"/>
<feBlend mode="normal" in2="effect2_dropShadow_371_44199" result="effect3_dropShadow_371_44199"/>
<feColorMatrix in="SourceAlpha" type="matrix" values="0 0 0 0 0 0 0 0 0 0 0 0 0 0 0 0 0 0 127 0" result="hardAlpha"/>
<feOffset dy="20"/>
<feGaussianBlur stdDeviation="19"/>
<feColorMatrix type="matrix" values="0 0 0 0 0.976471 0 0 0 0 0.670588 0 0 0 0 0.27451 0 0 0 0.05 0"/>
<feBlend mode="normal" in2="effect3_dropShadow_371_44199" result="effect4_dropShadow_371_44199"/>
<feColorMatrix in="SourceAlpha" type="matrix" values="0 0 0 0 0 0 0 0 0 0 0 0 0 0 0 0 0 0 127 0" result="hardAlpha"/>
<feOffset dy="80"/>
<feGaussianBlur stdDeviation="22.5"/>
<feColorMatrix type="matrix" values="0 0 0 0 0.976471 0 0 0 0 0.670588 0 0 0 0 0.27451 0 0 0 0.01 0"/>
<feBlend mode="normal" in2="effect4_dropShadow_371_44199" result="effect5_dropShadow_371_44199"/>
<feBlend mode="normal" in="SourceGraphic" in2="effect5_dropShadow_371_44199" result="shape"/>
</filter>
</defs>
</svg>
