<svg width="150" height="203" viewBox="0 0 150 203" fill="none" xmlns="http://www.w3.org/2000/svg">
<g filter="url(#filter0_ddddd_371_35176)">
<rect x="47" y="20" width="56" height="56" rx="28" fill="#F79009"/>
<path d="M71.6402 59.5864C70.9736 59.5864 70.5069 59.3598 70.2269 59.1464C69.6936 58.7598 68.8669 57.7598 69.3869 55.5198L70.1469 52.2397C70.2135 51.9597 70.0669 51.4531 69.8669 51.2397L67.2136 48.5864C65.8136 47.1864 65.9336 45.9731 66.1202 45.3731C66.3069 44.7731 66.9202 43.7197 68.8669 43.3864L72.2669 42.8264C72.5202 42.7864 72.9336 42.4798 73.0402 42.2531L74.9202 38.4931C75.8269 36.6797 77.0269 36.4131 77.6669 36.4131C78.3069 36.4131 79.5069 36.6797 80.4136 38.4931L82.2936 42.2531C82.4136 42.4798 82.8135 42.7864 83.0669 42.8264L86.4669 43.3864C88.4136 43.7064 89.0269 44.7731 89.2136 45.3731C89.4002 45.9731 89.5202 47.1864 88.1202 48.5864L85.4669 51.2397C85.2669 51.4397 85.1202 51.9597 85.1869 52.2397L85.9469 55.5198C86.4669 57.7731 85.6402 58.7598 85.1069 59.1464C84.5735 59.5331 83.3869 60.0264 81.3869 58.8398L78.2002 56.9464C77.9336 56.7864 77.3735 56.7864 77.1069 56.9464L73.9202 58.8398C73.0002 59.3998 72.2269 59.5864 71.6402 59.5864ZM77.6669 38.4131C77.4536 38.4131 77.0669 38.6664 76.7069 39.3864L74.8269 43.1464C74.4269 43.9598 73.4802 44.6531 72.5869 44.7998L69.1869 45.3598C68.4269 45.4931 68.0802 45.7731 68.0136 45.9864C67.9469 46.1998 68.0669 46.6264 68.6135 47.1731L71.2669 49.8264C71.9469 50.5064 72.3069 51.7464 72.0936 52.6797L71.3336 55.9598C71.1069 56.9064 71.2535 57.4131 71.4002 57.5331C71.5469 57.6397 72.0802 57.6264 72.9069 57.1198L76.1069 55.2264C77.0002 54.6931 78.3469 54.6931 79.2269 55.2264L82.4136 57.1198C83.2536 57.6131 83.7869 57.6397 83.9336 57.5331C84.0802 57.4264 84.2269 56.9198 84.0002 55.9598L83.2402 52.6797C83.0269 51.7331 83.3735 50.5064 84.0669 49.8264L86.7202 47.1731C87.2669 46.6264 87.3869 46.1864 87.3202 45.9864C87.2535 45.7864 86.9069 45.4931 86.1469 45.3598L82.7469 44.7998C81.8536 44.6531 80.9069 43.9598 80.5069 43.1464L78.6269 39.3864C78.2669 38.6664 77.8802 38.4131 77.6669 38.4131Z" fill="#FDFDFD"/>
<path d="M69.6667 39.6665H61.6667C61.12 39.6665 60.6667 39.2132 60.6667 38.6665C60.6667 38.1198 61.12 37.6665 61.6667 37.6665H69.6667C70.2134 37.6665 70.6667 38.1198 70.6667 38.6665C70.6667 39.2132 70.2134 39.6665 69.6667 39.6665Z" fill="#FDFDFD"/>
<path d="M65.6667 58.3335H61.6667C61.12 58.3335 60.6667 57.8802 60.6667 57.3335C60.6667 56.7868 61.12 56.3335 61.6667 56.3335H65.6667C66.2134 56.3335 66.6667 56.7868 66.6667 57.3335C66.6667 57.8802 66.2134 58.3335 65.6667 58.3335Z" fill="#FDFDFD"/>
<path d="M63 49H61.6667C61.12 49 60.6667 48.5467 60.6667 48C60.6667 47.4533 61.12 47 61.6667 47H63C63.5467 47 64 47.4533 64 48C64 48.5467 63.5467 49 63 49Z" fill="#FDFDFD"/>
<rect x="46" y="19" width="58" height="58" rx="29" stroke="#FDFDFD" stroke-width="2"/>
</g>
<defs>
<filter id="filter0_ddddd_371_35176" x="0" y="0" width="150" height="203" filterUnits="userSpaceOnUse" color-interpolation-filters="sRGB">
<feFlood flood-opacity="0" result="BackgroundImageFix"/>
<feColorMatrix in="SourceAlpha" type="matrix" values="0 0 0 0 0 0 0 0 0 0 0 0 0 0 0 0 0 0 127 0" result="hardAlpha"/>
<feOffset/>
<feColorMatrix type="matrix" values="0 0 0 0 0.976471 0 0 0 0 0.670588 0 0 0 0 0.27451 0 0 0 0.1 0"/>
<feBlend mode="normal" in2="BackgroundImageFix" result="effect1_dropShadow_371_35176"/>
<feColorMatrix in="SourceAlpha" type="matrix" values="0 0 0 0 0 0 0 0 0 0 0 0 0 0 0 0 0 0 127 0" result="hardAlpha"/>
<feOffset dy="5"/>
<feGaussianBlur stdDeviation="8"/>
<feColorMatrix type="matrix" values="0 0 0 0 0.976471 0 0 0 0 0.670588 0 0 0 0 0.27451 0 0 0 0.1 0"/>
<feBlend mode="normal" in2="effect1_dropShadow_371_35176" result="effect2_dropShadow_371_35176"/>
<feColorMatrix in="SourceAlpha" type="matrix" values="0 0 0 0 0 0 0 0 0 0 0 0 0 0 0 0 0 0 127 0" result="hardAlpha"/>
<feOffset dy="15"/>
<feGaussianBlur stdDeviation="14"/>
<feColorMatrix type="matrix" values="0 0 0 0 0.976471 0 0 0 0 0.670588 0 0 0 0 0.27451 0 0 0 0.09 0"/>
<feBlend mode="normal" in2="effect2_dropShadow_371_35176" result="effect3_dropShadow_371_35176"/>
<feColorMatrix in="SourceAlpha" type="matrix" values="0 0 0 0 0 0 0 0 0 0 0 0 0 0 0 0 0 0 127 0" result="hardAlpha"/>
<feOffset dy="20"/>
<feGaussianBlur stdDeviation="19"/>
<feColorMatrix type="matrix" values="0 0 0 0 0.976471 0 0 0 0 0.670588 0 0 0 0 0.27451 0 0 0 0.05 0"/>
<feBlend mode="normal" in2="effect3_dropShadow_371_35176" result="effect4_dropShadow_371_35176"/>
<feColorMatrix in="SourceAlpha" type="matrix" values="0 0 0 0 0 0 0 0 0 0 0 0 0 0 0 0 0 0 127 0" result="hardAlpha"/>
<feOffset dy="80"/>
<feGaussianBlur stdDeviation="22.5"/>
<feColorMatrix type="matrix" values="0 0 0 0 0.976471 0 0 0 0 0.670588 0 0 0 0 0.27451 0 0 0 0.01 0"/>
<feBlend mode="normal" in2="effect4_dropShadow_371_35176" result="effect5_dropShadow_371_35176"/>
<feBlend mode="normal" in="SourceGraphic" in2="effect5_dropShadow_371_35176" result="shape"/>
</filter>
</defs>
</svg>
