<svg width="151" height="203" viewBox="0 0 151 203" fill="none" xmlns="http://www.w3.org/2000/svg">
<g filter="url(#filter0_ddddd_371_44243)">
<rect x="47.3333" y="20" width="56" height="56" rx="28" fill="#F79009"/>
<path d="M73.9064 62.3334C73.2664 62.3334 72.6265 62.1734 72.0398 61.8534C70.8531 61.1867 70.1464 60 70.1464 58.6534V51.5201C70.1464 50.8401 69.7064 49.84 69.293 49.32L64.2264 44C63.3864 43.16 62.7331 41.6934 62.7331 40.6134V37.5201C62.7331 35.3734 64.3598 33.6934 66.4264 33.6934H84.213C86.253 33.6934 87.9064 35.3467 87.9064 37.3867V40.3467C87.9064 41.7467 87.0664 43.36 86.2664 44.1467C85.8798 44.5334 85.2398 44.5334 84.8531 44.1467C84.4664 43.76 84.4664 43.12 84.8531 42.7334C85.3464 42.24 85.9064 41.1334 85.9064 40.3467V37.3867C85.9064 36.4534 85.1464 35.6934 84.213 35.6934H66.4264C65.4798 35.6934 64.7331 36.4934 64.7331 37.5201V40.6134C64.7331 41.1067 65.1331 42.0801 65.6531 42.6001L70.7864 48C71.4664 48.84 72.133 50.2534 72.133 51.5201V58.6534C72.133 59.5334 72.7331 59.96 72.9997 60.1067C73.5731 60.4267 74.2531 60.4134 74.7864 60.0934L76.6531 58.8934C77.1197 58.6001 77.7331 58.7334 78.0398 59.2C78.3331 59.6667 78.1997 60.28 77.7464 60.5867L75.8664 61.8C75.2664 62.1467 74.5864 62.3334 73.9064 62.3334Z" fill="#FDFDFD"/>
<path d="M77.5869 57.1865C77.0802 57.1865 76.6002 56.9998 76.2536 56.6531C75.8402 56.2398 75.6535 55.6398 75.7469 55.0132L76.0002 53.2132C76.0669 52.7465 76.3469 52.1998 76.6802 51.8665L81.4002 47.1465C82.0402 46.5065 82.6669 46.1731 83.3469 46.1065C84.1736 46.0265 85.0002 46.3731 85.7736 47.1465C86.5469 47.9198 86.8935 48.7331 86.8135 49.5731C86.7469 50.2398 86.4002 50.8798 85.7736 51.5198L81.0535 56.2398C80.7202 56.5731 80.1602 56.8532 79.6936 56.9198L77.8935 57.1732C77.7869 57.1865 77.6936 57.1865 77.5869 57.1865ZM83.5735 48.0798C83.5602 48.0798 83.5469 48.0798 83.5336 48.0798C83.3469 48.0931 83.0935 48.2532 82.8135 48.5465L78.0936 53.2665C78.0536 53.3065 77.9869 53.4398 77.9869 53.4931L77.7469 55.1598L79.4135 54.9198C79.4669 54.9065 79.6002 54.8398 79.6402 54.7998L84.3602 50.0798C84.6402 49.7998 84.8135 49.5465 84.8269 49.3598C84.8535 49.0931 84.5869 48.7732 84.3602 48.5465C84.1469 48.3332 83.8402 48.0798 83.5735 48.0798Z" fill="#FDFDFD"/>
<path d="M84.3863 52.4797C84.293 52.4797 84.1997 52.4664 84.1197 52.4397C82.3597 51.9464 80.9596 50.5464 80.4663 48.7864C80.3196 48.253 80.6263 47.7064 81.1597 47.5464C81.693 47.3997 82.2396 47.7064 82.3863 48.2397C82.693 49.333 83.5596 50.1997 84.653 50.5064C85.1863 50.653 85.493 51.213 85.3463 51.7464C85.2263 52.1997 84.8263 52.4797 84.3863 52.4797Z" fill="#FDFDFD"/>
<rect x="46.3333" y="19" width="58" height="58" rx="29" stroke="#FDFDFD" stroke-width="2"/>
</g>
<defs>
<filter id="filter0_ddddd_371_44243" x="0.333328" y="0" width="150" height="203" filterUnits="userSpaceOnUse" color-interpolation-filters="sRGB">
<feFlood flood-opacity="0" result="BackgroundImageFix"/>
<feColorMatrix in="SourceAlpha" type="matrix" values="0 0 0 0 0 0 0 0 0 0 0 0 0 0 0 0 0 0 127 0" result="hardAlpha"/>
<feOffset/>
<feColorMatrix type="matrix" values="0 0 0 0 0.976471 0 0 0 0 0.670588 0 0 0 0 0.27451 0 0 0 0.1 0"/>
<feBlend mode="normal" in2="BackgroundImageFix" result="effect1_dropShadow_371_44243"/>
<feColorMatrix in="SourceAlpha" type="matrix" values="0 0 0 0 0 0 0 0 0 0 0 0 0 0 0 0 0 0 127 0" result="hardAlpha"/>
<feOffset dy="5"/>
<feGaussianBlur stdDeviation="8"/>
<feColorMatrix type="matrix" values="0 0 0 0 0.976471 0 0 0 0 0.670588 0 0 0 0 0.27451 0 0 0 0.1 0"/>
<feBlend mode="normal" in2="effect1_dropShadow_371_44243" result="effect2_dropShadow_371_44243"/>
<feColorMatrix in="SourceAlpha" type="matrix" values="0 0 0 0 0 0 0 0 0 0 0 0 0 0 0 0 0 0 127 0" result="hardAlpha"/>
<feOffset dy="15"/>
<feGaussianBlur stdDeviation="14"/>
<feColorMatrix type="matrix" values="0 0 0 0 0.976471 0 0 0 0 0.670588 0 0 0 0 0.27451 0 0 0 0.09 0"/>
<feBlend mode="normal" in2="effect2_dropShadow_371_44243" result="effect3_dropShadow_371_44243"/>
<feColorMatrix in="SourceAlpha" type="matrix" values="0 0 0 0 0 0 0 0 0 0 0 0 0 0 0 0 0 0 127 0" result="hardAlpha"/>
<feOffset dy="20"/>
<feGaussianBlur stdDeviation="19"/>
<feColorMatrix type="matrix" values="0 0 0 0 0.976471 0 0 0 0 0.670588 0 0 0 0 0.27451 0 0 0 0.05 0"/>
<feBlend mode="normal" in2="effect3_dropShadow_371_44243" result="effect4_dropShadow_371_44243"/>
<feColorMatrix in="SourceAlpha" type="matrix" values="0 0 0 0 0 0 0 0 0 0 0 0 0 0 0 0 0 0 127 0" result="hardAlpha"/>
<feOffset dy="80"/>
<feGaussianBlur stdDeviation="22.5"/>
<feColorMatrix type="matrix" values="0 0 0 0 0.976471 0 0 0 0 0.670588 0 0 0 0 0.27451 0 0 0 0.01 0"/>
<feBlend mode="normal" in2="effect4_dropShadow_371_44243" result="effect5_dropShadow_371_44243"/>
<feBlend mode="normal" in="SourceGraphic" in2="effect5_dropShadow_371_44243" result="shape"/>
</filter>
</defs>
</svg>
