<svg width="151" height="203" viewBox="0 0 151 203" fill="none" xmlns="http://www.w3.org/2000/svg">
<g filter="url(#filter0_ddddd_371_35140)">
<rect x="47.3333" y="20" width="56" height="56" rx="28" fill="#F79009"/>
<path d="M70 39.6667C69.4533 39.6667 69 39.2134 69 38.6667V34.6667C69 34.1201 69.4533 33.6667 70 33.6667C70.5467 33.6667 71 34.1201 71 34.6667V38.6667C71 39.2134 70.5467 39.6667 70 39.6667Z" fill="#FDFDFD"/>
<path d="M80.6667 39.6667C80.12 39.6667 79.6667 39.2134 79.6667 38.6667V34.6667C79.6667 34.1201 80.12 33.6667 80.6667 33.6667C81.2133 33.6667 81.6667 34.1201 81.6667 34.6667V38.6667C81.6667 39.2134 81.2133 39.6667 80.6667 39.6667Z" fill="#FDFDFD"/>
<path d="M70.6667 51.3334C70.4933 51.3334 70.32 51.2934 70.16 51.2267C69.9867 51.16 69.8533 51.0667 69.72 50.9467C69.48 50.6933 69.3333 50.3467 69.3333 50C69.3333 49.6534 69.48 49.3067 69.72 49.0534C69.8533 48.9334 70 48.84 70.16 48.7733C70.48 48.64 70.8533 48.64 71.1733 48.7733C71.3333 48.84 71.48 48.9334 71.6133 49.0534C71.6667 49.12 71.7333 49.1867 71.7733 49.2534C71.8266 49.3334 71.8667 49.4134 71.8933 49.4934C71.9333 49.5734 71.96 49.6533 71.9733 49.7333C71.9867 49.8267 72 49.92 72 50C72 50.3467 71.8533 50.6933 71.6133 50.9467C71.48 51.0667 71.3333 51.16 71.1733 51.2267C71.0133 51.2934 70.84 51.3334 70.6667 51.3334Z" fill="#FDFDFD"/>
<path d="M75.3333 51.3333C75.16 51.3333 74.9867 51.2934 74.8267 51.2267C74.6533 51.16 74.52 51.0667 74.3867 50.9467C74.1467 50.6933 74 50.3467 74 50C74 49.92 74.0133 49.8267 74.0267 49.7333C74.04 49.6533 74.0666 49.5733 74.1066 49.4933C74.1333 49.4133 74.1734 49.3333 74.2267 49.2533C74.28 49.1867 74.3333 49.12 74.3867 49.0533C74.88 48.56 75.7733 48.56 76.28 49.0533C76.3333 49.12 76.3866 49.1867 76.44 49.2533C76.4933 49.3333 76.5334 49.4133 76.56 49.4933C76.6 49.5733 76.6267 49.6533 76.64 49.7333C76.6533 49.8267 76.6667 49.92 76.6667 50C76.6667 50.3467 76.52 50.6933 76.28 50.9467C76.0267 51.1867 75.6933 51.3333 75.3333 51.3333Z" fill="#FDFDFD"/>
<path d="M70.6667 56.0001C70.4933 56.0001 70.32 55.9601 70.16 55.8935C70 55.8268 69.8533 55.7334 69.72 55.6134C69.48 55.3601 69.3333 55.0134 69.3333 54.6668C69.3333 54.5868 69.3466 54.4934 69.36 54.4134C69.3733 54.3201 69.4 54.2401 69.44 54.1601C69.4666 54.0801 69.5067 54.0001 69.56 53.9201C69.6 53.8534 69.6667 53.7868 69.72 53.7201C69.8533 53.6001 70 53.5068 70.16 53.4401C70.48 53.3068 70.8533 53.3068 71.1733 53.4401C71.3333 53.5068 71.48 53.6001 71.6133 53.7201C71.6667 53.7868 71.7333 53.8534 71.7733 53.9201C71.8266 54.0001 71.8667 54.0801 71.8933 54.1601C71.9333 54.2401 71.96 54.3201 71.9733 54.4134C71.9867 54.4934 72 54.5868 72 54.6668C72 55.0134 71.8533 55.3601 71.6133 55.6134C71.48 55.7334 71.3333 55.8268 71.1733 55.8935C71.0133 55.9601 70.84 56.0001 70.6667 56.0001Z" fill="#FDFDFD"/>
<path d="M86.6667 45.1199H64C63.4533 45.1199 63 44.6665 63 44.1199C63 43.5732 63.4533 43.1199 64 43.1199H86.6667C87.2133 43.1199 87.6667 43.5732 87.6667 44.1199C87.6667 44.6665 87.2133 45.1199 86.6667 45.1199Z" fill="#FDFDFD"/>
<path d="M80.4267 62.3734C79.9201 62.3734 79.4401 62.1867 79.0934 61.8401C78.6801 61.4267 78.4934 60.8267 78.5867 60.2001L78.8401 58.4C78.9067 57.9334 79.1867 57.3734 79.5201 57.0401L84.24 52.32C84.88 51.68 85.5067 51.3467 86.1867 51.28C87.0267 51.2 87.84 51.5467 88.6134 52.32C89.4267 53.1334 90.52 54.7867 88.6134 56.6934L83.8934 61.4134C83.5601 61.7467 83 62.0267 82.5334 62.0934L80.7334 62.3467C80.6267 62.3601 80.5334 62.3734 80.4267 62.3734ZM86.4134 53.2667C86.4001 53.2667 86.3867 53.2667 86.3734 53.2667C86.1867 53.2801 85.9334 53.4534 85.6534 53.7334L80.9334 58.4534C80.8934 58.4934 80.8267 58.6267 80.8267 58.6801L80.5867 60.3467L82.2534 60.1067C82.3067 60.0934 82.44 60.0267 82.48 59.9867L87.2 55.2667C87.7867 54.6801 87.8667 54.3867 87.2 53.7201C86.9867 53.5201 86.6801 53.2667 86.4134 53.2667Z" fill="#FDFDFD"/>
<path d="M87.2268 57.6665C87.1335 57.6665 87.0401 57.6532 86.9601 57.6265C85.2001 57.1332 83.8001 55.7332 83.3068 53.9732C83.1601 53.4398 83.4668 52.8931 84.0001 52.7331C84.5334 52.5865 85.0801 52.8932 85.2401 53.4265C85.5468 54.5198 86.4134 55.3865 87.5068 55.6931C88.0401 55.8398 88.3468 56.3998 88.2001 56.9332C88.0668 57.3732 87.6668 57.6665 87.2268 57.6665Z" fill="#FDFDFD"/>
<path d="M75.3333 62.3334H70C65.1333 62.3334 62.3333 59.5334 62.3333 54.6667V43.3334C62.3333 38.4667 65.1333 35.6667 70 35.6667H80.6667C85.5333 35.6667 88.3333 38.4667 88.3333 43.3334V48.0001C88.3333 48.5467 87.88 49.0001 87.3333 49.0001C86.7867 49.0001 86.3333 48.5467 86.3333 48.0001V43.3334C86.3333 39.5201 84.48 37.6667 80.6667 37.6667H70C66.1867 37.6667 64.3333 39.5201 64.3333 43.3334V54.6667C64.3333 58.4801 66.1867 60.3334 70 60.3334H75.3333C75.88 60.3334 76.3333 60.7867 76.3333 61.3334C76.3333 61.8801 75.88 62.3334 75.3333 62.3334Z" fill="#FDFDFD"/>
<rect x="46.3333" y="19" width="58" height="58" rx="29" stroke="#FDFDFD" stroke-width="2"/>
</g>
<defs>
<filter id="filter0_ddddd_371_35140" x="0.333328" y="0" width="150" height="203" filterUnits="userSpaceOnUse" color-interpolation-filters="sRGB">
<feFlood flood-opacity="0" result="BackgroundImageFix"/>
<feColorMatrix in="SourceAlpha" type="matrix" values="0 0 0 0 0 0 0 0 0 0 0 0 0 0 0 0 0 0 127 0" result="hardAlpha"/>
<feOffset/>
<feColorMatrix type="matrix" values="0 0 0 0 0.976471 0 0 0 0 0.670588 0 0 0 0 0.27451 0 0 0 0.1 0"/>
<feBlend mode="normal" in2="BackgroundImageFix" result="effect1_dropShadow_371_35140"/>
<feColorMatrix in="SourceAlpha" type="matrix" values="0 0 0 0 0 0 0 0 0 0 0 0 0 0 0 0 0 0 127 0" result="hardAlpha"/>
<feOffset dy="5"/>
<feGaussianBlur stdDeviation="8"/>
<feColorMatrix type="matrix" values="0 0 0 0 0.976471 0 0 0 0 0.670588 0 0 0 0 0.27451 0 0 0 0.1 0"/>
<feBlend mode="normal" in2="effect1_dropShadow_371_35140" result="effect2_dropShadow_371_35140"/>
<feColorMatrix in="SourceAlpha" type="matrix" values="0 0 0 0 0 0 0 0 0 0 0 0 0 0 0 0 0 0 127 0" result="hardAlpha"/>
<feOffset dy="15"/>
<feGaussianBlur stdDeviation="14"/>
<feColorMatrix type="matrix" values="0 0 0 0 0.976471 0 0 0 0 0.670588 0 0 0 0 0.27451 0 0 0 0.09 0"/>
<feBlend mode="normal" in2="effect2_dropShadow_371_35140" result="effect3_dropShadow_371_35140"/>
<feColorMatrix in="SourceAlpha" type="matrix" values="0 0 0 0 0 0 0 0 0 0 0 0 0 0 0 0 0 0 127 0" result="hardAlpha"/>
<feOffset dy="20"/>
<feGaussianBlur stdDeviation="19"/>
<feColorMatrix type="matrix" values="0 0 0 0 0.976471 0 0 0 0 0.670588 0 0 0 0 0.27451 0 0 0 0.05 0"/>
<feBlend mode="normal" in2="effect3_dropShadow_371_35140" result="effect4_dropShadow_371_35140"/>
<feColorMatrix in="SourceAlpha" type="matrix" values="0 0 0 0 0 0 0 0 0 0 0 0 0 0 0 0 0 0 127 0" result="hardAlpha"/>
<feOffset dy="80"/>
<feGaussianBlur stdDeviation="22.5"/>
<feColorMatrix type="matrix" values="0 0 0 0 0.976471 0 0 0 0 0.670588 0 0 0 0 0.27451 0 0 0 0.01 0"/>
<feBlend mode="normal" in2="effect4_dropShadow_371_35140" result="effect5_dropShadow_371_35140"/>
<feBlend mode="normal" in="SourceGraphic" in2="effect5_dropShadow_371_35140" result="shape"/>
</filter>
</defs>
</svg>
