<svg width="150" height="203" viewBox="0 0 150 203" fill="none" xmlns="http://www.w3.org/2000/svg">
<g filter="url(#filter0_ddddd_371_44209)">
<rect x="47" y="20" width="56" height="56" rx="28" fill="#F79009"/>
<path d="M76.6931 63.0001H73.3331C72.3997 63.0001 71.5597 62.6 70.9997 61.92C70.5064 61.3067 70.3197 60.52 70.493 59.7734L71.0397 57.3601C71.1464 56.9068 71.5464 56.5867 72.013 56.5867H78.013C78.4797 56.5867 78.8797 56.9068 78.9864 57.3601L79.533 59.7734C79.7064 60.5734 79.5464 61.3467 79.053 61.96C78.5064 62.6134 77.6531 63.0001 76.6931 63.0001ZM72.8131 58.5601L72.4397 60.2001C72.3997 60.4001 72.4797 60.5601 72.5597 60.6534C72.733 60.8667 73.0131 60.9867 73.3331 60.9867H76.6931C77.0397 60.9867 77.333 60.8801 77.493 60.6801C77.5997 60.5468 77.6264 60.3868 77.5864 60.1868L77.2131 58.5468H72.8131V58.5601Z" fill="#FDFDFD"/>
<path d="M78.0133 58.56C77.7333 58.56 77.4667 58.4533 77.2667 58.2266C76.9067 57.8133 76.9333 57.1866 77.3467 56.8132L79.6534 54.7598C80.5734 53.9465 80.5333 53.7466 79.8533 52.8933L75.7867 47.7332C75.56 47.4532 75.2933 47.2932 75.0133 47.2932C74.7333 47.2932 74.4667 47.4532 74.24 47.7332L70.1733 52.8933C69.4533 53.8133 69.4667 54.0133 70.3467 54.7333L72.68 56.8132C73.0933 57.1732 73.1334 57.8133 72.76 58.2266C72.3867 58.64 71.76 58.6799 71.3467 58.3066L69.04 56.2532C67.36 54.8798 67.2133 53.4132 68.6 51.6532L72.6667 46.4932C73.2667 45.7332 74.12 45.2932 75.0133 45.2932C75.9067 45.2932 76.76 45.7332 77.36 46.4932L81.4267 51.6532C82.8 53.3866 82.6667 54.7732 80.9867 56.2532L78.68 58.3066C78.48 58.4799 78.24 58.56 78.0133 58.56Z" fill="#FDFDFD"/>
<path d="M75.013 51.2C74.4663 51.2 74.013 50.7467 74.013 50.2V46.8267C74.013 46.28 74.4663 45.8267 75.013 45.8267C75.5597 45.8267 76.013 46.28 76.013 46.8267V50.2C76.013 50.76 75.5597 51.2 75.013 51.2Z" fill="#FDFDFD"/>
<path d="M75.6933 39.6667H74.36C73.08 39.6667 72.0267 38.6134 72.0267 37.3334V36.0001C72.0267 34.7201 73.08 33.6667 74.36 33.6667H75.6933C76.9733 33.6667 78.0267 34.7201 78.0267 36.0001V37.3334C78.0267 38.6134 76.9867 39.6667 75.6933 39.6667ZM74.36 35.6667C74.1733 35.6667 74.0267 35.8134 74.0267 36.0001V37.3334C74.0267 37.5201 74.1733 37.6667 74.36 37.6667H75.6933C75.88 37.6667 76.0267 37.5201 76.0267 37.3334V36.0001C76.0267 35.8134 75.88 35.6667 75.6933 35.6667H74.36Z" fill="#FDFDFD"/>
<path d="M64.6933 51.8934H63.36C62.08 51.8934 61.0267 50.8401 61.0267 49.5601V48.2267C61.0267 46.9467 62.08 45.8933 63.36 45.8933H64.6933C65.9733 45.8933 67.0267 46.9467 67.0267 48.2267V49.5601C67.0267 50.8401 65.9733 51.8934 64.6933 51.8934ZM63.36 47.8933C63.1733 47.8933 63.0267 48.0401 63.0267 48.2267V49.5601C63.0267 49.7467 63.1733 49.8934 63.36 49.8934H64.6933C64.88 49.8934 65.0267 49.7467 65.0267 49.5601V48.2267C65.0267 48.0401 64.88 47.8933 64.6933 47.8933H63.36Z" fill="#FDFDFD"/>
<path d="M86.64 51.8934H85.3067C84.0267 51.8934 82.9733 50.8401 82.9733 49.5601V48.2267C82.9733 46.9467 84.0267 45.8933 85.3067 45.8933H86.64C87.92 45.8933 88.9733 46.9467 88.9733 48.2267V49.5601C88.9733 50.8401 87.9333 51.8934 86.64 51.8934ZM85.3067 47.8933C85.12 47.8933 84.9733 48.0401 84.9733 48.2267V49.5601C84.9733 49.7467 85.12 49.8934 85.3067 49.8934H86.64C86.8267 49.8934 86.9733 49.7467 86.9733 49.5601V48.2267C86.9733 48.0401 86.8267 47.8933 86.64 47.8933H85.3067Z" fill="#FDFDFD"/>
<path d="M64 47.8935C63.4533 47.8935 63 47.4402 63 46.8935C63 41.2002 67.2667 36.4135 72.92 35.7469C73.4667 35.6935 73.96 36.0802 74.0267 36.6268C74.0933 37.1735 73.6933 37.6668 73.1467 37.7335C68.5067 38.2802 65 42.2135 65 46.8935C65 47.4402 64.5467 47.8935 64 47.8935Z" fill="#FDFDFD"/>
<path d="M86 47.8933C85.4533 47.8933 85 47.44 85 46.8933C85 42.24 81.52 38.3067 76.9067 37.7467C76.36 37.68 75.9733 37.1867 76.04 36.64C76.1067 36.0933 76.6 35.6934 77.16 35.7734C82.7733 36.4534 87.0133 41.24 87.0133 46.9067C87 47.44 86.56 47.8933 86 47.8933Z" fill="#FDFDFD"/>
<rect x="46" y="19" width="58" height="58" rx="29" stroke="#FDFDFD" stroke-width="2"/>
</g>
<defs>
<filter id="filter0_ddddd_371_44209" x="0" y="0" width="150" height="203" filterUnits="userSpaceOnUse" color-interpolation-filters="sRGB">
<feFlood flood-opacity="0" result="BackgroundImageFix"/>
<feColorMatrix in="SourceAlpha" type="matrix" values="0 0 0 0 0 0 0 0 0 0 0 0 0 0 0 0 0 0 127 0" result="hardAlpha"/>
<feOffset/>
<feColorMatrix type="matrix" values="0 0 0 0 0.976471 0 0 0 0 0.670588 0 0 0 0 0.27451 0 0 0 0.1 0"/>
<feBlend mode="normal" in2="BackgroundImageFix" result="effect1_dropShadow_371_44209"/>
<feColorMatrix in="SourceAlpha" type="matrix" values="0 0 0 0 0 0 0 0 0 0 0 0 0 0 0 0 0 0 127 0" result="hardAlpha"/>
<feOffset dy="5"/>
<feGaussianBlur stdDeviation="8"/>
<feColorMatrix type="matrix" values="0 0 0 0 0.976471 0 0 0 0 0.670588 0 0 0 0 0.27451 0 0 0 0.1 0"/>
<feBlend mode="normal" in2="effect1_dropShadow_371_44209" result="effect2_dropShadow_371_44209"/>
<feColorMatrix in="SourceAlpha" type="matrix" values="0 0 0 0 0 0 0 0 0 0 0 0 0 0 0 0 0 0 127 0" result="hardAlpha"/>
<feOffset dy="15"/>
<feGaussianBlur stdDeviation="14"/>
<feColorMatrix type="matrix" values="0 0 0 0 0.976471 0 0 0 0 0.670588 0 0 0 0 0.27451 0 0 0 0.09 0"/>
<feBlend mode="normal" in2="effect2_dropShadow_371_44209" result="effect3_dropShadow_371_44209"/>
<feColorMatrix in="SourceAlpha" type="matrix" values="0 0 0 0 0 0 0 0 0 0 0 0 0 0 0 0 0 0 127 0" result="hardAlpha"/>
<feOffset dy="20"/>
<feGaussianBlur stdDeviation="19"/>
<feColorMatrix type="matrix" values="0 0 0 0 0.976471 0 0 0 0 0.670588 0 0 0 0 0.27451 0 0 0 0.05 0"/>
<feBlend mode="normal" in2="effect3_dropShadow_371_44209" result="effect4_dropShadow_371_44209"/>
<feColorMatrix in="SourceAlpha" type="matrix" values="0 0 0 0 0 0 0 0 0 0 0 0 0 0 0 0 0 0 127 0" result="hardAlpha"/>
<feOffset dy="80"/>
<feGaussianBlur stdDeviation="22.5"/>
<feColorMatrix type="matrix" values="0 0 0 0 0.976471 0 0 0 0 0.670588 0 0 0 0 0.27451 0 0 0 0.01 0"/>
<feBlend mode="normal" in2="effect4_dropShadow_371_44209" result="effect5_dropShadow_371_44209"/>
<feBlend mode="normal" in="SourceGraphic" in2="effect5_dropShadow_371_44209" result="shape"/>
</filter>
</defs>
</svg>
