<svg width="34" height="117" viewBox="0 0 34 117" fill="none" xmlns="http://www.w3.org/2000/svg">
<g opacity="0.5">
<rect y="0.995239" width="3.38997" height="3.38997" rx="1.69499" fill="#D9D9D9"/>
<rect y="11.1652" width="3.38997" height="3.38997" rx="1.69499" fill="#D9D9D9"/>
<rect y="21.3351" width="3.38997" height="3.38997" rx="1.69499" fill="#D9D9D9"/>
<rect y="31.505" width="3.38997" height="3.38997" rx="1.69499" fill="#D9D9D9"/>
<rect y="41.6749" width="3.38997" height="3.38997" rx="1.69499" fill="#D9D9D9"/>
<rect y="51.8448" width="3.38997" height="3.38997" rx="1.69499" fill="#D9D9D9"/>
<rect y="62.0148" width="3.38997" height="3.38997" rx="1.69499" fill="#D9D9D9"/>
<rect y="72.1847" width="3.38997" height="3.38997" rx="1.69499" fill="#D9D9D9"/>
<rect y="82.3545" width="3.38997" height="3.38997" rx="1.69499" fill="#D9D9D9"/>
<rect y="92.5244" width="3.38997" height="3.38997" rx="1.69499" fill="#D9D9D9"/>
<rect y="102.694" width="3.38997" height="3.38997" rx="1.69499" fill="#D9D9D9"/>
<rect y="112.864" width="3.38997" height="3.38997" rx="1.69499" fill="#D9D9D9"/>
<rect x="10.1699" y="0.995239" width="3.38997" height="3.38997" rx="1.69499" fill="#D9D9D9"/>
<rect x="10.1699" y="11.1652" width="3.38997" height="3.38997" rx="1.69499" fill="#D9D9D9"/>
<rect x="10.1699" y="21.3351" width="3.38997" height="3.38997" rx="1.69499" fill="#D9D9D9"/>
<rect x="10.1699" y="31.505" width="3.38997" height="3.38997" rx="1.69499" fill="#D9D9D9"/>
<rect x="10.1699" y="41.6749" width="3.38997" height="3.38997" rx="1.69499" fill="#D9D9D9"/>
<rect x="10.1699" y="51.8448" width="3.38997" height="3.38997" rx="1.69499" fill="#D9D9D9"/>
<rect x="10.1699" y="62.0148" width="3.38997" height="3.38997" rx="1.69499" fill="#D9D9D9"/>
<rect x="10.1699" y="72.1847" width="3.38997" height="3.38997" rx="1.69499" fill="#D9D9D9"/>
<rect x="10.1699" y="82.3545" width="3.38997" height="3.38997" rx="1.69499" fill="#D9D9D9"/>
<rect x="10.1699" y="92.5244" width="3.38997" height="3.38997" rx="1.69499" fill="#D9D9D9"/>
<rect x="10.1699" y="102.694" width="3.38997" height="3.38997" rx="1.69499" fill="#D9D9D9"/>
<rect x="10.1699" y="112.864" width="3.38997" height="3.38997" rx="1.69499" fill="#D9D9D9"/>
<rect x="20.3398" y="0.995239" width="3.38997" height="3.38997" rx="1.69499" fill="#D9D9D9"/>
<rect x="20.3398" y="11.1652" width="3.38997" height="3.38997" rx="1.69499" fill="#D9D9D9"/>
<rect x="20.3398" y="21.3351" width="3.38997" height="3.38997" rx="1.69499" fill="#D9D9D9"/>
<rect x="20.3398" y="31.505" width="3.38997" height="3.38997" rx="1.69499" fill="#D9D9D9"/>
<rect x="20.3398" y="41.6749" width="3.38997" height="3.38997" rx="1.69499" fill="#D9D9D9"/>
<rect x="20.3398" y="51.8448" width="3.38997" height="3.38997" rx="1.69499" fill="#D9D9D9"/>
<rect x="20.3398" y="62.0148" width="3.38997" height="3.38997" rx="1.69499" fill="#D9D9D9"/>
<rect x="20.3398" y="72.1847" width="3.38997" height="3.38997" rx="1.69499" fill="#D9D9D9"/>
<rect x="20.3398" y="82.3545" width="3.38997" height="3.38997" rx="1.69499" fill="#D9D9D9"/>
<rect x="20.3398" y="92.5244" width="3.38997" height="3.38997" rx="1.69499" fill="#D9D9D9"/>
<rect x="20.3398" y="102.694" width="3.38997" height="3.38997" rx="1.69499" fill="#D9D9D9"/>
<rect x="20.3398" y="112.864" width="3.38997" height="3.38997" rx="1.69499" fill="#D9D9D9"/>
<rect x="30.5097" y="0.995239" width="3.38997" height="3.38997" rx="1.69499" fill="#D9D9D9"/>
<rect x="30.5097" y="11.1652" width="3.38997" height="3.38997" rx="1.69499" fill="#D9D9D9"/>
<rect x="30.5097" y="21.3351" width="3.38997" height="3.38997" rx="1.69499" fill="#D9D9D9"/>
<rect x="30.5097" y="31.505" width="3.38997" height="3.38997" rx="1.69499" fill="#D9D9D9"/>
<rect x="30.5097" y="41.6749" width="3.38997" height="3.38997" rx="1.69499" fill="#D9D9D9"/>
<rect x="30.5097" y="51.8448" width="3.38997" height="3.38997" rx="1.69499" fill="#D9D9D9"/>
<rect x="30.5097" y="62.0148" width="3.38997" height="3.38997" rx="1.69499" fill="#D9D9D9"/>
<rect x="30.5097" y="72.1847" width="3.38997" height="3.38997" rx="1.69499" fill="#D9D9D9"/>
<rect x="30.5097" y="82.3545" width="3.38997" height="3.38997" rx="1.69499" fill="#D9D9D9"/>
<rect x="30.5097" y="92.5244" width="3.38997" height="3.38997" rx="1.69499" fill="#D9D9D9"/>
<rect x="30.5097" y="102.694" width="3.38997" height="3.38997" rx="1.69499" fill="#D9D9D9"/>
<rect x="30.5097" y="112.864" width="3.38997" height="3.38997" rx="1.69499" fill="#D9D9D9"/>
</g>
</svg>
