<svg width="86" height="24" viewBox="0 0 86 24" fill="none" xmlns="http://www.w3.org/2000/svg">
<g opacity="0.5">
<rect x="84.7491" width="3.38997" height="3.38997" rx="1.69499" transform="rotate(90 84.7491 0)" fill="#D9D9D9"/>
<rect x="74.5791" width="3.38997" height="3.38997" rx="1.69499" transform="rotate(90 74.5791 0)" fill="#D9D9D9"/>
<rect x="64.4092" width="3.38997" height="3.38997" rx="1.69499" transform="rotate(90 64.4092 0)" fill="#D9D9D9"/>
<rect x="54.2393" width="3.38997" height="3.38997" rx="1.69499" transform="rotate(90 54.2393 0)" fill="#D9D9D9"/>
<rect x="44.0694" width="3.38997" height="3.38997" rx="1.69499" transform="rotate(90 44.0694 0)" fill="#D9D9D9"/>
<rect x="33.8995" width="3.38997" height="3.38997" rx="1.69499" transform="rotate(90 33.8995 0)" fill="#D9D9D9"/>
<rect x="23.7296" width="3.38997" height="3.38997" rx="1.69499" transform="rotate(90 23.7296 0)" fill="#D9D9D9"/>
<rect x="13.5596" width="3.38997" height="3.38997" rx="1.69499" transform="rotate(90 13.5596 0)" fill="#D9D9D9"/>
<rect x="3.38971" width="3.38997" height="3.38997" rx="1.69499" transform="rotate(90 3.38971 0)" fill="#D9D9D9"/>
<rect x="84.7491" y="10.1699" width="3.38997" height="3.38997" rx="1.69499" transform="rotate(90 84.7491 10.1699)" fill="#D9D9D9"/>
<rect x="74.5791" y="10.1699" width="3.38997" height="3.38997" rx="1.69499" transform="rotate(90 74.5791 10.1699)" fill="#D9D9D9"/>
<rect x="64.4092" y="10.1699" width="3.38997" height="3.38997" rx="1.69499" transform="rotate(90 64.4092 10.1699)" fill="#D9D9D9"/>
<rect x="54.2393" y="10.1699" width="3.38997" height="3.38997" rx="1.69499" transform="rotate(90 54.2393 10.1699)" fill="#D9D9D9"/>
<rect x="44.0694" y="10.1699" width="3.38997" height="3.38997" rx="1.69499" transform="rotate(90 44.0694 10.1699)" fill="#D9D9D9"/>
<rect x="33.8995" y="10.1699" width="3.38997" height="3.38997" rx="1.69499" transform="rotate(90 33.8995 10.1699)" fill="#D9D9D9"/>
<rect x="23.7296" y="10.1699" width="3.38997" height="3.38997" rx="1.69499" transform="rotate(90 23.7296 10.1699)" fill="#D9D9D9"/>
<rect x="13.5596" y="10.1699" width="3.38997" height="3.38997" rx="1.69499" transform="rotate(90 13.5596 10.1699)" fill="#D9D9D9"/>
<rect x="3.38974" y="10.1699" width="3.38997" height="3.38997" rx="1.69499" transform="rotate(90 3.38974 10.1699)" fill="#D9D9D9"/>
<rect x="84.7491" y="20.3398" width="3.38997" height="3.38997" rx="1.69499" transform="rotate(90 84.7491 20.3398)" fill="#D9D9D9"/>
<rect x="74.5791" y="20.3398" width="3.38997" height="3.38997" rx="1.69499" transform="rotate(90 74.5791 20.3398)" fill="#D9D9D9"/>
<rect x="64.4092" y="20.3398" width="3.38997" height="3.38997" rx="1.69499" transform="rotate(90 64.4092 20.3398)" fill="#D9D9D9"/>
<rect x="54.2393" y="20.3398" width="3.38997" height="3.38997" rx="1.69499" transform="rotate(90 54.2393 20.3398)" fill="#D9D9D9"/>
<rect x="44.0694" y="20.3398" width="3.38997" height="3.38997" rx="1.69499" transform="rotate(90 44.0694 20.3398)" fill="#D9D9D9"/>
<rect x="33.8995" y="20.3398" width="3.38997" height="3.38997" rx="1.69499" transform="rotate(90 33.8995 20.3398)" fill="#D9D9D9"/>
<rect x="23.7296" y="20.3398" width="3.38997" height="3.38997" rx="1.69499" transform="rotate(90 23.7296 20.3398)" fill="#D9D9D9"/>
<rect x="13.5596" y="20.3398" width="3.38997" height="3.38997" rx="1.69499" transform="rotate(90 13.5596 20.3398)" fill="#D9D9D9"/>
<rect x="3.38974" y="20.3398" width="3.38997" height="3.38997" rx="1.69499" transform="rotate(90 3.38974 20.3398)" fill="#D9D9D9"/>
</g>
</svg>
