<svg width="64" height="64" viewBox="0 0 64 64" fill="none" xmlns="http://www.w3.org/2000/svg">
<path opacity="0.2" d="M46.7467 20.7199C46.56 20.6933 46.3733 20.6933 46.1867 20.7199C42.0533 20.5866 38.7733 17.1999 38.7733 13.0399C38.7733 8.79992 42.2133 5.33325 46.48 5.33325C50.72 5.33325 54.1867 8.77325 54.1867 13.0399C54.16 17.1999 50.88 20.5866 46.7467 20.7199Z" fill="#F79009"/>
<path opacity="0.2" d="M55.44 39.2001C52.4533 41.2001 48.2667 41.9467 44.4 41.4401C45.4133 39.2534 45.9467 36.8268 45.9733 34.2668C45.9733 31.6001 45.3867 29.0668 44.2667 26.8534C48.2133 26.3201 52.4 27.0667 55.4133 29.0667C59.6267 31.8401 59.6267 36.4001 55.44 39.2001Z" fill="#F79009"/>
<path opacity="0.2" d="M17.1733 20.7199C17.36 20.6933 17.5467 20.6933 17.7333 20.7199C21.8667 20.5866 25.1467 17.1999 25.1467 13.0399C25.1467 8.79992 21.7067 5.33325 17.44 5.33325C13.2 5.33325 9.73334 8.77325 9.73334 13.0399C9.76 17.1999 13.04 20.5866 17.1733 20.7199Z" fill="#F79009"/>
<path opacity="0.2" d="M17.4667 34.2668C17.4667 36.8535 18.0267 39.3068 19.04 41.5201C15.28 41.9201 11.36 41.1201 8.48001 39.2268C4.26667 36.4268 4.26667 31.8668 8.48001 29.0668C11.3333 27.1468 15.36 26.3734 19.1467 26.8001C18.0533 29.0401 17.4667 31.5735 17.4667 34.2668Z" fill="#F79009"/>
<path d="M32.32 42.32C32.1067 42.2933 31.8667 42.2933 31.6267 42.32C26.72 42.16 22.8 38.1333 22.8 33.1733C22.8 28.1067 26.88 24 31.9733 24C37.04 24 41.1467 28.1067 41.1467 33.1733C41.1467 38.1333 37.2533 42.16 32.32 42.32Z" fill="#F79009"/>
<path d="M23.6533 47.84C19.6267 50.5334 19.6267 54.96 23.6533 57.6267C28.24 60.6934 35.76 60.6934 40.3467 57.6267C44.3733 54.9334 44.3733 50.5067 40.3467 47.84C35.7867 44.7734 28.2667 44.7734 23.6533 47.84Z" fill="#F79009"/>
</svg>
