<svg width="64" height="64" viewBox="0 0 64 64" fill="none" xmlns="http://www.w3.org/2000/svg">
<path opacity="0.2" d="M32 14.1334V56.8801C31.5466 56.8801 31.0666 56.8001 30.6933 56.5868L30.5866 56.5334C25.4666 53.7334 16.5333 50.8001 10.7466 50.0268L9.97331 49.9201C7.41331 49.6001 5.33331 47.2001 5.33331 44.6401V12.4268C5.33331 9.25343 7.91998 6.85343 11.0933 7.1201C16.6933 7.57343 25.1733 10.4001 29.92 13.3601L30.5866 13.7601C30.9866 14.0001 31.4933 14.1334 32 14.1334Z" fill="#F79009"/>
<path d="M58.6667 12.4533V44.64C58.6667 47.2 56.5867 49.6 54.0267 49.92L53.1467 50.0267C47.3333 50.8 38.3733 53.76 33.2533 56.5867C32.9067 56.8 32.48 56.88 32 56.88V14.1333C32.5067 14.1333 33.0133 14 33.4133 13.76L33.8667 13.4667C38.6133 10.48 47.12 7.62666 52.72 7.14666H52.88C56.0533 6.88 58.6667 9.25333 58.6667 12.4533Z" fill="#F79009"/>
<path d="M20.6667 24.6399H14.6667C13.5734 24.6399 12.6667 23.7332 12.6667 22.6399C12.6667 21.5466 13.5734 20.6399 14.6667 20.6399H20.6667C21.76 20.6399 22.6667 21.5466 22.6667 22.6399C22.6667 23.7332 21.76 24.6399 20.6667 24.6399Z" fill="#F79009"/>
<path d="M22.6667 32.6399H14.6667C13.5734 32.6399 12.6667 31.7332 12.6667 30.6399C12.6667 29.5466 13.5734 28.6399 14.6667 28.6399H22.6667C23.76 28.6399 24.6667 29.5466 24.6667 30.6399C24.6667 31.7332 23.76 32.6399 22.6667 32.6399Z" fill="#F79009"/>
</svg>
