<svg width="64" height="64" viewBox="0 0 64 64" fill="none" xmlns="http://www.w3.org/2000/svg">
<path opacity="0.2" d="M22.6667 50.5865H21.3333C10.6667 50.5865 5.33334 47.9198 5.33334 34.5865V21.2532C5.33334 10.5865 10.6667 5.25317 21.3333 5.25317H42.6667C53.3333 5.25317 58.6667 10.5865 58.6667 21.2532V34.5865C58.6667 45.2532 53.3333 50.5865 42.6667 50.5865H41.3333C40.5067 50.5865 39.7067 50.9866 39.2 51.6532L35.2 56.9866C33.44 59.3332 30.56 59.3332 28.8 56.9866L24.8 51.6532C24.3733 51.0666 23.4133 50.5865 22.6667 50.5865Z" fill="#F79009"/>
<path d="M21.3333 35.8666C20.8267 35.8666 20.32 35.6799 19.92 35.2799L14.5867 29.9465C13.8134 29.1732 13.8134 27.8932 14.5867 27.1199L19.92 21.7865C20.6933 21.0132 21.9733 21.0132 22.7467 21.7865C23.52 22.5599 23.52 23.8399 22.7467 24.6132L18.8267 28.5333L22.7467 32.4532C23.52 33.2265 23.52 34.5065 22.7467 35.2799C22.3467 35.6799 21.84 35.8666 21.3333 35.8666Z" fill="#F79009"/>
<path d="M42.6667 35.8666C42.16 35.8666 41.6533 35.6799 41.2533 35.2799C40.48 34.5065 40.48 33.2265 41.2533 32.4532L45.1733 28.5333L41.2533 24.6132C40.48 23.8399 40.48 22.5599 41.2533 21.7865C42.0267 21.0132 43.3067 21.0132 44.08 21.7865L49.4133 27.1199C50.1867 27.8932 50.1867 29.1732 49.4133 29.9465L44.08 35.2799C43.68 35.6799 43.1733 35.8666 42.6667 35.8666Z" fill="#F79009"/>
<path d="M29.3333 36.7468C29.0666 36.7468 28.8 36.6933 28.5333 36.5866C27.52 36.16 27.04 34.9867 27.4933 33.9467L32.8266 21.4934C33.2533 20.4801 34.4266 20 35.4666 20.4533C36.4799 20.88 36.96 22.0533 36.5066 23.0933L31.1733 35.5468C30.8533 36.2934 30.1066 36.7468 29.3333 36.7468Z" fill="#F79009"/>
</svg>
