<svg width="64" height="64" viewBox="0 0 64 64" fill="none" xmlns="http://www.w3.org/2000/svg">
<path opacity="0.2" d="M7.33334 49.7332C6.24 49.7332 5.33334 48.8265 5.33334 47.7332V32.5332C5.2 25.3066 7.89334 18.4799 12.9067 13.3599C17.92 8.26655 24.64 5.46655 31.8667 5.46655C46.64 5.46655 58.6667 17.4932 58.6667 32.2666V47.4665C58.6667 48.5599 57.76 49.4665 56.6667 49.4665C55.5733 49.4665 54.6667 48.5599 54.6667 47.4665V32.2666C54.6667 19.7066 44.4533 9.46655 31.8667 9.46655C25.7067 9.46655 20 11.8399 15.76 16.1599C11.4933 20.5066 9.22667 26.2932 9.33334 32.4799V47.7065C9.33334 48.8265 8.45334 49.7332 7.33334 49.7332Z" fill="#F79009"/>
<path d="M15.84 33.2H15.4933C9.89331 33.2 5.33331 37.76 5.33331 43.36V48.3733C5.33331 53.9733 9.89331 58.5333 15.4933 58.5333H15.84C21.44 58.5333 26 53.9733 26 48.3733V43.36C26 37.76 21.44 33.2 15.84 33.2Z" fill="#F79009"/>
<path d="M48.5067 33.2H48.16C42.56 33.2 38 37.76 38 43.36V48.3733C38 53.9733 42.56 58.5333 48.16 58.5333H48.5067C54.1067 58.5333 58.6667 53.9733 58.6667 48.3733V43.36C58.6667 37.76 54.1067 33.2 48.5067 33.2Z" fill="#F79009"/>
</svg>
