<svg width="321" height="356" viewBox="0 0 321 356" fill="none" xmlns="http://www.w3.org/2000/svg">
<path d="M308.009 151.946L293.381 143.523L239.935 174.726C242.802 168.667 245.445 162.53 247.775 156.347C248.201 155.227 248.604 154.107 249.018 152.987C257.272 130.33 261.887 107.202 261.73 85.608C261.551 62.7712 256.04 44.4592 246.599 31.4336C246.207 30.896 245.804 30.3136 245.401 29.832C241.35 24.5746 236.379 20.0966 230.729 16.616C230.146 16.2576 229.553 15.9328 228.959 15.5968L216.796 8.60802C196.781 -4.02558 168.636 -2.75998 137.489 15.3952L135.865 16.3584C96.3845 40.1136 62.0901 85.2832 43.8453 133.051C43.3861 134.261 42.9381 135.482 42.4901 136.702C34.2357 159.36 29.6101 182.488 29.7893 204.082C29.9685 226.963 35.4789 245.286 44.9541 258.323L46.0741 259.869C51.41 266.838 58.3748 272.392 66.3573 276.042L0.490112 314.558L0.736514 346.848L15.3749 355.27L154.053 274.272L308.266 184.235L320.687 163.101L308.009 151.946ZM206.693 51.84C207.096 52.344 207.477 52.8592 207.813 53.3856C214.836 63.04 218.924 76.6368 219.013 93.6048C219.136 109.587 215.732 126.701 209.639 143.467L208.81 145.92C195.437 181.066 170.383 214.352 141.442 232.16L139.202 233.504C120.498 244.424 103.217 247.09 89.4293 242.722C87.8141 241.254 86.3162 239.663 84.9493 237.962C84.5349 237.435 84.1205 236.909 83.7285 236.371C76.6837 226.694 72.5285 213.075 72.4501 196.051C72.3269 179.878 75.8101 162.563 82.0373 145.651C82.3061 144.89 82.5861 144.139 82.8773 143.411C96.1717 108.691 120.879 75.7184 149.473 57.8432C150.436 57.2496 151.399 56.7232 152.373 56.096C171.066 45.1872 188.337 42.4992 202.113 46.856C203.773 48.3897 205.305 50.0565 206.693 51.84Z" fill="#F79009"/>
<path d="M206.693 51.84C207.096 52.344 207.477 52.8592 207.813 53.3856C214.836 63.04 218.924 76.6368 219.013 93.6048C219.136 109.587 215.732 126.701 209.639 143.467L224.266 151.878L229.967 155.731C231.087 153.155 232.095 150.579 233.08 147.981C233.506 146.861 233.92 145.741 234.335 144.621C242.589 121.963 247.204 98.8352 247.036 77.2304C247.013 70.4411 246.436 63.665 245.311 56.9696L221.231 60.2512L206.693 51.84Z" fill="#F79009"/>
<path opacity="0.2" d="M206.693 51.84C207.096 52.344 207.477 52.8592 207.813 53.3856C214.836 63.04 218.924 76.6368 219.013 93.6048C219.136 109.587 215.732 126.701 209.639 143.467L224.266 151.878L229.967 155.731C231.087 153.155 232.095 150.579 233.08 147.981C233.506 146.861 233.92 145.741 234.335 144.621C242.589 121.963 247.204 98.8352 247.036 77.2304C247.013 70.4411 246.436 63.665 245.311 56.9696L221.231 60.2512L206.693 51.84Z" fill="black"/>
<path d="M293.381 143.523L211.935 191.078C218.869 179.751 224.938 167.917 230.09 155.675L224.389 151.822L209.762 143.411L208.81 145.92C195.437 181.066 170.383 214.352 141.442 232.16L156.08 240.571L168.871 248.613L293.65 175.757L293.381 143.523Z" fill="#F79009"/>
<path opacity="0.4" d="M293.381 143.523L211.935 191.078C218.869 179.751 224.938 167.917 230.09 155.675L224.389 151.822L209.762 143.411L208.81 145.92C195.437 181.066 170.383 214.352 141.442 232.16L156.08 240.571L168.871 248.613L293.65 175.757L293.381 143.523Z" fill="black"/>
<path d="M232.005 23.0112C231.602 22.4736 231.21 21.8912 230.796 21.4096C229.676 20.0208 228.556 18.7104 227.436 17.4448L230.796 16.616L216.796 8.60801C196.781 -4.02559 168.636 -2.75999 137.488 15.3952L135.864 16.3584L150.492 24.7808L156.629 39.2512C177.607 32.8336 195.493 37.6832 206.693 51.7616L221.32 60.184L245.4 56.9024C243.082 43.3168 238.468 31.9264 232.005 23.0112Z" fill="#F79009"/>
<path d="M65.1699 143.758C65.8643 141.597 66.6147 139.435 67.4099 137.285C67.6899 136.534 67.9699 135.773 68.2611 135.045C81.5443 100.325 106.263 67.352 134.856 49.4768C135.819 48.8832 136.783 48.3008 137.757 47.7296C143.704 44.1981 150.041 41.368 156.64 39.296L150.503 24.8256L135.875 16.4032C96.3843 40.1136 62.0899 85.2832 43.8451 133.051C43.3859 134.261 42.9379 135.482 42.4899 136.702L57.1171 145.114L65.1699 143.758Z" fill="#F79009"/>
<path opacity="0.1" d="M65.1699 143.758C65.8643 141.597 66.6147 139.435 67.4099 137.285C67.6899 136.534 67.9699 135.773 68.2611 135.045C81.5443 100.325 106.263 67.352 134.856 49.4768C135.819 48.8832 136.783 48.3008 137.757 47.7296C143.704 44.1981 150.041 41.368 156.64 39.296L150.503 24.8256L135.875 16.4032C96.3843 40.1136 62.0899 85.2832 43.8451 133.051C43.3859 134.261 42.9379 135.482 42.4899 136.702L57.1171 145.114L65.1699 143.758Z" fill="white"/>
<path d="M79.0579 261.661L84.2547 240.762C78.818 238.133 74.0498 234.304 70.3107 229.562C69.9075 229.035 69.4931 228.509 69.1011 227.971C62.0563 218.306 57.9011 204.686 57.8115 187.651C57.7107 173.539 60.3539 158.531 65.1699 143.691L57.1171 145.046L42.4899 136.635C34.2355 159.36 29.6099 182.488 29.7891 204.082C29.9683 226.963 35.4787 245.286 44.9539 258.323L46.0739 259.869L60.7011 268.28L79.0579 261.661Z" fill="#F79009"/>
<path opacity="0.3" d="M79.0579 261.661L84.2547 240.762C78.818 238.133 74.0498 234.304 70.3107 229.562C69.9075 229.035 69.4931 228.509 69.1011 227.971C62.0563 218.306 57.9011 204.686 57.8115 187.651C57.7107 173.539 60.3539 158.531 65.1699 143.691L57.1171 145.046L42.4899 136.635C34.2355 159.36 29.6099 182.488 29.7891 204.082C29.9683 226.963 35.4787 245.286 44.9539 258.323L46.0739 259.869L60.7011 268.28L79.0579 261.661Z" fill="white"/>
<path d="M66.4019 276.042L0.445068 314.558L0.69147 346.848L91.8035 293.659L81.0403 284.464L66.4019 276.042Z" fill="#F79009"/>
<path d="M168.848 248.669L156.058 240.627L141.419 232.216L139.179 233.56C118.079 245.88 98.7811 247.706 84.2995 240.762L79.1027 261.661L60.8019 268.28L46.1747 259.869C51.5106 266.838 58.4753 272.392 66.4579 276.042L81.0851 284.464L91.8483 293.659L139.471 265.85L168.848 248.669Z" fill="#F79009"/>
<g opacity="0.6">
<path opacity="0.6" d="M66.4019 276.042L0.445068 314.558L0.69147 346.848L91.8035 293.659L81.0403 284.464L66.4019 276.042Z" fill="white"/>
<path opacity="0.6" d="M168.848 248.669L156.058 240.627L141.419 232.216L139.179 233.56C118.079 245.88 98.7811 247.706 84.2995 240.762L79.1027 261.661L60.8019 268.28L46.1747 259.869C51.5106 266.838 58.4753 272.392 66.4579 276.042L81.0851 284.464L91.8483 293.659L139.471 265.85L168.848 248.669Z" fill="white"/>
</g>
<path d="M0.445068 314.558L15.0723 322.97L81.0403 284.464L66.4019 276.042L0.445068 314.558Z" fill="#F79009"/>
<path opacity="0.3" d="M0.445068 314.558L15.0723 322.97L81.0403 284.464L66.4019 276.042L0.445068 314.558Z" fill="black"/>
<path d="M0.69147 346.848L15.3299 355.27L15.0723 322.97L0.445068 314.558L0.69147 346.848Z" fill="#F79009"/>
<path opacity="0.2" d="M0.69147 346.848L15.3299 355.27L15.0723 322.97L0.445068 314.558L0.69147 346.848Z" fill="black"/>
<path d="M308.008 151.946L293.381 143.523L211.935 191.078L226.573 199.49L308.008 151.946Z" fill="#F79009"/>
<path opacity="0.6" d="M308.008 151.946L293.381 143.523L211.935 191.078L226.573 199.49L308.008 151.946Z" fill="white"/>
<path d="M84.9491 238.018C99.3971 256.072 124.911 258.85 153.807 241.982L81.0067 284.464C73.0256 280.806 66.0617 275.25 60.7235 268.28L79.0243 261.661L84.9491 238.018Z" fill="#F79009"/>
<g opacity="0.4">
<path opacity="0.4" d="M84.9491 238.018C99.3971 256.072 124.911 258.85 153.807 241.982L81.0067 284.464C73.0256 280.806 66.0617 275.25 60.7235 268.28L79.0243 261.661L84.9491 238.018Z" fill="white"/>
</g>
<path d="M156.058 240.627L168.378 249.71L156.383 272.894C155.621 273.365 154.859 273.824 154.143 274.272L15.3299 355.27L15.0499 322.97L81.0179 284.464L153.818 241.982L156.058 240.627Z" fill="#F79009"/>
<g opacity="0.6">
<path opacity="0.6" d="M156.058 240.627L168.378 249.71L156.383 272.894C155.621 273.365 154.859 273.824 154.143 274.272L15.3299 355.27L15.0499 322.97L81.0179 284.464L153.818 241.982L156.058 240.627Z" fill="black"/>
</g>
<path d="M57.1171 145.114L63.0643 161.006L82.0371 145.707C75.8099 162.653 72.3267 179.968 72.4499 196.107C72.5731 213.098 76.6835 226.717 83.7283 236.427C84.1203 236.965 84.5347 237.491 84.9491 238.018L79.0579 261.661L60.7571 268.28C60.3651 267.776 59.9731 267.25 59.6371 266.734C50.1619 253.709 44.6403 235.374 44.4612 212.504C44.2484 190.899 48.8627 167.771 57.1171 145.114Z" fill="#F79009"/>
<g opacity="0.2">
<path opacity="0.2" d="M57.1171 145.114L63.0643 161.006L82.0371 145.707C75.8099 162.653 72.3267 179.968 72.4499 196.107C72.5731 213.098 76.6835 226.717 83.7283 236.427C84.1203 236.965 84.5347 237.491 84.9491 238.018L79.0579 261.661L60.7571 268.28C60.3651 267.776 59.9731 267.25 59.6371 266.734C50.1619 253.709 44.6403 235.374 44.4612 212.504C44.2484 190.899 48.8627 167.771 57.1171 145.114Z" fill="white"/>
</g>
<path d="M308.008 151.946L320.687 163.146L308.266 184.235L154.053 274.272C154.826 273.824 155.588 273.365 156.293 272.894C183.352 256.442 207.914 229.942 226.517 199.49L308.008 151.946Z" fill="#F79009"/>
<path opacity="0.4" d="M308.008 151.946L320.687 163.146L308.266 184.235L154.053 274.272C154.826 273.824 155.588 273.365 156.293 272.894C183.352 256.442 207.914 229.942 226.517 199.49L308.008 151.946Z" fill="white"/>
<path d="M242.992 136.792L249.051 152.987C248.637 154.107 248.234 155.227 247.808 156.347C242.05 171.349 234.927 185.79 226.528 199.49C207.925 229.942 183.363 256.442 156.304 272.894L168.299 249.71L155.979 240.627C184.92 222.808 209.963 189.51 223.336 154.387L224.277 151.834L242.992 136.792Z" fill="#F79009"/>
<path opacity="0.5" d="M242.992 136.792L249.051 152.987C248.637 154.107 248.234 155.227 247.808 156.347C242.05 171.349 234.927 185.79 226.528 199.49C207.925 229.942 183.363 256.442 156.304 272.894L168.299 249.71L155.979 240.627C184.92 222.808 209.963 189.51 223.336 154.387L224.277 151.834L242.992 136.792Z" fill="black"/>
<path d="M227.256 36.3952L245.434 29.832C245.837 30.3472 246.24 30.952 246.632 31.4336C256.074 44.4592 261.584 62.7936 261.764 85.608C261.92 107.202 257.284 130.341 249.052 152.987L242.992 136.792L224.356 151.822C230.448 135.022 233.853 117.954 233.73 101.971C233.596 85.0032 229.519 71.4064 222.53 61.7408C222.16 61.2256 221.768 60.7104 221.41 60.2064L227.256 36.3952Z" fill="#F79009"/>
<path opacity="0.4" d="M227.256 36.3952L245.434 29.832C245.837 30.3472 246.24 30.952 246.632 31.4336C256.074 44.4592 261.584 62.7936 261.764 85.608C261.92 107.202 257.284 130.341 249.052 152.987L242.992 136.792L224.356 151.822C230.448 135.022 233.853 117.954 233.73 101.971C233.596 85.0032 229.519 71.4064 222.53 61.7408C222.16 61.2256 221.768 60.7104 221.41 60.2064L227.256 36.3952Z" fill="black"/>
<path d="M152.127 23.84C191.405 0.913599 226.047 4.912 245.434 29.8432L227.256 36.4064L221.32 60.2176C206.895 42.0624 181.325 39.24 152.373 56.1408C151.399 56.712 150.435 57.2608 149.472 57.888L137.847 49.2976L150.491 24.8144L152.127 23.84Z" fill="#F79009"/>
<g opacity="0.2">
<path opacity="0.2" d="M152.127 23.84C191.405 0.913599 226.047 4.912 245.434 29.8432L227.256 36.4064L221.32 60.2176C206.895 42.0624 181.325 39.24 152.373 56.1408C151.399 56.712 150.435 57.2608 149.472 57.888L137.847 49.2976L150.491 24.8144L152.127 23.84Z" fill="black"/>
</g>
<path d="M150.491 24.8032L137.847 49.2864L149.45 57.8768C120.856 75.7968 96.1491 108.669 82.8547 143.445C82.5635 144.195 82.2835 144.946 82.0147 145.685L63.0419 160.984L57.0947 145.091C57.5427 143.87 58.0019 142.661 58.4611 141.451C76.7507 93.7056 111.011 48.48 150.491 24.8032Z" fill="#F79009"/>
<path d="M210.109 201.562C210.167 201.518 210.238 201.494 210.311 201.494C210.383 201.494 210.454 201.518 210.512 201.562C210.669 201.718 210.624 202.077 210.411 202.379C210.352 202.474 210.276 202.557 210.188 202.626C209.762 202.943 209.385 203.32 209.068 203.746C208.709 204.261 208.631 204.675 208.81 204.866C208.989 205.056 209.023 204.933 209.168 204.866C209.529 204.608 209.862 204.315 210.165 203.992C210.502 203.635 210.878 203.315 211.285 203.04C211.666 202.827 212.024 202.76 212.293 203.04C212.932 203.656 212.596 204.922 211.744 206.142C211.238 206.888 210.586 207.524 209.829 208.013H209.773C209.719 208.052 209.655 208.073 209.588 208.073C209.522 208.073 209.457 208.052 209.403 208.013C209.247 207.856 209.28 207.509 209.493 207.195C209.564 207.099 209.647 207.012 209.739 206.938C210.319 206.576 210.818 206.099 211.207 205.538C211.61 204.966 211.711 204.507 211.509 204.317C211.42 204.238 211.296 204.317 211.151 204.317C210.794 204.575 210.464 204.868 210.165 205.19C209.837 205.564 209.46 205.892 209.045 206.165C208.901 206.287 208.719 206.354 208.53 206.354C208.341 206.354 208.158 206.287 208.015 206.165C207.443 205.605 207.723 204.362 208.541 203.186C208.963 202.576 209.477 202.036 210.064 201.584L210.109 201.562Z" fill="white"/>
<path d="M208.407 209.424C208.481 209.544 208.505 209.689 208.474 209.827C208.295 210.727 207.911 211.574 207.354 212.302C206.955 212.863 206.448 213.338 205.864 213.702C205.551 213.949 205.156 214.069 204.759 214.04C204.361 214.011 203.988 213.835 203.714 213.546C202.885 212.605 203.075 210.69 204.296 209.066C204.644 208.56 205.094 208.132 205.618 207.811C205.923 207.578 206.303 207.464 206.687 207.491C207.071 207.517 207.431 207.683 207.701 207.957C207.88 208.158 207.802 208.595 207.544 208.931L204.901 212.493C205.066 212.605 205.261 212.665 205.461 212.665C205.661 212.665 205.856 212.605 206.021 212.493C206.35 212.294 206.633 212.026 206.85 211.709C207.211 211.226 207.466 210.673 207.6 210.085C207.633 209.938 207.698 209.8 207.791 209.682C207.859 209.583 207.947 209.499 208.048 209.435C208.099 209.395 208.161 209.373 208.226 209.371C208.29 209.369 208.354 209.387 208.407 209.424ZM204.789 209.682C204.521 209.999 204.346 210.386 204.285 210.797C204.223 211.209 204.278 211.629 204.442 212.011L206.57 209.088C206.407 208.97 206.211 208.906 206.01 208.906C205.809 208.906 205.613 208.97 205.45 209.088C205.18 209.25 204.947 209.468 204.767 209.726" fill="white"/>
<path d="M202.37 214.139C203.311 215.494 202.773 218.115 200.925 220.378L199.267 222.427C199.184 222.534 199.081 222.625 198.965 222.696C198.928 222.727 198.885 222.751 198.839 222.765C198.792 222.779 198.744 222.783 198.696 222.778C198.647 222.773 198.601 222.758 198.559 222.734C198.516 222.71 198.479 222.678 198.45 222.64L195.695 218.72C195.611 218.533 195.588 218.325 195.628 218.124C195.668 217.924 195.77 217.74 195.919 217.6L197.587 215.55C198.117 214.865 198.765 214.28 199.503 213.826C200.679 213.142 201.743 213.232 202.359 214.117L202.37 214.139ZM200.399 219.605C201.619 218.104 201.956 216.435 201.295 215.483C201.186 215.337 201.049 215.214 200.891 215.122C200.734 215.03 200.559 214.971 200.378 214.948C200.197 214.925 200.014 214.938 199.838 214.988C199.663 215.038 199.499 215.122 199.357 215.237C198.882 215.533 198.465 215.912 198.125 216.357L197.005 217.779L199.245 221.05L200.365 219.627" fill="white"/>
<path d="M214.836 200.621C215.048 200.789 215.004 201.237 214.746 201.618C214.654 201.768 214.527 201.895 214.376 201.987C214.312 202.031 214.236 202.054 214.158 202.054C214.08 202.054 214.004 202.031 213.94 201.987L211.386 199.859C211.173 199.68 211.207 199.254 211.453 198.874C211.55 198.726 211.676 198.601 211.823 198.504C211.891 198.455 211.974 198.428 212.058 198.428C212.142 198.428 212.225 198.455 212.293 198.504L214.836 200.621Z" fill="white"/>
<path d="M211.173 197.44C211.408 197.619 211.33 198.09 211.027 198.56C210.914 198.747 210.761 198.908 210.579 199.03C210.515 199.074 210.439 199.097 210.361 199.097C210.283 199.097 210.207 199.074 210.143 199.03C209.93 198.851 210.008 198.392 210.299 197.91C210.417 197.722 210.573 197.562 210.759 197.44C210.819 197.397 210.892 197.374 210.966 197.374C211.04 197.374 211.112 197.397 211.173 197.44Z" fill="white"/>
<path d="M219.506 192.445C219.777 192.628 219.995 192.881 220.136 193.176C220.278 193.471 220.339 193.798 220.312 194.125C220.175 195.143 219.79 196.112 219.192 196.947C218.706 197.737 218.115 198.457 217.434 199.086C217.373 199.146 217.305 199.199 217.232 199.243C217.179 199.278 217.117 199.297 217.053 199.297C216.989 199.297 216.927 199.278 216.874 199.243C216.695 199.12 216.717 198.75 216.874 198.426L217.064 198.19C217.628 197.71 218.112 197.143 218.498 196.51C219.271 195.256 219.327 194.326 218.643 193.845L218.375 193.666C218.486 194.594 218.272 195.532 217.77 196.32C217.393 196.969 216.862 197.515 216.224 197.91C215.971 198.095 215.668 198.2 215.355 198.212C215.042 198.224 214.733 198.142 214.466 197.978C213.447 197.25 213.682 195.491 214.567 194.069C214.924 193.448 215.432 192.928 216.045 192.557C216.181 192.475 216.323 192.404 216.471 192.344L216.303 192.232C216.101 192.086 216.123 191.65 216.303 191.269C216.404 191.108 216.537 190.971 216.695 190.866C216.76 190.825 216.836 190.803 216.913 190.803C216.99 190.803 217.066 190.825 217.131 190.866L219.506 192.445ZM217.266 195.435C217.871 194.472 218.005 193.374 217.445 192.982C217.296 192.883 217.121 192.83 216.941 192.83C216.762 192.83 216.586 192.883 216.437 192.982C216.005 193.266 215.647 193.65 215.395 194.102C214.802 195.066 214.701 196.085 215.261 196.488C215.413 196.586 215.59 196.638 215.771 196.638C215.951 196.638 216.128 196.586 216.28 196.488C216.686 196.233 217.024 195.883 217.266 195.469" fill="white"/>
<path d="M220.872 184.067C221.077 183.938 221.311 183.864 221.552 183.852C221.794 183.84 222.034 183.891 222.25 184L224.199 185.12C224.434 185.254 224.434 185.658 224.199 186.061C224.096 186.243 223.95 186.397 223.773 186.509C223.711 186.54 223.642 186.557 223.572 186.557C223.501 186.557 223.432 186.54 223.37 186.509L221.679 185.579C221.543 185.494 221.386 185.448 221.225 185.448C221.065 185.448 220.907 185.494 220.771 185.579C220.455 185.784 220.2 186.071 220.032 186.408C219.562 187.237 219.562 187.998 220.133 188.312L221.813 189.219C222.048 189.354 222.048 189.768 221.813 190.16C221.718 190.341 221.58 190.495 221.41 190.608C221.346 190.64 221.275 190.657 221.203 190.657C221.131 190.657 221.06 190.64 220.996 190.608L218.117 189.029C217.882 188.894 217.871 188.491 218.117 188.088C218.213 187.907 218.356 187.756 218.531 187.651C218.594 187.614 218.666 187.594 218.739 187.594C218.812 187.594 218.883 187.614 218.946 187.651L219.136 187.741C218.995 186.944 219.163 186.122 219.607 185.445C219.904 184.885 220.34 184.411 220.872 184.067Z" fill="white"/>
<path d="M246.453 62.1216C247.08 64.0816 246.117 66.7472 244.292 68.416C243.982 68.7143 243.64 68.9772 243.272 69.2C241.816 70.0288 240.506 69.6928 240.002 68.08L239.442 66.288C239.403 66.0833 239.419 65.8721 239.488 65.6755C239.557 65.4789 239.676 65.3039 239.834 65.168L245.154 60.2512L245.322 60.128C245.58 59.9824 245.815 60.0272 245.893 60.2848L246.453 62.1216ZM243.911 67.2736C244.518 66.775 244.979 66.1213 245.245 65.3819C245.512 64.6426 245.573 63.845 245.423 63.0736L245.031 61.8192L240.64 65.8848L241.032 67.128C241.368 68.192 242.152 68.4048 243.16 67.856C243.422 67.6954 243.666 67.5077 243.888 67.296" fill="white"/>
<path d="M248.704 82.08C248.716 82.9325 248.518 83.7748 248.127 84.5327C247.737 85.2905 247.166 85.9406 246.464 86.4256H246.397C246.106 86.5936 245.882 86.4816 245.848 86.1792L245.501 82.7296C245.135 83.0297 244.844 83.4102 244.65 83.8416C244.455 84.2729 244.364 84.7433 244.381 85.216C244.383 85.4171 244.437 85.6144 244.537 85.7889C244.637 85.9634 244.78 86.1094 244.952 86.2128C244.995 86.2375 245.03 86.2736 245.054 86.3171C245.078 86.3606 245.089 86.4097 245.087 86.4592C245.093 86.6211 245.058 86.7819 244.986 86.9267C244.913 87.0716 244.805 87.1958 244.672 87.288C244.575 87.3462 244.459 87.3662 244.348 87.344C244.077 87.1963 243.853 86.9771 243.699 86.7104C243.545 86.4438 243.467 86.1399 243.474 85.832C243.442 84.9214 243.64 84.0174 244.049 83.2032C244.458 82.389 245.065 81.6908 245.815 81.1728C245.919 81.0991 246.027 81.0318 246.139 80.9712C247.439 80.2992 248.559 80.6576 248.704 82.08ZM246.565 85.0592C246.934 84.7928 247.233 84.4427 247.44 84.0376C247.646 83.6326 247.753 83.1842 247.752 82.7296C247.674 81.9568 247.069 81.8 246.274 82.2256L246.565 85.0592Z" fill="white"/>
<path d="M246.588 90.5472C248.032 89.7072 249.231 90.312 249.264 92.0928C249.24 93.0187 248.992 93.9249 248.541 94.7343C248.091 95.5436 247.451 96.232 246.677 96.7408C245.255 97.5696 244.045 96.9536 244.023 95.184C244.05 94.2602 244.299 93.3566 244.75 92.5495C245.2 91.7424 245.838 91.0557 246.61 90.5472H246.588ZM246.588 95.4192C247.059 95.1246 247.452 94.72 247.733 94.2401C248.014 93.7603 248.174 93.2194 248.2 92.664C248.2 91.6224 247.461 91.3648 246.588 91.8688C246.122 92.1633 245.733 92.5651 245.455 93.0405C245.176 93.516 245.015 94.0513 244.986 94.6016C244.986 95.7216 245.736 95.9232 246.599 95.4304" fill="white"/>
<path d="M250.384 85.3504C250.687 85.1824 250.944 85.3504 250.967 85.6416C250.966 85.8438 250.917 86.0429 250.823 86.2222C250.73 86.4014 250.595 86.5557 250.429 86.672L244.46 90.536C244.146 90.7152 243.9 90.536 243.877 90.2336C243.881 90.0323 243.933 89.8348 244.028 89.6576C244.124 89.4803 244.26 89.3284 244.426 89.2144L250.384 85.3616V85.3504Z" fill="white"/>
<path d="M248.267 98.5664C248.783 98.7344 249.175 99.1488 249.141 100.123C249.061 100.95 248.787 101.746 248.341 102.446C247.896 103.147 247.291 103.732 246.576 104.155L246.397 104.256C244.706 105.13 243.81 104.256 243.866 102.845C243.943 101.93 244.285 101.058 244.851 100.336L243.059 101.266C242.723 101.434 242.488 101.266 242.499 100.874C242.518 100.682 242.578 100.498 242.677 100.333C242.776 100.168 242.911 100.028 243.071 99.9216L248.671 97.0432C248.995 96.8752 249.242 97.0432 249.231 97.424C249.212 97.6207 249.148 97.8105 249.045 97.9792C248.943 98.1479 248.803 98.2913 248.637 98.3984L248.267 98.5664ZM248.144 100.314C248.144 99.384 247.562 98.9024 246.587 99.4064L246.475 99.4736C246.033 99.7442 245.659 100.113 245.383 100.553C245.107 100.992 244.937 101.489 244.885 102.005C244.885 102.946 245.434 103.394 246.431 102.878L246.554 102.811C246.993 102.549 247.365 102.188 247.639 101.756C247.914 101.324 248.083 100.834 248.133 100.325" fill="white"/>
<path d="M196.221 23.3248C196.301 23.2704 196.394 23.2394 196.49 23.2352C196.77 23.2352 196.882 23.5824 196.736 23.9968L196.355 25.1168H197.162C197.419 25.1168 197.52 25.408 197.397 25.7552C197.317 25.9942 197.16 26.1994 196.949 26.3376C196.873 26.3791 196.789 26.4021 196.703 26.4048H195.885L194.765 29.6192C194.552 30.2016 194.675 30.4368 195.034 30.4368C195.123 30.4532 195.214 30.4532 195.303 30.4368C195.538 30.4368 195.639 30.7168 195.515 31.0752C195.44 31.3045 195.285 31.4993 195.079 31.624C194.834 31.7276 194.572 31.7845 194.306 31.792C193.533 31.792 193.186 31.288 193.679 29.8432L194.888 26.4048H194.72C194.474 26.4048 194.362 26.1136 194.496 25.7552C194.578 25.5204 194.736 25.3194 194.944 25.184C195.011 25.14 195.089 25.1166 195.168 25.1168H195.336L195.739 23.9968C195.82 23.7252 195.99 23.4886 196.221 23.3248Z" fill="white"/>
<path d="M191.327 25.3632C191.604 25.2031 191.914 25.1074 192.234 25.0832C192.711 25.0582 193.178 25.2234 193.533 25.5424C193.593 25.6192 193.631 25.7109 193.643 25.8075C193.655 25.9042 193.64 26.0022 193.6 26.0912C193.531 26.3262 193.38 26.5287 193.175 26.6624C193.108 26.6965 193.036 26.7192 192.962 26.7296C192.896 26.7311 192.832 26.707 192.783 26.6624C192.528 26.4136 192.187 26.2731 191.831 26.2704C191.689 26.2823 191.552 26.3243 191.428 26.3936C191.215 26.519 191.055 26.7183 190.98 26.9536C190.834 27.424 191.26 27.6032 191.73 27.816C191.916 27.8641 192.089 27.9532 192.236 28.0769C192.384 28.2005 192.501 28.3556 192.581 28.5307C192.66 28.7057 192.699 28.8964 192.696 29.0886C192.692 29.2809 192.645 29.4698 192.559 29.6416C192.341 30.4026 191.851 31.0566 191.181 31.4784C190.879 31.6611 190.537 31.7651 190.184 31.7808C189.893 31.8041 189.601 31.7537 189.335 31.6343C189.069 31.5149 188.837 31.3303 188.661 31.0976C188.619 31.0183 188.597 30.9298 188.597 30.84C188.597 30.7502 188.619 30.6617 188.661 30.5824C188.731 30.3507 188.882 30.1519 189.087 30.0224C189.141 29.9788 189.208 29.9551 189.277 29.9552C189.314 29.9543 189.351 29.9607 189.386 29.9741C189.42 29.9876 189.452 30.0078 189.479 30.0336C189.607 30.2101 189.775 30.3532 189.97 30.4507C190.165 30.5482 190.381 30.5972 190.599 30.5936C190.764 30.5864 190.925 30.5403 191.069 30.4592C191.298 30.3184 191.469 30.0997 191.551 29.8432C191.719 29.3168 191.282 29.1712 190.812 28.9584C190.341 28.7456 189.58 28.3648 189.972 27.1216C190.203 26.3945 190.682 25.772 191.327 25.3632Z" fill="white"/>
<path d="M187.306 25.5088C188.818 25.3072 189.087 26.92 188.661 28.432C188.586 28.7214 188.407 28.9728 188.157 29.1376C188.094 29.1699 188.026 29.1926 187.956 29.2048L184.976 29.5968C184.786 30.6384 185.178 31.1536 185.872 31.064C186.11 31.039 186.339 30.9626 186.544 30.84C186.77 30.7031 186.977 30.5375 187.16 30.3472L187.306 30.2464C187.361 30.2292 187.419 30.2292 187.474 30.2464C187.72 30.2464 187.832 30.448 187.743 30.7952C187.684 30.97 187.588 31.1303 187.463 31.2656C187.189 31.5464 186.88 31.7911 186.544 31.9936C186.23 32.1837 185.879 32.3058 185.514 32.352C184.136 32.5312 183.464 31.232 184.024 29.2832C184.382 27.909 185.23 26.7136 186.41 25.9232C186.674 25.7202 186.98 25.5786 187.306 25.5088ZM187.676 28.2864C187.877 27.3344 187.676 26.6288 186.959 26.7296C186.797 26.7512 186.641 26.8045 186.5 26.8864C185.924 27.3139 185.5 27.9144 185.29 28.6L187.72 28.2864" fill="white"/>
<path d="M180.731 24.792C180.787 24.7599 180.848 24.7372 180.911 24.7248L185.167 23.8848C185.458 23.8288 185.603 24.1088 185.514 24.4896C185.439 24.7881 185.255 25.0478 184.999 25.2176L184.831 25.2848L183.263 25.5872L181.672 32.0944C181.59 32.4164 181.39 32.696 181.112 32.8784C181.056 32.9186 180.99 32.9454 180.922 32.9568C180.608 32.9568 180.44 32.7328 180.541 32.3184L182.131 25.8112L180.575 26.1248C180.272 26.1248 180.127 25.912 180.216 25.5312C180.294 25.2312 180.477 24.969 180.731 24.792Z" fill="white"/>
<path d="M91.2099 104.738C91.2591 104.782 91.2962 104.838 91.3177 104.901C91.3393 104.964 91.3446 105.031 91.3331 105.096C91.2471 105.988 90.9433 106.846 90.4483 107.594C90.0248 108.346 89.4205 108.981 88.6899 109.442C88.4085 109.643 88.0746 109.759 87.7288 109.775C87.383 109.791 87.0399 109.706 86.7411 109.531C85.7555 108.87 85.6995 107.09 86.7411 105.331C87.1301 104.659 87.6757 104.09 88.3315 103.674C88.605 103.479 88.9282 103.366 89.2633 103.348C89.5984 103.331 89.9317 103.408 90.2243 103.573C90.4483 103.718 90.4147 104.133 90.2243 104.491L87.8499 108.31C88.0103 108.362 88.1801 108.376 88.3469 108.353C88.5136 108.33 88.673 108.269 88.8131 108.176C89.2246 107.918 89.5637 107.559 89.7987 107.134C90.1149 106.637 90.314 106.074 90.3811 105.488C90.3924 105.343 90.4427 105.204 90.5267 105.085C90.6044 104.953 90.7118 104.842 90.8403 104.76C90.8907 104.716 90.9544 104.69 91.0213 104.686C91.0882 104.682 91.1546 104.7 91.2099 104.738ZM87.4019 105.779C87.1415 106.091 86.9933 106.481 86.9812 106.888C86.969 107.294 87.0935 107.692 87.3347 108.019L89.2499 104.872C89.0821 104.801 88.8995 104.772 88.718 104.788C88.5365 104.803 88.3616 104.863 88.2083 104.962C87.8724 105.178 87.5954 105.474 87.4019 105.824" fill="white"/>
<path d="M85.3635 110.349C86.7523 111.066 86.8307 113.418 85.3635 116.027L84.0531 118.379C83.953 118.573 83.802 118.735 83.6163 118.85C83.5537 118.887 83.4821 118.907 83.4091 118.907C83.3361 118.907 83.2645 118.887 83.2019 118.85L79.1699 116.8C78.9235 116.677 78.9235 116.262 79.1699 115.848L80.4915 113.485C81.1029 112.3 82.0094 111.293 83.1235 110.562C83.4498 110.343 83.8255 110.209 84.2166 110.171C84.6077 110.134 85.0019 110.195 85.3635 110.349ZM84.5907 115.624C85.5651 113.877 85.4979 112.387 84.5347 111.894C84.2803 111.785 84.0025 111.741 83.7266 111.766C83.4507 111.792 83.1856 111.886 82.9555 112.04C82.233 112.509 81.6491 113.162 81.2643 113.933L80.3571 115.568L83.7171 117.282L84.6355 115.635" fill="white"/>
<path d="M102.656 85.944C103.463 86.8736 103.16 88.9344 101.85 90.6816C101.443 91.2495 100.929 91.7326 100.338 92.104C100.019 92.3684 99.6125 92.5045 99.1984 92.4859C98.7844 92.4672 98.392 92.2952 98.0979 92.0032C97.2915 91.0736 97.5939 89.0016 98.8931 87.2544C99.3073 86.6882 99.8286 86.2088 100.427 85.8432C100.743 85.5725 101.15 85.4312 101.565 85.4479C101.981 85.4645 102.374 85.6377 102.667 85.9328L102.656 85.944ZM101.29 89.9984C101.654 89.6514 101.89 89.1921 101.961 88.6943C102.032 88.1966 101.934 87.6894 101.682 87.2544C101.495 87.0877 101.258 86.9884 101.009 86.9721C100.759 86.9559 100.511 87.0237 100.304 87.1648C99.9737 87.3708 99.688 87.6412 99.4643 87.96C99.1139 88.3155 98.8876 88.7745 98.8189 89.2689C98.7503 89.7633 98.8431 90.2666 99.0835 90.704C99.2589 90.8829 99.494 90.9909 99.744 91.0074C99.9939 91.024 100.241 90.9478 100.439 90.7936C100.771 90.5948 101.057 90.3275 101.279 90.0096" fill="white"/>
<path d="M94.3683 91.04C94.4317 90.9841 94.5134 90.9533 94.5979 90.9533C94.6825 90.9533 94.7641 90.9841 94.8275 91.04L98.3667 94.5456C98.5571 94.736 98.5011 95.1952 98.2435 95.5536C98.1453 95.6824 98.0283 95.7957 97.8963 95.8896C97.8292 95.9423 97.7464 95.9709 97.6611 95.9709C97.5758 95.9709 97.493 95.9423 97.4259 95.8896L93.8979 92.3728C93.7075 92.1936 93.7523 91.7568 94.0211 91.376C94.1092 91.2386 94.2281 91.1236 94.3683 91.04Z" fill="white"/>
<path d="M95.2083 96.1024C96.3283 97.0096 95.9923 98.8688 95.0627 100.28C94.7388 100.803 94.2979 101.244 93.7747 101.568C93.5758 101.68 93.3655 101.77 93.1475 101.837L94.2675 102.789C94.4803 102.968 94.4355 103.405 94.1779 103.797C94.088 103.94 93.965 104.059 93.8195 104.144C93.752 104.191 93.6719 104.216 93.5899 104.216C93.5078 104.216 93.4277 104.191 93.3603 104.144L89.8547 101.176C89.6531 101.008 89.6755 100.571 89.9331 100.19C90.0297 100.043 90.1555 99.9174 90.3027 99.8208C90.3695 99.7725 90.4498 99.7465 90.5323 99.7465C90.6147 99.7465 90.6951 99.7725 90.7619 99.8208L90.9523 100C90.9157 99.0896 91.1793 98.1923 91.7027 97.4464C92.0717 96.8799 92.5612 96.4019 93.1363 96.0464C93.4404 95.8282 93.8075 95.7155 94.1817 95.7256C94.5559 95.7357 94.9164 95.8681 95.2083 96.1024ZM94.2003 100.067C94.8275 99.1376 94.9395 98.04 94.3011 97.5024C94.1176 97.3625 93.8934 97.2868 93.6627 97.2868C93.432 97.2868 93.2077 97.3625 93.0243 97.5024C92.6699 97.718 92.3708 98.0133 92.1507 98.3648C91.5347 99.2832 91.4115 100.448 92.0275 100.963C92.215 101.093 92.4377 101.163 92.6659 101.163C92.8941 101.163 93.1168 101.093 93.3043 100.963C93.6662 100.74 93.9727 100.438 94.2003 100.078" fill="white"/>
<path d="M105.904 78.5296C106.095 78.4288 106.274 78.4288 106.375 78.5296C106.425 78.6037 106.46 78.6877 106.475 78.776L107.103 83.9392C107.199 84.441 107.179 84.9579 107.045 85.4509C106.911 85.9438 106.666 86.3998 106.33 86.784C106.111 87.0738 105.855 87.3336 105.568 87.5568L105.434 87.6464C105.277 87.736 105.109 87.7696 104.997 87.6464C104.94 87.5035 104.925 87.347 104.955 87.1959C104.985 87.0448 105.058 86.9056 105.165 86.7952C105.255 86.6944 105.311 86.6496 105.367 86.5936C105.508 86.4785 105.639 86.351 105.759 86.2128C105.891 86.0599 105.991 85.8818 106.052 85.6894C106.114 85.4969 106.136 85.294 106.117 85.0928V84.9808L102.365 84.0176C102.288 83.9953 102.218 83.9528 102.163 83.8944C102.094 83.7208 102.077 83.5304 102.115 83.3471C102.152 83.1639 102.243 82.9958 102.376 82.864C102.454 82.7628 102.549 82.6757 102.656 82.6064C102.725 82.5765 102.8 82.5611 102.875 82.5611C102.95 82.5611 103.024 82.5765 103.093 82.6064L105.971 83.5248L105.378 79.7728C105.351 79.6102 105.359 79.4436 105.404 79.2848C105.449 79.1261 105.528 78.9791 105.635 78.8544C105.706 78.7315 105.797 78.6216 105.904 78.5296Z" fill="white"/>
<path d="M62.5715 221.587C62.652 222.489 62.5032 223.396 62.1389 224.224C61.7747 225.052 61.2069 225.775 60.4883 226.325C60.3114 226.474 60.1201 226.606 59.9171 226.717C58.7075 227.411 57.6771 227.165 57.4083 225.877C57.3423 225.032 57.4892 224.185 57.8355 223.412C58.1818 222.639 58.7166 221.966 59.3907 221.453L59.5139 221.363C59.7827 221.206 59.9955 221.296 60.0515 221.565L60.6787 224.813C61.0287 224.502 61.2997 224.113 61.4692 223.676C61.6386 223.24 61.7017 222.77 61.6531 222.304C61.6327 222.111 61.5592 221.926 61.4405 221.772C61.3219 221.618 61.1629 221.5 60.9811 221.43C60.9366 221.412 60.8982 221.381 60.8705 221.341C60.8428 221.301 60.8268 221.255 60.8243 221.206C60.809 221.047 60.835 220.885 60.8997 220.738C60.9644 220.591 61.0657 220.463 61.1939 220.366L61.2835 220.31C61.3696 220.255 61.4727 220.231 61.5747 220.243C61.8555 220.343 62.1002 220.524 62.2778 220.763C62.4553 221.003 62.5575 221.29 62.5715 221.587ZM59.7715 225.518L59.8499 225.44L59.3459 222.786C58.981 223.059 58.6882 223.417 58.493 223.828C58.2979 224.24 58.2062 224.694 58.2259 225.149C58.3603 225.843 58.9427 225.944 59.6819 225.518" fill="white"/>
<path d="M64.4419 229.752C64.4768 229.959 64.4569 230.171 64.3842 230.367C64.3114 230.564 64.1885 230.738 64.0275 230.872L58.6067 235.654C58.5624 235.705 58.5093 235.746 58.4499 235.778C58.1811 235.934 57.9571 235.867 57.8787 235.587L57.2627 233.269C57.0472 232.46 57.0983 231.604 57.4083 230.827C57.6791 230.146 58.1093 229.539 58.6627 229.058C58.8504 228.885 59.0571 228.735 59.2787 228.61C59.4057 228.508 59.5515 228.433 59.7077 228.389C59.8639 228.344 60.0273 228.331 60.1886 228.349C60.35 228.368 60.506 228.418 60.6478 228.498C60.7896 228.577 60.9143 228.684 61.0147 228.811L62.2467 226.179C62.3321 225.964 62.4618 225.77 62.6275 225.608L62.7731 225.507C63.0307 225.35 63.2547 225.451 63.3107 225.686C63.3687 225.968 63.3166 226.26 63.1651 226.504L61.5747 229.864L61.9555 231.309L63.7027 229.752L63.8595 229.651C64.1283 229.427 64.3299 229.483 64.4419 229.752ZM58.7299 234.064L60.9699 232.126L60.5219 230.458C60.3315 229.774 59.8947 229.562 59.4019 229.864L59.0995 230.088C58.772 230.364 58.5304 230.728 58.4034 231.137C58.2764 231.546 58.2692 231.982 58.3827 232.395L58.8419 234.053" fill="white"/>
<path d="M56.2211 197.989C56.3056 197.943 56.396 197.909 56.4899 197.888L60.3651 197.362C60.7235 197.362 60.8803 197.507 60.8691 197.832C60.859 198.027 60.8091 198.218 60.7225 198.394C60.6358 198.569 60.5142 198.725 60.3651 198.851L57.3187 201.662L60.3203 201.158C60.6451 201.102 60.8131 201.293 60.8019 201.618C60.7887 201.819 60.7341 202.015 60.6416 202.194C60.5491 202.374 60.4207 202.532 60.2643 202.659L56.3667 206.366C56.276 206.457 56.1744 206.536 56.0643 206.602C55.7843 206.758 55.5379 206.602 55.5379 206.243C55.5686 205.887 55.7375 205.558 56.0083 205.325L59.1219 202.491L56.0531 203.018C55.7955 203.018 55.6051 202.928 55.6051 202.581V202.502C55.64 202.139 55.8122 201.802 56.0867 201.562L59.1891 198.706L56.1203 199.243C55.8627 199.243 55.6723 199.187 55.6723 198.829C55.6983 198.658 55.7608 198.494 55.8555 198.349C55.9502 198.204 56.0748 198.081 56.2211 197.989Z" fill="white"/>
<path d="M60.1859 205.482C60.4453 205.663 60.6522 205.91 60.7859 206.197C60.9196 206.484 60.9753 206.801 60.9475 207.117C60.9417 208.03 60.7094 208.927 60.2716 209.729C59.8338 210.53 59.204 211.211 58.4387 211.709L58.2819 211.798C56.8819 212.605 55.7171 212.179 55.6499 210.6C55.6682 209.745 55.8951 208.907 56.3109 208.159C56.7266 207.412 57.3187 206.777 58.0355 206.31C58.3379 206.131 58.5507 206.31 58.5731 206.59L58.7299 210.174C59.106 209.882 59.4111 209.509 59.6225 209.082C59.834 208.656 59.9461 208.187 59.9507 207.71C59.9698 207.496 59.9334 207.281 59.8452 207.085C59.7569 206.888 59.6197 206.718 59.4467 206.59C59.407 206.558 59.3753 206.517 59.3539 206.47C59.3326 206.424 59.3222 206.373 59.3235 206.322C59.3278 206.16 59.3706 206.001 59.4485 205.859C59.5265 205.716 59.6372 205.595 59.7715 205.504C59.829 205.456 59.9003 205.428 59.975 205.424C60.0497 205.42 60.1236 205.44 60.1859 205.482ZM56.6019 209.962C56.6019 210.768 57.2067 210.981 58.0019 210.6L57.8787 207.677C57.5052 207.924 57.1949 208.255 56.9731 208.645C56.7513 209.034 56.6242 209.469 56.6019 209.917" fill="white"/>
<path d="M60.6115 211.63C60.9139 211.451 61.1603 211.63 61.1827 211.91C61.1842 212.112 61.1371 212.311 61.0454 212.49C60.9538 212.669 60.8204 212.824 60.6563 212.941L56.6467 215.674C56.3443 215.842 56.0979 215.741 56.0643 215.405C56.0669 215.201 56.1169 215.001 56.2102 214.821C56.3035 214.64 56.4376 214.483 56.6019 214.363L60.6115 211.63C60.5891 211.63 60.6115 211.63 60.6115 211.63Z" fill="white"/>
<path d="M56.7923 216.973C56.8594 216.935 56.9309 216.905 57.0051 216.883L61.0931 215.853C61.4067 215.786 61.6419 215.853 61.6867 216.189V216.256C61.6923 216.452 61.6585 216.647 61.5873 216.83C61.5161 217.013 61.409 217.179 61.2723 217.32L57.6659 221.946C57.5872 222.052 57.4928 222.147 57.3859 222.226C57.1171 222.382 56.8483 222.293 56.8035 221.979C56.7953 221.811 56.822 221.642 56.8817 221.484C56.9414 221.326 57.033 221.182 57.1507 221.061L60.3091 217.219L56.7699 218.272C56.5459 218.328 56.3331 218.272 56.2883 217.992C56.2768 217.795 56.3149 217.599 56.399 217.421C56.4832 217.243 56.6107 217.089 56.7699 216.973H56.7923Z" fill="white"/>
<path d="M54.7539 215.528C55.0787 215.349 55.3027 215.528 55.3363 215.898C55.3565 216.112 55.3206 216.328 55.2323 216.524C55.1439 216.721 55.0061 216.891 54.8323 217.018C54.5187 217.197 54.2947 217.018 54.2499 216.648C54.2309 216.434 54.2672 216.218 54.3555 216.022C54.4437 215.826 54.5809 215.656 54.7539 215.528H54.8099H54.7539Z" fill="white"/>
<path d="M81.6675 295.821C83.2355 294.914 84.2211 295.373 84.2323 296.941C84.1822 297.816 83.9089 298.663 83.4383 299.402C82.9678 300.141 82.3157 300.748 81.5443 301.163L80.2003 301.936V303.84C80.191 304.042 80.1332 304.24 80.0319 304.415C79.9306 304.59 79.7886 304.739 79.6179 304.848C79.2707 305.05 79.0131 304.904 79.0131 304.523V298.083C79.0232 297.875 79.0835 297.673 79.1888 297.494C79.2942 297.314 79.4414 297.163 79.6179 297.053L81.6675 295.821ZM83.0339 297.68C83.0339 296.773 82.4515 296.627 81.5667 297.142L80.1891 297.926V300.726L81.5667 299.931C81.9795 299.712 82.3297 299.391 82.5844 299C82.8391 298.608 82.9899 298.157 83.0227 297.691" fill="white"/>
<path d="M85.9459 292.954C86.2707 292.774 86.5283 292.954 86.5283 293.29V300.144C86.519 300.346 86.4612 300.544 86.3599 300.719C86.2586 300.894 86.1166 301.043 85.9459 301.152C85.6211 301.331 85.3635 301.152 85.3635 300.816V293.962C85.3738 293.759 85.4319 293.563 85.5332 293.387C85.6344 293.212 85.7759 293.063 85.9459 292.954Z" fill="white"/>
<path d="M91.7699 292.461C92.1507 292.662 92.3299 293.189 92.3299 293.95V296.829C92.3194 297.024 92.2619 297.213 92.1625 297.38C92.063 297.548 91.9245 297.689 91.7587 297.792C91.4227 297.994 91.1875 297.859 91.1875 297.557V297.344C90.8209 298.093 90.2451 298.719 89.5299 299.147C88.5891 299.696 87.7267 299.562 87.7267 298.386C87.7733 297.732 87.9915 297.102 88.3592 296.559C88.7269 296.016 89.2311 295.58 89.8211 295.294C90.2451 295.041 90.7061 294.856 91.1875 294.746V294.6C91.1875 293.771 90.7507 293.592 89.9219 294.062C89.5102 294.305 89.1334 294.603 88.8019 294.947L88.6227 295.082C88.3539 295.238 88.1299 295.082 88.1299 294.813C88.1479 294.542 88.2633 294.288 88.4547 294.096C88.9353 293.591 89.486 293.157 90.0899 292.808C90.8515 292.349 91.4227 292.248 91.7699 292.461ZM91.2099 296V295.608C90.8131 295.678 90.4331 295.823 90.0899 296.034C89.7627 296.187 89.4807 296.422 89.2708 296.717C89.0609 297.011 88.9303 297.354 88.8915 297.714C88.8915 298.285 89.3283 298.352 89.8995 298.027C90.2644 297.819 90.5739 297.526 90.802 297.173C91.03 296.821 91.1699 296.418 91.2099 296Z" fill="white"/>
<path d="M96.4739 289.056C97.5939 288.384 98.2771 288.899 98.2883 290.243V293.368C98.2835 293.566 98.2299 293.759 98.1322 293.931C98.0345 294.103 97.8957 294.248 97.7283 294.354C97.3923 294.555 97.1347 294.421 97.1235 294.04V291.33C97.1235 290.422 96.7315 290.131 96.0035 290.523C95.6507 290.75 95.3623 291.064 95.1661 291.435C94.97 291.806 94.8726 292.221 94.8835 292.64V295.328C94.8752 295.529 94.8178 295.725 94.7163 295.899C94.6147 296.073 94.4722 296.219 94.3011 296.325C93.9875 296.515 93.7187 296.325 93.7187 296V291.374C93.7259 291.173 93.7815 290.976 93.8809 290.801C93.9804 290.625 94.1207 290.476 94.2899 290.366C94.6147 290.176 94.8835 290.366 94.8835 290.702V290.994C95.1901 290.193 95.7482 289.513 96.4739 289.056Z" fill="white"/>
<path d="M247.259 200.139C247.584 199.949 247.842 200.139 247.842 200.475V206.366L250.899 204.597C251.191 204.429 251.437 204.597 251.437 204.91C251.431 205.096 251.378 205.277 251.284 205.438C251.191 205.598 251.058 205.732 250.899 205.829L247.259 207.934C246.923 208.136 246.655 207.934 246.655 207.598V201.158C246.669 200.953 246.731 200.754 246.836 200.577C246.941 200.4 247.086 200.25 247.259 200.139Z" fill="white"/>
<path d="M256.219 197.507C256.6 197.709 256.768 198.224 256.768 198.986V201.92C256.761 202.117 256.704 202.309 256.605 202.479C256.505 202.649 256.365 202.791 256.197 202.894C255.861 203.085 255.626 202.962 255.626 202.659V202.435C255.261 203.184 254.69 203.814 253.979 204.25C253.027 204.798 252.176 204.653 252.176 203.488C252.221 202.834 252.438 202.203 252.806 201.659C253.174 201.116 253.679 200.681 254.271 200.397C254.693 200.14 255.154 199.954 255.637 199.848V199.68C255.637 198.851 255.189 198.65 254.371 199.131C253.958 199.372 253.581 199.67 253.251 200.016L253.072 200.15C252.803 200.307 252.579 200.15 252.579 199.882C252.594 199.613 252.706 199.358 252.893 199.165C253.374 198.659 253.924 198.226 254.528 197.877C255.29 197.44 255.85 197.283 256.219 197.507ZM255.659 200.99V200.598C255.261 200.664 254.881 200.809 254.539 201.024C254.213 201.175 253.93 201.408 253.72 201.7C253.51 201.993 253.38 202.335 253.341 202.693C253.341 203.253 253.778 203.331 254.338 203.006C254.712 202.804 255.031 202.511 255.265 202.156C255.5 201.8 255.643 201.392 255.682 200.968" fill="white"/>
<path d="M262.088 193.475C262.402 193.296 262.671 193.475 262.671 193.811V198.437C262.66 198.637 262.601 198.832 262.5 199.005C262.398 199.179 262.257 199.326 262.088 199.434C261.775 199.624 261.506 199.49 261.506 199.109V198.818C261.194 199.616 260.638 200.294 259.916 200.755C258.796 201.427 258.101 200.923 258.101 199.557V196.454C258.11 196.253 258.167 196.057 258.266 195.882C258.365 195.707 258.504 195.557 258.672 195.446C259.008 195.256 259.266 195.446 259.266 195.771V198.482C259.266 199.4 259.658 199.68 260.386 199.277C260.74 199.054 261.03 198.743 261.226 198.373C261.423 198.004 261.519 197.589 261.506 197.171V194.483C261.517 194.281 261.576 194.085 261.677 193.91C261.778 193.735 261.919 193.586 262.088 193.475Z" fill="white"/>
<path d="M266.893 190.642C268.013 189.981 268.708 190.485 268.708 191.829V194.954C268.699 195.153 268.642 195.348 268.543 195.521C268.443 195.695 268.304 195.842 268.136 195.95C267.8 196.141 267.543 195.95 267.543 195.626V192.96C267.543 192.053 267.151 191.762 266.423 192.165C266.069 192.388 265.78 192.7 265.584 193.069C265.387 193.438 265.291 193.852 265.303 194.27V196.958C265.293 197.161 265.236 197.358 265.134 197.533C265.033 197.709 264.891 197.857 264.72 197.966C264.407 198.146 264.138 197.966 264.138 197.63V192.96C264.149 192.758 264.208 192.562 264.309 192.386C264.41 192.211 264.551 192.063 264.72 191.952C265.045 191.773 265.303 191.952 265.303 192.288V192.579C265.618 191.783 266.174 191.106 266.893 190.642Z" fill="white"/>
<path d="M272.482 187.416C272.732 187.225 273.025 187.098 273.336 187.048C273.646 186.997 273.965 187.023 274.263 187.125C274.341 187.125 274.442 187.248 274.442 187.472C274.437 187.66 274.386 187.843 274.292 188.005C274.198 188.168 274.065 188.304 273.904 188.402C273.799 188.462 273.677 188.485 273.557 188.469C273.376 188.389 273.177 188.358 272.981 188.379C272.784 188.401 272.596 188.474 272.437 188.592C271.994 188.894 271.63 189.298 271.374 189.769C271.119 190.241 270.98 190.766 270.97 191.302C270.97 192.344 271.597 192.814 272.493 192.299C272.957 192.005 273.342 191.601 273.613 191.123C273.695 190.991 273.806 190.88 273.938 190.798C274.218 190.63 274.442 190.798 274.442 191.09C274.44 191.274 274.381 191.454 274.274 191.605C273.84 192.391 273.201 193.045 272.426 193.498C270.914 194.371 269.794 193.654 269.794 192.008C269.838 191.082 270.105 190.181 270.573 189.381C271.041 188.582 271.696 187.907 272.482 187.416Z" fill="white"/>
<path d="M276.178 183.104C276.503 182.925 276.771 183.104 276.771 183.44V185.96C277.079 185.154 277.636 184.467 278.362 184C279.482 183.339 280.176 183.843 280.176 185.187V188.312C280.167 188.512 280.111 188.706 280.011 188.88C279.912 189.053 279.773 189.2 279.605 189.309C279.269 189.499 279.011 189.309 279.011 188.984V186.274C279.011 185.355 278.608 185.075 277.891 185.478C277.538 185.702 277.249 186.014 277.052 186.383C276.856 186.752 276.759 187.166 276.771 187.584V190.272C276.761 190.473 276.703 190.668 276.602 190.841C276.5 191.015 276.359 191.161 276.189 191.269C275.875 191.459 275.618 191.269 275.607 190.944V184.112C275.616 183.911 275.672 183.715 275.771 183.54C275.871 183.364 276.01 183.215 276.178 183.104Z" fill="white"/>
<path d="M141.61 195.805L140.255 197.485L153.123 204.966L150.424 194.886C147.568 195.736 144.58 196.047 141.61 195.805Z" fill="#660806"/>
<path d="M192.559 121.885L202.639 119.118L189.77 111.626L188.885 113.866C190.598 116.287 191.844 119.007 192.559 121.885Z" fill="#660806"/>
<path d="M175.501 139.2C175.501 138.808 175.411 138.405 175.333 138.08C175.255 137.755 175.221 137.654 175.165 137.442C175.109 137.229 175.019 136.792 174.919 136.49C174.818 136.187 174.762 136.086 174.683 135.885C174.605 135.683 174.482 135.314 174.359 135.056L174.045 134.496C173.922 134.261 173.799 134.014 173.653 133.79C173.507 133.566 173.395 133.454 173.272 133.286C173.149 133.118 172.981 132.883 172.813 132.693C172.645 132.502 172.522 132.413 172.376 132.267C172.231 132.122 172.04 131.931 171.861 131.774C171.682 131.618 171.525 131.539 171.357 131.427C168.77 129.624 165.219 129.411 161.21 131.102C161.305 131.868 161.354 132.638 161.355 133.41C161.355 134.014 161.355 134.63 161.288 135.246C161.288 135.437 161.288 135.638 161.288 135.84C161.288 136.232 161.199 136.624 161.143 137.027C161.087 137.43 160.997 137.912 160.907 138.36C160.818 138.808 160.795 138.965 160.728 139.267C160.661 139.57 160.594 139.838 160.527 140.118C160.459 140.398 160.325 140.914 160.202 141.306L160 142C159.855 142.448 159.709 142.885 159.552 143.333L159.351 143.882C159.127 144.498 158.88 145.102 158.611 145.718C158.577 145.783 158.547 145.851 158.522 145.92C158.275 146.469 158.018 147.04 157.76 147.533L157.503 148.037C157.245 148.541 156.976 149.045 156.696 149.526L156.528 149.829C156.192 150.411 155.845 150.949 155.475 151.542C155.375 151.699 155.263 151.856 155.162 152.024C154.893 152.427 154.613 152.819 154.333 153.211L153.863 153.85C153.616 154.174 153.37 154.488 153.112 154.802C152.855 155.115 152.687 155.339 152.463 155.597L151.824 156.314C151.466 156.728 151.096 157.12 150.704 157.501L149.999 158.206L149.439 158.733C149.136 159.013 148.823 159.282 148.498 159.55L147.938 160.021C147.591 160.301 147.243 160.558 146.885 160.805L146.381 161.174C145.866 161.533 145.328 161.869 144.802 162.182C144.275 162.496 143.771 162.731 143.279 162.978L142.875 163.157L142.551 163.291C143.032 167.334 144.791 170.224 147.322 171.691C147.682 171.885 148.056 172.05 148.442 172.184L148.688 172.274C148.985 172.378 149.288 172.464 149.595 172.531H149.842C150.246 172.603 150.653 172.652 151.063 172.677H151.354C151.69 172.677 152.026 172.677 152.373 172.677H152.855L153.717 172.542L154.389 172.408C154.635 172.352 154.882 172.285 155.117 172.206C155.516 172.092 155.908 171.958 156.293 171.803L157.111 171.467L157.491 171.299C157.995 171.053 158.499 170.806 159.015 170.504C159.53 170.202 160.079 169.854 160.605 169.496L161.109 169.138L161.602 168.757L162.151 168.342L162.722 167.872L163.237 167.424C163.383 167.301 163.528 167.178 163.663 167.043L164.223 166.528L164.928 165.822C165.309 165.442 165.667 165.05 166.048 164.702L166.687 163.974L167.336 163.19L168.087 162.227C168.243 162.026 168.4 161.813 168.546 161.6C168.837 161.208 169.106 160.816 169.375 160.413L169.699 159.931C170.058 159.371 170.416 158.811 170.752 158.218L170.92 157.926C171.2 157.434 171.469 156.93 171.727 156.426C171.805 156.269 171.895 156.101 171.973 155.933C172.242 155.395 172.499 154.813 172.735 154.32L172.835 154.096C173.104 153.491 173.339 152.886 173.575 152.27C173.642 152.091 173.698 151.901 173.765 151.722C173.933 151.274 174.079 150.837 174.213 150.389C174.291 150.154 174.359 149.93 174.426 149.706C174.538 149.302 174.639 148.91 174.739 148.507C174.818 148.227 174.885 147.947 174.952 147.656C175.019 147.354 175.075 147.051 175.131 146.749C175.221 146.301 175.299 145.864 175.355 145.416C175.411 145.013 175.467 144.621 175.501 144.218C175.501 144.027 175.501 143.826 175.501 143.635C175.557 143.019 175.579 142.403 175.579 141.798C175.579 141.194 175.579 140.51 175.49 139.894C175.568 139.581 175.523 139.402 175.501 139.2Z" fill="#660806"/>
<path d="M118.628 182.6L115.391 183.485L113.98 182.656L109.623 193.8L123.948 202.122L129.178 188.726L118.628 182.6Z" fill="#660806"/>
<path d="M165.746 100.594L176.464 106.821L185.469 95.5648L171.144 87.2432L163.495 96.7968L164.951 97.648L165.746 100.594Z" fill="#660806"/>
<path d="M125.482 180.73L118.628 182.6L129.178 188.726C127.447 186.321 126.193 183.607 125.482 180.73Z" fill="#660806"/>
<path d="M167.65 107.683C169.584 107.151 171.571 106.839 173.575 106.754H173.888C174.303 106.754 174.717 106.754 175.12 106.754H176.083H176.464L165.746 100.526L167.65 107.683Z" fill="#660806"/>
<path d="M125.807 158.946C125.986 158.117 126.187 157.288 126.411 156.459C126.523 156.045 126.635 155.63 126.759 155.216C127.408 152.976 128.155 150.71 128.999 148.418L114.73 140.096C114.64 140.309 114.562 140.51 114.483 140.723C114.405 140.936 114.237 141.418 114.114 141.765C113.89 142.37 113.666 142.974 113.453 143.579L113.319 143.982C113.218 144.274 113.139 144.565 113.039 144.856C112.826 145.539 112.613 146.222 112.423 146.894C112.423 147.085 112.299 147.275 112.255 147.454C112.21 147.634 112.143 147.902 112.087 148.126C111.863 148.966 111.661 149.795 111.471 150.624C111.471 150.87 111.336 151.117 111.291 151.363L111.09 152.326L125.415 160.648C125.538 160.077 125.672 159.517 125.807 158.946Z" fill="#660806"/>
<path d="M141.375 127.07C142.584 125.558 143.839 124.125 145.127 122.725L145.519 122.288C145.989 121.795 146.471 121.314 146.963 120.821L147.557 120.216C148.408 119.376 149.282 118.558 150.178 117.774L135.853 109.453C134.968 110.237 134.095 111.054 133.232 111.894L132.997 112.118C132.594 112.51 132.202 112.925 131.81 113.339L131.194 113.966C130.522 114.683 129.85 115.422 129.2 116.206C128.483 117.035 127.778 117.886 127.095 118.749L141.375 127.07Z" fill="#660806"/>
<path d="M125.426 160.648L111.101 152.326L101.032 161.197L115.357 169.518L125.426 160.648Z" fill="#660806"/>
<path d="M115.357 169.518L101.032 161.197L101.077 175.163L113.979 182.656L115.391 183.485L115.357 169.518Z" fill="#660806"/>
<path d="M152.799 104.659L138.485 96.3376L135.853 109.453L150.178 117.774L152.799 104.659Z" fill="#660806"/>
<path d="M164.951 97.648L163.495 96.7968L150.637 89.3264L138.485 96.3376L152.799 104.659L164.951 97.648Z" fill="#660806"/>
<path d="M123.78 141.082L109.455 132.76L114.741 140.096L129.055 148.418L123.78 141.082Z" fill="#660806"/>
<path d="M141.375 127.07L127.05 118.749L118.023 117.92L132.348 126.242L141.375 127.07Z" fill="#660806"/>
<path d="M132.348 126.242L118.023 117.92L109.455 132.76L123.78 141.082L132.348 126.242Z" fill="#660806"/>
<path d="M192.615 141.978L202.695 133.085V119.118L192.615 121.885C191.89 119.013 190.637 116.301 188.919 113.888L189.804 111.648L194.149 100.504L185.525 95.5872L176.565 106.843H176.184H175.221C174.818 106.843 174.404 106.843 173.989 106.843H173.676C171.672 106.929 169.684 107.241 167.751 107.773L165.847 100.683L165.052 97.7376L152.81 104.659L150.189 117.774C149.293 118.558 148.42 119.376 147.568 120.216L146.975 120.821C146.482 121.314 146 121.795 145.53 122.288L145.138 122.725C143.85 124.125 142.596 125.558 141.386 127.07L132.359 126.242L123.791 141.082L129.066 148.418C128.185 150.658 127.438 152.924 126.826 155.216C126.703 155.63 126.591 156.045 126.479 156.459C126.255 157.288 126.053 158.117 125.874 158.946C125.74 159.517 125.605 160.066 125.493 160.648L115.413 169.518V183.485L118.65 182.6L125.504 180.73C126.215 183.607 127.47 186.321 129.2 188.726L123.97 202.166L132.594 207.083L140.244 197.53L141.599 195.85C144.566 196.103 147.555 195.803 150.413 194.965L153.112 205.045L165.264 198.022L167.885 184.907C171.087 182.085 174.029 178.981 176.677 175.634L185.716 176.44L194.25 161.533L188.975 154.197C190.548 150.24 191.766 146.15 192.615 141.978ZM175.546 144.106C175.546 144.509 175.456 144.901 175.4 145.304C175.344 145.707 175.266 146.189 175.176 146.637C175.087 147.085 175.064 147.242 174.997 147.544C174.93 147.846 174.863 148.115 174.784 148.395C174.706 148.675 174.583 149.19 174.471 149.594C174.404 149.818 174.336 150.042 174.258 150.277C174.124 150.725 173.978 151.162 173.81 151.61C173.754 151.789 173.687 151.979 173.62 152.158C173.384 152.774 173.149 153.379 172.88 153.984L172.78 154.208C172.544 154.746 172.287 155.328 172.018 155.821C171.94 155.989 171.85 156.157 171.772 156.314C171.514 156.818 171.245 157.322 170.965 157.814L170.797 158.106C170.461 158.688 170.103 159.226 169.744 159.819L169.42 160.301C169.151 160.704 168.882 161.096 168.591 161.488L168.132 162.126L167.381 163.09L166.732 163.874L166.093 164.602C165.724 165.005 165.365 165.397 164.973 165.722L164.268 166.427L163.708 166.942C163.573 167.077 163.428 167.2 163.282 167.323C162.744 167.794 162.162 168.242 161.647 168.656L161.154 169.037L160.65 169.44C160.124 169.798 159.597 170.134 159.06 170.448C158.442 170.802 157.807 171.124 157.156 171.411L156.338 171.747C155.935 171.893 155.543 172.038 155.151 172.15C154.759 172.262 154.669 172.296 154.423 172.352C154.198 172.412 153.97 172.461 153.74 172.498L152.877 172.632H152.362C152.015 172.632 151.679 172.632 151.343 172.632H151.052C150.642 172.607 150.235 172.558 149.831 172.486L149.551 172.419C149.243 172.352 148.94 172.266 148.644 172.162L148.341 172.05C147.955 171.915 147.581 171.75 147.221 171.557C144.656 170.09 142.932 167.2 142.45 163.157C142.351 162.388 142.298 161.614 142.293 160.838C142.293 150.277 149.719 137.318 158.914 132.066C159.637 131.647 160.385 131.273 161.154 130.946C165.164 129.254 168.714 129.467 171.301 131.27C171.469 131.382 171.648 131.494 171.805 131.618C171.962 131.741 172.152 131.942 172.32 132.11C172.488 132.278 172.623 132.379 172.757 132.536C172.892 132.693 173.071 132.939 173.216 133.13C173.362 133.32 173.474 133.454 173.597 133.634C173.72 133.813 173.866 134.104 173.989 134.339L174.303 134.899C174.426 135.157 174.516 135.448 174.628 135.728C174.74 136.008 174.796 136.12 174.863 136.333C174.93 136.546 175.031 136.96 175.109 137.285C175.188 137.61 175.232 137.699 175.277 137.923C175.322 138.147 175.4 138.696 175.445 139.043C175.445 139.245 175.512 139.424 175.535 139.626C175.535 140.242 175.624 140.869 175.624 141.53C175.624 142.19 175.624 143.288 175.546 144.106Z" fill="white"/>
<path opacity="0.2" d="M141.61 195.805L140.255 197.485L153.123 204.966L150.424 194.886C147.568 195.736 144.58 196.047 141.61 195.805Z" fill="black"/>
<path opacity="0.2" d="M192.559 121.885L202.639 119.118L189.77 111.626L188.885 113.866C190.598 116.287 191.844 119.007 192.559 121.885Z" fill="black"/>
<path opacity="0.2" d="M175.501 139.2C175.501 138.808 175.411 138.405 175.333 138.08C175.255 137.755 175.221 137.654 175.165 137.442C175.109 137.229 175.019 136.792 174.919 136.49C174.818 136.187 174.762 136.086 174.683 135.885C174.605 135.683 174.482 135.314 174.359 135.056L174.045 134.496C173.922 134.261 173.799 134.014 173.653 133.79C173.507 133.566 173.395 133.454 173.272 133.286C173.149 133.118 172.981 132.883 172.813 132.693C172.645 132.502 172.522 132.413 172.376 132.267C172.231 132.122 172.04 131.931 171.861 131.774C171.682 131.618 171.525 131.539 171.357 131.427C168.77 129.624 165.219 129.411 161.21 131.102C161.305 131.868 161.354 132.638 161.355 133.41C161.355 134.014 161.355 134.63 161.288 135.246C161.288 135.437 161.288 135.638 161.288 135.84C161.288 136.232 161.199 136.624 161.143 137.027C161.087 137.43 160.997 137.912 160.907 138.36C160.818 138.808 160.795 138.965 160.728 139.267C160.661 139.57 160.594 139.838 160.527 140.118C160.459 140.398 160.325 140.914 160.202 141.306L160 142C159.855 142.448 159.709 142.885 159.552 143.333L159.351 143.882C159.127 144.498 158.88 145.102 158.611 145.718C158.577 145.783 158.547 145.851 158.522 145.92C158.275 146.469 158.018 147.04 157.76 147.533L157.503 148.037C157.245 148.541 156.976 149.045 156.696 149.526L156.528 149.829C156.192 150.411 155.845 150.949 155.475 151.542C155.375 151.699 155.263 151.856 155.162 152.024C154.893 152.427 154.613 152.819 154.333 153.211L153.863 153.85C153.616 154.174 153.37 154.488 153.112 154.802C152.855 155.115 152.687 155.339 152.463 155.597L151.824 156.314C151.466 156.728 151.096 157.12 150.704 157.501L149.999 158.206L149.439 158.733C149.136 159.013 148.823 159.282 148.498 159.55L147.938 160.021C147.591 160.301 147.243 160.558 146.885 160.805L146.381 161.174C145.866 161.533 145.328 161.869 144.802 162.182C144.275 162.496 143.771 162.731 143.279 162.978L142.875 163.157L142.551 163.291C143.032 167.334 144.791 170.224 147.322 171.691C147.682 171.885 148.056 172.05 148.442 172.184L148.688 172.274C148.985 172.378 149.288 172.464 149.595 172.531H149.842C150.246 172.603 150.653 172.652 151.063 172.677H151.354C151.69 172.677 152.026 172.677 152.373 172.677H152.855L153.717 172.542L154.389 172.408C154.635 172.352 154.882 172.285 155.117 172.206C155.516 172.092 155.908 171.958 156.293 171.803L157.111 171.467L157.491 171.299C157.995 171.053 158.499 170.806 159.015 170.504C159.53 170.202 160.079 169.854 160.605 169.496L161.109 169.138L161.602 168.757L162.151 168.342L162.722 167.872L163.237 167.424C163.383 167.301 163.528 167.178 163.663 167.043L164.223 166.528L164.928 165.822C165.309 165.442 165.667 165.05 166.048 164.702L166.687 163.974L167.336 163.19L168.087 162.227C168.243 162.026 168.4 161.813 168.546 161.6C168.837 161.208 169.106 160.816 169.375 160.413L169.699 159.931C170.058 159.371 170.416 158.811 170.752 158.218L170.92 157.926C171.2 157.434 171.469 156.93 171.727 156.426C171.805 156.269 171.895 156.101 171.973 155.933C172.242 155.395 172.499 154.813 172.735 154.32L172.835 154.096C173.104 153.491 173.339 152.886 173.575 152.27C173.642 152.091 173.698 151.901 173.765 151.722C173.933 151.274 174.079 150.837 174.213 150.389C174.291 150.154 174.359 149.93 174.426 149.706C174.538 149.302 174.639 148.91 174.739 148.507C174.818 148.227 174.885 147.947 174.952 147.656C175.019 147.354 175.075 147.051 175.131 146.749C175.221 146.301 175.299 145.864 175.355 145.416C175.411 145.013 175.467 144.621 175.501 144.218C175.501 144.027 175.501 143.826 175.501 143.635C175.557 143.019 175.579 142.403 175.579 141.798C175.579 141.194 175.579 140.51 175.49 139.894C175.568 139.581 175.523 139.402 175.501 139.2Z" fill="black"/>
<path opacity="0.2" d="M118.628 182.6L115.391 183.485L113.98 182.656L109.623 193.8L123.948 202.122L129.178 188.726L118.628 182.6Z" fill="black"/>
<path opacity="0.2" d="M125.482 180.73L118.628 182.6L129.178 188.726C127.447 186.321 126.193 183.607 125.482 180.73Z" fill="black"/>
<path opacity="0.2" d="M167.65 107.683C169.584 107.151 171.571 106.839 173.575 106.754H173.888C174.303 106.754 174.717 106.754 175.12 106.754H176.083H176.464L165.746 100.526L167.65 107.683Z" fill="black"/>
<path opacity="0.2" d="M125.807 158.946C125.986 158.117 126.187 157.288 126.411 156.459C126.523 156.045 126.635 155.63 126.759 155.216C127.408 152.976 128.155 150.71 128.999 148.418L114.73 140.096C114.64 140.309 114.562 140.51 114.483 140.723C114.405 140.936 114.237 141.418 114.114 141.765C113.89 142.37 113.666 142.974 113.453 143.579L113.319 143.982C113.218 144.274 113.139 144.565 113.039 144.856C112.826 145.539 112.613 146.222 112.423 146.894C112.423 147.085 112.299 147.275 112.255 147.454C112.21 147.634 112.143 147.902 112.087 148.126C111.863 148.966 111.661 149.795 111.471 150.624C111.471 150.87 111.336 151.117 111.291 151.363L111.09 152.326L125.415 160.648C125.538 160.077 125.672 159.517 125.807 158.946Z" fill="black"/>
<path opacity="0.2" d="M115.357 169.518L101.032 161.197L101.077 175.163L113.979 182.656L115.391 183.485L115.357 169.518Z" fill="black"/>
<path opacity="0.2" d="M152.799 104.659L138.485 96.3376L135.853 109.453L150.178 117.774L152.799 104.659Z" fill="black"/>
<path opacity="0.2" d="M123.78 141.082L109.455 132.76L114.741 140.096L129.055 148.418L123.78 141.082Z" fill="black"/>
<path opacity="0.2" d="M141.375 127.07L127.05 118.749L118.023 117.92L132.348 126.242L141.375 127.07Z" fill="black"/>
<path opacity="0.2" d="M165.746 100.594L176.464 106.821L185.469 95.5648L171.144 87.2432L163.495 96.7968L164.951 97.648L165.746 100.594Z" fill="white"/>
<path opacity="0.2" d="M141.375 127.07C142.584 125.558 143.839 124.125 145.127 122.725L145.519 122.288C145.989 121.795 146.471 121.314 146.963 120.821L147.557 120.216C148.408 119.376 149.282 118.558 150.178 117.774L135.853 109.453C134.968 110.237 134.095 111.054 133.232 111.894L132.997 112.118C132.594 112.51 132.202 112.925 131.81 113.339L131.194 113.966C130.522 114.683 129.85 115.422 129.2 116.206C128.483 117.035 127.778 117.886 127.095 118.749L141.375 127.07Z" fill="white"/>
<path opacity="0.2" d="M125.426 160.648L111.101 152.326L101.032 161.197L115.357 169.518L125.426 160.648Z" fill="white"/>
<path opacity="0.2" d="M164.951 97.648L163.495 96.7968L150.637 89.3264L138.485 96.3376L152.799 104.659L164.951 97.648Z" fill="white"/>
<path opacity="0.2" d="M132.348 126.242L118.023 117.92L109.455 132.76L123.78 141.082L132.348 126.242Z" fill="white"/>
<path d="M247.002 73.9712C247.259 73.8144 247.517 73.904 247.562 74.1952C247.582 74.362 247.564 74.5312 247.51 74.6901C247.455 74.8491 247.366 74.9939 247.248 75.1136L244.135 79.0336L247.696 77.8576C247.92 77.7904 248.144 77.7904 248.189 78.1152C248.21 78.3094 248.179 78.5056 248.101 78.6844C248.022 78.8632 247.898 79.0183 247.741 79.1344H247.663C247.597 79.1773 247.525 79.2113 247.45 79.2352L243.328 80.4112C243.015 80.5008 242.768 80.4112 242.723 80.1088V80.0528C242.713 79.8487 242.743 79.6445 242.812 79.4521C242.881 79.2598 242.988 79.0832 243.127 78.9328L246.666 74.2288C246.745 74.122 246.839 74.0276 246.946 73.9488L247.002 73.9712Z" fill="white"/>
<path d="M246.89 70.432C246.981 71.2791 246.854 72.1355 246.521 72.9196C246.187 73.7038 245.659 74.3896 244.986 74.912C244.947 74.9526 244.901 74.9866 244.851 75.0128C244.594 75.1584 244.381 75.0912 244.325 74.8224L243.608 71.664C243.264 71.9774 243 72.3688 242.838 72.8053C242.677 73.2418 242.622 73.7108 242.679 74.1728C242.703 74.3645 242.783 74.5449 242.908 74.692C243.034 74.8392 243.199 74.9467 243.384 75.0016C243.474 75.0016 243.519 75.08 243.552 75.2144C243.569 75.3733 243.545 75.5339 243.482 75.6808C243.419 75.8278 243.32 75.9563 243.194 76.0544L243.093 76.1328C243.009 76.1839 242.911 76.2074 242.813 76.2C242.526 76.1226 242.27 75.9584 242.079 75.7299C241.889 75.5014 241.773 75.2197 241.749 74.9232C241.667 73.893 241.871 72.8602 242.34 71.939C242.808 71.0179 243.523 70.2443 244.403 69.704C245.523 68.976 246.565 69.2 246.89 70.432ZM244.941 73.568C245.291 73.2844 245.566 72.9202 245.744 72.5065C245.921 72.0929 245.996 71.6423 245.96 71.1936C245.815 70.544 245.266 70.4432 244.56 70.8576L244.359 70.9696L244.941 73.568Z" fill="white"/>
</svg>
