<svg width="80" height="43" viewBox="0 0 80 43" fill="none" xmlns="http://www.w3.org/2000/svg">
<path d="M19.5924 3.6944C23.994 1.152 27.7124 2.3952 28.8884 6.3376C29.9549 4.16861 31.6028 2.33846 33.6484 1.0512C37.0868 -0.942401 39.898 0.659202 39.9092 4.624V6.4384L44.546 3.7728C46.954 2.3728 48.9252 3.4928 48.9252 6.2704C48.8471 7.7834 48.4116 9.25636 47.6543 10.5685C46.8969 11.8807 45.8394 12.9947 44.5684 13.8192L5.36843 36.4544C2.96043 37.8544 0.989227 36.7344 0.978027 33.9568C1.05916 32.4432 1.49718 30.9703 2.25632 29.6583C3.01547 28.3464 4.0742 27.2326 5.34603 26.408L9.97163 23.7312V20.3712C9.93803 14.2 14.25 6.7744 19.5924 3.6944Z" fill="#E6E6E6"/>
<path d="M58.0197 18.5232C61.1781 16.6976 63.8437 17.5936 64.7397 20.4272C65.4872 18.8754 66.6503 17.5611 68.0997 16.6304C70.5749 15.1968 72.5797 16.3504 72.5797 19.184V20.4944L75.9397 18.5792C77.6645 17.5712 79.0756 18.3776 79.0868 20.3712C79.027 21.4577 78.7119 22.5147 78.167 23.4566C77.6221 24.3984 76.8629 25.1985 75.9508 25.792L47.8053 42.0432C46.0693 43.04 44.6581 42.2336 44.6469 40.2512C44.7067 39.1632 45.0218 38.1046 45.5666 37.161C46.1114 36.2173 46.8706 35.4151 47.7829 34.8192L51.1429 32.904V30.5072C51.2616 28.1086 51.9466 25.7722 53.1419 23.6893C54.3372 21.6063 56.0087 19.836 58.0197 18.5232Z" fill="#E6E6E6"/>
</svg>
