<svg width="78" height="115" viewBox="0 0 78 115" fill="none" xmlns="http://www.w3.org/2000/svg">
<path d="M50.7799 97.0608C43.7127 92.9728 32.2775 92.9728 25.2439 97.0608C18.2103 101.149 18.2551 107.768 25.3335 111.856C32.4119 115.944 43.8359 115.933 50.8695 111.856C57.9031 107.779 57.8583 101.16 50.7799 97.0608Z" fill="#E6E6E6" fill-opacity="0.5"/>
<path d="M55.1811 73.552L38.0563 74.056L20.9203 73.552C20.1923 85.1216 22.4435 96.9152 25.5571 102.672C26.2875 104.146 27.4629 105.353 28.9171 106.122C33.9683 109.034 42.1443 109.034 47.1619 106.122C48.6387 105.341 49.819 104.098 50.5219 102.582C53.6915 96.792 55.9203 85.0656 55.1811 73.552Z" fill="white"/>
<path d="M50.1299 66.5408C56.8499 70.416 56.8499 76.6992 50.2083 80.5744C43.5667 84.4496 32.6915 84.4496 25.9827 80.5744C19.2739 76.6992 19.2627 70.416 25.9043 66.5408C32.5459 62.6656 43.4099 62.6656 50.1299 66.5408Z" fill="#EBEBEB"/>
<path d="M47.4757 68.0752C52.7061 71.0992 52.7396 76.0048 47.5316 79.0288C42.3236 82.0528 33.8676 82.0528 28.6372 79.0288C23.4068 76.0048 23.3733 71.0992 28.5701 68.0752C33.7669 65.0512 42.2901 65.0512 47.4757 68.0752Z" fill="white"/>
<g opacity="0.15">
<path opacity="0.15" d="M47.4757 68.0752C52.7061 71.0992 52.7396 76.0048 47.5316 79.0288C42.3236 82.0528 33.8676 82.0528 28.6372 79.0288C23.4068 76.0048 23.3733 71.0992 28.5701 68.0752C33.7669 65.0512 42.2901 65.0512 47.4757 68.0752Z" fill="black"/>
</g>
<path d="M66.2244 0.44957C27.618 13.0944 27.2708 38.9216 35.9844 57.312C38.2244 61.0304 44.8212 63.0352 50.5444 40.1648L40.4644 41.464L52.2804 35.472L55.3492 26.2992L45.4932 27.0272L57.97 21.7744C60.2773 14.5021 63.0341 7.38008 66.2244 0.44957Z" fill="#930309"/>
<path opacity="0.2" d="M66.2244 0.44957C27.618 13.0944 27.2708 38.9216 35.9844 57.312C38.2244 61.0304 44.8212 63.0352 50.5444 40.1648L40.4644 41.464L52.2804 35.472L55.3492 26.2992L45.4932 27.0272L57.97 21.7744C60.2773 14.5021 63.0341 7.38008 66.2244 0.44957Z" fill="black"/>
<path opacity="0.2" d="M66.2244 0.44957C27.618 13.0944 27.2708 38.9216 35.9844 57.312C38.2244 61.0304 44.8212 63.0352 50.5444 40.1648L40.4644 41.464L52.2804 35.472L55.3492 26.2992L45.4932 27.0272L57.97 21.7744C60.2773 14.5021 63.0341 7.38008 66.2244 0.44957Z" fill="white"/>
<path d="M55.3044 6.912C34.9429 22.368 33.1061 40.0752 38.8629 58.5664C36.8245 42.2928 34.6293 25.8176 55.3044 6.912Z" fill="white"/>
<path d="M0.850098 26.6912C38.9301 32.0448 43.5109 56.0464 38.4709 74.616C37.0373 78.4464 31.1909 81.4144 22.0069 61.0752L31.6613 60.5936L19.6661 56.9872L15.2757 48.9456L24.5717 47.9936L12.0501 45.16C8.70141 38.7785 4.96092 32.6105 0.850098 26.6912Z" fill="#930309"/>
<path opacity="0.2" d="M0.850098 26.6912C38.9301 32.0448 43.5109 56.0464 38.4709 74.616C37.0373 78.4464 31.1909 81.4144 22.0069 61.0752L31.6613 60.5936L19.6661 56.9872L15.2757 48.9456L24.5717 47.9936L12.0501 45.16C8.70141 38.7785 4.96092 32.6105 0.850098 26.6912Z" fill="white"/>
<path opacity="0.1" d="M0.850098 26.6912C38.9301 32.0448 43.5109 56.0464 38.4709 74.616C37.0373 78.4464 31.1909 81.4144 22.0069 61.0752L31.6613 60.5936L19.6661 56.9872L15.2757 48.9456L24.5717 47.9936L12.0501 45.16C8.70141 38.7785 4.96092 32.6105 0.850098 26.6912Z" fill="black"/>
<path d="M12.0503 30.8912C33.5767 41.9008 38.2359 58.0848 35.9511 76.2736C35.1671 60.7616 34.4503 45.0704 12.0503 30.8912Z" fill="white"/>
<path d="M77.3572 35.6848C42.458 36.256 35.6148 57.3568 38.09 74.672C38.9412 78.2784 43.8916 81.6048 54.442 64.3008L45.7844 62.7888L56.9844 60.8736L61.834 54.1536L53.5684 52.2496L65.1604 51.1296C68.9023 45.7337 72.9757 40.5756 77.3572 35.6848Z" fill="#930309"/>
<path d="M66.7509 38.2048C46.1205 45.72 40.1173 59.7984 40.1397 76.4304C42.6037 62.5536 44.9781 48.52 66.7509 38.2048Z" fill="white"/>
<path opacity="0.2" d="M77.3572 35.6848C42.458 36.256 35.6148 57.3568 38.09 74.672C38.9412 78.2784 43.8916 81.6048 54.442 64.3008L45.7844 62.7888L56.9844 60.8736L61.834 54.1536L53.5684 52.2496L65.1604 51.1296C68.9023 45.7337 72.9757 40.5756 77.3572 35.6848Z" fill="white"/>
</svg>
