<svg width="455" height="206" viewBox="0 0 455 206" fill="none" xmlns="http://www.w3.org/2000/svg">
<path d="M438.786 138.485L439.324 139.157L434.216 142.125L435.28 138.138C436.417 138.472 437.606 138.59 438.786 138.485Z" fill="white"/>
<path d="M418.547 109.152L414.549 108.032L419.668 105.053L420.015 105.96C419.334 106.925 418.837 108.007 418.547 109.152Z" fill="white"/>
<path d="M425.324 116.018C425.335 115.863 425.357 115.71 425.391 115.558C425.406 115.475 425.429 115.392 425.458 115.312C425.481 115.184 425.511 115.056 425.548 114.931L425.648 114.685C425.648 114.584 425.727 114.461 425.772 114.36C425.817 114.288 425.858 114.213 425.895 114.136L426.052 113.856L426.208 113.654L426.388 113.419L426.567 113.251C426.628 113.182 426.696 113.118 426.768 113.061C426.824 113.005 426.903 112.971 426.97 112.915C427.573 112.551 428.26 112.348 428.964 112.326C429.668 112.305 430.366 112.465 430.991 112.792C430.973 113.098 430.973 113.405 430.991 113.71C430.991 113.946 430.991 114.192 430.991 114.438V114.674C430.991 114.83 430.991 114.987 431.047 115.144C431.103 115.301 431.103 115.491 431.136 115.67L431.204 116.029C431.204 116.141 431.26 116.253 431.282 116.376L431.416 116.846C431.416 116.936 431.416 117.026 431.495 117.115C431.573 117.205 431.607 117.474 431.674 117.642C431.741 117.81 431.73 117.787 431.752 117.866C431.842 118.112 431.943 118.347 432.044 118.594C432.04 118.62 432.04 118.646 432.044 118.672C432.133 118.885 432.234 119.098 432.335 119.31L432.447 119.512C432.548 119.714 432.648 119.915 432.76 120.106L432.828 120.229C432.962 120.453 433.096 120.677 433.242 120.901L433.376 121.091L433.701 121.573C433.757 121.651 433.824 121.73 433.88 121.819L434.183 122.2L434.44 122.514L434.698 122.805L435.135 123.264L435.415 123.544C435.484 123.621 435.559 123.692 435.639 123.757L436.008 124.082L436.232 124.272L436.647 124.586L436.848 124.731L437.476 125.123C437.688 125.246 437.89 125.347 438.08 125.437L438.237 125.515H438.371C438.348 126.186 438.164 126.841 437.835 127.426C437.505 128.011 437.04 128.508 436.479 128.875C436.342 128.954 436.2 129.021 436.053 129.077H435.952L435.65 129.2H435.549C435.39 129.23 435.229 129.248 435.068 129.256H434.53H434.339L433.992 129.2H433.735L433.444 129.122L432.984 128.954L432.659 128.83L432.503 128.752C432.294 128.661 432.092 128.556 431.898 128.438L431.17 128.08L430.968 127.934L430.767 127.778L430.554 127.621L430.33 127.43L430.117 127.251L429.949 127.106L429.725 126.893L429.445 126.613L429.008 126.154L428.762 125.862L428.504 125.549L428.202 125.168L428.023 124.91C427.911 124.765 427.81 124.597 427.698 124.44C427.653 124.379 427.612 124.316 427.575 124.25C427.429 124.026 427.284 123.802 427.16 123.578L427.093 123.454C426.981 123.264 426.869 123.062 426.768 122.861L426.668 122.659L426.365 122.021V121.942C426.253 121.696 426.164 121.45 426.074 121.214C426.043 121.142 426.017 121.067 425.996 120.99C425.928 120.822 425.872 120.643 425.816 120.464C425.816 120.374 425.76 120.285 425.727 120.195C425.693 120.106 425.648 119.882 425.604 119.714C425.604 119.602 425.604 119.49 425.525 119.378C425.525 119.254 425.525 119.142 425.447 119.019C425.447 118.84 425.38 118.672 425.357 118.493C425.357 118.336 425.357 118.179 425.301 118.011C425.245 117.843 425.301 117.866 425.301 117.787C425.301 117.541 425.301 117.294 425.301 117.059C425.301 116.824 425.301 116.544 425.301 116.298C425.301 116.204 425.308 116.11 425.324 116.018Z" fill="white"/>
<path d="M447.891 133.254L449.179 133.602L449.739 133.266L451.464 137.69L445.786 140.994L443.703 135.685L447.891 133.254Z" fill="white"/>
<path d="M429.199 100.696L424.943 103.171L421.37 98.7024L427.048 95.3984L430.083 99.1952L429.501 99.5312L429.199 100.696Z" fill="white"/>
<path d="M445.17 132.56L447.891 133.31L443.703 135.741C444.392 134.785 444.89 133.705 445.17 132.56Z" fill="white"/>
<path d="M428.437 103.518C427.67 103.303 426.881 103.179 426.085 103.149H424.965L429.221 100.674L428.437 103.518Z" fill="white"/>
<path d="M445.047 123.858C444.968 123.533 444.89 123.197 444.8 122.872L444.666 122.379C444.405 121.465 444.099 120.564 443.748 119.68L449.437 116.376L449.538 116.622C449.538 116.768 449.628 116.902 449.684 117.037C449.74 117.171 449.863 117.518 449.941 117.765C449.941 117.765 449.941 117.866 449.997 117.922C450.053 117.978 450.064 118.157 450.109 118.269C450.154 118.381 450.277 118.806 450.356 119.075L450.423 119.299L450.49 119.568C450.58 119.893 450.658 120.229 450.725 120.554C450.725 120.654 450.781 120.755 450.804 120.845C450.826 120.934 450.86 121.102 450.882 121.237L445.192 124.597C445.148 124.306 445.092 124.082 445.047 123.858Z" fill="white"/>
<path d="M438.864 111.213C438.383 110.608 437.89 110.037 437.375 109.488L437.218 109.309L436.647 108.726L436.411 108.491C436.075 108.155 435.728 107.83 435.37 107.517L441.059 104.213C441.403 104.526 441.75 104.851 442.101 105.187C442.128 105.22 442.158 105.25 442.191 105.277L442.661 105.758L442.908 106.005L443.691 106.878C443.971 107.203 444.252 107.539 444.52 107.886L438.864 111.213Z" fill="white"/>
<path d="M445.192 124.541L450.882 121.237L454.88 124.754L449.191 128.058L445.192 124.541Z" fill="white"/>
<path d="M449.191 128.058L454.88 124.754L454.858 130.298L449.739 133.266L449.179 133.602L449.191 128.058Z" fill="white"/>
<path d="M434.328 102.32L440.018 99.016L441.059 104.213L435.37 107.517L434.328 102.32Z" fill="white"/>
<path d="M429.501 99.5312L430.083 99.1952L435.191 96.2272L440.018 99.016L434.328 102.32L429.501 99.5312Z" fill="white"/>
<path d="M445.853 116.768L451.531 113.464L449.437 116.376L443.759 119.68L445.853 116.768Z" fill="white"/>
<path d="M438.864 111.213L444.543 107.909L448.138 107.573L442.448 110.877L438.864 111.213Z" fill="white"/>
<path d="M442.448 110.877L448.138 107.573L451.532 113.464L445.853 116.768L442.448 110.877Z" fill="white"/>
<path d="M419.97 121.976L417.876 124.888L421.236 130.779L424.831 130.454C425.884 131.78 427.049 133.013 428.314 134.139L429.356 139.336L434.183 142.125L435.247 138.138C436.383 138.472 437.572 138.59 438.752 138.485L439.29 139.157L442.325 142.942L445.752 140.994L443.669 135.685C444.364 134.748 444.873 133.688 445.17 132.56L447.892 133.31L449.179 133.658V128.058L445.181 124.541C445.181 124.306 445.08 124.082 445.036 123.858C444.991 123.634 444.879 123.197 444.789 122.872L444.655 122.379C444.394 121.465 444.087 120.564 443.736 119.68L445.842 116.768L442.482 110.877L438.898 111.213C438.416 110.608 437.924 110.037 437.408 109.488L437.252 109.309L436.68 108.726L436.445 108.491C436.109 108.155 435.762 107.83 435.404 107.517L434.362 102.32L429.535 99.5312L429.232 100.651L428.471 103.474C427.704 103.258 426.915 103.134 426.119 103.104H424.999L421.426 98.624L417.999 100.573L419.724 105.053L420.071 105.96C419.393 106.918 418.895 107.992 418.604 109.13L414.605 108.01V113.554L418.604 117.082C418.917 118.749 419.375 120.387 419.97 121.976ZM425.245 117.014C425.245 116.746 425.245 116.499 425.245 116.253C425.24 116.175 425.24 116.096 425.245 116.018C425.257 115.863 425.279 115.71 425.312 115.558C425.328 115.475 425.35 115.392 425.379 115.312C425.403 115.184 425.433 115.057 425.469 114.931L425.57 114.685C425.57 114.584 425.648 114.461 425.693 114.36C425.738 114.288 425.78 114.213 425.816 114.136L425.973 113.856L426.13 113.654L426.309 113.419L426.488 113.251C426.55 113.182 426.617 113.118 426.69 113.061C426.746 113.005 426.824 112.971 426.892 112.915C427.495 112.551 428.181 112.348 428.886 112.326C429.59 112.305 430.288 112.465 430.912 112.792C431.221 112.917 431.52 113.063 431.808 113.229C433.728 114.478 435.326 116.163 436.472 118.146C437.619 120.129 438.281 122.354 438.405 124.642C438.405 124.966 438.405 125.269 438.338 125.56C438.315 126.231 438.131 126.886 437.801 127.471C437.472 128.056 437.007 128.553 436.445 128.92C436.309 128.998 436.166 129.066 436.019 129.122H435.896L435.65 129.2H435.538C435.379 129.23 435.218 129.248 435.056 129.256H434.53H434.328L433.981 129.2H433.712L433.421 129.122L432.962 128.954L432.637 128.83C432.377 128.713 432.122 128.582 431.876 128.438L431.17 128.08L430.968 127.934L430.767 127.778C430.554 127.621 430.33 127.442 430.117 127.251L429.949 127.106L429.725 126.893L429.445 126.613L429.008 126.154L428.762 125.862L428.504 125.549L428.202 125.168L428.012 124.91C427.9 124.765 427.799 124.597 427.687 124.44C427.642 124.379 427.601 124.316 427.564 124.25C427.418 124.026 427.272 123.802 427.149 123.578L427.082 123.454C426.97 123.264 426.858 123.062 426.757 122.861L426.656 122.659L426.354 122.021V121.942C426.242 121.696 426.152 121.45 426.063 121.214C426.032 121.142 426.005 121.067 425.984 120.99C425.917 120.822 425.861 120.643 425.805 120.464C425.749 120.285 425.749 120.285 425.716 120.195C425.682 120.106 425.637 119.882 425.592 119.714C425.547 119.546 425.592 119.49 425.514 119.378C425.436 119.266 425.514 119.142 425.436 119.019C425.357 118.896 425.368 118.672 425.346 118.493C425.323 118.314 425.346 118.179 425.29 118.011C425.257 117.68 425.242 117.347 425.245 117.014Z" fill="white"/>
<path opacity="0.2" d="M438.786 138.485L439.324 139.157L434.216 142.125L435.28 138.138C436.417 138.472 437.606 138.59 438.786 138.485Z" fill="#660806"/>
<path opacity="0.2" d="M418.547 109.152L414.549 108.032L419.668 105.053L420.015 105.96C419.334 106.925 418.837 108.007 418.547 109.152Z" fill="#660806"/>
<path opacity="0.2" d="M425.324 116.018C425.335 115.863 425.357 115.71 425.391 115.558C425.406 115.475 425.429 115.392 425.458 115.312C425.481 115.184 425.511 115.056 425.548 114.931L425.648 114.685C425.648 114.584 425.727 114.461 425.772 114.36C425.817 114.288 425.858 114.213 425.895 114.136L426.052 113.856L426.208 113.654L426.388 113.419L426.567 113.251C426.628 113.182 426.696 113.118 426.768 113.061C426.824 113.005 426.903 112.971 426.97 112.915C427.573 112.551 428.26 112.348 428.964 112.326C429.668 112.305 430.366 112.465 430.991 112.792C430.973 113.098 430.973 113.405 430.991 113.71C430.991 113.946 430.991 114.192 430.991 114.438V114.674C430.991 114.83 430.991 114.987 431.047 115.144C431.103 115.301 431.103 115.491 431.136 115.67L431.204 116.029C431.204 116.141 431.26 116.253 431.282 116.376L431.416 116.846C431.416 116.936 431.416 117.026 431.495 117.115C431.573 117.205 431.607 117.474 431.674 117.642C431.741 117.81 431.73 117.787 431.752 117.866C431.842 118.112 431.943 118.347 432.044 118.594C432.04 118.62 432.04 118.646 432.044 118.672C432.133 118.885 432.234 119.098 432.335 119.31L432.447 119.512C432.548 119.714 432.648 119.915 432.76 120.106L432.828 120.229C432.962 120.453 433.096 120.677 433.242 120.901L433.376 121.091L433.701 121.573C433.757 121.651 433.824 121.73 433.88 121.819L434.183 122.2L434.44 122.514L434.698 122.805L435.135 123.264L435.415 123.544C435.484 123.621 435.559 123.692 435.639 123.757L436.008 124.082L436.232 124.272L436.647 124.586L436.848 124.731L437.476 125.123C437.688 125.246 437.89 125.347 438.08 125.437L438.237 125.515H438.371C438.348 126.186 438.164 126.841 437.835 127.426C437.505 128.011 437.04 128.508 436.479 128.875C436.342 128.954 436.2 129.021 436.053 129.077H435.952L435.65 129.2H435.549C435.39 129.23 435.229 129.248 435.068 129.256H434.53H434.339L433.992 129.2H433.735L433.444 129.122L432.984 128.954L432.659 128.83L432.503 128.752C432.294 128.661 432.092 128.556 431.898 128.438L431.17 128.08L430.968 127.934L430.767 127.778L430.554 127.621L430.33 127.43L430.117 127.251L429.949 127.106L429.725 126.893L429.445 126.613L429.008 126.154L428.762 125.862L428.504 125.549L428.202 125.168L428.023 124.91C427.911 124.765 427.81 124.597 427.698 124.44C427.653 124.379 427.612 124.316 427.575 124.25C427.429 124.026 427.284 123.802 427.16 123.578L427.093 123.454C426.981 123.264 426.869 123.062 426.768 122.861L426.668 122.659L426.365 122.021V121.942C426.253 121.696 426.164 121.45 426.074 121.214C426.043 121.142 426.017 121.067 425.996 120.99C425.928 120.822 425.872 120.643 425.816 120.464C425.816 120.374 425.76 120.285 425.727 120.195C425.693 120.106 425.648 119.882 425.604 119.714C425.604 119.602 425.604 119.49 425.525 119.378C425.525 119.254 425.525 119.142 425.447 119.019C425.447 118.84 425.38 118.672 425.357 118.493C425.357 118.336 425.357 118.179 425.301 118.011C425.245 117.843 425.301 117.866 425.301 117.787C425.301 117.541 425.301 117.294 425.301 117.059C425.301 116.824 425.301 116.544 425.301 116.298C425.301 116.204 425.308 116.11 425.324 116.018Z" fill="#660806"/>
<path opacity="0.2" d="M447.891 133.254L449.179 133.602L449.739 133.266L451.464 137.69L445.786 140.994L443.703 135.685L447.891 133.254Z" fill="#660806"/>
<path opacity="0.2" d="M445.17 132.56L447.891 133.31L443.703 135.741C444.392 134.785 444.89 133.705 445.17 132.56Z" fill="#660806"/>
<path opacity="0.2" d="M428.437 103.518C427.67 103.303 426.881 103.179 426.085 103.149H424.965L429.221 100.674L428.437 103.518Z" fill="#660806"/>
<path opacity="0.2" d="M445.047 123.858C444.968 123.533 444.89 123.197 444.8 122.872L444.666 122.379C444.405 121.465 444.099 120.564 443.748 119.68L449.437 116.376L449.538 116.622C449.538 116.768 449.628 116.902 449.684 117.037C449.74 117.171 449.863 117.518 449.941 117.765C449.941 117.765 449.941 117.866 449.997 117.922C450.053 117.978 450.064 118.157 450.109 118.269C450.154 118.381 450.277 118.806 450.356 119.075L450.423 119.299L450.49 119.568C450.58 119.893 450.658 120.229 450.725 120.554C450.725 120.654 450.781 120.755 450.804 120.845C450.826 120.934 450.86 121.102 450.882 121.237L445.192 124.597C445.148 124.306 445.092 124.082 445.047 123.858Z" fill="#660806"/>
<path opacity="0.2" d="M449.191 128.058L454.88 124.754L454.858 130.298L449.739 133.266L449.179 133.602L449.191 128.058Z" fill="#660806"/>
<path opacity="0.2" d="M434.328 102.32L440.018 99.016L441.059 104.213L435.37 107.517L434.328 102.32Z" fill="#660806"/>
<path opacity="0.2" d="M445.853 116.768L451.531 113.464L449.437 116.376L443.759 119.68L445.853 116.768Z" fill="#660806"/>
<path opacity="0.2" d="M438.864 111.213L444.543 107.909L448.138 107.573L442.448 110.877L438.864 111.213Z" fill="#660806"/>
<path opacity="0.2" d="M429.199 100.696L424.943 103.171L421.37 98.7024L427.048 95.3984L430.083 99.1952L429.501 99.5312L429.199 100.696Z" fill="#3F0706"/>
<path opacity="0.2" d="M438.864 111.213C438.383 110.608 437.89 110.037 437.375 109.488L437.218 109.309L436.647 108.726L436.411 108.491C436.075 108.155 435.728 107.83 435.37 107.517L441.059 104.213C441.403 104.526 441.75 104.851 442.101 105.187C442.128 105.22 442.158 105.25 442.191 105.277L442.661 105.758L442.908 106.005L443.691 106.878C443.971 107.203 444.252 107.539 444.52 107.886L438.864 111.213Z" fill="#3F0706"/>
<path opacity="0.2" d="M445.192 124.541L450.882 121.237L454.88 124.754L449.191 128.058L445.192 124.541Z" fill="#3F0706"/>
<path opacity="0.2" d="M429.501 99.5312L430.083 99.1952L435.191 96.2272L440.018 99.016L434.328 102.32L429.501 99.5312Z" fill="#3F0706"/>
<path opacity="0.2" d="M442.448 110.877L448.138 107.573L451.532 113.464L445.853 116.768L442.448 110.877Z" fill="#3F0706"/>
<path d="M400.93 98.8256L401.3 99.3072L397.693 101.402L398.444 98.5792C399.25 98.8161 400.093 98.8996 400.93 98.8256Z" fill="white"/>
<path d="M386.572 78.072L383.749 77.2992L387.367 75.1936L387.613 75.832C387.132 76.5087 386.779 77.2679 386.572 78.072Z" fill="white"/>
<path d="M391.365 82.9328C391.359 82.8246 391.359 82.7162 391.365 82.608C391.365 82.552 391.365 82.496 391.365 82.4288C391.386 82.3378 391.412 82.248 391.444 82.16C391.461 82.1022 391.484 82.046 391.511 81.992C391.536 81.9118 391.566 81.8333 391.6 81.7568C391.6 81.7568 391.656 81.656 391.679 81.6L391.791 81.4096C391.825 81.359 391.863 81.3104 391.903 81.264L392.026 81.096L392.149 80.9728L392.295 80.8384L392.44 80.7376C392.867 80.4795 393.353 80.3356 393.851 80.3199C394.349 80.3042 394.843 80.4172 395.285 80.648C395.274 80.8644 395.274 81.0812 395.285 81.2976C395.274 81.4692 395.274 81.6413 395.285 81.8128C395.285 81.8688 395.285 81.9248 395.285 81.9808V82.3168L395.352 82.6864C395.352 82.776 395.352 82.8544 395.408 82.944C395.422 83.0236 395.44 83.1022 395.464 83.1792C395.464 83.2912 395.464 83.4032 395.554 83.5152C395.566 83.5805 395.585 83.6443 395.61 83.7056C395.61 83.84 395.688 83.9632 395.733 84.0864C395.739 84.1385 395.739 84.1911 395.733 84.2432C395.8 84.4112 395.868 84.5792 395.946 84.7472V84.8144L396.159 85.2624C396.18 85.3132 396.207 85.3619 396.237 85.408L396.461 85.8224C396.461 85.8224 396.461 85.8224 396.461 85.912L396.752 86.3936C396.786 86.4357 396.816 86.4807 396.842 86.528L397.077 86.864L397.212 87.032L397.424 87.3008C397.478 87.3802 397.538 87.4552 397.604 87.5248L397.783 87.7264C397.881 87.8437 397.986 87.9558 398.096 88.0624L398.287 88.264C398.344 88.3066 398.397 88.3554 398.444 88.4096L398.712 88.6336L398.869 88.768L399.16 88.992L399.306 89.0928C399.448 89.1966 399.598 89.2901 399.754 89.3728C399.891 89.4562 400.033 89.531 400.18 89.5968L400.292 89.6528H400.381C400.361 90.1239 400.23 90.5835 399.998 90.9942C399.767 91.4049 399.441 91.7551 399.048 92.016C398.957 92.072 398.859 92.1171 398.757 92.1504H398.679C398.595 92.1793 398.509 92.2018 398.421 92.2176H398.354H398.018H397.503H397.256H397.066H396.864L396.528 92.1056L396.304 92.016H396.192L395.767 91.792L395.319 91.512L395.173 91.4112L395.039 91.2992L394.882 91.1872L394.725 91.0528L394.58 90.9296L394.456 90.8176L394.3 90.672C394.231 90.6142 394.167 90.5505 394.109 90.4816L393.796 90.1456L393.616 89.944L393.437 89.72L393.224 89.4512L393.09 89.272V88.88L393 88.7456C392.9 88.5888 392.799 88.432 392.709 88.264V88.1856C392.631 88.0512 392.552 87.9056 392.485 87.76C392.455 87.7177 392.429 87.6727 392.407 87.6256L392.194 87.1776C392.116 87.0096 392.048 86.8416 391.981 86.6624C391.966 86.609 391.947 86.5567 391.925 86.5056C391.925 86.3824 391.847 86.2592 391.802 86.136C391.798 86.0726 391.798 86.009 391.802 85.9456C391.802 85.8336 391.735 85.7216 391.712 85.6096C391.688 85.5326 391.67 85.454 391.656 85.3744C391.656 85.2848 391.656 85.1952 391.656 85.1168L391.589 84.736V84.4C391.589 84.4 391.589 84.2992 391.589 84.2432C391.589 84.1872 391.589 83.896 391.589 83.728C391.589 83.56 391.589 83.3584 391.589 83.1904C391.498 83.1203 391.422 83.0327 391.365 82.9328Z" fill="white"/>
<path d="M407.336 95.1184L408.243 95.3648L408.635 95.1408L409.856 98.2656L405.835 100.606L404.368 96.8432L407.336 95.1184Z" fill="white"/>
<path d="M394.109 72.0912L391.096 73.8384L388.565 70.68L392.586 68.3504L394.736 71.0272L394.322 71.2736L394.109 72.0912Z" fill="white"/>
<path d="M405.41 94.6032L407.336 95.1184L404.368 96.8432C404.854 96.1691 405.207 95.409 405.41 94.6032Z" fill="white"/>
<path d="M393.571 74.0848C393.027 73.9369 392.467 73.8505 391.903 73.8272H391.096L394.109 72.0688L393.571 74.0848Z" fill="white"/>
<path d="M405.32 88.4768L405.152 87.7824L405.051 87.4352C404.87 86.7854 404.653 86.146 404.402 85.52L408.423 83.1904L408.49 83.3696C408.534 83.4639 408.571 83.5612 408.602 83.6608L408.781 84.1648V84.2768L408.848 84.5232C408.915 84.7136 408.971 84.904 409.027 85.0944C409.083 85.2848 409.027 85.2064 409.027 85.2512C409.027 85.296 409.027 85.3856 409.083 85.4416L409.251 86.1472C409.251 86.2144 409.251 86.2816 409.251 86.3488C409.276 86.4372 409.294 86.5269 409.307 86.6176L405.41 88.9584C405.41 88.8016 405.41 88.6448 405.32 88.4768Z" fill="white"/>
<path d="M400.93 79.528C400.594 79.1024 400.247 78.6992 399.888 78.3072C399.845 78.2717 399.807 78.2302 399.776 78.184L399.373 77.7808L399.205 77.6128C398.959 77.3664 398.712 77.1424 398.466 76.9184L402.487 74.5888C402.733 74.8016 402.979 75.0368 403.226 75.272L403.293 75.328L403.618 75.6752L403.797 75.8544L404.357 76.4704C404.559 76.7056 404.76 76.9408 404.951 77.1872L400.93 79.528Z" fill="white"/>
<path d="M405.421 88.9584L409.442 86.6176L412.276 89.1152L408.255 91.4448L405.421 88.9584Z" fill="white"/>
<path d="M408.255 91.4448L412.276 89.1152L412.264 93.0352L408.636 95.1408L408.244 95.3648L408.255 91.4448Z" fill="white"/>
<path d="M397.738 73.2336L401.759 70.904L402.498 74.5888L398.477 76.9184L397.738 73.2336Z" fill="white"/>
<path d="M394.322 71.2736L394.736 71.0272L398.343 68.9328L401.759 70.904L397.738 73.2336L394.322 71.2736Z" fill="white"/>
<path d="M405.891 83.4592L409.912 81.1296L408.423 83.1904L404.402 85.52L405.891 83.4592Z" fill="white"/>
<path d="M400.941 79.528L404.973 77.1984L407.504 76.9632L403.484 79.2928L400.941 79.528Z" fill="white"/>
<path opacity="0.2" d="M400.93 98.8256L401.3 99.3072L397.693 101.402L398.444 98.5792C399.25 98.8161 400.093 98.8996 400.93 98.8256Z" fill="#660806"/>
<path opacity="0.2" d="M386.572 78.072L383.749 77.2992L387.367 75.1936L387.613 75.832C387.132 76.5087 386.779 77.2679 386.572 78.072Z" fill="#660806"/>
<path opacity="0.2" d="M391.365 82.9328C391.359 82.8246 391.359 82.7162 391.365 82.608C391.365 82.552 391.365 82.496 391.365 82.4288C391.386 82.3378 391.412 82.248 391.444 82.16C391.461 82.1022 391.484 82.046 391.511 81.992C391.536 81.9118 391.566 81.8333 391.6 81.7568C391.6 81.7568 391.656 81.656 391.679 81.6L391.791 81.4096C391.825 81.359 391.863 81.3104 391.903 81.264L392.026 81.096L392.149 80.9728L392.295 80.8384L392.44 80.7376C392.867 80.4795 393.353 80.3356 393.851 80.3199C394.349 80.3042 394.843 80.4172 395.285 80.648C395.274 80.8644 395.274 81.0812 395.285 81.2976C395.274 81.4692 395.274 81.6413 395.285 81.8128C395.285 81.8688 395.285 81.9248 395.285 81.9808V82.3168L395.352 82.6864C395.352 82.776 395.352 82.8544 395.408 82.944C395.422 83.0236 395.44 83.1022 395.464 83.1792C395.464 83.2912 395.464 83.4032 395.554 83.5152C395.566 83.5805 395.585 83.6443 395.61 83.7056C395.61 83.84 395.688 83.9632 395.733 84.0864C395.739 84.1385 395.739 84.1911 395.733 84.2432C395.8 84.4112 395.868 84.5792 395.946 84.7472V84.8144L396.159 85.2624C396.18 85.3132 396.207 85.3619 396.237 85.408L396.461 85.8224C396.461 85.8224 396.461 85.8224 396.461 85.912L396.752 86.3936C396.786 86.4357 396.816 86.4807 396.842 86.528L397.077 86.864L397.212 87.032L397.424 87.3008C397.478 87.3802 397.538 87.4552 397.604 87.5248L397.783 87.7264C397.881 87.8437 397.986 87.9558 398.096 88.0624L398.287 88.264C398.344 88.3066 398.397 88.3554 398.444 88.4096L398.712 88.6336L398.869 88.768L399.16 88.992L399.306 89.0928C399.448 89.1966 399.598 89.2901 399.754 89.3728C399.891 89.4562 400.033 89.531 400.18 89.5968L400.292 89.6528H400.381C400.361 90.1239 400.23 90.5835 399.998 90.9942C399.767 91.4049 399.441 91.7551 399.048 92.016C398.957 92.072 398.859 92.1171 398.757 92.1504H398.679C398.595 92.1793 398.509 92.2018 398.421 92.2176H398.354H398.018H397.503H397.256H397.066H396.864L396.528 92.1056L396.304 92.016H396.192L395.767 91.792L395.319 91.512L395.173 91.4112L395.039 91.2992L394.882 91.1872L394.725 91.0528L394.58 90.9296L394.456 90.8176L394.3 90.672C394.231 90.6142 394.167 90.5505 394.109 90.4816L393.796 90.1456L393.616 89.944L393.437 89.72L393.224 89.4512L393.09 89.272V88.88L393 88.7456C392.9 88.5888 392.799 88.432 392.709 88.264V88.1856C392.631 88.0512 392.552 87.9056 392.485 87.76C392.455 87.7177 392.429 87.6727 392.407 87.6256L392.194 87.1776C392.116 87.0096 392.048 86.8416 391.981 86.6624C391.966 86.609 391.947 86.5567 391.925 86.5056C391.925 86.3824 391.847 86.2592 391.802 86.136C391.798 86.0726 391.798 86.009 391.802 85.9456C391.802 85.8336 391.735 85.7216 391.712 85.6096C391.688 85.5326 391.67 85.454 391.656 85.3744C391.656 85.2848 391.656 85.1952 391.656 85.1168L391.589 84.736V84.4C391.589 84.4 391.589 84.2992 391.589 84.2432C391.589 84.1872 391.589 83.896 391.589 83.728C391.589 83.56 391.589 83.3584 391.589 83.1904C391.498 83.1203 391.422 83.0327 391.365 82.9328Z" fill="#660806"/>
<path opacity="0.2" d="M407.336 95.1184L408.243 95.3648L408.635 95.1408L409.856 98.2656L405.835 100.606L404.368 96.8432L407.336 95.1184Z" fill="#660806"/>
<path opacity="0.2" d="M405.41 94.6032L407.336 95.1184L404.368 96.8432C404.854 96.1691 405.207 95.409 405.41 94.6032Z" fill="#660806"/>
<path opacity="0.2" d="M393.571 74.0848C393.027 73.9369 392.467 73.8505 391.903 73.8272H391.096L394.109 72.0688L393.571 74.0848Z" fill="#660806"/>
<path opacity="0.2" d="M405.32 88.4768L405.152 87.7824L405.051 87.4352C404.87 86.7854 404.653 86.146 404.402 85.52L408.423 83.1904L408.49 83.3696C408.534 83.4639 408.571 83.5612 408.602 83.6608L408.781 84.1648V84.2768L408.848 84.5232C408.915 84.7136 408.971 84.904 409.027 85.0944C409.083 85.2848 409.027 85.2064 409.027 85.2512C409.027 85.296 409.027 85.3856 409.083 85.4416L409.251 86.1472C409.251 86.2144 409.251 86.2816 409.251 86.3488C409.276 86.4372 409.294 86.5269 409.307 86.6176L405.41 88.9584C405.41 88.8016 405.41 88.6448 405.32 88.4768Z" fill="#660806"/>
<path opacity="0.2" d="M408.255 91.4448L412.276 89.1152L412.264 93.0352L408.636 95.1408L408.244 95.3648L408.255 91.4448Z" fill="#660806"/>
<path opacity="0.2" d="M397.738 73.2336L401.759 70.904L402.498 74.5888L398.477 76.9184L397.738 73.2336Z" fill="#660806"/>
<path opacity="0.2" d="M405.891 83.4592L409.912 81.1296L408.423 83.1904L404.402 85.52L405.891 83.4592Z" fill="#660806"/>
<path opacity="0.2" d="M400.941 79.528L404.973 77.1984L407.504 76.9632L403.484 79.2928L400.941 79.528Z" fill="#660806"/>
<path d="M403.484 79.2928L407.504 76.9632L409.912 81.1296L405.892 83.4592L403.484 79.2928Z" fill="white"/>
<path opacity="0.2" d="M394.109 72.0912L391.096 73.8384L388.565 70.68L392.586 68.3504L394.736 71.0272L394.322 71.2736L394.109 72.0912Z" fill="#3F0706"/>
<path opacity="0.2" d="M400.93 79.528C400.594 79.1024 400.247 78.6992 399.888 78.3072C399.845 78.2717 399.807 78.2302 399.776 78.184L399.373 77.7808L399.205 77.6128C398.959 77.3664 398.712 77.1424 398.466 76.9184L402.487 74.5888C402.733 74.8016 402.979 75.0368 403.226 75.272L403.293 75.328L403.618 75.6752L403.797 75.8544L404.357 76.4704C404.559 76.7056 404.76 76.9408 404.951 77.1872L400.93 79.528Z" fill="#3F0706"/>
<path opacity="0.2" d="M405.421 88.9584L409.442 86.6176L412.276 89.1152L408.255 91.4448L405.421 88.9584Z" fill="#3F0706"/>
<path opacity="0.2" d="M394.322 71.2736L394.736 71.0272L398.343 68.9328L401.759 70.904L397.738 73.2336L394.322 71.2736Z" fill="#3F0706"/>
<path opacity="0.2" d="M403.484 79.2928L407.504 76.9632L409.912 81.1296L405.892 83.4592L403.484 79.2928Z" fill="#3F0706"/>
<path d="M387.58 87.144L386.101 89.2048L388.498 93.36L391.04 93.136C391.783 94.0735 392.608 94.9431 393.504 95.7344L394.244 99.4192L397.66 101.39L398.41 98.568C399.216 98.8048 400.059 98.8884 400.896 98.8144L401.266 99.296L403.416 101.973L405.836 100.595L404.368 96.832C404.854 96.1579 405.207 95.3978 405.41 94.592L407.336 95.1072L408.243 95.3536V91.4336L405.41 88.9584C405.41 88.8016 405.343 88.6448 405.309 88.4768L405.141 87.7824L405.04 87.4352C404.859 86.7854 404.642 86.146 404.391 85.52L405.88 83.4592L403.472 79.2928L400.93 79.528C400.594 79.1024 400.247 78.6992 399.888 78.3072C399.845 78.2717 399.808 78.2302 399.776 78.184L399.373 77.7808L399.205 77.6128C398.959 77.3664 398.712 77.1424 398.466 76.9184L397.727 73.2336L394.367 71.2736L394.154 72.0912L393.616 74.0848C393.071 73.9369 392.512 73.8505 391.948 73.8272H391.141L388.61 70.6912L386.146 72.08L387.367 75.2048L387.613 75.8432C387.132 76.5199 386.779 77.2791 386.572 78.0832L383.749 77.3104V81.2304L386.572 83.728C386.803 84.8949 387.141 86.0383 387.58 87.144ZM391.309 83.6384C391.309 83.448 391.309 83.2688 391.309 83.1008C391.304 83.0449 391.304 82.9887 391.309 82.9328C391.303 82.8246 391.303 82.7162 391.309 82.608C391.309 82.552 391.309 82.496 391.309 82.4288C391.33 82.3378 391.356 82.248 391.388 82.16C391.405 82.1022 391.428 82.046 391.455 81.992C391.48 81.9118 391.51 81.8333 391.544 81.7568C391.544 81.7568 391.6 81.656 391.623 81.6L391.735 81.4096C391.769 81.359 391.807 81.3104 391.847 81.264L391.97 81.096L392.093 80.9728L392.239 80.8384L392.384 80.7376C392.811 80.4795 393.297 80.3356 393.795 80.3199C394.293 80.3042 394.787 80.4172 395.229 80.648C395.447 80.7412 395.66 80.8459 395.868 80.9616C397.225 81.8453 398.355 83.0374 399.165 84.4408C399.975 85.8441 400.441 87.4189 400.527 89.0368C400.539 89.2532 400.539 89.47 400.527 89.6864C400.507 90.1575 400.375 90.6172 400.144 91.0279C399.912 91.4386 399.587 91.7887 399.194 92.0496C399.102 92.1056 399.005 92.1507 398.903 92.184H398.813C398.729 92.213 398.643 92.2354 398.556 92.2512H398.477H398.141H397.626H397.38H397.189H396.988L396.652 92.128L396.428 92.0384L395.89 91.7696L395.442 91.4896L395.296 91.3888L395.162 91.2768C395.001 91.1633 394.848 91.0398 394.703 90.9072L394.58 90.7952L394.423 90.6496C394.354 90.5918 394.29 90.5281 394.232 90.4592L393.919 90.1232L393.74 89.9216L393.56 89.6976L393.348 89.4288L393.213 89.2496L393.09 88.88L393 88.7456C392.9 88.5888 392.799 88.432 392.709 88.264V88.1856C392.631 88.0512 392.552 87.9056 392.485 87.76C392.455 87.7177 392.429 87.6727 392.407 87.6256L392.194 87.1776C392.194 87.1776 392.194 87.1776 392.194 87.1104C392.194 87.0432 392.048 86.7744 391.981 86.5952C391.966 86.5419 391.947 86.4895 391.925 86.4384C391.925 86.3152 391.847 86.192 391.802 86.0688C391.797 86.0054 391.797 85.9418 391.802 85.8784C391.802 85.7664 391.735 85.6544 391.712 85.5424C391.688 85.4654 391.67 85.3868 391.656 85.3072C391.656 85.2176 391.656 85.128 391.656 85.0496L391.589 84.6688V84.3328C391.332 84.0864 391.309 83.8624 391.309 83.6384Z" fill="white"/>
<path d="M431.741 83.1456L432.043 83.5152L429.165 85.1952L429.77 82.9552C430.409 83.1417 431.078 83.2063 431.741 83.1456Z" fill="white"/>
<path d="M420.339 66.6144L418.099 65.9984L420.978 64.3184L421.179 64.8224C420.789 65.3617 420.504 65.9696 420.339 66.6144Z" fill="white"/>
<path d="M424.148 70.4896C424.142 70.4001 424.142 70.3103 424.148 70.2208V70.0864C424.148 70.008 424.148 69.9408 424.204 69.8736V69.7392L424.271 69.5488L424.349 69.4256L424.428 69.2688L424.517 69.1568L424.618 69.0224L424.719 68.9216L424.831 68.8208L424.943 68.7424C425.279 68.54 425.661 68.4266 426.053 68.4129C426.445 68.3992 426.834 68.4856 427.183 68.664C427.171 68.8355 427.171 69.0077 427.183 69.1792C427.183 69.3136 427.183 69.448 427.183 69.5936C427.188 69.6382 427.188 69.6834 427.183 69.728V69.9856C427.183 70.0864 427.183 70.1872 427.239 70.288V70.4896L427.295 70.68L427.362 70.9488C427.362 70.9488 427.362 71.0496 427.362 71.1056L427.463 71.3968C427.463 71.3968 427.463 71.4864 427.463 71.52L427.631 71.9344L427.799 72.2928C427.797 72.3301 427.797 72.3675 427.799 72.4048L427.978 72.7408V72.808L428.213 73.1888L428.292 73.3008L428.471 73.5696L428.583 73.704L428.751 73.9168C428.793 73.9814 428.842 74.0414 428.896 74.096L429.031 74.264L429.277 74.5216L429.434 74.6784L429.568 74.8016L429.77 74.9808L429.904 75.0816L430.14 75.2608L430.252 75.3504L430.599 75.5744L430.946 75.7424C430.976 75.7484 431.006 75.7484 431.036 75.7424H431.103C431.089 76.1167 430.985 76.4822 430.8 76.8078C430.614 77.1334 430.353 77.4096 430.039 77.6128C429.965 77.6592 429.886 77.6967 429.804 77.7248H429.748H429.535H429.479H429.199H428.796H428.605H428.448H428.28L428.023 77.6352L427.844 77.5568H427.754L427.407 77.3776L427.06 77.1536L426.948 77.064L426.836 76.9856L426.712 76.896L426.589 76.784L426.466 76.6832L426.376 76.6048C426.479 76.5769 426.584 76.5619 426.69 76.56L426.522 76.4032L426.276 76.1456L426.141 75.9776L425.996 75.8096L425.828 75.5856L425.716 75.4512L425.536 75.1824L425.458 75.0704L425.223 74.6896V74.6224L425.044 74.2864C425.023 74.2502 425.004 74.2128 424.988 74.1744L424.82 73.816L424.652 73.4016C424.652 73.4016 424.652 73.3232 424.652 73.2784L424.551 72.9872C424.551 72.9872 424.551 72.8864 424.551 72.8304L424.484 72.5616C424.477 72.4983 424.477 72.4345 424.484 72.3712C424.478 72.3041 424.478 72.2367 424.484 72.1696C424.484 72.0688 424.484 71.968 424.428 71.8784C424.422 71.7889 424.422 71.6991 424.428 71.6096C424.428 71.6096 424.428 71.52 424.428 71.4752C424.428 71.4304 424.428 71.1952 424.428 71.0608C424.428 70.9264 424.428 70.7808 424.428 70.6352C424.428 70.4896 424.148 70.5344 424.148 70.4896Z" fill="white"/>
<path d="M436.871 80.1888L437.599 80.3904L437.912 80.2L438.887 82.6976L435.684 84.5568L434.519 81.5664L436.871 80.1888Z" fill="white"/>
<path d="M426.332 61.8544L423.935 63.2432L421.93 60.7344L425.122 58.864L426.836 61.0032L426.511 61.1936L426.332 61.8544Z" fill="white"/>
<path d="M435.336 79.7744L436.871 80.1888L434.53 81.5664C434.913 81.0272 435.186 80.4185 435.336 79.7744Z" fill="white"/>
<path d="M425.906 63.4336C425.475 63.3139 425.031 63.2462 424.584 63.232H423.935L426.332 61.8432L425.906 63.4336Z" fill="white"/>
<path d="M435.269 74.9024L435.135 74.3424C435.102 74.2511 435.076 74.1575 435.056 74.0624C434.911 73.5584 434.743 73.0544 434.541 72.5504L437.744 70.6912C437.758 70.7379 437.777 70.7829 437.8 70.8256C437.8 70.904 437.856 70.9824 437.879 71.0608C437.901 71.1392 437.98 71.3296 438.024 71.464V71.5536C438.024 71.6208 438.024 71.688 438.08 71.7552C438.136 71.8224 438.181 72.0576 438.226 72.2032V72.3376C438.221 72.386 438.221 72.4348 438.226 72.4832L438.36 73.0432V73.2C438.366 73.2746 438.366 73.3494 438.36 73.424L435.157 75.2832C435.325 75.16 435.292 75.0256 435.269 74.9024Z" fill="white"/>
<path d="M431.786 67.7792C431.517 67.432 431.237 67.1184 430.946 66.8048L430.856 66.704L430.531 66.3792L430.408 66.2448L429.815 65.696L433.018 63.8368C433.219 64.0048 433.41 64.1952 433.6 64.3856C433.619 64.3809 433.638 64.3809 433.656 64.3856L433.925 64.6544L434.059 64.8C434.216 64.9568 434.362 65.1248 434.507 65.2928L434.978 65.8528L431.786 67.7792Z" fill="white"/>
<path d="M435.348 75.2832L438.551 73.424L440.802 75.4064L437.599 77.2656L435.348 75.2832Z" fill="white"/>
<path d="M437.599 77.2656L440.802 75.4064V78.5312L437.912 80.2L437.599 80.3904V77.2656Z" fill="white"/>
<path d="M429.232 62.7616L432.435 60.9024L433.018 63.8368L429.815 65.696L429.232 62.7616Z" fill="white"/>
<path d="M426.511 61.1936L426.836 61.0032L429.714 59.3344L432.436 60.9024L429.232 62.7616L426.511 61.1936Z" fill="white"/>
<path d="M435.717 70.904L438.92 69.0448L437.744 70.6912L434.541 72.5504L435.717 70.904Z" fill="white"/>
<path d="M431.786 67.7792L434.989 65.9088L437.005 65.7296L433.802 67.5888L431.786 67.7792Z" fill="white"/>
<path opacity="0.2" d="M431.741 83.1456L432.043 83.5152L429.165 85.1952L429.77 82.9552C430.409 83.1417 431.078 83.2063 431.741 83.1456Z" fill="#660806"/>
<path opacity="0.2" d="M420.339 66.6144L418.099 65.9984L420.978 64.3184L421.179 64.8224C420.789 65.3617 420.504 65.9696 420.339 66.6144Z" fill="#660806"/>
<path opacity="0.2" d="M424.148 70.4896C424.142 70.4001 424.142 70.3103 424.148 70.2208V70.0864C424.148 70.008 424.148 69.9408 424.204 69.8736V69.7392L424.271 69.5488L424.349 69.4256L424.428 69.2688L424.517 69.1568L424.618 69.0224L424.719 68.9216L424.831 68.8208L424.943 68.7424C425.279 68.54 425.661 68.4266 426.053 68.4129C426.445 68.3992 426.834 68.4856 427.183 68.664C427.171 68.8355 427.171 69.0077 427.183 69.1792C427.183 69.3136 427.183 69.448 427.183 69.5936C427.188 69.6382 427.188 69.6834 427.183 69.728V69.9856C427.183 70.0864 427.183 70.1872 427.239 70.288V70.4896L427.295 70.68L427.362 70.9488C427.362 70.9488 427.362 71.0496 427.362 71.1056L427.463 71.3968C427.463 71.3968 427.463 71.4864 427.463 71.52L427.631 71.9344L427.799 72.2928C427.797 72.3301 427.797 72.3675 427.799 72.4048L427.978 72.7408V72.808L428.213 73.1888L428.292 73.3008L428.471 73.5696L428.583 73.704L428.751 73.9168C428.793 73.9814 428.842 74.0414 428.896 74.096L429.031 74.264L429.277 74.5216L429.434 74.6784L429.568 74.8016L429.77 74.9808L429.904 75.0816L430.14 75.2608L430.252 75.3504L430.599 75.5744L430.946 75.7424C430.976 75.7484 431.006 75.7484 431.036 75.7424H431.103C431.089 76.1167 430.985 76.4822 430.8 76.8078C430.614 77.1334 430.353 77.4096 430.039 77.6128C429.965 77.6592 429.886 77.6967 429.804 77.7248H429.748H429.535H429.479H429.199H428.796H428.605H428.448H428.28L428.023 77.6352L427.844 77.5568H427.754L427.407 77.3776L427.06 77.1536L426.948 77.064L426.836 76.9856L426.712 76.896L426.589 76.784L426.466 76.6832L426.376 76.6048C426.479 76.5769 426.584 76.5619 426.69 76.56L426.522 76.4032L426.276 76.1456L426.141 75.9776L425.996 75.8096L425.828 75.5856L425.716 75.4512L425.536 75.1824L425.458 75.0704L425.223 74.6896V74.6224L425.044 74.2864C425.023 74.2502 425.004 74.2128 424.988 74.1744L424.82 73.816L424.652 73.4016C424.652 73.4016 424.652 73.3232 424.652 73.2784L424.551 72.9872C424.551 72.9872 424.551 72.8864 424.551 72.8304L424.484 72.5616C424.477 72.4983 424.477 72.4345 424.484 72.3712C424.478 72.3041 424.478 72.2367 424.484 72.1696C424.484 72.0688 424.484 71.968 424.428 71.8784C424.422 71.7889 424.422 71.6991 424.428 71.6096C424.428 71.6096 424.428 71.52 424.428 71.4752C424.428 71.4304 424.428 71.1952 424.428 71.0608C424.428 70.9264 424.428 70.7808 424.428 70.6352C424.428 70.4896 424.148 70.5344 424.148 70.4896Z" fill="#660806"/>
<path opacity="0.2" d="M436.871 80.1888L437.599 80.3904L437.912 80.2L438.887 82.6976L435.684 84.5568L434.519 81.5664L436.871 80.1888Z" fill="#660806"/>
<path opacity="0.2" d="M435.336 79.7744L436.871 80.1888L434.53 81.5664C434.913 81.0272 435.186 80.4185 435.336 79.7744Z" fill="#660806"/>
<path opacity="0.2" d="M425.906 63.4336C425.475 63.3139 425.031 63.2462 424.584 63.232H423.935L426.332 61.8432L425.906 63.4336Z" fill="#660806"/>
<path opacity="0.2" d="M435.269 74.9024L435.135 74.3424C435.102 74.2511 435.076 74.1575 435.056 74.0624C434.911 73.5584 434.743 73.0544 434.541 72.5504L437.744 70.6912C437.758 70.7379 437.777 70.7829 437.8 70.8256C437.8 70.904 437.856 70.9824 437.879 71.0608C437.901 71.1392 437.98 71.3296 438.024 71.464V71.5536C438.024 71.6208 438.024 71.688 438.08 71.7552C438.136 71.8224 438.181 72.0576 438.226 72.2032V72.3376C438.221 72.386 438.221 72.4348 438.226 72.4832L438.36 73.0432V73.2C438.366 73.2746 438.366 73.3494 438.36 73.424L435.157 75.2832C435.325 75.16 435.292 75.0256 435.269 74.9024Z" fill="#660806"/>
<path opacity="0.2" d="M437.599 77.2656L440.802 75.4064V78.5312L437.912 80.2L437.599 80.3904V77.2656Z" fill="#660806"/>
<path opacity="0.2" d="M429.232 62.7616L432.435 60.9024L433.018 63.8368L429.815 65.696L429.232 62.7616Z" fill="#660806"/>
<path opacity="0.2" d="M435.717 70.904L438.92 69.0448L437.744 70.6912L434.541 72.5504L435.717 70.904Z" fill="#660806"/>
<path opacity="0.2" d="M431.786 67.7792L434.989 65.9088L437.005 65.7296L433.802 67.5888L431.786 67.7792Z" fill="#660806"/>
<path d="M433.802 67.5888L437.005 65.7296L438.92 69.0448L435.717 70.904L433.802 67.5888Z" fill="white"/>
<path opacity="0.2" d="M426.332 61.8544L423.935 63.2432L421.93 60.7344L425.122 58.864L426.836 61.0032L426.511 61.1936L426.332 61.8544Z" fill="#3F0706"/>
<path opacity="0.2" d="M431.786 67.7792C431.517 67.432 431.237 67.1184 430.946 66.8048L430.856 66.704L430.531 66.3792L430.408 66.2448L429.815 65.696L433.018 63.8368C433.219 64.0048 433.41 64.1952 433.6 64.3856C433.619 64.3809 433.638 64.3809 433.656 64.3856L433.925 64.6544L434.059 64.8C434.216 64.9568 434.362 65.1248 434.507 65.2928L434.978 65.8528L431.786 67.7792Z" fill="#3F0706"/>
<path opacity="0.2" d="M435.348 75.2832L438.551 73.424L440.802 75.4064L437.599 77.2656L435.348 75.2832Z" fill="#3F0706"/>
<path opacity="0.2" d="M426.511 61.1936L426.836 61.0032L429.714 59.3344L432.436 60.9024L429.232 62.7616L426.511 61.1936Z" fill="#3F0706"/>
<path opacity="0.2" d="M433.802 67.5888L437.005 65.7296L438.92 69.0448L435.717 70.904L433.802 67.5888Z" fill="#3F0706"/>
<path d="M421.09 73.8384L419.97 75.44L421.885 78.8L423.901 78.6208C424.5 79.3645 425.159 80.0575 425.872 80.6928L426.455 83.6272L429.176 85.1952L429.781 82.9552C430.42 83.1455 431.088 83.2139 431.752 83.1568L432.055 83.5264L433.768 85.6656L435.695 84.5456L434.575 81.5552C434.965 81.0178 435.247 80.4089 435.404 79.7632L436.938 80.1776L437.666 80.3792V77.2544L435.426 75.272C435.426 75.1488 435.37 75.0144 435.348 74.8912L435.213 74.3312C435.18 74.2398 435.154 74.1463 435.135 74.0512C434.989 73.5472 434.821 73.0432 434.62 72.5392L435.796 70.8928L433.88 67.5328L431.864 67.7232C431.596 67.376 431.316 67.0624 431.024 66.7488L430.935 66.648L430.61 66.3232L430.487 66.1888L429.893 65.64L429.311 62.7056L426.589 61.1376L426.41 61.7984L425.984 63.3776C425.553 63.2579 425.11 63.1902 424.663 63.176H424.013L421.997 60.6672L420.071 61.7872L421.045 64.2736L421.247 64.7776C420.861 65.3177 420.58 65.9256 420.418 66.5696L418.178 65.9536V69.0784L420.418 71.0608C420.563 72.0041 420.787 72.9333 421.09 73.8384ZM424.069 71.0384C424.069 70.8928 424.069 70.7584 424.069 70.6128C424.069 70.4672 424.069 70.5344 424.069 70.4896C424.064 70.4001 424.064 70.3103 424.069 70.2208V70.0864C424.069 70.008 424.069 69.9408 424.125 69.8736V69.7392L424.192 69.5488L424.271 69.4256L424.349 69.2688L424.439 69.1568L424.54 69.0224L424.64 68.9216L424.752 68.8208L424.864 68.7424C425.2 68.54 425.582 68.4266 425.974 68.4129C426.366 68.3992 426.755 68.4856 427.104 68.664C427.278 68.7347 427.446 68.817 427.608 68.9104C428.69 69.616 429.589 70.5671 430.233 71.6863C430.878 72.8054 431.248 74.0608 431.316 75.3504C431.327 75.5219 431.327 75.6941 431.316 75.8656C431.302 76.2399 431.198 76.6054 431.012 76.931C430.827 77.2566 430.566 77.5327 430.252 77.736C430.178 77.7824 430.099 77.8199 430.016 77.848H429.949H429.736H429.68H429.4H429.109H428.997H428.807H428.65H428.482L428.224 77.7584L428.045 77.68C427.895 77.6182 427.749 77.5471 427.608 77.4672L427.261 77.2432L427.149 77.1536L427.037 77.0752C426.909 76.9812 426.785 76.8802 426.668 76.7728L426.578 76.6944C426.612 76.6471 426.65 76.6022 426.69 76.56L426.522 76.4032L426.276 76.1456L426.141 75.9776L425.996 75.8096L425.828 75.5856L425.716 75.4512L425.536 75.1824L425.458 75.0704L425.223 74.6896V74.6224L425.044 74.2864C425.023 74.2502 425.004 74.2128 424.988 74.1744L424.82 73.816L424.652 73.4016C424.652 73.4016 424.652 73.3232 424.652 73.2784L424.551 72.9872C424.551 72.9872 424.551 72.8864 424.551 72.8304L424.484 72.5616C424.477 72.4983 424.477 72.4345 424.484 72.3712C424.478 72.3041 424.478 72.2367 424.484 72.1696C424.484 72.0688 424.484 71.968 424.428 71.8784C424.422 71.7889 424.422 71.6991 424.428 71.6096C424.31 71.4268 424.205 71.2359 424.114 71.0384H424.069Z" fill="white"/>
<path d="M29.2467 58.1808L28.5299 59.0768L35.3843 63.12L33.9507 57.7664C32.4225 58.1979 30.8268 58.3385 29.2467 58.1808Z" fill="white"/>
<path d="M56.4291 18.7904L61.7939 17.312L54.9283 13.3248L54.4579 14.5232C55.3698 15.8134 56.0379 17.2596 56.4291 18.7904Z" fill="white"/>
<path d="M47.3348 28.008C47.3348 27.8064 47.2788 27.5936 47.2452 27.392C47.2116 27.1904 47.2452 27.168 47.1556 27.056C47.066 26.944 47.0772 26.7088 47.0212 26.5408C46.9869 26.4337 46.9457 26.329 46.898 26.2272C46.842 26.0704 46.786 25.9248 46.7188 25.7792C46.6516 25.6336 46.618 25.5888 46.562 25.488C46.4977 25.3574 46.4267 25.2303 46.3492 25.1072L46.1476 24.8384C46.0692 24.7376 45.9908 24.6256 45.9012 24.5248C45.8283 24.4445 45.7497 24.3697 45.666 24.3008C45.5764 24.2112 45.4868 24.1104 45.3972 24.032L45.1284 23.8528C44.3187 23.359 43.395 23.083 42.4471 23.0516C41.4993 23.0202 40.5594 23.2345 39.7188 23.6736C39.7686 24.0824 39.7948 24.4938 39.7972 24.9056C39.7972 25.2341 39.7972 25.5589 39.7972 25.88V26.1936C39.7972 26.4064 39.7972 26.6192 39.7188 26.832C39.6404 27.0448 39.6404 27.3024 39.5956 27.5376C39.5508 27.7728 39.5956 27.8624 39.506 28.0304C39.4164 28.1984 39.4276 28.3328 39.394 28.4784C39.3604 28.624 39.282 28.904 39.2148 29.1168L39.114 29.4752C39.0356 29.7216 38.9572 29.9568 38.8676 30.192L38.7668 30.4832C38.6436 30.808 38.5092 31.1328 38.3748 31.4576V31.5696C38.2516 31.8608 38.1172 32.152 37.9716 32.432L37.8372 32.7008C37.7028 32.9696 37.5572 33.2384 37.4116 33.496L37.322 33.6528C37.1428 33.9664 36.9524 34.2688 36.762 34.5712L36.5828 34.8176C36.4409 35.0416 36.2953 35.2544 36.146 35.456L35.8996 35.792L35.4964 36.3072L35.1492 36.7328L34.8132 37.1136C34.6228 37.3264 34.4212 37.5392 34.2196 37.7408L33.85 38.1216L33.5476 38.4016L33.0436 38.8384L32.7412 39.0848L32.1812 39.5104L31.9124 39.7008L31.0724 40.2384L30.2548 40.664L30.0532 40.7536L29.874 40.8208C29.9083 41.7165 30.1571 42.5909 30.5995 43.3705C31.0419 44.1501 31.665 44.8121 32.4164 45.3008C32.5979 45.4081 32.7892 45.4981 32.9876 45.5696H33.122C33.2828 45.6262 33.4475 45.6711 33.6148 45.704H33.738C33.9521 45.7473 34.1693 45.7735 34.3876 45.7824H34.5444C34.7271 45.7934 34.9104 45.7934 35.0932 45.7824H35.3396L35.7988 45.7152L36.1572 45.6368L36.538 45.5248L37.1652 45.312L37.5908 45.1328L37.8036 45.0432C38.0724 44.9088 38.3412 44.7744 38.61 44.6176C38.8788 44.4608 39.1812 44.2704 39.4612 44.08L39.73 43.8896L39.9876 43.688L40.2788 43.464C40.384 43.3874 40.4849 43.3052 40.5812 43.2176L40.8612 42.9712C40.941 42.91 41.0159 42.8426 41.0852 42.7696L41.3876 42.5008C41.5108 42.3776 41.634 42.2432 41.7684 42.12L42.3508 41.4928L42.698 41.112L43.034 40.6864C43.1779 40.5224 43.3125 40.3504 43.4372 40.1712L43.6836 39.8352C43.8404 39.6336 43.986 39.4208 44.1316 39.1968L44.2996 38.9504C44.49 38.648 44.6804 38.3456 44.8596 38.032C44.8596 38.032 44.8596 37.9312 44.9492 37.8752C45.0948 37.6176 45.2404 37.3488 45.3748 37.08L45.5092 36.8112C45.6548 36.5312 45.7892 36.24 45.9124 35.96C45.9356 35.9212 45.9544 35.8798 45.9684 35.8368C46.114 35.512 46.2372 35.1872 46.3604 34.8624C46.4025 34.7673 46.4399 34.6701 46.4724 34.5712L46.7076 33.8656C46.7076 33.7424 46.786 33.6192 46.8196 33.496L47.01 32.88L47.122 32.432C47.122 32.264 47.1892 32.1072 47.2116 31.9392C47.2676 31.704 47.3012 31.4688 47.3348 31.2336C47.3348 31.0208 47.3908 30.808 47.4132 30.5952V30.2816C47.4299 29.957 47.4299 29.6318 47.4132 29.3072C47.4307 28.9677 47.4307 28.6275 47.4132 28.288C47.3684 28.2208 47.346 28.12 47.3348 28.008Z" fill="white"/>
<path d="M17.0275 51.1472L15.3027 51.6176L14.5411 51.1696L12.2339 57.1168L19.8611 61.552L22.6499 54.4064L17.0275 51.1472Z" fill="white"/>
<path d="M42.1379 7.4336L47.8499 10.76L52.6435 4.7568L45.0163 0.332804L40.9395 5.4176L41.7123 5.8656L42.1379 7.4336Z" fill="white"/>
<path d="M20.6787 50.1504L17.0275 51.1472L22.6275 54.4064C21.7145 53.1238 21.0532 51.6796 20.6787 50.1504Z" fill="white"/>
<path d="M43.1459 11.2192C44.1756 10.931 45.2357 10.7656 46.3043 10.7264H47.1331H47.6483H47.8387L42.1379 7.36641L43.1459 11.2192Z" fill="white"/>
<path d="M20.8467 38.536C20.9475 38.0992 21.0595 37.6512 21.1715 37.2144C21.2387 36.9904 21.2947 36.7664 21.3507 36.5536C21.6979 35.344 22.1011 34.1344 22.5715 32.9248L14.9443 28.4448L14.8099 28.7808L14.6083 29.3408C14.4963 29.6544 14.3731 29.9792 14.2611 30.304L14.1939 30.5168C14.1939 30.6736 14.0931 30.8304 14.0483 30.9872C13.9251 31.3456 13.8131 31.704 13.7123 32.1072C13.6773 32.2064 13.6474 32.3073 13.6227 32.4096C13.6227 32.5216 13.6227 32.6448 13.5331 32.768C13.4099 33.2048 13.3091 33.6528 13.2083 34.0896L13.1075 34.4816L13.0067 34.9968L20.6339 39.4768C20.7011 39.1408 20.7795 38.8384 20.8467 38.536Z" fill="white"/>
<path d="M29.1459 21.5568C29.7843 20.7504 30.4563 19.9776 31.1395 19.2384L31.3523 19.0032L32.1251 18.2192L32.4387 17.9056C32.8979 17.4464 33.3683 17.0096 33.8387 16.5952L26.2003 12.1152C25.7299 12.5296 25.2707 12.9664 24.8115 13.4256L24.6771 13.5376L24.0499 14.1872L23.7251 14.5232C23.3667 14.904 23.0083 15.296 22.6611 15.6432C22.2803 16.08 21.9107 16.528 21.5411 16.9984L29.1459 21.5568Z" fill="white"/>
<path d="M20.6451 39.4432L13.0179 35.008L7.65314 39.7344L15.2803 44.1696L20.6451 39.4432Z" fill="white"/>
<path d="M15.2803 44.1696L7.65314 39.7344L7.67554 47.1824L14.5411 51.1696L15.3027 51.6176L15.2803 44.1696Z" fill="white"/>
<path d="M35.2387 9.6064L27.6003 5.17121L26.2003 12.16L33.8387 16.5952L35.2387 9.6064Z" fill="white"/>
<path d="M41.7123 5.8656L40.9395 5.4176L34.0851 1.43039L27.6003 5.1712L35.2387 9.60641L41.7123 5.8656Z" fill="white"/>
<path d="M19.7715 29.016L12.1331 24.5808L14.9555 28.4896L22.5827 32.9248L19.7715 29.016Z" fill="white"/>
<path d="M29.146 21.5456L21.5188 17.1216L16.7028 16.6736L24.33 21.1088L29.146 21.5456Z" fill="white"/>
<path d="M24.3299 21.1088L16.7027 16.6736L12.1331 24.5808L19.7715 29.016L24.3299 21.1088Z" fill="white"/>
<path d="M56.4515 29.52L61.8163 24.7936V17.3456L56.4515 18.824C56.0603 17.2932 55.3923 15.847 54.4803 14.5568L54.9507 13.3584L57.2691 7.4112L52.6099 4.7568L47.8051 10.76H47.6147H47.0995H46.2707C45.2022 10.7992 44.142 10.9646 43.1123 11.2528L42.1043 7.46719L41.6787 5.8992L35.2051 9.64L33.8051 16.6288C33.3347 17.0432 32.8643 17.48 32.4051 17.9392L32.0915 18.2528L31.3187 19.0368L31.1059 19.272C30.4227 20.0112 29.7507 20.784 29.1123 21.5904L24.2963 21.1424L19.7379 29.0496L22.5827 32.88C22.1123 34.0896 21.7091 35.2992 21.3619 36.5088C21.2947 36.7216 21.2387 36.9456 21.1715 37.1696C21.0595 37.6064 20.9475 38.0544 20.8467 38.4912C20.7459 38.928 20.7011 39.096 20.6451 39.3984L15.2803 44.1248L15.2803 51.5728L17.0051 51.1024L20.6563 50.1056C21.0377 51.6364 21.7066 53.0807 22.6275 54.3616L19.8387 61.5072L24.4307 64.1168L28.5075 59.032L29.2243 58.136C30.808 58.2755 32.4037 58.1159 33.9283 57.6656L35.3843 63.12L41.8691 59.3792L43.2691 52.3904C44.9723 50.8812 46.5389 49.2246 47.9507 47.44L52.7667 47.8768L57.3363 39.9696L54.5139 36.0608C55.3568 33.9438 56.0054 31.7545 56.4515 29.52ZM47.3571 30.64C47.3571 30.8528 47.3571 31.0656 47.2787 31.2784C47.2003 31.4912 47.2115 31.7488 47.1555 31.984C47.0995 32.2192 47.1555 32.3088 47.0659 32.4768L46.9539 32.9248L46.7859 33.5632C46.7859 33.6864 46.7075 33.8096 46.6739 33.9328L46.4387 34.6384C46.4063 34.7373 46.3689 34.8345 46.3267 34.9296C46.2035 35.2544 46.0803 35.5792 45.9347 35.904C45.9207 35.947 45.9019 35.9883 45.8787 36.0272C45.7555 36.3072 45.6211 36.5984 45.4755 36.8784L45.3411 37.1472C45.2067 37.416 45.0611 37.6848 44.9155 37.9424C44.9155 37.9984 44.9155 38.0544 44.8259 38.0992C44.6467 38.4128 44.4563 38.7152 44.2659 39.0176L44.0979 39.264C43.9523 39.488 43.8067 39.7008 43.6499 39.9024L43.4035 40.2384C43.2789 40.4176 43.1443 40.5896 43.0003 40.7536L42.6643 41.1792L42.3171 41.56L41.7347 42.1872C41.6003 42.3104 41.4771 42.4448 41.3539 42.568L41.0515 42.8368C40.9823 42.9098 40.9074 42.9772 40.8275 43.0384C40.5493 43.2927 40.2577 43.532 39.9539 43.7552L39.6963 43.9568L39.4275 44.1472C39.1475 44.3376 38.8675 44.5168 38.5763 44.6848C38.2482 44.8786 37.9078 45.0508 37.5571 45.2L37.1315 45.3792L36.4931 45.592L36.1123 45.704L35.7427 45.7824L35.2835 45.8496H35.0147C34.832 45.8605 34.6487 45.8605 34.4659 45.8496H34.3091C34.0909 45.8407 33.8736 45.8145 33.6595 45.7712C33.6112 45.7775 33.5623 45.7775 33.5139 45.7712C33.3467 45.7383 33.182 45.6934 33.0211 45.6368H32.8643C32.6659 45.5653 32.4747 45.4753 32.2931 45.368C31.5417 44.8792 30.9187 44.2172 30.4763 43.4377C30.0338 42.6581 29.785 41.7837 29.7507 40.888C29.7009 40.4792 29.6747 40.0678 29.6723 39.656C29.6723 34.056 33.6259 27.1568 38.5203 24.3344C38.9071 24.1119 39.3074 23.9137 39.7187 23.7408C40.5593 23.3017 41.4992 23.0874 42.4471 23.1188C43.395 23.1502 44.3186 23.4262 45.1283 23.92L45.3971 24.0992C45.4867 24.1776 45.5763 24.2784 45.6659 24.368C45.7497 24.4369 45.8283 24.5117 45.9011 24.592C45.9907 24.6928 46.0691 24.8048 46.1475 24.9056L46.3491 25.1744C46.4267 25.2975 46.4977 25.4246 46.5619 25.5552C46.6179 25.656 46.6739 25.7456 46.7187 25.8464C46.7635 25.9472 46.8419 26.1376 46.8979 26.2944C46.9457 26.3962 46.9869 26.5009 47.0211 26.608C47.0211 26.776 47.1107 26.944 47.1555 27.1232C47.2003 27.3024 47.2227 27.3472 47.2451 27.4592C47.2675 27.5712 47.3123 27.8736 47.3347 28.0752C47.3571 28.2768 47.3347 28.288 47.3347 28.3888C47.3522 28.7283 47.3522 29.0685 47.3347 29.408C47.3673 29.8178 47.3748 30.2293 47.3571 30.64Z" fill="white"/>
<path opacity="0.2" d="M29.2467 58.1808L28.5299 59.0768L35.3843 63.12L33.9507 57.7664C32.4225 58.1979 30.8268 58.3385 29.2467 58.1808Z" fill="#660806"/>
<path opacity="0.2" d="M56.4291 18.7904L61.7939 17.312L54.9283 13.3248L54.4579 14.5232C55.3698 15.8134 56.0379 17.2596 56.4291 18.7904Z" fill="#660806"/>
<path opacity="0.2" d="M47.3348 28.008C47.3348 27.8064 47.2788 27.5936 47.2452 27.392C47.2116 27.1904 47.2452 27.168 47.1556 27.056C47.066 26.944 47.0772 26.7088 47.0212 26.5408C46.9869 26.4337 46.9457 26.329 46.898 26.2272C46.842 26.0704 46.786 25.9248 46.7188 25.7792C46.6516 25.6336 46.618 25.5888 46.562 25.488C46.4977 25.3574 46.4267 25.2303 46.3492 25.1072L46.1476 24.8384C46.0692 24.7376 45.9908 24.6256 45.9012 24.5248C45.8283 24.4445 45.7497 24.3697 45.666 24.3008C45.5764 24.2112 45.4868 24.1104 45.3972 24.032L45.1284 23.8528C44.3187 23.359 43.395 23.083 42.4471 23.0516C41.4993 23.0202 40.5594 23.2345 39.7188 23.6736C39.7686 24.0824 39.7948 24.4938 39.7972 24.9056C39.7972 25.2341 39.7972 25.5589 39.7972 25.88V26.1936C39.7972 26.4064 39.7972 26.6192 39.7188 26.832C39.6404 27.0448 39.6404 27.3024 39.5956 27.5376C39.5508 27.7728 39.5956 27.8624 39.506 28.0304C39.4164 28.1984 39.4276 28.3328 39.394 28.4784C39.3604 28.624 39.282 28.904 39.2148 29.1168L39.114 29.4752C39.0356 29.7216 38.9572 29.9568 38.8676 30.192L38.7668 30.4832C38.6436 30.808 38.5092 31.1328 38.3748 31.4576V31.5696C38.2516 31.8608 38.1172 32.152 37.9716 32.432L37.8372 32.7008C37.7028 32.9696 37.5572 33.2384 37.4116 33.496L37.322 33.6528C37.1428 33.9664 36.9524 34.2688 36.762 34.5712L36.5828 34.8176C36.4409 35.0416 36.2953 35.2544 36.146 35.456L35.8996 35.792L35.4964 36.3072L35.1492 36.7328L34.8132 37.1136C34.6228 37.3264 34.4212 37.5392 34.2196 37.7408L33.85 38.1216L33.5476 38.4016L33.0436 38.8384L32.7412 39.0848L32.1812 39.5104L31.9124 39.7008L31.0724 40.2384L30.2548 40.664L30.0532 40.7536L29.874 40.8208C29.9083 41.7165 30.1571 42.5909 30.5995 43.3705C31.0419 44.1501 31.665 44.8121 32.4164 45.3008C32.5979 45.4081 32.7892 45.4981 32.9876 45.5696H33.122C33.2828 45.6262 33.4475 45.6711 33.6148 45.704H33.738C33.9521 45.7473 34.1693 45.7735 34.3876 45.7824H34.5444C34.7271 45.7934 34.9104 45.7934 35.0932 45.7824H35.3396L35.7988 45.7152L36.1572 45.6368L36.538 45.5248L37.1652 45.312L37.5908 45.1328L37.8036 45.0432C38.0724 44.9088 38.3412 44.7744 38.61 44.6176C38.8788 44.4608 39.1812 44.2704 39.4612 44.08L39.73 43.8896L39.9876 43.688L40.2788 43.464C40.384 43.3874 40.4849 43.3052 40.5812 43.2176L40.8612 42.9712C40.941 42.91 41.0159 42.8426 41.0852 42.7696L41.3876 42.5008C41.5108 42.3776 41.634 42.2432 41.7684 42.12L42.3508 41.4928L42.698 41.112L43.034 40.6864C43.1779 40.5224 43.3125 40.3504 43.4372 40.1712L43.6836 39.8352C43.8404 39.6336 43.986 39.4208 44.1316 39.1968L44.2996 38.9504C44.49 38.648 44.6804 38.3456 44.8596 38.032C44.8596 38.032 44.8596 37.9312 44.9492 37.8752C45.0948 37.6176 45.2404 37.3488 45.3748 37.08L45.5092 36.8112C45.6548 36.5312 45.7892 36.24 45.9124 35.96C45.9356 35.9212 45.9544 35.8798 45.9684 35.8368C46.114 35.512 46.2372 35.1872 46.3604 34.8624C46.4025 34.7673 46.4399 34.6701 46.4724 34.5712L46.7076 33.8656C46.7076 33.7424 46.786 33.6192 46.8196 33.496L47.01 32.88L47.122 32.432C47.122 32.264 47.1892 32.1072 47.2116 31.9392C47.2676 31.704 47.3012 31.4688 47.3348 31.2336C47.3348 31.0208 47.3908 30.808 47.4132 30.5952V30.2816C47.4299 29.957 47.4299 29.6318 47.4132 29.3072C47.4307 28.9677 47.4307 28.6275 47.4132 28.288C47.3684 28.2208 47.346 28.12 47.3348 28.008Z" fill="#660806"/>
<path opacity="0.2" d="M17.0275 51.1472L15.3027 51.6176L14.5411 51.1696L12.2339 57.1168L19.8611 61.552L22.6499 54.4064L17.0275 51.1472Z" fill="#660806"/>
<path opacity="0.2" d="M20.6787 50.1504L17.0275 51.1472L22.6275 54.4064C21.7145 53.1238 21.0532 51.6796 20.6787 50.1504Z" fill="#660806"/>
<path opacity="0.2" d="M43.1459 11.2192C44.1756 10.931 45.2357 10.7656 46.3043 10.7264H47.1331H47.6483H47.8387L42.1379 7.36641L43.1459 11.2192Z" fill="#660806"/>
<path opacity="0.2" d="M20.8467 38.536C20.9475 38.0992 21.0595 37.6512 21.1715 37.2144C21.2387 36.9904 21.2947 36.7664 21.3507 36.5536C21.6979 35.344 22.1011 34.1344 22.5715 32.9248L14.9443 28.4448L14.8099 28.7808L14.6083 29.3408C14.4963 29.6544 14.3731 29.9792 14.2611 30.304L14.1939 30.5168C14.1939 30.6736 14.0931 30.8304 14.0483 30.9872C13.9251 31.3456 13.8131 31.704 13.7123 32.1072C13.6773 32.2064 13.6474 32.3073 13.6227 32.4096C13.6227 32.5216 13.6227 32.6448 13.5331 32.768C13.4099 33.2048 13.3091 33.6528 13.2083 34.0896L13.1075 34.4816L13.0067 34.9968L20.6339 39.4768C20.7011 39.1408 20.7795 38.8384 20.8467 38.536Z" fill="#660806"/>
<path opacity="0.2" d="M15.2803 44.1696L7.65314 39.7344L7.67554 47.1824L14.5411 51.1696L15.3027 51.6176L15.2803 44.1696Z" fill="#660806"/>
<path opacity="0.2" d="M35.2387 9.6064L27.6003 5.17121L26.2003 12.16L33.8387 16.5952L35.2387 9.6064Z" fill="#660806"/>
<path opacity="0.2" d="M19.7715 29.016L12.1331 24.5808L14.9555 28.4896L22.5827 32.9248L19.7715 29.016Z" fill="#660806"/>
<path opacity="0.2" d="M29.146 21.5456L21.5188 17.1216L16.7028 16.6736L24.33 21.1088L29.146 21.5456Z" fill="#660806"/>
<path opacity="0.2" d="M42.1379 7.4336L47.8499 10.76L52.6435 4.7568L45.0163 0.332804L40.9395 5.4176L41.7123 5.8656L42.1379 7.4336Z" fill="#3F0706"/>
<path opacity="0.2" d="M29.1459 21.5568C29.7843 20.7504 30.4563 19.9776 31.1395 19.2384L31.3523 19.0032L32.1251 18.2192L32.4387 17.9056C32.8979 17.4464 33.3683 17.0096 33.8387 16.5952L26.2003 12.1152C25.7299 12.5296 25.2707 12.9664 24.8115 13.4256L24.6771 13.5376L24.0499 14.1872L23.7251 14.5232C23.3667 14.904 23.0083 15.296 22.6611 15.6432C22.2803 16.08 21.9107 16.528 21.5411 16.9984L29.1459 21.5568Z" fill="#3F0706"/>
<path opacity="0.2" d="M20.6451 39.4432L13.0179 35.008L7.65314 39.7344L15.2803 44.1696L20.6451 39.4432Z" fill="#3F0706"/>
<path opacity="0.2" d="M41.7123 5.8656L40.9395 5.4176L34.0851 1.43039L27.6003 5.1712L35.2387 9.60641L41.7123 5.8656Z" fill="#3F0706"/>
<path opacity="0.2" d="M24.3299 21.1088L16.7027 16.6736L12.1331 24.5808L19.7715 29.016L24.3299 21.1088Z" fill="#3F0706"/>
<path d="M17.4195 99.3072L17.0723 99.744L20.4323 101.67L19.7379 99.0832C18.9858 99.3017 18.1995 99.3777 17.4195 99.3072Z" fill="white"/>
<path d="M30.5684 80.2448L33.1668 79.528L29.8068 77.6016L29.5828 78.184C30.0374 78.8032 30.3717 79.5022 30.5684 80.2448Z" fill="white"/>
<path d="M26.1667 84.7136C26.1738 84.6129 26.1738 84.5119 26.1667 84.4112C26.1718 84.3553 26.1718 84.2991 26.1667 84.2432C26.1667 84.1648 26.1667 84.0752 26.1667 83.9968L26.0995 83.84L26.0211 83.6272C25.9884 83.5825 25.962 83.5335 25.9427 83.4816C25.8782 83.4079 25.807 83.3404 25.7299 83.28C25.704 83.2327 25.674 83.1877 25.6403 83.1456L25.5171 83C25.4826 82.9599 25.4452 82.9225 25.4051 82.888L25.2707 82.7648L25.1475 82.6752C24.7562 82.4336 24.3086 82.2982 23.849 82.2825C23.3894 82.2668 22.9336 82.3713 22.5267 82.5856C22.5385 82.7833 22.5385 82.9815 22.5267 83.1792C22.5267 83.336 22.5267 83.4928 22.5267 83.6496C22.5267 83.8064 22.5267 83.7616 22.5267 83.8064V84.12C22.5267 84.232 22.5267 84.344 22.5267 84.456C22.5214 84.5343 22.5214 84.6129 22.5267 84.6912C22.5216 84.7658 22.5216 84.8406 22.5267 84.9152C22.5267 85.016 22.4707 85.1168 22.4371 85.2176C22.4035 85.3184 22.4371 85.3408 22.4371 85.3968C22.4371 85.4528 22.3587 85.632 22.3139 85.744V85.8784C22.3139 86.0352 22.1907 86.2032 22.1235 86.36L21.9219 86.7856L21.8547 86.9088L21.6531 87.2896V87.368L21.3843 87.816C21.3517 87.855 21.3217 87.8962 21.2947 87.9392L21.0819 88.2416L20.9587 88.4096L20.7683 88.656L20.6003 88.8576C20.5447 88.9183 20.4924 88.9818 20.4435 89.048L20.1523 89.3504L19.9731 89.5296L19.8275 89.664L19.5811 89.8768L19.4355 90L19.1667 90.2016L19.0323 90.3024L18.6291 90.56L18.2371 90.7616H18.1363H18.0467C18.0655 91.1954 18.187 91.6186 18.4011 91.9963C18.6153 92.374 18.9161 92.6955 19.2787 92.9344L19.5587 93.0576L19.7939 93.1248H19.8611C19.9653 93.1358 20.0705 93.1358 20.1747 93.1248H20.6451H20.8691H21.0483H21.2387L21.5411 93.0128L21.7539 92.9344H21.8547L22.2467 92.7216C22.3861 92.6438 22.5207 92.5577 22.6499 92.464L22.7843 92.3744L22.9075 92.2736L23.0531 92.1728L23.1987 92.0496L23.3331 91.9264L23.4451 91.8368L23.5907 91.7024C23.5907 91.6464 23.7027 91.5792 23.7699 91.5232C23.8371 91.4672 23.9603 91.3216 24.0499 91.2096L24.2179 91.0304L24.3859 90.8288C24.4531 90.7392 24.5203 90.6608 24.5763 90.5712C24.6201 90.5211 24.6612 90.4688 24.6995 90.4144C24.7667 90.3136 24.8451 90.2128 24.9123 90.1008C24.9448 90.0642 24.9713 90.0226 24.9907 89.9776C25.0915 89.8432 25.1811 89.6864 25.2707 89.5408V89.4624C25.3491 89.3392 25.4163 89.2048 25.4835 89.0816L25.5507 88.9472C25.6179 88.8128 25.6851 88.6784 25.7411 88.5328L25.9315 88.0624C25.9315 88.0624 25.9315 87.9728 25.9315 87.9168C25.9315 87.8608 26.0099 87.6928 26.0435 87.5808C26.0657 87.5222 26.0844 87.4624 26.0995 87.4016C26.0995 87.3008 26.0995 87.2 26.1891 87.088C26.1891 87.0208 26.1891 86.9424 26.1891 86.8752C26.1891 86.7968 26.1891 86.7184 26.1891 86.64C26.1891 86.528 26.1891 86.4048 26.2451 86.2928V85.9904C26.2507 85.9383 26.2507 85.8857 26.2451 85.8336C26.2451 85.6768 26.2451 85.52 26.2451 85.3632C26.2451 85.2064 26.2451 85.0272 26.2451 84.8704C26.2272 84.8144 26.2007 84.7615 26.1667 84.7136Z" fill="white"/>
<path d="M11.4947 95.9024L10.6659 96.1264L10.2963 95.9136L9.17633 98.792L12.8723 100.942L14.2163 97.4816L11.4947 95.9024Z" fill="white"/>
<path d="M23.6467 74.7456L26.4131 76.3584L28.7427 73.4576L25.0467 71.3072L23.0755 73.7712L23.4451 73.9952L23.6467 74.7456Z" fill="white"/>
<path d="M13.2643 95.4208L11.4948 95.9024L14.2163 97.4816C13.7716 96.861 13.4485 96.1617 13.2643 95.4208Z" fill="white"/>
<path d="M24.1395 76.56C24.6592 76.4241 25.1929 76.3489 25.7299 76.336H26.4691L23.7027 74.7232L24.1395 76.56Z" fill="white"/>
<path d="M13.3427 89.7984C13.3427 89.5856 13.4435 89.3728 13.5107 89.16C13.5107 89.048 13.5107 88.9472 13.5891 88.8352C13.7571 88.2528 13.9587 87.7152 14.1827 87.088L10.4979 84.9376L10.4307 85.1056L10.3299 85.3744L10.1619 85.8336V85.9456L10.0947 86.1696C10.0387 86.3488 9.98275 86.5168 9.93795 86.696C9.93161 86.7443 9.93161 86.7933 9.93795 86.8416C9.93287 86.8975 9.93287 86.9537 9.93795 87.0096C9.88195 87.2224 9.82595 87.4464 9.78115 87.6592C9.77478 87.7225 9.77478 87.7863 9.78115 87.8496C9.77477 87.9316 9.77477 88.014 9.78115 88.096L13.4771 90.2352C13.2755 90.0896 13.3203 90 13.3427 89.7984Z" fill="white"/>
<path d="M17.3635 81.5776C17.6771 81.1968 18.0019 80.816 18.3267 80.4576L18.4275 80.3456L18.8083 79.9648L18.9539 79.8192C19.1779 79.5952 19.4019 79.3824 19.6371 79.1808L15.9411 77.0416C15.7065 77.239 15.4822 77.4484 15.2691 77.6688H15.2019L14.8995 77.9824L14.7427 78.1504C14.5635 78.3296 14.3955 78.52 14.2275 78.7104C14.0371 78.9232 13.8579 79.1472 13.6787 79.3712L17.3635 81.5776Z" fill="white"/>
<path d="M13.2531 90.2464L9.55707 88.096L6.95868 90.3808L10.6547 92.5312L13.2531 90.2464Z" fill="white"/>
<path d="M10.6547 92.5312L6.95868 90.3808L6.96988 93.9872L10.2963 95.9136L10.6659 96.1264L10.6547 92.5312Z" fill="white"/>
<path d="M20.3091 75.7984L16.6131 73.6592L15.9411 77.0416L19.6371 79.1808L20.3091 75.7984Z" fill="white"/>
<path d="M23.4452 73.9952L23.0756 73.7712L19.7492 71.8448L16.6132 73.6592L20.3092 75.7984L23.4452 73.9952Z" fill="white"/>
<path d="M12.8275 85.1952L9.13153 83.0448L10.4979 84.9376L14.1827 87.088L12.8275 85.1952Z" fill="white"/>
<path d="M17.3635 81.5776L13.6676 79.4384L11.338 79.2256L15.0339 81.3648L17.3635 81.5776Z" fill="white"/>
<path d="M15.0339 81.3648L11.3379 79.2256L9.13153 83.0448L12.8275 85.1952L15.0339 81.3648Z" fill="white"/>
<path d="M30.5795 85.4192L33.1779 83.1792V79.5728L30.5795 80.2896C30.3931 79.5495 30.0702 78.8506 29.6275 78.2288L29.8515 77.6464L30.9715 74.768L28.7315 73.5024L26.4019 76.4032H25.7299C25.2109 76.4277 24.6962 76.5103 24.1955 76.6496L23.7027 74.8128L23.5011 74.0624L20.3651 75.8656L19.6931 79.2256C19.4579 79.4272 19.2339 79.64 19.0099 79.864L18.8643 80.0096L18.4835 80.3904L18.3827 80.5024C18.0579 80.8608 17.7331 81.2416 17.4195 81.6224L15.0899 81.4096L12.8499 85.24L14.2051 87.1328C13.9811 87.7152 13.7795 88.2528 13.6115 88.88C13.6115 88.992 13.6115 89.0928 13.5331 89.2048C13.4547 89.3168 13.4211 89.6304 13.3651 89.8432C13.3091 90.056 13.2979 90.1344 13.2755 90.28L10.6771 92.52V96.1152L11.5059 95.8912L13.2755 95.4096C13.4597 96.1506 13.7827 96.8498 14.2275 97.4704L12.8835 100.931L15.1235 102.197L17.1059 99.7328L17.4531 99.296C18.2072 99.3568 18.966 99.2809 19.6931 99.072L20.3875 101.659L23.4899 99.856L24.1619 96.496C24.9751 95.766 25.7245 94.9679 26.4019 94.1104L28.7315 94.312L30.9715 90.4928L29.6051 88.6C30.025 87.5712 30.3511 86.5066 30.5795 85.4192ZM26.1779 85.9792V86.2816C26.1779 86.3936 26.1779 86.5168 26.1219 86.6288C26.0659 86.7408 26.1219 86.7856 26.1219 86.864C26.1219 86.9424 26.1219 87.0096 26.1219 87.0768C26.1219 87.144 26.1219 87.2896 26.0323 87.3904C26.0172 87.4512 25.9985 87.511 25.9763 87.5696C25.9763 87.6816 25.9091 87.7936 25.8643 87.9056C25.8195 88.0176 25.8643 88.0064 25.8643 88.0512L25.6739 88.5216C25.6179 88.6672 25.5507 88.8016 25.4835 88.936L25.4163 89.0704C25.3491 89.1936 25.2819 89.328 25.2035 89.4512V89.5296C25.1139 89.6752 25.0243 89.832 24.9235 89.9664C24.9041 90.0114 24.8777 90.053 24.8451 90.0896C24.7779 90.2016 24.6995 90.3024 24.6323 90.4032C24.594 90.4576 24.5529 90.5099 24.5091 90.56C24.5091 90.6496 24.3859 90.728 24.3187 90.8176L24.1507 91.0192L23.9827 91.1984C23.8931 91.3104 23.7923 91.4112 23.7027 91.512C23.6131 91.6128 23.5795 91.6352 23.5235 91.6912L23.3779 91.8256L23.2659 91.9152C23.1319 92.0403 22.9898 92.1563 22.8403 92.2624L22.7171 92.3632L22.5827 92.4528C22.4535 92.5466 22.3189 92.6326 22.1795 92.7104C22.0115 92.8112 21.8435 92.8896 21.6867 92.968L21.4739 93.0464L21.1715 93.1584H20.9811H20.8019H20.5779H20.1075C20.0033 93.1694 19.8982 93.1694 19.7939 93.1584H19.7267L19.4915 93.0912H19.4131L19.1331 92.968C18.7705 92.7291 18.4697 92.4076 18.2556 92.0299C18.0414 91.6522 17.9199 91.229 17.9011 90.7952C17.8893 90.5975 17.8893 90.3993 17.9011 90.2016C17.9816 88.715 18.4108 87.2681 19.154 85.9781C19.8973 84.6881 20.9337 83.5912 22.1795 82.776C22.368 82.6713 22.5625 82.5778 22.7619 82.496C23.1688 82.2817 23.6246 82.1772 24.0842 82.1929C24.5438 82.2086 24.9914 82.344 25.3827 82.5856L25.5059 82.6752L25.6403 82.7984C25.6804 82.8329 25.7179 82.8703 25.7523 82.9104L25.8755 83.056C25.838 83.1373 25.789 83.2127 25.7299 83.28C25.7712 83.3372 25.8087 83.397 25.8419 83.4592C25.8613 83.5111 25.8876 83.5601 25.9203 83.6048L25.9987 83.8176L26.0659 83.9744C26.0659 84.0528 26.0659 84.1424 26.0659 84.2208C26.071 84.2767 26.071 84.3329 26.0659 84.3888C26.073 84.4895 26.073 84.5905 26.0659 84.6912C26.0721 84.7395 26.0721 84.7885 26.0659 84.8368C26.0659 84.9936 26.0659 85.1616 26.0659 85.3296C26.115 85.5439 26.1524 85.7608 26.1779 85.9792Z" fill="white"/>
<path opacity="0.2" d="M17.4195 99.3072L17.0723 99.744L20.4323 101.67L19.7379 99.0832C18.9858 99.3017 18.1995 99.3777 17.4195 99.3072Z" fill="#660806"/>
<path opacity="0.2" d="M30.5684 80.2448L33.1668 79.528L29.8068 77.6016L29.5828 78.184C30.0374 78.8032 30.3717 79.5022 30.5684 80.2448Z" fill="#660806"/>
<path opacity="0.2" d="M26.1667 84.7136C26.1738 84.6129 26.1738 84.5119 26.1667 84.4112C26.1718 84.3553 26.1718 84.2991 26.1667 84.2432C26.1667 84.1648 26.1667 84.0752 26.1667 83.9968L26.0995 83.84L26.0211 83.6272C25.9884 83.5825 25.962 83.5335 25.9427 83.4816C25.8782 83.4079 25.807 83.3404 25.7299 83.28C25.704 83.2327 25.674 83.1877 25.6403 83.1456L25.5171 83C25.4826 82.9599 25.4452 82.9225 25.4051 82.888L25.2707 82.7648L25.1475 82.6752C24.7562 82.4336 24.3086 82.2982 23.849 82.2825C23.3894 82.2668 22.9336 82.3713 22.5267 82.5856C22.5385 82.7833 22.5385 82.9815 22.5267 83.1792C22.5267 83.336 22.5267 83.4928 22.5267 83.6496C22.5267 83.8064 22.5267 83.7616 22.5267 83.8064V84.12C22.5267 84.232 22.5267 84.344 22.5267 84.456C22.5214 84.5343 22.5214 84.6129 22.5267 84.6912C22.5216 84.7658 22.5216 84.8406 22.5267 84.9152C22.5267 85.016 22.4707 85.1168 22.4371 85.2176C22.4035 85.3184 22.4371 85.3408 22.4371 85.3968C22.4371 85.4528 22.3587 85.632 22.3139 85.744V85.8784C22.3139 86.0352 22.1907 86.2032 22.1235 86.36L21.9219 86.7856L21.8547 86.9088L21.6531 87.2896V87.368L21.3843 87.816C21.3517 87.855 21.3217 87.8962 21.2947 87.9392L21.0819 88.2416L20.9587 88.4096L20.7683 88.656L20.6003 88.8576C20.5447 88.9183 20.4924 88.9818 20.4435 89.048L20.1523 89.3504L19.9731 89.5296L19.8275 89.664L19.5811 89.8768L19.4355 90L19.1667 90.2016L19.0323 90.3024L18.6291 90.56L18.2371 90.7616H18.1363H18.0467C18.0655 91.1954 18.187 91.6186 18.4011 91.9963C18.6153 92.374 18.9161 92.6955 19.2787 92.9344L19.5587 93.0576L19.7939 93.1248H19.8611C19.9653 93.1358 20.0705 93.1358 20.1747 93.1248H20.6451H20.8691H21.0483H21.2387L21.5411 93.0128L21.7539 92.9344H21.8547L22.2467 92.7216C22.3861 92.6438 22.5207 92.5577 22.6499 92.464L22.7843 92.3744L22.9075 92.2736L23.0531 92.1728L23.1987 92.0496L23.3331 91.9264L23.4451 91.8368L23.5907 91.7024C23.5907 91.6464 23.7027 91.5792 23.7699 91.5232C23.8371 91.4672 23.9603 91.3216 24.0499 91.2096L24.2179 91.0304L24.3859 90.8288C24.4531 90.7392 24.5203 90.6608 24.5763 90.5712C24.6201 90.5211 24.6612 90.4688 24.6995 90.4144C24.7667 90.3136 24.8451 90.2128 24.9123 90.1008C24.9448 90.0642 24.9713 90.0226 24.9907 89.9776C25.0915 89.8432 25.1811 89.6864 25.2707 89.5408V89.4624C25.3491 89.3392 25.4163 89.2048 25.4835 89.0816L25.5507 88.9472C25.6179 88.8128 25.6851 88.6784 25.7411 88.5328L25.9315 88.0624C25.9315 88.0624 25.9315 87.9728 25.9315 87.9168C25.9315 87.8608 26.0099 87.6928 26.0435 87.5808C26.0657 87.5222 26.0844 87.4624 26.0995 87.4016C26.0995 87.3008 26.0995 87.2 26.1891 87.088C26.1891 87.0208 26.1891 86.9424 26.1891 86.8752C26.1891 86.7968 26.1891 86.7184 26.1891 86.64C26.1891 86.528 26.1891 86.4048 26.2451 86.2928V85.9904C26.2507 85.9383 26.2507 85.8857 26.2451 85.8336C26.2451 85.6768 26.2451 85.52 26.2451 85.3632C26.2451 85.2064 26.2451 85.0272 26.2451 84.8704C26.2272 84.8144 26.2007 84.7615 26.1667 84.7136Z" fill="#660806"/>
<path opacity="0.2" d="M11.4947 95.9024L10.6659 96.1264L10.2963 95.9136L9.17633 98.792L12.8723 100.942L14.2163 97.4816L11.4947 95.9024Z" fill="#660806"/>
<path opacity="0.2" d="M13.2643 95.4208L11.4948 95.9024L14.2163 97.4816C13.7716 96.861 13.4485 96.1617 13.2643 95.4208Z" fill="#660806"/>
<path opacity="0.2" d="M24.1395 76.56C24.6592 76.4241 25.1929 76.3489 25.7299 76.336H26.4691L23.7027 74.7232L24.1395 76.56Z" fill="#660806"/>
<path opacity="0.2" d="M13.3427 89.7984C13.3427 89.5856 13.4435 89.3728 13.5107 89.16C13.5107 89.048 13.5107 88.9472 13.5891 88.8352C13.7571 88.2528 13.9587 87.7152 14.1827 87.088L10.4979 84.9376L10.4307 85.1056L10.3299 85.3744L10.1619 85.8336V85.9456L10.0947 86.1696C10.0387 86.3488 9.98275 86.5168 9.93795 86.696C9.93161 86.7443 9.93161 86.7933 9.93795 86.8416C9.93287 86.8975 9.93287 86.9537 9.93795 87.0096C9.88195 87.2224 9.82595 87.4464 9.78115 87.6592C9.77478 87.7225 9.77478 87.7863 9.78115 87.8496C9.77477 87.9316 9.77477 88.014 9.78115 88.096L13.4771 90.2352C13.2755 90.0896 13.3203 90 13.3427 89.7984Z" fill="#660806"/>
<path opacity="0.2" d="M10.6547 92.5312L6.95868 90.3808L6.96988 93.9872L10.2963 95.9136L10.6659 96.1264L10.6547 92.5312Z" fill="#660806"/>
<path opacity="0.2" d="M20.3091 75.7984L16.6131 73.6592L15.9411 77.0416L19.6371 79.1808L20.3091 75.7984Z" fill="#660806"/>
<path opacity="0.2" d="M12.8275 85.1952L9.13153 83.0448L10.4979 84.9376L14.1827 87.088L12.8275 85.1952Z" fill="#660806"/>
<path opacity="0.2" d="M17.3635 81.5776L13.6676 79.4384L11.338 79.2256L15.0339 81.3648L17.3635 81.5776Z" fill="#660806"/>
<path opacity="0.2" d="M23.6467 74.7456L26.4131 76.3584L28.7427 73.4576L25.0467 71.3072L23.0755 73.7712L23.4451 73.9952L23.6467 74.7456Z" fill="#3F0706"/>
<path opacity="0.2" d="M17.3635 81.5776C17.6771 81.1968 18.0019 80.816 18.3267 80.4576L18.4275 80.3456L18.8083 79.9648L18.9539 79.8192C19.1779 79.5952 19.4019 79.3824 19.6371 79.1808L15.9411 77.0416C15.7065 77.239 15.4822 77.4484 15.2691 77.6688H15.2019L14.8995 77.9824L14.7427 78.1504C14.5635 78.3296 14.3955 78.52 14.2275 78.7104C14.0371 78.9232 13.8579 79.1472 13.6787 79.3712L17.3635 81.5776Z" fill="#3F0706"/>
<path opacity="0.2" d="M13.2531 90.2464L9.55707 88.096L6.95868 90.3808L10.6547 92.5312L13.2531 90.2464Z" fill="#3F0706"/>
<path opacity="0.2" d="M23.4452 73.9952L23.0756 73.7712L19.7492 71.8448L16.6132 73.6592L20.3092 75.7984L23.4452 73.9952Z" fill="#3F0706"/>
<path opacity="0.2" d="M15.0339 81.3648L11.3379 79.2256L9.13153 83.0448L12.8275 85.1952L15.0339 81.3648Z" fill="#3F0706"/>
<path d="M17.7219 200.566L17.1507 201.294L22.7507 204.52L21.6307 200.186C20.3636 200.559 19.0372 200.688 17.7219 200.566Z" fill="white"/>
<path d="M39.7523 168.646L44.0979 167.448L38.4979 164.211L38.1171 165.186C38.8695 166.229 39.4238 167.402 39.7523 168.646Z" fill="white"/>
<path d="M32.3827 176.117C32.3827 175.949 32.3827 175.781 32.3043 175.613L32.2371 175.344C32.2371 175.198 32.1699 175.064 32.1251 174.93C32.0983 174.841 32.0646 174.755 32.0243 174.672L31.8899 174.314L31.7555 174.067C31.7555 173.966 31.6435 173.866 31.5763 173.765C31.5304 173.689 31.478 173.618 31.4195 173.552C31.3587 173.461 31.2913 173.375 31.2179 173.294L31.0275 173.104L30.8035 172.891L30.5907 172.746C29.9343 172.348 29.1869 172.126 28.4201 172.101C27.6533 172.075 26.8928 172.247 26.2115 172.6C26.2288 172.932 26.2288 173.265 26.2115 173.597C26.2115 173.854 26.2115 174.123 26.2115 174.392V174.65C26.2115 174.818 26.2115 174.986 26.1555 175.165L26.0547 175.736C26.0547 175.87 26.0547 175.994 25.9763 176.128C25.8979 176.262 25.9763 176.374 25.8867 176.498L25.7523 177.013L25.6627 177.304C25.5955 177.506 25.5395 177.696 25.4611 177.886C25.44 177.966 25.4139 178.045 25.3827 178.122C25.2819 178.39 25.1811 178.648 25.0579 178.917V179.006C24.9459 179.242 24.8451 179.466 24.7219 179.701L24.6211 179.914C24.5091 180.138 24.3859 180.35 24.2739 180.563L24.1955 180.686C24.0499 180.944 23.9043 181.19 23.7475 181.426C23.5907 181.661 23.6467 181.571 23.6019 181.638L23.2435 182.154L23.0419 182.422C22.9411 182.568 22.8291 182.702 22.7171 182.837C22.6051 182.971 22.5379 183.072 22.4371 183.184L22.1683 183.498L21.6867 184.002L21.3843 184.304L21.1379 184.528L20.7347 184.886L20.4883 185.088L20.0403 185.435L19.8163 185.592C19.5923 185.749 19.3683 185.894 19.1331 186.029C18.8979 186.163 18.6963 186.264 18.4723 186.365L18.3043 186.443L18.1587 186.499C18.1921 187.224 18.3961 187.93 18.7543 188.561C19.1124 189.191 19.6144 189.728 20.2195 190.128C20.3647 190.215 20.5186 190.286 20.6787 190.341H20.7795C20.9108 190.388 21.0456 190.426 21.1827 190.453H21.2835C21.461 190.487 21.6406 190.509 21.8211 190.52H22.3699H22.5827L22.9523 190.464L23.2435 190.397L23.5571 190.307L24.0611 190.139L24.4195 190.005L24.5875 189.926C24.8108 189.824 25.0277 189.708 25.2371 189.579C25.4723 189.456 25.6963 189.299 25.9315 189.154C25.9976 189.095 26.0689 189.043 26.1443 188.997L26.3571 188.829L26.5923 188.65L26.8387 188.448L27.0627 188.258L27.2531 188.09L27.4883 187.866L27.7907 187.563C27.9587 187.395 28.1155 187.227 28.2723 187.048L28.5523 186.746L28.8211 186.398L29.1459 185.984L29.3363 185.715L29.6947 185.2L29.8403 184.987C29.9971 184.752 30.1427 184.506 30.2883 184.248L30.3667 184.125C30.4787 183.912 30.6019 183.699 30.7139 183.475C30.7468 183.402 30.7842 183.331 30.8259 183.262C30.9379 183.027 31.0499 182.803 31.1507 182.568C31.1465 182.535 31.1465 182.501 31.1507 182.467C31.2627 182.21 31.3635 181.941 31.4643 181.683L31.5539 181.448C31.6211 181.258 31.6883 181.056 31.7443 180.866L31.8339 180.574L31.9683 180.059C31.9683 179.936 32.0355 179.813 32.0579 179.69C32.0579 179.555 32.1139 179.432 32.1363 179.298C32.1363 179.107 32.2147 178.917 32.2371 178.726L32.3043 178.2C32.2988 178.118 32.2988 178.036 32.3043 177.954C32.3043 177.685 32.3043 177.416 32.3043 177.158C32.3043 176.901 32.3043 176.598 32.3043 176.341L32.3827 176.117Z" fill="white"/>
<path d="M7.82115 194.866L6.42115 195.246L5.81635 194.888L3.93475 199.693L10.1171 203.288L12.3796 197.509L7.82115 194.866Z" fill="white"/>
<path d="M28.1603 159.451L32.7971 162.139L36.6835 157.278L30.5011 153.683L27.1971 157.805L27.8243 158.174L28.1603 159.451Z" fill="white"/>
<path d="M10.7779 194.059L7.82111 194.866L12.3683 197.52C11.6279 196.475 11.0886 195.302 10.7779 194.059Z" fill="white"/>
<path d="M28.9891 162.509C29.8219 162.276 30.6788 162.141 31.5427 162.106H32.2147H32.6291H32.7971L28.1715 159.44L28.9891 162.509Z" fill="white"/>
<path d="M10.9123 184.651L11.1811 183.531C11.1811 183.352 11.2819 183.173 11.3267 182.994C11.6067 182.008 11.9427 181.034 12.3235 180.059L6.14112 176.464C6.10859 176.556 6.0712 176.645 6.02912 176.733C6.02912 176.878 5.92832 177.035 5.87232 177.181C5.81632 177.326 5.68192 177.707 5.59232 177.965L5.52512 178.133C5.49449 178.262 5.45711 178.389 5.41312 178.514C5.32352 178.816 5.22272 179.107 5.14432 179.398C5.14432 179.477 5.14432 179.555 5.06592 179.645L4.99872 179.936C4.89792 180.294 4.81952 180.653 4.72992 181.056L4.65152 181.37C4.65152 181.504 4.65152 181.65 4.57312 181.784L10.7555 185.379C10.8003 185.133 10.8675 184.886 10.9123 184.651Z" fill="white"/>
<path d="M17.6435 170.886C18.1587 170.226 18.7635 169.61 19.2563 169.005L19.4355 168.814L20.0515 168.187L20.3091 167.918C20.6787 167.56 21.0595 167.202 21.4291 166.866L15.2467 163.27C14.8659 163.606 14.4851 163.965 14.1267 164.334L14.0259 164.424C13.8467 164.592 13.6787 164.771 13.5107 164.95L13.2419 165.219C12.9507 165.533 12.6707 165.846 12.3907 166.171C12.0883 166.53 11.7747 166.888 11.4835 167.291L17.6435 170.886Z" fill="white"/>
<path d="M10.7555 185.379L4.57314 181.784L0.227539 185.614L6.40994 189.21L10.7555 185.379Z" fill="white"/>
<path d="M6.40994 189.21L0.227539 185.614L0.238741 191.651L5.81634 194.888L6.42113 195.246L6.40994 189.21Z" fill="white"/>
<path d="M22.5827 161.198L16.3891 157.614L15.2579 163.27L21.4403 166.866L22.5827 161.198Z" fill="white"/>
<path d="M27.8243 158.174L27.1971 157.805L21.6419 154.579L16.3891 157.614L22.5827 161.198L27.8243 158.174Z" fill="white"/>
<path d="M10.0387 176.934L3.85632 173.339L6.14112 176.509L12.3235 180.104L10.0387 176.934Z" fill="white"/>
<path d="M17.6436 170.886L11.4612 167.291L7.55237 166.933L13.746 170.528L17.6436 170.886Z" fill="white"/>
<path d="M13.7459 170.528L7.55232 166.933L3.85632 173.339L10.0387 176.934L13.7459 170.528Z" fill="white"/>
<path d="M39.7747 177.36L44.1203 173.53V167.493L39.7747 168.691C39.4565 167.45 38.9137 166.277 38.1731 165.23L38.5539 164.256L40.4355 159.44L36.7059 157.323L32.8195 162.184H32.6515H32.2371H31.5651C30.7012 162.219 29.8443 162.355 29.0115 162.587L28.1715 159.44L27.8243 158.163L22.5827 161.187L21.4627 166.854C21.0819 167.19 20.7011 167.549 20.3427 167.907L20.0851 168.176L19.4691 168.803L19.2899 168.994C18.7411 169.598 18.1699 170.214 17.6771 170.875L13.7795 170.517L10.0499 176.934L12.2899 180.104C11.9091 181.078 11.5731 182.053 11.2931 183.038C11.2931 183.218 11.1923 183.397 11.1475 183.576L10.8787 184.696C10.8787 184.931 10.7667 185.178 10.7219 185.424L6.37634 189.254L6.37634 195.28L7.77634 194.899L10.7331 194.093C11.0614 195.327 11.6159 196.489 12.3683 197.52L10.1283 203.299L13.8579 205.427L17.2179 201.306L17.7891 200.578C19.0748 200.688 20.3698 200.559 21.6083 200.197L22.7283 204.531L27.9699 201.485L29.0899 195.829C30.4731 194.609 31.7438 193.267 32.8867 191.819L36.7955 192.166L40.4915 185.76L38.2515 182.602C38.9049 180.9 39.4144 179.147 39.7747 177.36ZM32.4051 178.278L32.3379 178.805C32.3379 178.995 32.2707 179.186 32.2371 179.376C32.2035 179.566 32.2371 179.634 32.1587 179.768C32.0803 179.902 32.1587 180.014 32.0691 180.138L31.9347 180.653L31.8451 180.944C31.8451 181.134 31.7219 181.336 31.6547 181.526L31.5651 181.762C31.4643 182.019 31.3635 182.288 31.2515 182.546C31.2473 182.579 31.2473 182.613 31.2515 182.646C31.1507 182.882 31.0387 183.106 30.9267 183.341C30.8851 183.409 30.8477 183.48 30.8147 183.554C30.7027 183.778 30.5795 183.99 30.4675 184.203L30.3891 184.326C30.2435 184.584 30.0979 184.83 29.9411 185.066L29.7955 185.278L29.4371 185.794L29.2467 186.062L28.9219 186.477C28.8211 186.589 28.7315 186.712 28.6419 186.824L28.3619 187.126C28.2051 187.306 28.0483 187.474 27.8803 187.642L27.5779 187.944L27.3427 188.168L27.1523 188.336C26.9134 188.538 26.6782 188.728 26.4467 188.907L26.2339 189.075C26.1585 189.121 26.0873 189.174 26.0211 189.232C25.7859 189.378 25.5619 189.534 25.3267 189.658C25.0624 189.815 24.7894 189.957 24.5091 190.083L24.1507 190.218C23.9865 190.287 23.8182 190.347 23.6467 190.397L23.3331 190.486L23.0307 190.554L22.6611 190.61H22.4371H21.8771C21.6967 190.599 21.5171 190.576 21.3395 190.542H21.2275C21.0905 190.515 20.9557 190.478 20.8243 190.43H20.7011C20.5411 190.376 20.3872 190.304 20.2419 190.218C19.6369 189.818 19.1348 189.281 18.7767 188.65C18.4186 188.02 18.2145 187.313 18.1811 186.589C18.1635 186.257 18.1635 185.924 18.1811 185.592C18.3109 183.103 19.0281 180.68 20.2739 178.521C21.5198 176.362 23.2589 174.529 25.3491 173.171C25.6636 172.991 25.989 172.83 26.3235 172.69C27.0049 172.337 27.7654 172.165 28.5322 172.19C29.2989 172.216 30.0464 172.438 30.7027 172.835L30.9155 172.981L31.1395 173.194L31.3299 173.384C31.4033 173.465 31.4707 173.551 31.5315 173.642C31.59 173.708 31.6425 173.779 31.6883 173.854C31.7555 173.955 31.8115 174.056 31.8675 174.157L32.0019 174.403L32.1363 174.762C32.1767 174.845 32.2104 174.931 32.2371 175.019C32.2371 175.154 32.3155 175.288 32.3491 175.434L32.4163 175.702C32.4163 175.87 32.4163 176.038 32.4947 176.206V176.464C32.4947 176.722 32.4947 177.002 32.4947 177.282C32.4947 177.562 32.4499 177.886 32.4499 178.234L32.4051 178.278Z" fill="white"/>
<path opacity="0.2" d="M17.7219 200.566L17.1507 201.294L22.7507 204.52L21.6307 200.186C20.3636 200.559 19.0372 200.688 17.7219 200.566Z" fill="#660806"/>
<path opacity="0.2" d="M39.7523 168.646L44.0979 167.448L38.4979 164.211L38.1171 165.186C38.8695 166.229 39.4238 167.402 39.7523 168.646Z" fill="#660806"/>
<path opacity="0.2" d="M32.3827 176.117C32.3827 175.949 32.3827 175.781 32.3043 175.613L32.2371 175.344C32.2371 175.198 32.1699 175.064 32.1251 174.93C32.0983 174.841 32.0646 174.755 32.0243 174.672L31.8899 174.314L31.7555 174.067C31.7555 173.966 31.6435 173.866 31.5763 173.765C31.5304 173.689 31.478 173.618 31.4195 173.552C31.3587 173.461 31.2913 173.375 31.2179 173.294L31.0275 173.104L30.8035 172.891L30.5907 172.746C29.9343 172.348 29.1869 172.126 28.4201 172.101C27.6533 172.075 26.8928 172.247 26.2115 172.6C26.2288 172.932 26.2288 173.265 26.2115 173.597C26.2115 173.854 26.2115 174.123 26.2115 174.392V174.65C26.2115 174.818 26.2115 174.986 26.1555 175.165L26.0547 175.736C26.0547 175.87 26.0547 175.994 25.9763 176.128C25.8979 176.262 25.9763 176.374 25.8867 176.498L25.7523 177.013L25.6627 177.304C25.5955 177.506 25.5395 177.696 25.4611 177.886C25.44 177.966 25.4139 178.045 25.3827 178.122C25.2819 178.39 25.1811 178.648 25.0579 178.917V179.006C24.9459 179.242 24.8451 179.466 24.7219 179.701L24.6211 179.914C24.5091 180.138 24.3859 180.35 24.2739 180.563L24.1955 180.686C24.0499 180.944 23.9043 181.19 23.7475 181.426C23.5907 181.661 23.6467 181.571 23.6019 181.638L23.2435 182.154L23.0419 182.422C22.9411 182.568 22.8291 182.702 22.7171 182.837C22.6051 182.971 22.5379 183.072 22.4371 183.184L22.1683 183.498L21.6867 184.002L21.3843 184.304L21.1379 184.528L20.7347 184.886L20.4883 185.088L20.0403 185.435L19.8163 185.592C19.5923 185.749 19.3683 185.894 19.1331 186.029C18.8979 186.163 18.6963 186.264 18.4723 186.365L18.3043 186.443L18.1587 186.499C18.1921 187.224 18.3961 187.93 18.7543 188.561C19.1124 189.191 19.6144 189.728 20.2195 190.128C20.3647 190.215 20.5186 190.286 20.6787 190.341H20.7795C20.9108 190.388 21.0456 190.426 21.1827 190.453H21.2835C21.461 190.487 21.6406 190.509 21.8211 190.52H22.3699H22.5827L22.9523 190.464L23.2435 190.397L23.5571 190.307L24.0611 190.139L24.4195 190.005L24.5875 189.926C24.8108 189.824 25.0277 189.708 25.2371 189.579C25.4723 189.456 25.6963 189.299 25.9315 189.154C25.9976 189.095 26.0689 189.043 26.1443 188.997L26.3571 188.829L26.5923 188.65L26.8387 188.448L27.0627 188.258L27.2531 188.09L27.4883 187.866L27.7907 187.563C27.9587 187.395 28.1155 187.227 28.2723 187.048L28.5523 186.746L28.8211 186.398L29.1459 185.984L29.3363 185.715L29.6947 185.2L29.8403 184.987C29.9971 184.752 30.1427 184.506 30.2883 184.248L30.3667 184.125C30.4787 183.912 30.6019 183.699 30.7139 183.475C30.7468 183.402 30.7842 183.331 30.8259 183.262C30.9379 183.027 31.0499 182.803 31.1507 182.568C31.1465 182.535 31.1465 182.501 31.1507 182.467C31.2627 182.21 31.3635 181.941 31.4643 181.683L31.5539 181.448C31.6211 181.258 31.6883 181.056 31.7443 180.866L31.8339 180.574L31.9683 180.059C31.9683 179.936 32.0355 179.813 32.0579 179.69C32.0579 179.555 32.1139 179.432 32.1363 179.298C32.1363 179.107 32.2147 178.917 32.2371 178.726L32.3043 178.2C32.2988 178.118 32.2988 178.036 32.3043 177.954C32.3043 177.685 32.3043 177.416 32.3043 177.158C32.3043 176.901 32.3043 176.598 32.3043 176.341L32.3827 176.117Z" fill="#660806"/>
<path opacity="0.2" d="M7.82115 194.866L6.42115 195.246L5.81635 194.888L3.93475 199.693L10.1171 203.288L12.3796 197.509L7.82115 194.866Z" fill="#660806"/>
<path opacity="0.2" d="M10.7779 194.059L7.82111 194.866L12.3683 197.52C11.6279 196.475 11.0886 195.302 10.7779 194.059Z" fill="#660806"/>
<path opacity="0.2" d="M28.9891 162.509C29.8219 162.276 30.6788 162.141 31.5427 162.106H32.2147H32.6291H32.7971L28.1715 159.44L28.9891 162.509Z" fill="#660806"/>
<path opacity="0.2" d="M10.9123 184.651L11.1811 183.531C11.1811 183.352 11.2819 183.173 11.3267 182.994C11.6067 182.008 11.9427 181.034 12.3235 180.059L6.14112 176.464C6.10859 176.556 6.0712 176.645 6.02912 176.733C6.02912 176.878 5.92832 177.035 5.87232 177.181C5.81632 177.326 5.68192 177.707 5.59232 177.965L5.52512 178.133C5.49449 178.262 5.45711 178.389 5.41312 178.514C5.32352 178.816 5.22272 179.107 5.14432 179.398C5.14432 179.477 5.14432 179.555 5.06592 179.645L4.99872 179.936C4.89792 180.294 4.81952 180.653 4.72992 181.056L4.65152 181.37C4.65152 181.504 4.65152 181.65 4.57312 181.784L10.7555 185.379C10.8003 185.133 10.8675 184.886 10.9123 184.651Z" fill="#660806"/>
<path opacity="0.2" d="M6.40994 189.21L0.227539 185.614L0.238741 191.651L5.81634 194.888L6.42113 195.246L6.40994 189.21Z" fill="#660806"/>
<path opacity="0.2" d="M22.5827 161.198L16.3891 157.614L15.2579 163.27L21.4403 166.866L22.5827 161.198Z" fill="#660806"/>
<path opacity="0.2" d="M10.0387 176.934L3.85632 173.339L6.14112 176.509L12.3235 180.104L10.0387 176.934Z" fill="#660806"/>
<path opacity="0.2" d="M17.6436 170.886L11.4612 167.291L7.55237 166.933L13.746 170.528L17.6436 170.886Z" fill="#660806"/>
<path opacity="0.2" d="M28.1603 159.451L32.7971 162.139L36.6835 157.278L30.5011 153.683L27.1971 157.805L27.8243 158.174L28.1603 159.451Z" fill="#3F0706"/>
<path opacity="0.2" d="M17.6435 170.886C18.1587 170.226 18.7635 169.61 19.2563 169.005L19.4355 168.814L20.0515 168.187L20.3091 167.918C20.6787 167.56 21.0595 167.202 21.4291 166.866L15.2467 163.27C14.8659 163.606 14.4851 163.965 14.1267 164.334L14.0259 164.424C13.8467 164.592 13.6787 164.771 13.5107 164.95L13.2419 165.219C12.9507 165.533 12.6707 165.846 12.3907 166.171C12.0883 166.53 11.7747 166.888 11.4835 167.291L17.6435 170.886Z" fill="#3F0706"/>
<path opacity="0.2" d="M10.7555 185.379L4.57314 181.784L0.227539 185.614L6.40994 189.21L10.7555 185.379Z" fill="#3F0706"/>
<path opacity="0.2" d="M27.8243 158.174L27.1971 157.805L21.6419 154.579L16.3891 157.614L22.5827 161.198L27.8243 158.174Z" fill="#3F0706"/>
<path opacity="0.2" d="M13.7459 170.528L7.55232 166.933L3.85632 173.339L10.0387 176.934L13.7459 170.528Z" fill="#3F0706"/>
</svg>
