<svg width="75" height="86" viewBox="0 0 75 86" fill="none" xmlns="http://www.w3.org/2000/svg">
<path d="M63.0582 0.911998L4.48222 34.8032C3.31766 35.4756 2.34996 36.4418 1.67583 37.6053C1.00169 38.7688 0.644732 40.0889 0.640625 41.4336L0.640625 71.2256C0.672502 72.5599 1.05705 73.862 1.75519 74.9995C2.45333 76.137 3.44016 77.0695 4.61542 77.702C5.79067 78.3346 7.11245 78.6447 8.44641 78.601C9.78037 78.5572 11.079 78.1611 12.2102 77.4528L22.895 71.1808L18.3254 83.0976C18.3562 83.1305 18.3899 83.1605 18.4262 83.1872H18.4934C19.6134 83.9264 21.5846 84.9792 22.0326 85.2144C22.1351 85.2466 22.2462 85.2378 22.3423 85.1898C22.4384 85.1417 22.5121 85.0582 22.5478 84.9568L38.7766 62.12L70.7638 43.64C71.9344 42.9707 72.9073 42.004 73.5839 40.8376C74.2605 39.6713 74.6167 38.3468 74.6166 36.9984V7.128C74.6166 1.64 66.4966 -1.0592 63.0582 0.911998Z" fill="#660806"/>
<path opacity="0.2" d="M22.8728 71.1808L27.3976 68.5264L22.0216 85.2592L18.3032 83.0976L22.8728 71.1808Z" fill="white"/>
<path opacity="0.4" d="M9.24195 42.016C9.72941 41.0247 10.4246 40.1499 11.2804 39.4512C11.5721 39.2131 11.883 38.9996 12.2099 38.8128L70.7859 4.92162C71.1754 4.69537 71.618 4.57663 72.0684 4.57757C72.5188 4.5785 72.9608 4.69906 73.3494 4.92693C73.7379 5.15479 74.0588 5.48177 74.2795 5.87442C74.5001 6.26707 74.6125 6.71128 74.6051 7.16162C74.6051 1.64002 66.4852 -1.02558 63.0468 0.945616L4.47073 34.8368C3.27905 35.5294 2.29329 36.5267 1.61475 37.7264L9.24195 42.016Z" fill="white"/>
<path opacity="0.2" d="M8.37979 75.2352L8.37979 45.4432C8.37613 45.1398 8.39487 44.8366 8.43581 44.536C8.56116 43.6567 8.83378 42.8048 9.24221 42.016L1.6262 37.6928C0.984915 38.8356 0.645721 40.1232 0.640625 41.4336L0.640625 71.2256C0.672502 72.5599 1.05705 73.862 1.75519 74.9995C2.45333 76.137 3.44016 77.0695 4.61541 77.702C5.79066 78.3346 7.11244 78.6447 8.4464 78.601C9.78036 78.5572 11.0789 78.1611 12.2102 77.4528C11.8221 77.6809 11.3805 77.8018 10.9303 77.8033C10.4802 77.8047 10.0378 77.6867 9.64823 77.4612C9.25868 77.2356 8.936 76.9107 8.71314 76.5196C8.49028 76.1286 8.37524 75.6853 8.37979 75.2352Z" fill="white"/>
</svg>
