<svg width="142" height="278" viewBox="0 0 142 278" fill="none" xmlns="http://www.w3.org/2000/svg">
<path d="M141.453 24.3218C141.453 23.9186 141.453 23.5154 141.453 23.101C141.453 22.877 141.453 22.6418 141.453 22.4066C141.453 21.9362 141.352 21.477 141.296 21.0066C141.296 20.8722 141.296 20.7378 141.296 20.6034C141.296 20.469 141.296 20.6034 141.296 20.5362C141.296 20.469 141.296 20.3794 141.296 20.301C141.229 19.8642 141.128 19.4498 141.028 19.0354L140.927 18.621L140.826 18.2402C140.826 18.1058 140.725 17.9714 140.68 17.837C140.568 17.4786 140.456 17.1426 140.322 16.8066C140.322 16.6834 140.244 16.5714 140.199 16.4594C140.154 16.3474 140.076 16.213 140.02 16.0898C139.964 15.9666 139.807 15.6082 139.684 15.3842L139.516 15.0146C139.381 14.7682 139.247 14.533 139.101 14.2978L135.148 9.81779C135.36 10.165 135.551 10.5346 135.73 10.9378C135.551 10.5682 135.36 10.1986 135.148 9.81779L118.941 31.837L110.34 32.8002L108.794 28.197L104.84 23.717L121.248 1.16019C111.504 -0.206209 99.3972 5.8082 92.4196 15.2722C85.442 24.7362 87.9397 31.8482 93.2485 39.1842L24.6036 132.424C17.2676 132.099 10.3349 134.373 5.18285 141.384C0.0308528 148.395 -0.84275 156.717 2.45005 162.53L6.40365 167.01L17.3013 152.203L25.9029 151.24L27.4485 155.843L17.01 169.989L20.9636 174.469C21.4004 174.469 21.8484 174.469 22.2852 174.379L22.7444 174.312L23.618 174.189L24.1557 174.077L24.9621 173.909L25.5332 173.763L26.2949 173.551H26.4069L27.0788 173.327L27.5493 173.17C27.8741 173.058 28.1877 172.923 28.5013 172.8L28.8036 172.677H28.8708C29.4196 172.442 29.9909 172.184 30.4949 171.915L30.7188 171.803C30.7934 171.769 30.8647 171.728 30.9316 171.68C31.346 171.467 31.7381 171.243 32.1413 170.997L32.3765 170.863H32.4436C32.9028 170.583 33.3508 170.28 33.7988 169.967H33.8549L34.1349 169.754C34.4485 169.519 34.762 169.283 35.0644 169.037L35.21 168.936L35.5349 168.656L36.2741 168.018L36.4869 167.839L36.7557 167.581L37.4388 166.92L37.6964 166.674L37.8869 166.461C38.1221 166.215 38.3461 165.957 38.57 165.699L38.8613 165.397C38.8922 165.344 38.9298 165.295 38.9732 165.251C39.2644 164.904 39.5444 164.546 39.8132 164.187L39.9924 163.963L40.0596 163.874C40.3956 163.426 40.6981 162.967 40.9893 162.519L41.0677 162.395L41.2021 162.171C41.4597 161.746 41.706 161.32 41.9188 160.895L42.0532 160.671L42.1205 160.514C42.2325 160.301 42.3221 160.088 42.4229 159.875C42.5237 159.663 42.5797 159.517 42.6469 159.338C42.7141 159.159 42.8148 158.901 42.8932 158.688C42.9716 158.475 43.0052 158.408 43.05 158.274V158.173C43.1172 157.971 43.162 157.77 43.218 157.568C43.274 157.367 43.3301 157.21 43.3749 157.031C43.4197 156.851 43.4532 156.627 43.498 156.437C43.5428 156.247 43.5764 156.079 43.5988 155.911C43.6212 155.743 43.6549 155.507 43.6885 155.306C43.7221 155.104 43.6884 154.959 43.7444 154.791C43.8004 154.623 43.7444 154.387 43.7444 154.186C43.7444 153.984 43.7444 153.883 43.7444 153.738C43.7444 153.592 43.7444 153.738 43.7444 153.738C43.7669 153.309 43.7669 152.879 43.7444 152.45C43.7504 152.334 43.7504 152.218 43.7444 152.103C43.7237 151.78 43.6863 151.458 43.6324 151.139C43.6324 151.072 43.6324 151.005 43.6324 150.927C43.6324 150.848 43.6324 150.77 43.6324 150.691C43.6324 150.613 43.5541 150.266 43.5093 150.053C43.4645 149.84 43.442 149.728 43.3972 149.56L43.2293 148.911C43.2293 148.81 43.1732 148.698 43.1396 148.597C43.1445 148.549 43.1445 148.5 43.1396 148.451C43.0612 148.194 42.9717 147.925 42.8821 147.667C42.7925 147.41 42.8036 147.421 42.7588 147.298C42.6244 146.917 42.4789 146.544 42.3221 146.178L111.997 51.5378L113.688 51.6274H114.204H115.324H116.936H117.586H118.504H119.176L120.05 51.5602L120.722 51.4594L121.551 51.3474L122.223 51.213L123.018 51.045L123.679 50.8658L124.272 50.709H124.418C124.989 50.5298 125.538 50.3282 126.109 50.093H126.165L126.871 49.757C127.072 49.6674 127.274 49.5778 127.487 49.4658C127.868 49.2642 128.248 49.0514 128.607 48.8162H128.674L129.01 48.2002C129.245 48.0434 129.492 47.8978 129.727 47.7298L129.973 47.5394L130.343 47.2594L130.724 46.9682L131.216 46.5426L131.552 46.2514L131.709 46.117C132.034 45.8258 132.348 45.5122 132.672 45.1874L132.74 45.1202C133.109 44.7282 133.49 44.325 133.86 43.8882L133.916 43.8098C134.173 43.5074 134.431 43.1826 134.677 42.8578L135.148 42.2754L135.215 42.1634C135.674 41.5474 136.1 40.9202 136.503 40.2818L136.604 40.1362C136.895 39.6733 137.175 39.2028 137.444 38.725L137.556 38.501C137.765 38.1351 137.966 37.7618 138.16 37.381L138.261 37.157C138.53 36.6082 138.776 36.037 139.012 35.5106L139.191 35.1074C139.471 34.4242 139.728 33.7298 139.964 33.0466C139.962 33.0093 139.962 32.9719 139.964 32.9346L140.12 32.3746C140.255 31.9378 140.389 31.4898 140.512 31.053C140.58 30.7954 140.636 30.5378 140.692 30.269C140.748 30.0002 140.882 29.4626 140.96 29.0594L141.095 28.2418C141.151 27.8498 141.207 27.4578 141.252 27.1218C141.296 26.7858 141.319 26.573 141.341 26.3042C141.364 26.0354 141.397 25.5314 141.408 25.1842V24.6802C141.464 24.5122 141.453 24.4226 141.453 24.3218ZM137.477 18.5986V17.893V18.5986ZM137.287 16.5154C137.287 16.3474 137.287 16.1906 137.22 16.0226C137.253 16.1906 137.264 16.3474 137.287 16.5154ZM135.898 11.5874C136.01 11.8226 136.1 12.0578 136.2 12.3042C136.1 12.0578 136.01 11.8226 135.898 11.5874ZM37.1029 123.979C37.0969 124.084 37.0969 124.189 37.1029 124.293C37.1701 124.192 37.1701 124.091 37.1029 123.979ZM37.1029 123.453V123.139V123.431V123.453ZM93.898 47.0802H93.8308C94.0039 47.0322 94.1797 46.9948 94.3573 46.9682L93.898 47.0802ZM92.9013 47.461H93.0132H92.9013ZM98.0869 47.965L97.9973 47.8866L98.0869 47.965ZM96.5301 47.0802C96.8118 47.1631 97.0826 47.2796 97.3365 47.4274C97.0826 47.2796 96.8118 47.1631 96.5301 47.0802ZM96.2165 47.0242C96.0333 46.9734 95.8458 46.9396 95.6565 46.9234C95.8566 46.9355 96.0553 46.9655 96.2501 47.013L96.2165 47.0242ZM95.2645 46.9234C95.0853 46.9234 94.9173 46.9234 94.7493 46.9234C94.9318 46.908 95.1151 46.9043 95.298 46.9122L95.2645 46.9234ZM91.2885 48.6258H91.2324H91.2885ZM37.2596 125.077C37.2633 125.051 37.2633 125.025 37.2596 124.999C37.2738 125.019 37.2851 125.042 37.2932 125.066L37.2596 125.077ZM37.2596 122.591C37.2596 122.523 37.2597 122.445 37.3157 122.367C37.3717 122.288 37.2709 122.512 37.2485 122.579L37.2596 122.591ZM37.6293 121.571C37.6293 121.571 37.6293 121.571 37.6293 121.515C37.6293 121.459 37.6292 121.538 37.618 121.56L37.6293 121.571ZM19.7093 169.731H19.8436H19.7093ZM22.386 169.093L23.17 168.835L22.386 169.093ZM23.6405 168.679L24.2005 168.455L23.6405 168.679ZM26.6085 167.379L26.7988 167.279L26.6085 167.379ZM28.2549 166.461L28.5572 166.282L28.2549 166.461ZM30.17 165.195C30.1913 165.171 30.2182 165.151 30.2485 165.139L30.17 165.195ZM37.1029 157.882C37.1701 157.77 37.2373 157.647 37.3157 157.535C37.1701 157.647 37.1701 157.77 37.0805 157.882H37.1029ZM38.1444 156.045C38.1786 155.991 38.2086 155.935 38.2341 155.877C38.2014 155.936 38.164 155.992 38.1221 156.045H38.1444ZM39.7349 151.341C39.7349 151.341 39.7349 151.285 39.7349 151.263C39.7349 151.263 39.7124 151.33 39.7124 151.352L39.7349 151.341ZM39.8357 150.658C39.8357 150.49 39.8356 150.311 39.8916 150.143C39.858 150.322 39.8244 150.501 39.8132 150.669L39.8357 150.658ZM39.7013 146.01L39.7685 146.447L39.7013 146.01ZM39.8805 147.41C39.8805 147.522 39.8805 147.634 39.8805 147.746C39.8783 147.637 39.8708 147.529 39.858 147.421L39.8805 147.41ZM115.223 46.8226L116.096 46.7442L115.223 46.8226ZM116.768 46.6546L117.608 46.5426L116.768 46.6546ZM119.725 46.061L120.464 45.8482L119.725 46.061ZM122.615 45.0194L122.917 44.885L122.615 45.0194ZM128.394 40.9986C128.495 40.8866 128.607 40.797 128.708 40.685L128.394 40.9986ZM129.604 39.7106C129.727 39.5762 129.85 39.453 129.962 39.3074C129.828 39.4642 129.704 39.5874 129.581 39.7218L129.604 39.7106ZM130.724 38.3554C130.903 38.1314 131.082 37.9074 131.261 37.661C131.06 37.9186 130.88 38.1202 130.701 38.3666L130.724 38.3554ZM134.218 32.8338C134.243 32.7755 134.273 32.7194 134.308 32.6658C134.265 32.7222 134.228 32.7821 134.196 32.845L134.218 32.8338ZM136.01 28.5554C136.01 28.4546 136.01 28.3538 136.1 28.253C136.1 28.3538 136.044 28.4546 136.01 28.5554ZM137.052 24.5682C137.052 24.445 137.052 24.3218 137.052 24.1986C137.052 24.3218 137.052 24.445 137.052 24.5682Z" fill="white"/>
<path d="M104.661 23.672L108.626 28.1744L111.773 37.5376L107.82 33.0352L104.661 23.672Z" fill="white"/>
<g opacity="0.3">
<path opacity="0.3" d="M104.661 23.672L108.626 28.1744L111.773 37.5376L107.82 33.0352L104.661 23.672Z" fill="black"/>
</g>
<path d="M140.714 30.28C140.819 29.8768 140.908 29.4736 140.983 29.0704L141.117 28.2528C141.173 27.8608 141.229 27.4688 141.274 27.1328C141.319 26.7968 141.341 26.584 141.364 26.3152C141.386 26.0464 141.42 25.5424 141.431 25.1952V24.6912C141.431 24.5904 141.431 24.5008 141.431 24.4C141.431 23.9968 141.431 23.5936 141.431 23.1792C141.431 22.9552 141.431 22.72 141.431 22.4848C141.431 22.0144 141.33 21.5552 141.274 21.0848C141.274 20.9504 141.274 20.816 141.274 20.6816C141.274 20.5472 141.274 20.6816 141.274 20.6144C141.274 20.5472 141.274 20.4576 141.274 20.3792C141.196 19.9424 141.106 19.528 141.005 19.1136L140.904 18.6992L140.804 18.3184C140.804 18.184 140.703 18.0496 140.658 17.9152C140.546 17.5568 140.434 17.2208 140.3 16.8848C140.3 16.7616 140.221 16.6496 140.176 16.5376L139.997 16.168C139.896 15.9328 139.785 15.6864 139.661 15.4624L139.493 15.0928C139.359 14.8464 139.224 14.6112 139.079 14.376L135.125 9.896C135.338 10.2432 135.529 10.6128 135.708 11.016C135.833 11.2446 135.945 11.4802 136.044 11.7216C136.156 11.9568 136.245 12.192 136.346 12.4384C136.447 12.6848 136.592 13.1104 136.704 13.4576C136.816 13.8048 136.872 13.984 136.951 14.2528L137.052 14.6672C137.164 15.084 137.254 15.5064 137.321 15.9328C137.325 16.0074 137.325 16.0822 137.321 16.1568C137.321 16.3248 137.321 16.4816 137.388 16.6496C137.444 17.1088 137.511 17.568 137.544 18.0384V18.7328C137.544 19.1472 137.544 19.5504 137.544 19.9536C137.544 20.3568 137.544 20.48 137.544 20.7488C137.544 21.0176 137.544 21.5104 137.477 21.8688C137.41 22.2272 137.421 22.4176 137.388 22.6864C137.354 22.9552 137.287 23.4704 137.231 23.8624L137.096 24.68C137.014 25.0832 136.925 25.4864 136.828 25.8896C136.772 26.1472 136.716 26.416 136.648 26.6736C136.525 27.1104 136.391 27.5584 136.256 27.9952C136.189 28.2192 136.133 28.4432 136.055 28.6672C135.82 29.3504 135.562 30.0448 135.282 30.728L135.103 31.1312C134.868 31.68 134.621 32.2512 134.352 32.7776C134.084 33.304 133.893 33.6736 133.647 34.1104C133.614 34.1873 133.577 34.262 133.535 34.3344C133.244 34.8608 132.919 35.376 132.594 35.88C132.269 36.384 131.765 37.1568 131.306 37.7728C131.127 38.0192 130.948 38.2432 130.768 38.4672C130.589 38.6912 130.265 39.1168 130.007 39.4192C129.615 39.8896 129.223 40.3264 128.82 40.7408L128.752 40.808C128.383 41.1776 128.013 41.536 127.632 41.872L127.296 42.1632C127.005 42.4096 126.714 42.656 126.423 42.88L126.053 43.16L125.09 43.8208L124.832 43.9888C124.418 44.2464 123.992 44.4928 123.578 44.7056C123.365 44.8176 123.164 44.9072 122.951 44.9968C122.738 45.0864 122.458 45.2432 122.201 45.344C121.641 45.5792 121.08 45.7808 120.509 45.96L119.77 46.1728L119.109 46.352L118.314 46.52L117.642 46.6544L116.813 46.7664L116.141 46.856L115.268 46.9344L114.596 46.9904H113.677H113.028C112.692 46.9904 112.356 46.9904 112.02 46.9904C111.684 46.9904 111.617 46.9904 111.415 46.9904H110.295H109.78L108.089 46.912L112.042 51.392L113.733 51.4816H114.249H115.369H116.981H117.631H118.549H119.221L120.095 51.4144L120.767 51.3136L121.596 51.2016L122.268 51.0672L123.063 50.8992L123.724 50.72L124.317 50.5632H124.463C125.034 50.384 125.583 50.1824 126.154 49.9472H126.21L126.916 49.6112C127.117 49.5216 127.319 49.432 127.532 49.32C127.912 49.1184 128.293 48.9056 128.652 48.6704H128.719L129.01 48.2C129.245 48.0432 129.492 47.8976 129.727 47.7296L129.973 47.5392L130.343 47.2592L130.724 46.968L131.216 46.5424L131.552 46.2512L131.709 46.1168C132.034 45.8256 132.348 45.512 132.672 45.1872L132.74 45.12C133.109 44.728 133.49 44.3248 133.86 43.888L133.916 43.8096C134.173 43.5072 134.431 43.1824 134.677 42.8576L135.148 42.2752L135.215 42.1632C135.674 41.5472 136.1 40.92 136.503 40.2816L136.604 40.136C136.895 39.6731 137.175 39.2027 137.444 38.7248C137.488 38.6537 137.525 38.5787 137.556 38.5008C137.765 38.1349 137.966 37.7616 138.161 37.3808L138.261 37.1568C138.53 36.608 138.776 36.0368 139.012 35.5104L139.191 35.1072C139.471 34.424 139.728 33.7296 139.964 33.0464C139.962 33.0091 139.962 32.9717 139.964 32.9344L140.121 32.3744C140.255 31.9376 140.389 31.4896 140.512 31.0528C140.602 30.8176 140.658 30.56 140.714 30.28Z" fill="white"/>
<path opacity="0.2" d="M140.714 30.28C140.819 29.8768 140.908 29.4736 140.983 29.0704L141.117 28.2528C141.173 27.8608 141.229 27.4688 141.274 27.1328C141.319 26.7968 141.341 26.584 141.364 26.3152C141.386 26.0464 141.42 25.5424 141.431 25.1952V24.6912C141.431 24.5904 141.431 24.5008 141.431 24.4C141.431 23.9968 141.431 23.5936 141.431 23.1792C141.431 22.9552 141.431 22.72 141.431 22.4848C141.431 22.0144 141.33 21.5552 141.274 21.0848C141.274 20.9504 141.274 20.816 141.274 20.6816C141.274 20.5472 141.274 20.6816 141.274 20.6144C141.274 20.5472 141.274 20.4576 141.274 20.3792C141.196 19.9424 141.106 19.528 141.005 19.1136L140.904 18.6992L140.804 18.3184C140.804 18.184 140.703 18.0496 140.658 17.9152C140.546 17.5568 140.434 17.2208 140.3 16.8848C140.3 16.7616 140.221 16.6496 140.176 16.5376L139.997 16.168C139.896 15.9328 139.785 15.6864 139.661 15.4624L139.493 15.0928C139.359 14.8464 139.224 14.6112 139.079 14.376L135.125 9.896C135.338 10.2432 135.529 10.6128 135.708 11.016C135.833 11.2446 135.945 11.4802 136.044 11.7216C136.156 11.9568 136.245 12.192 136.346 12.4384C136.447 12.6848 136.592 13.1104 136.704 13.4576C136.816 13.8048 136.872 13.984 136.951 14.2528L137.052 14.6672C137.164 15.084 137.254 15.5064 137.321 15.9328C137.325 16.0074 137.325 16.0822 137.321 16.1568C137.321 16.3248 137.321 16.4816 137.388 16.6496C137.444 17.1088 137.511 17.568 137.544 18.0384V18.7328C137.544 19.1472 137.544 19.5504 137.544 19.9536C137.544 20.3568 137.544 20.48 137.544 20.7488C137.544 21.0176 137.544 21.5104 137.477 21.8688C137.41 22.2272 137.421 22.4176 137.388 22.6864C137.354 22.9552 137.287 23.4704 137.231 23.8624L137.096 24.68C137.014 25.0832 136.925 25.4864 136.828 25.8896C136.772 26.1472 136.716 26.416 136.648 26.6736C136.525 27.1104 136.391 27.5584 136.256 27.9952C136.189 28.2192 136.133 28.4432 136.055 28.6672C135.82 29.3504 135.562 30.0448 135.282 30.728L135.103 31.1312C134.868 31.68 134.621 32.2512 134.352 32.7776C134.084 33.304 133.893 33.6736 133.647 34.1104C133.614 34.1873 133.577 34.262 133.535 34.3344C133.244 34.8608 132.919 35.376 132.594 35.88C132.269 36.384 131.765 37.1568 131.306 37.7728C131.127 38.0192 130.948 38.2432 130.768 38.4672C130.589 38.6912 130.265 39.1168 130.007 39.4192C129.615 39.8896 129.223 40.3264 128.82 40.7408L128.752 40.808C128.383 41.1776 128.013 41.536 127.632 41.872L127.296 42.1632C127.005 42.4096 126.714 42.656 126.423 42.88L126.053 43.16L125.09 43.8208L124.832 43.9888C124.418 44.2464 123.992 44.4928 123.578 44.7056C123.365 44.8176 123.164 44.9072 122.951 44.9968C122.738 45.0864 122.458 45.2432 122.201 45.344C121.641 45.5792 121.08 45.7808 120.509 45.96L119.77 46.1728L119.109 46.352L118.314 46.52L117.642 46.6544L116.813 46.7664L116.141 46.856L115.268 46.9344L114.596 46.9904H113.677H113.028C112.692 46.9904 112.356 46.9904 112.02 46.9904C111.684 46.9904 111.617 46.9904 111.415 46.9904H110.295H109.78L108.089 46.912L112.042 51.392L113.733 51.4816H114.249H115.369H116.981H117.631H118.549H119.221L120.095 51.4144L120.767 51.3136L121.596 51.2016L122.268 51.0672L123.063 50.8992L123.724 50.72L124.317 50.5632H124.463C125.034 50.384 125.583 50.1824 126.154 49.9472H126.21L126.916 49.6112C127.117 49.5216 127.319 49.432 127.532 49.32C127.912 49.1184 128.293 48.9056 128.652 48.6704H128.719L129.01 48.2C129.245 48.0432 129.492 47.8976 129.727 47.7296L129.973 47.5392L130.343 47.2592L130.724 46.968L131.216 46.5424L131.552 46.2512L131.709 46.1168C132.034 45.8256 132.348 45.512 132.672 45.1872L132.74 45.12C133.109 44.728 133.49 44.3248 133.86 43.888L133.916 43.8096C134.173 43.5072 134.431 43.1824 134.677 42.8576L135.148 42.2752L135.215 42.1632C135.674 41.5472 136.1 40.92 136.503 40.2816L136.604 40.136C136.895 39.6731 137.175 39.2027 137.444 38.7248C137.488 38.6537 137.525 38.5787 137.556 38.5008C137.765 38.1349 137.966 37.7616 138.161 37.3808L138.261 37.1568C138.53 36.608 138.776 36.0368 139.012 35.5104L139.191 35.1072C139.471 34.424 139.728 33.7296 139.964 33.0464C139.962 33.0091 139.962 32.9717 139.964 32.9344L140.121 32.3744C140.255 31.9376 140.389 31.4896 140.512 31.0528C140.602 30.8176 140.658 30.56 140.714 30.28Z" fill="black"/>
<path d="M13.3476 147.701L17.3012 152.203L6.40361 167.01L2.45001 162.507L13.3476 147.701Z" fill="white"/>
<g opacity="0.2">
<path opacity="0.2" d="M13.3476 147.701L17.3012 152.203L6.40361 167.01L2.45001 162.507L13.3476 147.701Z" fill="black"/>
</g>
<path d="M98.0196 53.7216L101.973 58.224L49.5572 129.422L45.6036 124.92L98.0196 53.7216Z" fill="white"/>
<path d="M41.9188 130.733L37.9652 126.253C38.2105 126.539 38.502 126.781 38.8276 126.97C40.8772 128.146 43.9124 127.239 45.5476 124.954L49.5012 129.434C47.81 131.674 44.7748 132.626 42.7252 131.45C42.4219 131.253 42.15 131.011 41.9188 130.733Z" fill="white"/>
<path d="M45.6036 124.92L49.5572 129.4L45.6036 124.92Z" fill="white"/>
<path d="M45.5924 124.931L49.546 129.411L49.2772 129.747L45.3236 125.267L45.5924 124.92" fill="white"/>
<path d="M45.3236 125.278L49.2772 129.758L48.9972 130.061L45.0436 125.581L45.3236 125.278Z" fill="white"/>
<path d="M45.01 125.581L48.9637 130.061L48.6837 130.33L44.73 125.85L45.01 125.581Z" fill="white"/>
<path d="M44.7636 125.85L48.7172 130.33L48.426 130.587L44.4724 126.107L44.7636 125.85Z" fill="white"/>
<path d="M44.4724 126.107L48.426 130.587L48.1012 130.822L44.1476 126.342L44.4724 126.107Z" fill="white"/>
<path d="M44.1477 126.342L48.1012 130.822L47.7652 131.058L43.8116 126.578L44.1477 126.354" fill="white"/>
<path d="M43.8116 126.6L47.7652 131.08L47.3732 131.293L43.4196 126.813L43.8116 126.589" fill="white"/>
<path d="M43.4196 126.79L47.3732 131.27C47.2284 131.35 47.0788 131.421 46.9252 131.483L42.9716 127.003L43.4196 126.79Z" fill="white"/>
<path d="M42.9716 127.003L46.9253 131.483C46.7356 131.566 46.5411 131.637 46.3429 131.696L42.3892 127.216C42.5875 127.157 42.7819 127.086 42.9716 127.003Z" fill="white"/>
<path d="M42.3892 127.216L46.3429 131.696C45.7617 131.896 45.1457 131.975 44.5329 131.926C43.9202 131.878 43.324 131.704 42.7813 131.416C42.4589 131.227 42.1679 130.989 41.9188 130.71L37.9652 126.23C38.2105 126.516 38.502 126.758 38.8276 126.947C39.3703 127.236 39.9666 127.409 40.5793 127.458C41.192 127.506 41.8081 127.427 42.3892 127.227" fill="white"/>
<path d="M98.7029 48.4016C100.752 49.5216 101.044 52.4 99.3525 54.7072L46.9365 125.894C45.2453 128.19 42.2101 129.098 40.1605 127.922C38.1109 126.746 37.8197 123.912 39.5109 121.616L91.9269 50.44C93.6181 48.1216 96.6533 47.2144 98.7029 48.4016Z" fill="white"/>
<g opacity="0.1">
<path opacity="0.1" d="M98.7029 48.4016C100.752 49.5216 101.044 52.4 99.3525 54.7072L46.9365 125.894C45.2453 128.19 42.2101 129.098 40.1605 127.922C38.1109 126.746 37.8197 123.912 39.5109 121.616L91.9269 50.44C93.6181 48.1216 96.6533 47.2144 98.7029 48.4016Z" fill="black"/>
</g>
<path d="M24.3013 146.469L28.2549 150.971L17.3013 152.203L13.3477 147.701L24.3013 146.469Z" fill="white"/>
<g opacity="0.4">
<path opacity="0.4" d="M24.3013 146.469L28.2549 150.971L17.3013 152.203L13.3477 147.701L24.3013 146.469Z" fill="black"/>
</g>
<path d="M107.999 46.8336L111.952 51.336L42.2773 145.976L38.3237 141.474L107.999 46.8336Z" fill="white"/>
<g opacity="0.3">
<path opacity="0.3" d="M107.999 46.8336L111.952 51.336L42.2773 145.976L38.3237 141.474L107.999 46.8336Z" fill="black"/>
</g>
<path d="M131.25 37.672C124.698 46.632 117.317 47.3936 108.01 46.8336L38.2901 141.474C40.6421 147.13 40.8101 152.864 36.1173 159.237C31.4245 165.61 23.8757 169.709 16.9989 169.989L27.415 155.843L24.2678 146.469L13.3142 147.701L2.45014 162.507C-0.842664 156.694 0.042139 148.35 5.18294 141.362C10.3237 134.373 17.2677 132.099 24.6037 132.402L93.2486 39.1504C87.9174 31.8144 85.4085 24.7136 92.4197 15.2384C99.4309 5.76321 111.46 -0.239992 121.249 1.12641L104.673 23.6496L107.82 33.0128L118.773 31.792L134.98 9.77281C139.46 17.1088 137.858 28.7008 131.25 37.672ZM45.615 124.92L98.031 53.7216C99.7222 51.4144 99.431 48.592 97.3814 47.416C95.3318 46.24 92.3077 47.136 90.6053 49.432L38.1893 120.63C36.5093 122.926 36.7893 125.749 38.8389 126.936C40.8885 128.123 43.9237 127.205 45.5589 124.92" fill="white"/>
<path d="M131.25 37.672C124.698 46.632 117.317 47.3936 108.01 46.8336L38.2901 141.474C40.6421 147.13 40.8101 152.864 36.1173 159.237C31.4245 165.61 23.8757 169.709 16.9989 169.989L27.415 155.843L24.2678 146.469L13.3142 147.701L2.45014 162.507C-0.842664 156.694 0.042139 148.35 5.18294 141.362C10.3237 134.373 17.2677 132.099 24.6037 132.402L93.2486 39.1504C87.9174 31.8144 85.4085 24.7136 92.4197 15.2384C99.4309 5.76321 111.46 -0.239992 121.249 1.12641L104.673 23.6496L107.82 33.0128L118.773 31.792L134.98 9.77281C139.46 17.1088 137.858 28.7008 131.25 37.672ZM45.615 124.92L98.031 53.7216C99.7222 51.4144 99.431 48.592 97.3814 47.416C95.3318 46.24 92.3077 47.136 90.6053 49.432L38.1893 120.63C36.5093 122.926 36.7893 125.749 38.8389 126.936C40.8885 128.123 43.9237 127.205 45.5589 124.92" fill="white"/>
<g opacity="0.2">
<path opacity="0.2" d="M131.25 37.672C124.698 46.632 117.317 47.3936 108.01 46.8336L38.2901 141.474C40.6421 147.13 40.8101 152.864 36.1173 159.237C31.4245 165.61 23.8757 169.709 16.9989 169.989L27.415 155.843L24.2678 146.469L13.3142 147.701L2.45014 162.507C-0.842664 156.694 0.042139 148.35 5.18294 141.362C10.3237 134.373 17.2677 132.099 24.6037 132.402L93.2486 39.1504C87.9174 31.8144 85.4085 24.7136 92.4197 15.2384C99.4309 5.76321 111.46 -0.239992 121.249 1.12641L104.673 23.6496L107.82 33.0128L118.773 31.792L134.98 9.77281C139.46 17.1088 137.858 28.7008 131.25 37.672ZM45.615 124.92L98.031 53.7216C99.7222 51.4144 99.431 48.592 97.3814 47.416C95.3318 46.24 92.3077 47.136 90.6053 49.432L38.1893 120.63C36.5093 122.926 36.7893 125.749 38.8389 126.936C40.8885 128.123 43.9237 127.205 45.5589 124.92" fill="white"/>
</g>
<path d="M43.4533 156.896C43.4533 156.694 43.5317 156.493 43.5765 156.302C43.6213 156.112 43.6549 155.944 43.6773 155.776C43.6997 155.608 43.7333 155.373 43.7669 155.171C43.8005 154.97 43.7669 154.824 43.8229 154.656C43.8789 154.488 43.8229 154.253 43.8229 154.051V153.603C43.8454 153.174 43.8454 152.744 43.8229 152.315C43.8289 152.2 43.8289 152.084 43.8229 151.968C43.8022 151.645 43.7648 151.324 43.7109 151.005C43.7109 150.938 43.7109 150.87 43.7109 150.792C43.7109 150.714 43.7109 150.635 43.7109 150.557C43.7109 150.478 43.6325 150.131 43.5877 149.918C43.5429 149.706 43.5205 149.594 43.4757 149.426L43.3077 148.776C43.3077 148.675 43.2517 148.563 43.2181 148.462C43.223 148.414 43.223 148.365 43.2181 148.317C43.1397 148.059 43.0501 147.79 42.9605 147.533C42.8709 147.275 42.8821 147.286 42.8373 147.163C42.7029 146.782 42.5573 146.409 42.4005 146.043L38.4469 141.563C38.6037 141.944 38.7493 142.317 38.8837 142.683C38.8837 142.806 38.9733 142.93 39.0069 143.053C39.0405 143.176 39.1861 143.579 39.2645 143.837L39.3989 144.296L39.5669 144.946C39.5669 145.114 39.6453 145.27 39.6789 145.438C39.7125 145.606 39.7685 145.864 39.8021 146.077L39.8693 146.525C39.9238 146.844 39.9612 147.165 39.9813 147.488C39.9813 147.6 39.9813 147.712 39.9813 147.824C40.0037 148.257 40.0037 148.69 39.9813 149.123C39.9813 149.28 39.9813 149.448 39.9813 149.616C39.9813 149.784 39.9813 150.019 39.9813 150.221C39.9813 150.422 39.9813 150.568 39.9253 150.736C39.8693 150.904 39.8693 151.139 39.8357 151.341C39.8021 151.542 39.7685 151.688 39.7349 151.867C39.7013 152.046 39.6565 152.259 39.6117 152.461C39.5669 152.662 39.5109 152.819 39.4549 152.998C39.3989 153.178 39.3541 153.402 39.2869 153.603C39.2197 153.805 39.1637 153.939 39.0965 154.118C39.0293 154.298 38.9397 154.544 38.8501 154.768C38.7605 154.992 38.7045 155.115 38.6261 155.294C38.5477 155.474 38.4357 155.731 38.3237 155.944C38.2117 156.157 38.1893 156.19 38.1221 156.314C37.9093 156.739 37.6629 157.176 37.4053 157.602C37.3269 157.714 37.2597 157.837 37.1925 157.949C36.9013 158.397 36.5989 158.856 36.2629 159.304C36.1845 159.416 36.0949 159.517 36.0165 159.618C35.7477 159.976 35.4677 160.334 35.1765 160.682L34.7733 161.13C34.5493 161.387 34.3253 161.645 34.0901 161.891L33.6421 162.35L32.9589 163.011L32.4773 163.448C32.2309 163.672 31.9845 163.874 31.7381 164.086L31.2677 164.467C30.9653 164.714 30.6517 164.949 30.3381 165.184L30.0021 165.43C29.5541 165.744 29.1061 166.046 28.6469 166.326L28.3445 166.506C27.9525 166.741 27.5493 166.976 27.1349 167.189L26.6981 167.424C26.1605 167.693 25.5781 167.95 25.0741 168.186H24.9845L24.6709 168.309L23.7301 168.678L23.2597 168.835L22.4757 169.093C22.2293 169.171 21.9717 169.227 21.7141 169.294L21.1429 169.451L20.3477 169.619L19.7989 169.731L18.9253 169.854H18.4661C18.0275 169.91 17.5864 169.944 17.1445 169.955L21.0981 174.435C21.5349 174.435 21.9829 174.435 22.4197 174.346L22.8789 174.278L23.7525 174.155L24.2901 174.043L25.0965 173.875L25.6677 173.73L26.4293 173.517H26.5413L27.2133 173.293L27.6837 173.136C28.0085 173.024 28.3221 172.89 28.6357 172.766L28.9381 172.643H29.0053C29.5541 172.408 30.1253 172.15 30.6293 171.882L30.8533 171.77C30.9279 171.735 30.9991 171.694 31.0661 171.646C31.4805 171.434 31.8725 171.21 32.2757 170.963L32.5109 170.829H32.5781C33.0373 170.549 33.4853 170.246 33.9333 169.933H33.9893L34.2693 169.72C34.5829 169.485 34.8965 169.25 35.1989 169.003L35.3445 168.902L35.6693 168.622L36.4085 167.984L36.6213 167.805L36.8901 167.547L37.5733 166.886L37.8309 166.64L38.0213 166.427C38.2565 166.181 38.4805 165.923 38.7045 165.666L38.9957 165.363C39.0266 165.31 39.0643 165.261 39.1077 165.218C39.3989 164.87 39.6789 164.512 39.9477 164.154L40.1269 163.93L40.1941 163.84C40.5301 163.392 40.8325 162.933 41.1237 162.485L41.2021 162.362L41.3365 162.138C41.5941 161.712 41.8405 161.286 42.0533 160.861L42.1877 160.637L42.2549 160.48C42.3669 160.267 42.4565 160.054 42.5573 159.842C42.6581 159.629 42.7141 159.483 42.7813 159.304C42.8485 159.125 42.9493 158.867 43.0277 158.654C43.1061 158.442 43.1397 158.374 43.1845 158.24V158.139C43.2517 157.938 43.2965 157.736 43.3525 157.534C43.4085 157.333 43.4085 157.075 43.4533 156.896Z" fill="white"/>
<path opacity="0.2" d="M43.4533 156.896C43.4533 156.694 43.5317 156.493 43.5765 156.302C43.6213 156.112 43.6549 155.944 43.6773 155.776C43.6997 155.608 43.7333 155.373 43.7669 155.171C43.8005 154.97 43.7669 154.824 43.8229 154.656C43.8789 154.488 43.8229 154.253 43.8229 154.051V153.603C43.8454 153.174 43.8454 152.744 43.8229 152.315C43.8289 152.2 43.8289 152.084 43.8229 151.968C43.8022 151.645 43.7648 151.324 43.7109 151.005C43.7109 150.938 43.7109 150.87 43.7109 150.792C43.7109 150.714 43.7109 150.635 43.7109 150.557C43.7109 150.478 43.6325 150.131 43.5877 149.918C43.5429 149.706 43.5205 149.594 43.4757 149.426L43.3077 148.776C43.3077 148.675 43.2517 148.563 43.2181 148.462C43.223 148.414 43.223 148.365 43.2181 148.317C43.1397 148.059 43.0501 147.79 42.9605 147.533C42.8709 147.275 42.8821 147.286 42.8373 147.163C42.7029 146.782 42.5573 146.409 42.4005 146.043L38.4469 141.563C38.6037 141.944 38.7493 142.317 38.8837 142.683C38.8837 142.806 38.9733 142.93 39.0069 143.053C39.0405 143.176 39.1861 143.579 39.2645 143.837L39.3989 144.296L39.5669 144.946C39.5669 145.114 39.6453 145.27 39.6789 145.438C39.7125 145.606 39.7685 145.864 39.8021 146.077L39.8693 146.525C39.9238 146.844 39.9612 147.165 39.9813 147.488C39.9813 147.6 39.9813 147.712 39.9813 147.824C40.0037 148.257 40.0037 148.69 39.9813 149.123C39.9813 149.28 39.9813 149.448 39.9813 149.616C39.9813 149.784 39.9813 150.019 39.9813 150.221C39.9813 150.422 39.9813 150.568 39.9253 150.736C39.8693 150.904 39.8693 151.139 39.8357 151.341C39.8021 151.542 39.7685 151.688 39.7349 151.867C39.7013 152.046 39.6565 152.259 39.6117 152.461C39.5669 152.662 39.5109 152.819 39.4549 152.998C39.3989 153.178 39.3541 153.402 39.2869 153.603C39.2197 153.805 39.1637 153.939 39.0965 154.118C39.0293 154.298 38.9397 154.544 38.8501 154.768C38.7605 154.992 38.7045 155.115 38.6261 155.294C38.5477 155.474 38.4357 155.731 38.3237 155.944C38.2117 156.157 38.1893 156.19 38.1221 156.314C37.9093 156.739 37.6629 157.176 37.4053 157.602C37.3269 157.714 37.2597 157.837 37.1925 157.949C36.9013 158.397 36.5989 158.856 36.2629 159.304C36.1845 159.416 36.0949 159.517 36.0165 159.618C35.7477 159.976 35.4677 160.334 35.1765 160.682L34.7733 161.13C34.5493 161.387 34.3253 161.645 34.0901 161.891L33.6421 162.35L32.9589 163.011L32.4773 163.448C32.2309 163.672 31.9845 163.874 31.7381 164.086L31.2677 164.467C30.9653 164.714 30.6517 164.949 30.3381 165.184L30.0021 165.43C29.5541 165.744 29.1061 166.046 28.6469 166.326L28.3445 166.506C27.9525 166.741 27.5493 166.976 27.1349 167.189L26.6981 167.424C26.1605 167.693 25.5781 167.95 25.0741 168.186H24.9845L24.6709 168.309L23.7301 168.678L23.2597 168.835L22.4757 169.093C22.2293 169.171 21.9717 169.227 21.7141 169.294L21.1429 169.451L20.3477 169.619L19.7989 169.731L18.9253 169.854H18.4661C18.0275 169.91 17.5864 169.944 17.1445 169.955L21.0981 174.435C21.5349 174.435 21.9829 174.435 22.4197 174.346L22.8789 174.278L23.7525 174.155L24.2901 174.043L25.0965 173.875L25.6677 173.73L26.4293 173.517H26.5413L27.2133 173.293L27.6837 173.136C28.0085 173.024 28.3221 172.89 28.6357 172.766L28.9381 172.643H29.0053C29.5541 172.408 30.1253 172.15 30.6293 171.882L30.8533 171.77C30.9279 171.735 30.9991 171.694 31.0661 171.646C31.4805 171.434 31.8725 171.21 32.2757 170.963L32.5109 170.829H32.5781C33.0373 170.549 33.4853 170.246 33.9333 169.933H33.9893L34.2693 169.72C34.5829 169.485 34.8965 169.25 35.1989 169.003L35.3445 168.902L35.6693 168.622L36.4085 167.984L36.6213 167.805L36.8901 167.547L37.5733 166.886L37.8309 166.64L38.0213 166.427C38.2565 166.181 38.4805 165.923 38.7045 165.666L38.9957 165.363C39.0266 165.31 39.0643 165.261 39.1077 165.218C39.3989 164.87 39.6789 164.512 39.9477 164.154L40.1269 163.93L40.1941 163.84C40.5301 163.392 40.8325 162.933 41.1237 162.485L41.2021 162.362L41.3365 162.138C41.5941 161.712 41.8405 161.286 42.0533 160.861L42.1877 160.637L42.2549 160.48C42.3669 160.267 42.4565 160.054 42.5573 159.842C42.6581 159.629 42.7141 159.483 42.7813 159.304C42.8485 159.125 42.9493 158.867 43.0277 158.654C43.1061 158.442 43.1397 158.374 43.1845 158.24V158.139C43.2517 157.938 43.2965 157.736 43.3525 157.534C43.4085 157.333 43.4085 157.075 43.4533 156.896Z" fill="black"/>
<path d="M121.248 1.1488L125.202 5.65118L108.626 28.1744L104.661 23.672L121.248 1.1488Z" fill="white"/>
<g opacity="0.2">
<path opacity="0.2" d="M121.248 1.1488L125.202 5.65118L108.626 28.1744L104.661 23.672L121.248 1.1488Z" fill="black"/>
</g>
<path d="M98.77 272.021C98.042 274.328 95.4996 275.661 93.0804 275.851C90.6498 275.853 88.2292 275.541 85.8788 274.922C80.5252 273.958 75.362 274.922 70.0308 274.787C68.2749 274.81 66.5227 274.622 64.8116 274.227C63.084 273.829 61.5202 272.91 60.3316 271.595C59.6611 270.798 59.2198 269.834 59.0548 268.806C58.943 269.582 58.9991 270.372 59.2194 271.124C59.4397 271.875 59.819 272.571 60.3316 273.163C61.5202 274.478 63.084 275.397 64.8116 275.795C66.5236 276.184 68.2752 276.372 70.0308 276.355C75.362 276.478 80.5252 275.526 85.8788 276.49C88.2286 277.111 90.65 277.419 93.0804 277.408C95.4996 277.218 98.042 275.896 98.77 273.578C99.0014 272.778 99.0663 271.939 98.9604 271.114C98.9293 271.422 98.8655 271.726 98.77 272.021Z" fill="#263238"/>
<path d="M98.6356 267.586C98.3108 265.962 97.9748 264.338 97.65 262.714C97.5277 261.846 97.2507 261.008 96.8324 260.238C96.612 259.859 96.2946 259.545 95.9128 259.328C95.531 259.112 95.0985 259.001 94.6596 259.006C91.7364 258.614 87.6148 257.55 85.1732 259.23C81.3244 261.867 76.7319 263.202 72.0692 263.038C69.65 262.949 67.2196 262.456 64.8228 262.747C62.426 263.038 59.9172 264.382 59.2228 266.69C59.02 267.376 58.9779 268.101 59.0996 268.806C59.2646 269.834 59.706 270.798 60.3764 271.595C61.5651 272.91 63.1288 273.829 64.8564 274.227C66.5676 274.622 68.3198 274.81 70.0756 274.787C75.4068 274.922 80.57 273.958 85.9236 274.922C88.274 275.541 90.6946 275.853 93.1252 275.851C95.5444 275.661 98.0868 274.328 98.8148 272.021C98.9103 271.726 98.9741 271.422 99.0052 271.114C99.0668 269.925 98.9421 268.735 98.6356 267.586Z" fill="#3F0706"/>
<path d="M84.4677 254.134L84.2548 260.474C84.2329 261.122 84.4634 261.755 84.8978 262.237C85.3323 262.72 85.9368 263.015 86.5844 263.061C88.7091 263.229 90.8438 263.229 92.9685 263.061C93.8234 262.982 94.622 262.6 95.2198 261.984C95.8176 261.368 96.1751 260.558 96.2277 259.701L96.4852 255.019L84.4677 254.134Z" fill="#FFA8A7"/>
<path opacity="0.4" d="M84.4677 254.134L84.2548 260.474C84.2329 261.122 84.4634 261.755 84.8978 262.237C85.3323 262.72 85.9368 263.015 86.5844 263.061C88.7091 263.229 90.8438 263.229 92.9685 263.061C93.8234 262.982 94.622 262.6 95.2198 261.984C95.8176 261.368 96.1751 260.558 96.2277 259.701L96.4852 255.019L84.4677 254.134Z" fill="black"/>
<path d="M125.818 250.774C125.837 251.84 125.453 252.874 124.743 253.669C124.033 254.465 123.049 254.963 121.988 255.064C120.591 255.307 119.154 255.152 117.841 254.617C116.528 254.083 115.392 253.19 114.562 252.04C113.767 250.92 113.319 249.531 112.568 248.344C111.421 246.768 110.012 245.4 108.402 244.301C106.793 243.201 105.378 241.842 104.213 240.28C103.661 239.517 103.3 238.632 103.16 237.701C103.02 236.77 103.104 235.818 103.407 234.926C103.259 235.14 103.128 235.365 103.015 235.598C102.662 236.54 102.546 237.553 102.679 238.55C102.812 239.546 103.189 240.495 103.776 241.31C104.961 242.914 106.403 244.311 108.044 245.443C109.689 246.576 111.125 247.985 112.288 249.61C113.061 250.83 113.52 252.23 114.338 253.418C115.172 254.606 116.327 255.532 117.667 256.089C119.008 256.647 120.479 256.811 121.909 256.565C123.109 256.396 124.199 255.775 124.956 254.829C125.641 253.749 125.952 252.474 125.84 251.2C125.84 251.043 125.829 250.92 125.818 250.774Z" fill="#263238"/>
<path d="M123.903 242.822C121.977 239.462 118.012 236.987 114.943 234.602C113.267 233.147 111.205 232.209 109.007 231.902C107.909 231.774 106.798 231.974 105.813 232.476C104.829 232.979 104.015 233.761 103.474 234.725C103.457 234.786 103.434 234.846 103.407 234.904C103.104 235.796 103.02 236.747 103.16 237.679C103.3 238.61 103.661 239.494 104.213 240.258C105.378 241.82 106.793 243.179 108.402 244.278C110.012 245.378 111.421 246.745 112.569 248.322C113.319 249.509 113.767 250.864 114.562 252.018C115.389 253.171 116.524 254.069 117.837 254.608C119.15 255.146 120.589 255.305 121.988 255.064C123.049 254.963 124.033 254.465 124.743 253.669C125.453 252.874 125.837 251.84 125.818 250.774C125.835 250.468 125.835 250.162 125.818 249.856C125.779 247.388 125.12 244.97 123.903 242.822Z" fill="#3F0706"/>
<path d="M115.57 239.888V245.645C116.984 246.308 118.538 246.619 120.098 246.551C121.659 246.483 123.179 246.037 124.53 245.253L125.068 240.067L115.57 239.888Z" fill="#FFA8A7"/>
<path opacity="0.4" d="M115.57 239.888V245.645C116.984 246.308 118.538 246.619 120.098 246.551C121.659 246.483 123.179 246.037 124.53 245.253L125.068 240.067L115.57 239.888Z" fill="black"/>
<path d="M126.557 135.448C128.293 140.622 127.756 167.782 126.748 191.448C128.394 202.928 128.338 227.814 126.176 245.802C126.176 245.802 120.173 249.162 111.829 246.093L106.733 191.482L105.557 163.426C105.557 163.426 103.429 188.323 100.976 204.294C101.872 216.021 99.9348 238.443 98.21 262.344C98.21 262.344 88.97 267.742 79.7972 261.84C76.5828 208.976 81.802 155.44 82.866 138.091L126.557 135.448Z" fill="#C55D02"/>
<path opacity="0.3" d="M112.21 155.72L113.901 145.248L115.525 155.328C119.977 154.852 124.201 153.115 127.7 150.322C127.621 143.008 127.285 137.52 126.58 135.482L82.8995 138.069C82.7091 141.126 82.3956 145.315 82.0148 150.389C91.3817 154.959 101.844 156.807 112.21 155.72Z" fill="black"/>
<path opacity="0.3" d="M106.274 180.45L105.311 157.568C111.236 157.568 116.724 153.144 120.89 148.955C116.88 156.101 109.108 159.259 109.108 159.259L106.274 180.45Z" fill="black"/>
<path d="M114.596 60.8336C119.634 56.3345 122.906 50.1882 123.824 43.496C124.15 41.6621 123.944 39.7735 123.231 38.0528C122.402 36.4064 120.285 34.6928 118.482 35.1072C118.428 33.9614 118.121 32.8418 117.583 31.829C117.044 30.8162 116.288 29.9352 115.368 29.2496C113.668 28.3914 111.769 28.0046 109.869 28.1296C107.976 28.1296 106.084 28.4432 104.191 28.4432C101.189 28.4432 94.3908 27.6032 91.6916 26.2704C91.6916 27.7264 92.1956 30.0784 93.2036 31.1312C91.2548 30.7728 89.5188 29.0592 87.962 27.8272C87.6932 29.6416 89.5524 33.696 91.0756 34.704C88.4436 34.4464 87.962 38.9936 92.4532 38.9936C94.4244 58.6832 108.066 66.3552 114.596 60.8336Z" fill="#263238"/>
<path d="M90.6836 46.9008L88.2308 51.1568L90.65 52.0528C90.5716 50.3361 90.5829 48.6164 90.6836 46.9008Z" fill="#FDBBA5"/>
<path d="M92.4533 38.9488C91.547 41.519 90.9529 44.1888 90.6837 46.9008C90.4466 51.025 90.7174 55.1627 91.4901 59.2208C91.6548 60.523 92.1439 61.7631 92.9125 62.8272C93.4128 63.3707 94.0158 63.8099 94.6867 64.1194C95.3576 64.4288 96.083 64.6025 96.8213 64.6304C98.297 64.6787 99.7727 64.5357 101.212 64.2048V71.1824C106.509 72.4256 110.888 72.9744 115.032 69.7824L114.596 60.8224C112.051 61.1699 109.461 60.7609 107.148 59.6464C103.496 57.6752 102.466 54.5168 102.981 52.7584C103.308 53.1859 103.752 53.5089 104.259 53.6879C104.766 53.867 105.315 53.8942 105.837 53.7664C106.341 53.63 106.812 53.3917 107.221 53.0661C107.629 52.7405 107.966 52.3347 108.212 51.8736C108.709 50.956 109.01 49.9454 109.096 48.9056C109.359 47.6561 109.169 46.3538 108.559 45.232C108.091 44.6068 107.444 44.139 106.704 43.8909C105.963 43.6427 105.165 43.6261 104.415 43.8432C103.671 44.0741 102.979 44.4503 102.382 44.9502C101.784 45.45 101.291 46.0636 100.932 46.7552C100.697 47.1854 100.491 47.6306 100.316 48.088C100.251 48.2634 100.128 48.4118 99.9685 48.5088C99.8085 48.6059 99.6205 48.646 99.4349 48.6226C99.2493 48.5993 99.077 48.5138 98.9462 48.3801C98.8153 48.2465 98.7335 48.0725 98.7141 47.8864C98.5254 45.8817 98.8895 43.8636 99.7669 42.0512C99.1567 42.3494 98.486 42.5027 97.8069 42.4992C97.4514 42.4989 97.1001 42.4217 96.7772 42.2728C96.4544 42.1239 96.1676 41.907 95.9365 41.6368C95.7163 41.3563 95.5912 41.013 95.5791 40.6566C95.567 40.3002 95.6686 39.9492 95.8693 39.6544C95.2827 39.7906 94.6736 39.7981 94.0839 39.6763C93.4942 39.5545 92.9378 39.3063 92.4533 38.9488Z" fill="#FDBBA5"/>
<path d="M126.983 117.965C127.588 103.136 130.746 92.2048 130.544 86.6048C130.208 77.5328 129.1 67.3184 115.044 69.368L100.092 70.824L92.4981 72.672L81.9701 94.6128L81.3877 123.24L80.9733 147.611C93.1589 152.718 103.844 153.872 112.053 153.122C112.736 149.224 113.789 144.162 114.472 140.208C115.122 143.915 115.816 147.634 116.488 151.341C123.724 150.008 127.98 148.384 129.044 146.01C128.573 138.976 126.613 127.182 126.983 117.965Z" fill="#660806"/>
<path opacity="0.3" d="M85.9013 86.4368L81.9589 94.6128L81.3877 123.24V124.36C84.8373 117.371 90.6725 104.816 92.2853 96.7856L85.9013 86.4368Z" fill="black"/>
<path d="M54.3732 106.283L48.7732 102.05C48.4387 101.792 48.0318 101.646 47.6098 101.632C47.1878 101.618 46.7721 101.736 46.4212 101.971L45.7604 102.408L42.9044 103.909C42.2756 104.232 41.7427 104.715 41.3588 105.309L39.746 107.784C39.2921 108.482 38.9916 109.268 38.8641 110.09C38.7367 110.913 38.7853 111.753 39.0068 112.555L39.074 112.779L40.922 110.259C44.4388 113.866 51.7412 111.782 51.7412 111.782L54.3732 106.283Z" fill="#FDBBA5"/>
<path d="M92.498 72.728C89.1947 73.3118 86.1167 74.796 83.603 77.0173C81.0893 79.2385 79.2375 82.1105 78.2516 85.3168L70.9829 108.893L55.4821 105.533C49.2549 106.082 50.1845 114.19 50.1845 114.19L69.8852 122.814C71.6883 123.617 73.7277 123.709 75.5962 123.074C77.4647 122.439 79.0249 121.122 79.9652 119.387L92.2852 96.7072C95.7572 86.6272 92.498 72.728 92.498 72.728Z" fill="#660806"/>
<path opacity="0.3" d="M70.9828 108.893C68.25 111.054 67.5444 115.254 67.5444 115.254C65.3828 112.174 66.8388 108.971 68.1044 108.266L70.9828 108.893Z" fill="black"/>
<path d="M100.092 70.88L100.797 67.52C107.192 65.6944 115.682 65.9296 115.682 65.9296L116.746 69.2L100.092 70.88Z" fill="white"/>
<path d="M80.3909 53.1056L83.3477 51.8064L85.9909 53.6992C86.2183 53.862 86.3766 54.104 86.4346 54.3775C86.4926 54.6511 86.4462 54.9365 86.3045 55.1776C86.1625 55.4307 85.928 55.6188 85.6501 55.7024C85.3723 55.7859 85.0728 55.7584 84.8149 55.6256L83.0452 54.7184L84.4229 56.3424C84.7013 56.6688 84.8543 57.0838 84.8543 57.5128C84.8543 57.9418 84.7013 58.3568 84.4229 58.6832L81.5444 62.0432C81.2325 62.4113 80.7944 62.6497 80.3159 62.7119C79.8374 62.774 79.3529 62.6554 78.9573 62.3792L77.1316 61.1024L75.698 63.04L75.5413 62.6928C75.1106 61.7727 74.972 60.7428 75.1442 59.7417C75.3164 58.7405 75.7911 57.8161 76.5044 57.0928L80.3909 53.1056Z" fill="#FDBBA5"/>
<path d="M101.324 51.9184L97.37 47.4384L97.8404 47.9648L98.322 48.5248L98.8372 49.096L99.3524 49.6896L99.8676 50.2832L100.372 50.8544L100.864 51.4144L101.324 51.9184Z" fill="white"/>
<path d="M98.2437 48.1216L102.197 52.6016C101.942 52.3254 101.647 52.0877 101.324 51.896C100.781 51.6075 100.185 51.4338 99.572 51.3856C98.9593 51.3375 98.3432 51.4159 97.7621 51.616L93.8085 47.136C94.3896 46.9359 95.0057 46.8574 95.6184 46.9056C96.2311 46.9538 96.8274 47.1275 97.3701 47.416C97.6988 47.6005 97.9941 47.8391 98.2437 48.1216Z" fill="#FDBBA5"/>
<path d="M98.2437 48.1216L102.197 52.6016C102.802 53.4214 103.11 54.4229 103.069 55.4409C103.028 56.459 102.642 57.4327 101.973 58.2016L98.0197 53.7216C98.6882 52.9528 99.0748 51.979 99.1155 50.961C99.1562 49.9429 98.8487 48.9414 98.2437 48.1216Z" fill="white"/>
<path d="M98.2437 48.1216L102.197 52.6016C102.217 52.6363 102.244 52.6668 102.276 52.6912L98.3221 48.2112C98.2902 48.1868 98.2636 48.1564 98.2437 48.1216Z" fill="#FDBBA5"/>
<path d="M98.322 48.2L102.276 52.68L102.466 52.9376L98.5124 48.4576L98.322 48.2Z" fill="#FDBBA5"/>
<path d="M98.5125 48.4688L102.466 52.9488L102.634 53.2288L98.6805 48.7488L98.5125 48.4688Z" fill="#FDBBA5"/>
<path d="M98.6805 48.7488L102.634 53.2288C102.69 53.3408 102.735 53.4416 102.78 53.5536L98.8261 49.0736C98.8261 48.9616 98.7365 48.8608 98.6805 48.7488Z" fill="#FDBBA5"/>
<path d="M98.826 49.0736L102.78 53.5536C102.834 53.673 102.879 53.7966 102.914 53.9232L98.9605 49.4432C98.9256 49.3166 98.8807 49.193 98.826 49.0736Z" fill="#FDBBA5"/>
<path d="M98.9604 49.4432L102.914 53.9232C102.962 54.0811 102.999 54.242 103.026 54.4048L99.0724 49.9248C99.0458 49.762 99.0084 49.6011 98.9604 49.4432Z" fill="#FDBBA5"/>
<path d="M99.0724 49.9248L103.026 54.4048C103.049 54.6581 103.049 54.913 103.026 55.1664L99.0724 50.6864C99.095 50.433 99.095 50.1782 99.0724 49.9248Z" fill="#FDBBA5"/>
<path d="M99.1173 50.6864L103.071 55.1664C103.059 55.6427 102.976 56.1146 102.824 56.5664L98.8708 52.0864C99.0223 51.6346 99.1053 51.1627 99.1173 50.6864Z" fill="#FDBBA5"/>
<path d="M98.8708 52.0864L102.824 56.5664C102.739 56.8278 102.634 57.0824 102.511 57.328L98.5573 52.848C98.6808 52.6024 98.7856 52.3478 98.8708 52.0864Z" fill="#FDBBA5"/>
<path d="M98.5572 52.848L102.511 57.328C102.428 57.4983 102.335 57.6629 102.231 57.8208L98.2772 53.3408C98.3813 53.1829 98.4749 53.0182 98.5572 52.848Z" fill="#FDBBA5"/>
<path d="M98.2773 53.3408L102.231 57.8208C102.152 57.952 102.066 58.0791 101.973 58.2016L98.0197 53.7216C98.112 53.5992 98.198 53.4721 98.2773 53.3408Z" fill="#FDBBA5"/>
</svg>
