<svg width="80" height="112" viewBox="0 0 80 112" fill="none" xmlns="http://www.w3.org/2000/svg">
<path d="M56.2933 75.7315L38.7303 76.2484L21.1558 75.7315C20.4092 87.5972 22.718 99.6925 25.9113 105.597C26.6604 107.108 27.8659 108.346 29.3573 109.134C34.5377 112.121 42.9229 112.121 48.0689 109.134C49.5835 108.334 50.794 107.059 51.5149 105.505C54.7656 99.5661 57.0514 87.5397 56.2933 75.7315Z" fill="white"/>
<path d="M51.1127 68.5409C58.0046 72.5152 58.0046 78.9592 51.1931 82.9336C44.3815 86.9079 33.2281 86.9079 26.3476 82.9336C19.4672 78.9592 19.4557 72.5152 26.2672 68.5409C33.0787 64.5665 44.2207 64.5665 51.1127 68.5409Z" fill="#EBEBEB"/>
<path d="M48.3902 70.1146C53.7545 73.2159 53.7889 78.247 48.4477 81.3484C43.1064 84.4498 34.4341 84.4498 29.0698 81.3484C23.7056 78.247 23.6711 73.2159 29.0009 70.1146C34.3307 67.0132 43.072 67.0132 48.3902 70.1146Z" fill="white"/>
<g opacity="0.15">
<path opacity="0.15" d="M48.3902 70.1146C53.7545 73.2159 53.7889 78.247 48.4477 81.3484C43.1064 84.4498 34.4341 84.4498 29.0698 81.3484C23.7056 78.247 23.6711 73.2159 29.0009 70.1146C34.3307 67.0132 43.072 67.0132 48.3902 70.1146Z" fill="black"/>
</g>
<path d="M67.6191 0.758629C28.0248 13.727 27.6688 40.215 36.6053 59.076C38.9026 62.8895 45.6682 64.9456 51.5379 41.49L41.1999 42.8225L53.3183 36.6772L56.4656 27.2697L46.3574 28.0163L59.1535 22.6291C61.5198 15.1707 64.3471 7.86647 67.6191 0.758629Z" fill="#930309"/>
<path opacity="0.2" d="M67.6191 0.758629C28.0248 13.727 27.6688 40.215 36.6053 59.076C38.9026 62.8895 45.6682 64.9456 51.5379 41.49L41.1999 42.8225L53.3183 36.6772L56.4656 27.2697L46.3574 28.0163L59.1535 22.6291C61.5198 15.1707 64.3471 7.86647 67.6191 0.758629Z" fill="black"/>
<path opacity="0.2" d="M67.6191 0.758629C28.0248 13.727 27.6688 40.215 36.6053 59.076C38.9026 62.8895 45.6682 64.9456 51.5379 41.49L41.1999 42.8225L53.3183 36.6772L56.4656 27.2697L46.3574 28.0163L59.1535 22.6291C61.5198 15.1707 64.3471 7.86647 67.6191 0.758629Z" fill="white"/>
<path d="M56.4197 7.38641C35.5371 23.2379 33.6534 41.3981 39.5575 60.3624C37.4669 43.6725 35.2155 26.7757 56.4197 7.38641Z" fill="white"/>
<path d="M0.571777 27.6717C39.6261 33.1623 44.3241 57.778 39.1552 76.8227C37.6849 80.7511 31.6889 83.795 22.2699 62.9354L32.1713 62.4415L19.8692 58.7428L15.3665 50.4955L24.9003 49.5191L12.0584 46.613C8.62398 40.0683 4.78778 33.7424 0.571777 27.6717Z" fill="#930309"/>
<path opacity="0.2" d="M0.571777 27.6717C39.6261 33.1623 44.3241 57.778 39.1552 76.8227C37.6849 80.7511 31.6889 83.795 22.2699 62.9354L32.1713 62.4415L19.8692 58.7428L15.3665 50.4955L24.9003 49.5191L12.0584 46.613C8.62398 40.0683 4.78778 33.7424 0.571777 27.6717Z" fill="white"/>
<path opacity="0.1" d="M0.571777 27.6717C39.6261 33.1623 44.3241 57.778 39.1552 76.8227C37.6849 80.7511 31.6889 83.795 22.2699 62.9354L32.1713 62.4415L19.8692 58.7428L15.3665 50.4955L24.9003 49.5191L12.0584 46.613C8.62398 40.0683 4.78778 33.7424 0.571777 27.6717Z" fill="black"/>
<path d="M12.0585 31.9792C34.1357 43.2705 38.9141 59.8686 36.5708 78.5227C35.7668 62.6138 35.0316 46.5212 12.0585 31.9792Z" fill="white"/>
<path d="M79.0364 36.8954C43.2443 37.4812 36.226 59.1219 38.7645 76.8802C39.6375 80.5789 44.7146 83.9904 55.5349 66.2436L46.6558 64.6929L58.1423 62.7287L63.116 55.8368L54.639 53.884L66.5275 52.7354C70.3652 47.2015 74.5428 41.9113 79.0364 36.8954Z" fill="#930309"/>
<path d="M68.1586 39.4799C47.0003 47.1874 40.8435 61.626 40.8665 78.6836C43.3936 64.4517 45.8287 50.059 68.1586 39.4799Z" fill="white"/>
<path opacity="0.2" d="M79.0364 36.8954C43.2443 37.4812 36.226 59.1219 38.7645 76.8802C39.6375 80.5789 44.7146 83.9904 55.5349 66.2436L46.6558 64.6929L58.1423 62.7287L63.116 55.8368L54.639 53.884L66.5275 52.7354C70.3652 47.2015 74.5428 41.9113 79.0364 36.8954Z" fill="white"/>
</svg>
