<svg width="448" height="502" viewBox="0 0 448 502" fill="none" xmlns="http://www.w3.org/2000/svg">
<g opacity="0.2">
<path opacity="0.1905" d="M271.335 501.444C262.856 501.444 255.109 499.544 248.969 496.036L12.888 359.663C4.70194 354.986 0.0241699 347.531 0.0241699 339.346C0.0241699 330.284 5.57902 321.806 15.3731 316.252L149.42 238.93C157.168 234.545 166.67 232.06 176.464 232.06C184.942 232.06 192.69 233.961 198.829 237.469L435.056 373.841C443.242 378.518 447.92 385.973 447.92 394.158C447.92 403.22 442.365 411.698 432.571 417.252L298.524 494.574C290.63 498.959 280.982 501.444 271.335 501.444Z" fill="#9FA4D8"/>
<path opacity="0.2554" d="M149.713 240.246C157.314 235.861 167.108 233.376 176.756 233.522C180.703 233.522 184.357 234.107 187.866 234.838C191.52 235.715 195.906 237.469 198.829 239.223L434.033 375.01C442.073 379.688 446.312 387.142 445.874 395.181C445.728 397.374 445.143 399.566 444.412 401.759C442.365 407.459 436.518 413.598 429.94 417.399L297.793 493.697C296.185 494.72 293.846 495.743 292.092 496.474C285.806 499.105 278.497 500.567 271.188 500.567C262.856 500.567 255.255 498.813 249.261 495.305L13.0342 359.078C4.99433 354.401 0.755105 346.947 1.19365 338.908C1.33983 337.007 1.77837 335.107 2.36309 333.353C4.26343 327.214 10.2568 320.783 17.2735 316.69L149.713 240.246Z" fill="#9A9ED4"/>
<path opacity="0.3203" d="M150.005 241.707C157.606 237.322 167.4 234.984 176.902 235.276C180.849 235.422 184.503 236.007 187.865 236.884C191.227 237.761 196.051 239.807 198.829 241.415L433.156 376.764C441.195 381.442 444.996 388.75 443.973 396.643C443.681 398.835 443.096 400.736 442.219 402.782C440.172 407.898 433.448 414.329 427.601 417.837L297.354 492.966C295.892 493.843 293.407 495.159 291.653 495.743C285.367 498.374 278.351 499.836 271.042 499.982C262.856 500.128 255.254 498.374 249.407 495.013L13.3262 358.494C5.28626 353.816 1.48557 346.362 2.50883 338.615C2.80119 336.861 3.38591 335.107 3.97063 333.207C5.87098 327.799 12.8876 320.929 19.0272 317.275L150.005 241.707Z" fill="#9498CF"/>
<path opacity="0.3853" d="M150.151 243.169C157.752 238.784 167.546 236.592 177.048 236.884C180.995 237.03 184.503 237.761 187.865 238.638C190.789 239.369 196.344 241.854 198.683 243.315L432.132 378.08C440.172 382.757 443.534 390.066 442.073 397.666C441.634 399.712 440.903 401.613 440.026 403.513C438.126 408.044 430.524 414.914 425.262 417.983L296.77 492.089C295.454 492.82 292.677 494.282 291.215 494.866C285.075 497.497 278.059 499.105 271.042 499.105C263.002 499.251 255.401 497.644 249.7 494.282L13.6186 357.909C5.57869 353.232 2.21654 345.923 3.82452 338.177C4.26306 336.423 4.84779 334.815 5.57869 333.061C7.47903 328.237 15.3728 320.929 20.9276 317.714L150.151 243.169Z" fill="#8F92CB"/>
<path opacity="0.4502" d="M150.443 244.631C158.045 240.246 167.839 238.053 177.194 238.492C180.995 238.638 184.65 239.515 188.012 240.392C190.643 241.123 196.636 243.9 198.683 245.215L431.255 379.542C439.295 384.219 442.219 391.381 440.172 398.835C439.588 400.736 438.711 402.49 437.834 404.39C436.079 408.19 427.455 415.498 422.777 418.129L296.331 491.066C295.162 491.797 292.238 493.258 290.922 493.843C284.929 496.474 278.059 498.082 271.042 498.228C263.148 498.374 255.693 496.766 249.992 493.551L13.7649 357.324C5.725 352.647 2.8014 345.339 4.9941 337.884C5.43264 336.277 6.30973 334.669 7.04063 333.061C8.79479 328.968 17.858 321.221 22.6819 318.444L150.443 244.631Z" fill="#898CC7"/>
<path opacity="0.5152" d="M150.736 246.092C158.337 241.707 168.131 239.661 177.487 240.1C181.288 240.392 184.942 241.269 188.158 242.146C190.351 242.731 196.929 245.946 198.683 246.969L430.379 380.711C438.272 385.242 440.904 392.55 438.272 399.859C437.688 401.613 436.518 403.22 435.495 405.121C433.887 408.336 424.239 415.937 420.292 418.276L295.747 490.189C294.723 490.774 291.507 492.528 290.338 492.966C284.491 495.597 277.62 497.205 270.896 497.497C263.002 497.79 255.693 496.182 250.138 492.966L14.0575 356.74C6.01754 352.062 3.53248 344.754 6.3099 337.446C6.89462 335.838 7.91788 334.523 8.64878 332.915C10.2568 329.407 20.3432 321.368 24.5824 318.883L150.736 246.092Z" fill="#8486C3"/>
<path opacity="0.5801" d="M150.882 247.554C158.483 243.169 168.277 241.123 177.486 241.854C181.287 242.146 184.795 243.169 188.158 244.192C189.912 244.777 197.074 248.285 198.682 249.162L429.501 382.319C437.395 386.85 439.587 394.012 436.518 401.174C435.787 402.928 434.763 404.536 433.448 406.144C432.571 409.067 421.461 416.814 418.099 418.714L295.308 489.458C294.431 489.897 290.922 491.797 290.045 492.235C284.198 494.866 277.62 496.62 270.896 496.766C263.148 497.059 255.839 495.597 250.43 492.382L14.2031 356.155C6.1632 351.478 4.11668 344.17 7.47882 337.154C8.20973 335.692 9.08681 334.23 10.1101 332.769C10.9871 329.699 22.8277 321.368 26.3361 319.468L150.882 247.554Z" fill="#7E7FBE"/>
<path opacity="0.645" d="M151.174 249.016C158.776 244.631 168.716 242.731 177.779 243.461C181.58 243.754 185.088 244.923 188.304 245.946C189.766 246.385 197.513 250.477 198.683 251.062L428.624 383.78C436.518 388.312 438.272 395.474 434.618 402.343C433.741 403.951 432.717 405.559 431.255 407.021C430.525 409.359 418.392 417.399 415.76 418.86L295.016 488.581C294.285 489.02 290.63 491.066 289.899 491.358C284.198 493.989 277.766 495.743 271.042 496.036C263.441 496.328 256.278 495.013 250.869 491.797L14.4959 355.57C6.45599 350.893 4.84801 343.585 8.79487 336.715C9.52577 335.4 10.549 333.938 11.7185 332.622C12.4494 330.138 25.3132 321.514 28.0907 319.906L151.174 249.016Z" fill="#7979BA"/>
<path opacity="0.71" d="M151.466 250.477C159.068 246.092 169.008 244.338 177.925 245.069C181.726 245.508 185.234 246.677 188.304 247.7C189.327 248.139 197.659 252.524 198.537 252.962L427.455 385.096C435.348 389.627 436.81 396.789 432.425 403.367C431.401 404.828 430.232 406.436 428.624 407.752C428.039 409.506 414.883 417.837 412.983 419.006L294.138 487.558C293.7 487.85 289.607 490.043 289.022 490.335C283.467 492.966 277.035 494.72 270.603 495.159C263.148 495.451 255.985 494.135 250.723 491.066L14.7881 354.986C6.74817 350.455 5.43254 343 10.1103 336.277C10.9874 334.961 12.0107 333.646 13.4725 332.476C14.0572 330.576 28.0905 321.66 30.137 320.491L151.466 250.477Z" fill="#7373B6"/>
<path opacity="0.7749" d="M151.613 251.939C159.068 247.554 169.155 245.8 177.925 246.823C181.726 247.262 185.088 248.577 188.304 249.746C189.035 250.039 197.806 254.862 198.391 255.155L426.432 386.85C434.179 391.381 435.349 398.543 430.525 404.828C429.501 406.29 428.186 407.605 426.432 408.921C425.993 410.09 411.96 418.714 410.644 419.591L293.7 487.12C293.408 487.266 289.168 489.751 288.73 489.897C283.321 492.528 277.036 494.428 270.604 494.72C263.295 495.159 256.278 493.843 251.015 490.92L14.9345 354.401C7.04078 349.87 6.01752 342.416 11.28 335.984C12.3033 334.815 13.4727 333.499 14.9345 332.476C15.2269 331.307 30.4296 321.952 31.8914 321.075L151.613 251.939Z" fill="#6E6DB2"/>
<path opacity="0.8398" d="M151.905 253.401C159.361 249.016 169.447 247.408 178.218 248.431C182.018 248.869 185.381 250.331 188.45 251.5C188.743 251.647 198.098 256.909 198.391 257.055L425.555 388.165C433.302 392.697 434.179 399.859 428.624 405.998C427.455 407.313 425.993 408.629 424.239 409.798C424.093 410.383 408.89 419.445 408.159 419.737L293.115 486.096C292.969 486.243 288.438 488.727 288.291 488.874C283.029 491.358 276.743 493.405 270.457 493.843C263.295 494.282 256.278 493.112 251.162 490.189L15.2269 353.816C7.33317 349.285 6.60227 341.831 12.5957 335.546C13.6189 334.376 14.9345 333.353 16.5425 332.33C16.6887 331.745 33.0609 321.952 33.7918 321.66L151.905 253.401Z" fill="#6867AD"/>
<path opacity="0.9048" d="M251.6 489.604L15.5192 353.232C6.16372 347.824 7.33316 338.469 18.1505 332.184L152.198 254.862C163.015 248.577 179.241 247.992 188.597 253.401L424.824 389.773C434.179 395.181 433.01 404.536 422.192 410.821L287.999 487.997C277.328 494.282 260.956 495.012 251.6 489.604Z" fill="#6361A9"/>
</g>
<path d="M251.6 489.312L15.5191 353.086C11.4261 350.747 9.2334 347.531 9.2334 344.17C9.2334 344.023 9.2334 332.622 9.2334 332.476C9.37958 328.384 12.3032 335.546 18.1504 332.184L152.198 254.862C163.015 248.577 179.241 247.992 188.596 253.401L424.824 389.773C427.893 391.527 430.232 383.927 430.963 386.411C431.255 387.288 431.109 397.958 431.109 398.689C431.255 402.928 428.186 407.313 422.192 410.821L287.999 487.85C277.328 493.989 260.956 494.72 251.6 489.312Z" fill="#FAD2D4"/>
<path d="M251.6 477.911L15.5195 341.539C6.16396 336.13 7.3334 326.776 18.1507 320.491L152.198 243.169C163.015 236.884 179.241 236.299 188.597 241.707L424.824 378.08C434.179 383.488 433.01 392.843 422.193 399.128L287.999 476.303C277.328 482.588 260.956 483.319 251.6 477.911Z" fill="#FFFCF5"/>
<path d="M422.046 397.081L287.999 474.403C277.182 480.688 260.956 481.273 251.6 475.865L15.5195 339.638C11.7188 337.446 9.67226 334.523 9.23372 331.307C8.79518 335.107 10.8417 338.761 15.5195 341.539L251.6 477.911C260.956 483.319 277.182 482.588 287.999 476.449L422.046 399.128C428.332 395.474 431.402 390.796 430.817 386.411C430.379 390.066 427.455 394.012 422.046 397.081Z" fill="white"/>
<path d="M293.554 427.63L101.912 316.983C98.111 314.79 98.5496 310.844 102.935 308.359L175.002 266.848C179.387 264.217 186.111 264.071 189.912 266.263L381.701 376.911C385.501 379.103 385.063 383.05 380.677 385.534L308.61 427.045C304.225 429.53 297.501 429.823 293.554 427.63Z" fill="#FAD2D4"/>
<path d="M179.095 276.641L191.374 283.803C192.982 284.68 195.467 284.68 197.075 283.803C198.683 282.926 198.683 281.464 197.075 280.587L184.796 273.425C183.188 272.548 180.703 272.548 179.095 273.425C177.487 274.302 177.487 275.764 179.095 276.641ZM200.145 288.773L205.992 292.135C207.6 293.012 210.085 293.012 211.693 292.135C213.301 291.258 213.301 289.796 211.693 288.919L205.846 285.557C204.238 284.68 201.753 284.68 200.145 285.557C198.537 286.434 198.537 287.896 200.145 288.773ZM214.763 297.104L220.61 300.466C222.218 301.343 224.703 301.343 226.311 300.466C227.919 299.589 227.919 298.127 226.311 297.25L220.464 293.889C218.856 293.012 216.371 293.012 214.763 293.889C213.155 294.766 213.155 296.227 214.763 297.104ZM229.235 305.582L235.082 308.944C236.69 309.821 239.175 309.821 240.783 308.944C242.391 308.067 242.391 306.605 240.783 305.728L234.936 302.366C233.328 301.489 230.843 301.489 229.235 302.366C227.773 303.243 227.773 304.705 229.235 305.582ZM243.853 313.913L249.7 317.275C251.308 318.152 253.793 318.152 255.401 317.275C257.009 316.398 257.009 314.936 255.401 314.059L249.554 310.698C247.946 309.821 245.461 309.821 243.853 310.698C242.245 311.575 242.245 313.036 243.853 313.913ZM258.471 322.391L264.318 325.753C265.926 326.63 268.411 326.63 270.019 325.753C271.627 324.876 271.627 323.414 270.019 322.537L264.172 319.175C262.564 318.298 260.079 318.298 258.471 319.175C256.863 320.052 256.863 321.514 258.471 322.391ZM273.089 330.868L278.936 334.23C280.544 335.107 283.029 335.107 284.637 334.23C286.245 333.353 286.245 331.892 284.637 331.015L278.79 327.653C277.182 326.776 274.697 326.776 273.089 327.653C271.481 328.384 271.481 329.845 273.089 330.868ZM287.561 339.2L293.408 342.562C295.016 343.439 297.501 343.439 299.109 342.562C300.717 341.685 300.717 340.223 299.109 339.346L293.262 335.984C291.654 335.107 289.169 335.107 287.561 335.984C285.953 336.861 286.099 338.323 287.561 339.2ZM302.179 347.677L308.026 351.039C309.634 351.916 312.119 351.916 313.727 351.039C315.335 350.162 315.335 348.701 313.727 347.824L307.88 344.462C306.272 343.585 303.787 343.585 302.179 344.462C300.571 345.339 300.571 346.8 302.179 347.677ZM316.797 356.009L322.644 359.371C324.252 360.248 326.737 360.248 328.345 359.371C329.953 358.494 329.953 357.032 328.345 356.155L322.498 352.793C320.89 351.916 318.405 351.916 316.797 352.793C315.189 353.67 315.189 355.132 316.797 356.009ZM331.269 364.487L337.116 367.848C338.724 368.725 341.209 368.725 342.817 367.848C344.425 366.971 344.425 365.51 342.817 364.633L336.97 361.271C335.362 360.394 332.877 360.394 331.269 361.271C329.807 362.148 329.807 363.61 331.269 364.487ZM345.887 372.818L351.734 376.18C353.342 377.057 355.827 377.057 357.435 376.18C359.043 375.303 359.043 373.841 357.435 372.964L351.588 369.602C349.98 368.725 347.495 368.725 345.887 369.602C344.279 370.479 344.279 371.941 345.887 372.818ZM360.797 381.442L366.644 384.804C368.252 385.681 370.737 385.681 372.345 384.804C373.953 383.927 373.953 382.465 372.345 381.588L366.498 378.226C364.89 377.349 362.405 377.349 360.797 378.226C359.189 379.103 359.189 380.565 360.797 381.442ZM165.939 284.68L170.909 287.603C172.663 288.627 175.587 288.627 177.341 287.603L182.311 284.68C184.065 283.657 184.065 282.049 182.311 281.026L177.341 278.103C175.587 277.079 172.663 277.079 170.909 278.103L165.939 281.026C164.185 281.903 164.185 283.657 165.939 284.68ZM192.105 295.935L197.075 293.012C198.829 291.988 198.829 290.381 197.075 289.357L192.105 286.434C190.351 285.411 187.427 285.411 185.673 286.434L180.703 289.357C178.949 290.381 178.949 291.988 180.703 293.012L185.673 295.935C187.427 296.958 190.205 296.958 192.105 295.935ZM195.175 301.489L200.145 304.412C201.899 305.436 204.823 305.436 206.577 304.412L211.547 301.489C213.301 300.466 213.301 298.858 211.547 297.835L206.577 294.912C204.823 293.889 201.899 293.889 200.145 294.912L195.175 297.835C193.421 298.712 193.421 300.466 195.175 301.489ZM209.793 309.821L214.763 312.744C216.517 313.767 219.441 313.767 221.195 312.744L226.165 309.821C227.919 308.797 227.919 307.19 226.165 306.166L221.195 303.243C219.441 302.22 216.517 302.22 214.763 303.243L209.793 306.166C207.893 307.19 207.893 308.797 209.793 309.821ZM240.783 314.644L235.813 311.721C234.059 310.698 231.135 310.698 229.381 311.721L224.411 314.644C222.657 315.667 222.657 317.275 224.411 318.298L229.381 321.222C231.135 322.245 234.059 322.245 235.813 321.222L240.783 318.298C242.537 317.275 242.537 315.667 240.783 314.644ZM255.255 322.975L250.285 320.052C248.531 319.029 245.607 319.029 243.853 320.052L238.883 322.975C237.129 323.999 237.129 325.606 238.883 326.63L243.853 329.553C245.607 330.576 248.531 330.576 250.285 329.553L255.255 326.63C257.155 325.753 257.155 323.999 255.255 322.975ZM269.873 331.453L264.903 328.53C263.149 327.507 260.225 327.507 258.471 328.53L253.501 331.453C251.747 332.476 251.747 334.084 253.501 335.107L258.471 338.031C260.225 339.054 263.149 339.054 264.903 338.031L269.873 335.107C271.627 334.084 271.627 332.476 269.873 331.453ZM284.491 339.785L279.521 336.861C277.767 335.838 274.843 335.838 273.089 336.861L268.119 339.785C266.365 340.808 266.365 342.416 268.119 343.439L273.089 346.362C274.843 347.385 277.767 347.385 279.521 346.362L284.491 343.439C286.245 342.562 286.245 340.808 284.491 339.785ZM299.109 348.262L294.139 345.339C292.385 344.316 289.461 344.316 287.707 345.339L282.737 348.262C280.983 349.285 280.983 350.893 282.737 351.916L287.707 354.84C289.461 355.863 292.385 355.863 294.139 354.84L299.109 351.916C300.863 350.893 300.863 349.285 299.109 348.262ZM313.581 356.594L308.611 353.67C306.857 352.647 303.933 352.647 302.179 353.67L297.209 356.594C295.455 357.617 295.455 359.225 297.209 360.248L302.179 363.171C303.933 364.194 306.857 364.194 308.611 363.171L313.581 360.248C315.335 359.371 315.335 357.617 313.581 356.594ZM311.681 368.725L316.651 371.649C318.405 372.672 321.328 372.672 323.083 371.649L328.053 368.725C329.807 367.702 329.807 366.094 328.053 365.071L323.083 362.148C321.328 361.125 318.405 361.125 316.651 362.148L311.681 365.071C309.926 366.094 309.926 367.702 311.681 368.725ZM342.817 373.403L337.847 370.479C336.093 369.456 333.169 369.456 331.415 370.479L326.445 373.403C324.691 374.426 324.691 376.034 326.445 377.057L331.415 379.98C333.169 381.003 336.093 381.003 337.847 379.98L342.817 377.057C344.571 376.18 344.571 374.572 342.817 373.403ZM364.159 385.827L352.611 379.249C350.857 378.226 347.933 378.226 346.179 379.249L341.209 382.173C339.455 383.196 339.455 384.804 341.209 385.827L352.757 392.404C354.511 393.427 357.435 393.427 359.189 392.404L364.159 389.481C365.913 388.458 365.913 386.85 364.159 385.827ZM152.49 292.427L164.039 299.004C165.793 300.027 168.716 300.027 170.471 299.004L175.441 296.081C177.195 295.058 177.195 293.45 175.441 292.427L163.892 285.849C162.138 284.826 159.215 284.826 157.46 285.849L152.49 288.773C150.736 289.65 150.736 291.404 152.49 292.427ZM173.54 304.559L178.51 307.482C180.265 308.505 183.188 308.505 184.942 307.482L189.912 304.559C191.667 303.535 191.667 301.928 189.912 300.904L184.942 297.981C183.188 296.958 180.265 296.958 178.51 297.981L173.54 300.904C171.786 301.928 171.786 303.535 173.54 304.559ZM193.128 315.813C194.883 316.837 197.806 316.837 199.56 315.813L204.53 312.89C206.285 311.867 206.285 310.259 204.53 309.236L199.56 306.313C197.806 305.289 194.883 305.289 193.128 306.313L188.158 309.236C186.404 310.259 186.404 311.867 188.158 312.89L193.128 315.813ZM207.746 324.291C209.501 325.314 212.424 325.314 214.178 324.291L219.149 321.368C220.903 320.344 220.903 318.737 219.149 317.714L214.178 314.79C212.424 313.767 209.501 313.767 207.746 314.79L202.776 317.714C201.022 318.737 201.022 320.344 202.776 321.368L207.746 324.291ZM222.218 323.122L217.248 326.045C215.494 327.068 215.494 328.676 217.248 329.699L222.218 332.622C223.972 333.646 226.896 333.646 228.65 332.622L233.62 329.699C235.375 328.676 235.375 327.068 233.62 326.045L228.65 323.122C226.896 322.245 223.972 322.098 222.218 323.122ZM237.129 331.453L231.574 334.669C229.966 335.546 229.966 337.154 231.574 338.031L237.275 341.246C238.883 342.123 241.514 342.123 243.122 341.246L248.677 338.031C250.285 337.154 250.285 335.546 248.677 334.669L242.976 331.453C241.368 330.576 238.737 330.576 237.129 331.453ZM251.747 339.785L246.192 343C244.584 343.877 244.584 345.485 246.192 346.362L251.893 349.578C253.501 350.455 256.132 350.455 257.74 349.578L263.295 346.362C264.903 345.485 264.903 343.877 263.295 343L257.594 339.785C255.84 338.908 253.355 338.908 251.747 339.785ZM266.219 348.262L260.664 351.478C259.056 352.355 259.056 353.963 260.664 354.84L266.365 358.055C267.973 358.932 270.604 358.932 272.212 358.055L277.767 354.84C279.375 353.963 279.375 352.355 277.767 351.478L272.066 348.262C270.458 347.385 267.827 347.385 266.219 348.262ZM280.837 356.594L275.282 359.809C273.674 360.686 273.674 362.294 275.282 363.171L280.983 366.387C282.591 367.264 285.222 367.264 286.83 366.387L292.385 363.171C293.993 362.294 293.993 360.686 292.385 359.809L286.684 356.594C285.076 355.717 282.445 355.717 280.837 356.594ZM295.455 365.071L289.9 368.287C288.292 369.164 288.292 370.772 289.9 371.649L295.601 374.864C297.209 375.741 299.84 375.741 301.448 374.864L307.003 371.649C308.611 370.772 308.611 369.164 307.003 368.287L301.302 365.071C299.694 364.194 297.063 364.194 295.455 365.071ZM315.92 383.342L321.475 380.126C323.083 379.249 323.083 377.641 321.475 376.764L315.774 373.549C314.166 372.672 311.534 372.672 309.926 373.549L304.372 376.764C302.764 377.641 302.764 379.249 304.372 380.126L310.073 383.342C311.681 384.219 314.312 384.219 315.92 383.342ZM330.392 391.82L335.946 388.604C337.554 387.727 337.554 386.119 335.946 385.242L330.245 382.026C328.637 381.149 326.006 381.149 324.398 382.026L318.843 385.242C317.235 386.119 317.235 387.727 318.843 388.604L324.544 391.82C326.299 392.697 328.784 392.697 330.392 391.82ZM350.857 393.72L345.156 390.504C343.548 389.627 340.917 389.627 339.309 390.504L333.754 393.72C332.146 394.597 332.146 396.205 333.754 397.082L339.455 400.297C341.063 401.174 343.694 401.174 345.302 400.297L350.857 397.082C352.465 396.205 352.465 394.743 350.857 393.72ZM138.749 300.027L157.022 310.551C158.63 311.428 161.261 311.428 162.869 310.551L168.424 307.336C170.032 306.459 170.032 304.851 168.424 303.974L150.151 293.45C148.544 292.573 145.912 292.573 144.304 293.45L138.749 296.666C137.141 297.543 137.141 299.15 138.749 300.027ZM165.939 315.667L171.64 318.883C173.248 319.76 175.879 319.76 177.487 318.883L183.042 315.667C184.65 314.79 184.65 313.182 183.042 312.305L177.341 309.09C175.733 308.213 173.102 308.213 171.494 309.09L165.939 312.305C164.331 313.329 164.331 314.79 165.939 315.667ZM180.411 324.145L186.112 327.36C187.72 328.237 190.351 328.237 191.959 327.36L197.514 324.145C199.122 323.268 199.122 321.66 197.514 320.783L191.813 317.567C190.205 316.69 187.574 316.69 185.966 317.567L180.411 320.783C178.803 321.66 178.803 323.268 180.411 324.145ZM195.029 332.476L200.73 335.692C202.338 336.569 204.969 336.569 206.577 335.692L212.132 332.476C213.74 331.599 213.74 329.991 212.132 329.114L206.431 325.899C204.823 325.022 202.192 325.022 200.584 325.899L195.029 329.114C193.421 330.138 193.421 331.599 195.029 332.476ZM221.049 344.17L226.604 340.954C228.212 340.077 228.212 338.469 226.604 337.592L220.903 334.376C219.295 333.499 216.663 333.499 215.055 334.376L209.501 337.592C207.893 338.469 207.893 340.077 209.501 340.954L215.202 344.17C216.81 345.193 219.441 345.193 221.049 344.17ZM235.667 352.647L241.222 349.431C242.83 348.554 242.83 346.947 241.222 346.07L235.521 342.854C233.913 341.977 231.281 341.977 229.674 342.854L224.119 346.07C222.511 346.947 222.511 348.554 224.119 349.431L229.82 352.647C231.428 353.524 234.059 353.524 235.667 352.647ZM250.285 361.125L255.84 357.909C257.448 357.032 257.448 355.424 255.84 354.547L250.139 351.332C248.531 350.455 245.899 350.455 244.292 351.332L238.737 354.547C237.129 355.424 237.129 357.032 238.737 357.909L244.438 361.125C246.046 362.002 248.677 362.002 250.285 361.125ZM264.757 369.456L270.312 366.241C271.92 365.364 271.92 363.756 270.312 362.879L264.611 359.663C263.003 358.786 260.371 358.786 258.763 359.663L253.208 362.879C251.601 363.756 251.601 365.364 253.208 366.241L258.91 369.456C260.664 370.333 263.149 370.333 264.757 369.456ZM279.375 377.934L284.93 374.718C286.538 373.841 286.538 372.233 284.93 371.356L279.229 368.141C277.621 367.264 274.989 367.264 273.381 368.141L267.826 371.356C266.219 372.233 266.219 373.841 267.826 374.718L273.528 377.934C275.136 378.811 277.767 378.811 279.375 377.934ZM293.993 386.265L299.548 383.05C301.156 382.173 301.156 380.565 299.548 379.688L293.847 376.472C292.239 375.595 289.607 375.595 287.999 376.472L282.445 379.688C280.837 380.565 280.837 382.173 282.445 383.05L288.146 386.265C289.754 387.142 292.385 387.142 293.993 386.265ZM297.063 391.381L302.764 394.597C304.372 395.474 307.003 395.474 308.611 394.597L314.166 391.381C315.774 390.504 315.774 388.896 314.166 388.019L308.465 384.804C306.857 383.927 304.225 383.927 302.617 384.804L297.063 388.019C295.455 389.042 295.455 390.504 297.063 391.381ZM337.408 401.613L323.083 393.281C321.475 392.404 318.843 392.404 317.235 393.281L311.681 396.497C310.073 397.374 310.073 398.982 311.681 399.859L326.006 408.19C327.614 409.067 330.245 409.067 331.853 408.19L337.408 404.974C339.016 403.951 339.016 402.49 337.408 401.613ZM125.301 308.213L151.175 323.122C152.929 324.145 155.853 324.145 157.753 323.122L162.577 320.344C164.331 319.321 164.331 317.567 162.577 316.544L136.703 301.635C134.949 300.612 132.025 300.612 130.125 301.635L125.301 304.412C123.401 305.436 123.401 307.19 125.301 308.213ZM160.823 328.822L165.793 331.599C167.547 332.622 170.471 332.622 172.371 331.599L177.195 328.822C178.949 327.799 178.949 326.045 177.195 325.022L172.225 322.245C170.471 321.221 167.547 321.221 165.647 322.245L160.823 325.022C159.068 326.045 159.068 327.653 160.823 328.822ZM175.441 337.154L180.411 339.931C182.165 340.954 185.089 340.954 186.989 339.931L191.813 337.154C193.567 336.13 193.567 334.376 191.813 333.353L186.843 330.576C185.089 329.553 182.165 329.553 180.265 330.576L175.441 333.353C173.54 334.376 173.54 336.13 175.441 337.154ZM190.059 345.631L195.029 348.408C196.783 349.431 199.707 349.431 201.607 348.408L206.431 345.631C208.185 344.608 208.185 342.854 206.431 341.831L201.461 339.054C199.707 338.031 196.783 338.031 194.883 339.054L190.059 341.831C188.158 342.854 188.158 344.608 190.059 345.631ZM204.53 353.963L209.501 356.74C211.255 357.763 214.178 357.763 216.079 356.74L220.903 353.963C222.657 352.939 222.657 351.185 220.903 350.162L215.933 347.385C214.178 346.362 211.255 346.362 209.354 347.385L204.53 350.162C202.776 351.185 202.776 352.939 204.53 353.963ZM219.149 362.44L224.119 365.217C225.873 366.241 228.796 366.241 230.697 365.217L235.521 362.44C237.275 361.417 237.275 359.663 235.521 358.64L230.551 355.863C228.796 354.84 225.873 354.84 223.972 355.863L219.149 358.64C217.394 359.663 217.394 361.417 219.149 362.44ZM233.767 370.772L238.737 373.549C240.491 374.572 243.414 374.572 245.315 373.549L250.139 370.772C251.893 369.748 251.893 367.995 250.139 366.971L245.169 364.194C243.414 363.171 240.491 363.171 238.59 364.194L233.767 366.971C231.866 368.141 231.866 369.748 233.767 370.772ZM248.238 379.249L253.208 382.026C254.963 383.05 257.886 383.05 259.787 382.026L264.611 379.249C266.365 378.226 266.365 376.472 264.611 375.449L259.64 372.672C257.886 371.649 254.963 371.649 253.062 372.672L248.238 375.449C246.484 376.472 246.484 378.226 248.238 379.249ZM262.856 387.581L267.826 390.358C269.581 391.381 272.504 391.381 274.405 390.358L279.229 387.581C280.983 386.558 280.983 384.804 279.229 383.78L274.258 381.003C272.504 379.98 269.581 379.98 267.68 381.003L262.856 383.78C261.102 384.95 261.102 386.558 262.856 387.581ZM277.474 396.058L282.445 398.835C284.199 399.859 287.122 399.859 289.023 398.835L293.847 396.058C295.601 395.035 295.601 393.281 293.847 392.258L288.876 389.481C287.122 388.458 284.199 388.458 282.298 389.481L277.474 392.258C275.574 393.281 275.574 395.035 277.474 396.058ZM291.946 404.536L296.916 407.313C298.671 408.336 301.594 408.336 303.494 407.313L308.318 404.536C310.073 403.513 310.073 401.759 308.318 400.736L303.348 397.958C301.594 396.935 298.671 396.935 296.77 397.958L291.946 400.736C290.192 401.759 290.192 403.367 291.946 404.536ZM323.229 409.359L318.259 406.582C316.504 405.559 313.581 405.559 311.681 406.582L306.857 409.359C305.102 410.383 305.102 412.137 306.857 413.16L311.827 415.937C313.581 416.96 316.504 416.96 318.405 415.937L323.229 413.16C324.983 411.99 324.983 410.383 323.229 409.359ZM134.51 315.96L123.108 309.382C121.354 308.359 118.43 308.359 116.53 309.382L111.706 312.159C109.952 313.182 109.952 314.936 111.706 315.96L123.108 322.537C124.862 323.56 127.786 323.56 129.686 322.537L134.51 319.76C136.411 318.737 136.411 316.983 134.51 315.96ZM149.128 324.437L144.158 321.66C142.404 320.637 139.48 320.637 137.58 321.66L132.756 324.437C131.002 325.46 131.002 327.214 132.756 328.237L137.726 331.015C139.48 332.038 142.404 332.038 144.304 331.015L149.128 328.237C150.882 327.068 150.882 325.46 149.128 324.437ZM163.746 332.769L158.776 329.991C157.022 328.968 154.098 328.968 152.198 329.991L147.374 332.769C145.62 333.792 145.62 335.546 147.374 336.569L152.344 339.346C154.098 340.369 157.022 340.369 158.922 339.346L163.746 336.569C165.5 335.546 165.5 333.792 163.746 332.769ZM265.634 391.673L173.248 338.323C171.494 337.3 168.57 337.3 166.67 338.323L161.846 341.1C160.092 342.123 160.092 343.877 161.846 344.9L254.232 398.251C255.986 399.274 258.91 399.274 260.81 398.251L265.634 395.474C267.534 394.451 267.534 392.697 265.634 391.673ZM280.252 400.151L275.282 397.374C273.528 396.351 270.604 396.351 268.704 397.374L263.88 400.151C262.125 401.174 262.125 402.928 263.88 403.951L268.85 406.728C270.604 407.752 273.528 407.752 275.428 406.728L280.252 403.951C282.152 402.782 282.152 401.174 280.252 400.151ZM294.87 408.482L289.9 405.705C288.146 404.682 285.222 404.682 283.322 405.705L278.498 408.482C276.743 409.506 276.743 411.26 278.498 412.283L283.468 415.06C285.222 416.083 288.146 416.083 290.046 415.06L294.87 412.283C296.624 411.26 296.624 409.506 294.87 408.482ZM309.78 417.106L304.81 414.329C303.056 413.306 300.132 413.306 298.232 414.329L293.408 417.106C291.654 418.129 291.654 419.883 293.408 420.906L298.378 423.684C300.132 424.707 303.056 424.707 304.956 423.684L309.78 420.906C311.534 419.883 311.534 418.129 309.78 417.106Z" fill="#CED3F4"/>
<path d="M179.095 274.887L191.374 282.049C192.982 282.926 195.467 282.926 197.075 282.049C198.683 281.172 198.683 279.71 197.075 278.833L184.796 271.671C183.188 270.794 180.703 270.794 179.095 271.671C177.487 272.548 177.487 273.864 179.095 274.887ZM200.145 287.019L205.992 290.381C207.6 291.257 210.085 291.257 211.693 290.381C213.301 289.504 213.301 288.042 211.693 287.165L205.846 283.803C204.238 282.926 201.753 282.926 200.145 283.803C198.537 284.534 198.537 285.996 200.145 287.019ZM214.763 295.35L220.61 298.712C222.218 299.589 224.703 299.589 226.311 298.712C227.919 297.835 227.919 296.373 226.311 295.496L220.464 292.134C218.856 291.257 216.371 291.257 214.763 292.134C213.155 293.011 213.155 294.473 214.763 295.35ZM229.235 303.828L235.082 307.19C236.69 308.067 239.175 308.067 240.783 307.19C242.391 306.313 242.391 304.851 240.783 303.974L234.936 300.612C233.328 299.735 230.843 299.735 229.235 300.612C227.773 301.489 227.773 302.951 229.235 303.828ZM243.853 312.159L249.7 315.521C251.308 316.398 253.793 316.398 255.401 315.521C257.009 314.644 257.009 313.182 255.401 312.305L249.554 308.944C247.946 308.067 245.461 308.067 243.853 308.944C242.245 309.821 242.245 311.282 243.853 312.159ZM258.471 320.637L264.318 323.999C265.926 324.876 268.411 324.876 270.019 323.999C271.627 323.122 271.627 321.66 270.019 320.783L264.172 317.421C262.564 316.544 260.079 316.544 258.471 317.421C256.863 318.298 256.863 319.76 258.471 320.637ZM273.089 328.968L278.936 332.33C280.544 333.207 283.029 333.207 284.637 332.33C286.245 331.453 286.245 329.991 284.637 329.114L278.79 325.753C277.182 324.876 274.697 324.876 273.089 325.753C271.481 326.63 271.481 328.091 273.089 328.968ZM287.561 337.446L293.408 340.808C295.016 341.685 297.501 341.685 299.109 340.808C300.717 339.931 300.717 338.469 299.109 337.592L293.262 334.23C291.654 333.353 289.169 333.353 287.561 334.23C285.953 335.107 286.099 336.569 287.561 337.446ZM302.179 345.923L308.026 349.285C309.634 350.162 312.119 350.162 313.727 349.285C315.335 348.408 315.335 346.947 313.727 346.07L307.88 342.708C306.272 341.831 303.787 341.831 302.179 342.708C300.571 343.439 300.571 344.9 302.179 345.923ZM316.797 354.255L322.644 357.617C324.252 358.494 326.737 358.494 328.345 357.617C329.953 356.74 329.953 355.278 328.345 354.401L322.498 351.039C320.89 350.162 318.405 350.162 316.797 351.039C315.189 351.916 315.189 353.378 316.797 354.255ZM331.269 362.733L337.116 366.094C338.724 366.971 341.209 366.971 342.817 366.094C344.425 365.217 344.425 363.756 342.817 362.879L336.97 359.517C335.362 358.64 332.877 358.64 331.269 359.517C329.807 360.394 329.807 361.709 331.269 362.733ZM345.887 371.064L351.734 374.426C353.342 375.303 355.827 375.303 357.435 374.426C359.043 373.549 359.043 372.087 357.435 371.21L351.588 367.848C349.98 366.971 347.495 366.971 345.887 367.848C344.279 368.725 344.279 370.187 345.887 371.064ZM360.797 379.688L366.644 383.05C368.252 383.927 370.737 383.927 372.345 383.05C373.953 382.173 373.953 380.711 372.345 379.834L366.498 376.472C364.89 375.595 362.405 375.595 360.797 376.472C359.189 377.349 359.189 378.811 360.797 379.688ZM165.939 282.78L170.909 285.703C172.663 286.726 175.587 286.726 177.341 285.703L182.311 282.78C184.065 281.757 184.065 280.149 182.311 279.126L177.341 276.202C175.587 275.179 172.663 275.179 170.909 276.202L165.939 279.126C164.185 280.149 164.185 281.757 165.939 282.78ZM192.105 294.181L197.075 291.258C198.829 290.234 198.829 288.627 197.075 287.603L192.105 284.68C190.351 283.657 187.427 283.657 185.673 284.68L180.703 287.603C178.949 288.627 178.949 290.234 180.703 291.258L185.673 294.181C187.427 295.204 190.205 295.204 192.105 294.181ZM195.175 299.735L200.145 302.658C201.899 303.682 204.823 303.682 206.577 302.658L211.547 299.735C213.301 298.712 213.301 297.104 211.547 296.081L206.577 293.158C204.823 292.135 201.899 292.135 200.145 293.158L195.175 296.081C193.421 296.958 193.421 298.566 195.175 299.735ZM209.793 308.067L214.763 310.99C216.517 312.013 219.441 312.013 221.195 310.99L226.165 308.067C227.919 307.043 227.919 305.436 226.165 304.412L221.195 301.489C219.441 300.466 216.517 300.466 214.763 301.489L209.793 304.412C207.893 305.436 207.893 307.043 209.793 308.067ZM240.783 312.744L235.813 309.821C234.059 308.797 231.135 308.797 229.381 309.821L224.411 312.744C222.657 313.767 222.657 315.375 224.411 316.398L229.381 319.321C231.135 320.344 234.059 320.344 235.813 319.321L240.783 316.398C242.537 315.521 242.537 313.767 240.783 312.744ZM255.255 321.221L250.285 318.298C248.531 317.275 245.607 317.275 243.853 318.298L238.883 321.221C237.129 322.245 237.129 323.852 238.883 324.876L243.853 327.799C245.607 328.822 248.531 328.822 250.285 327.799L255.255 324.876C257.155 323.852 257.155 322.245 255.255 321.221ZM269.873 329.699L264.903 326.776C263.149 325.753 260.225 325.753 258.471 326.776L253.501 329.699C251.747 330.722 251.747 332.33 253.501 333.353L258.471 336.277C260.225 337.3 263.149 337.3 264.903 336.277L269.873 333.353C271.627 332.33 271.627 330.722 269.873 329.699ZM284.491 338.031L279.521 335.107C277.767 334.084 274.843 334.084 273.089 335.107L268.119 338.031C266.365 339.054 266.365 340.661 268.119 341.685L273.089 344.608C274.843 345.631 277.767 345.631 279.521 344.608L284.491 341.685C286.245 340.808 286.245 339.054 284.491 338.031ZM299.109 346.508L294.139 343.585C292.385 342.562 289.461 342.562 287.707 343.585L282.737 346.508C280.983 347.531 280.983 349.139 282.737 350.162L287.707 353.086C289.461 354.109 292.385 354.109 294.139 353.086L299.109 350.162C300.863 349.139 300.863 347.531 299.109 346.508ZM313.581 354.84L308.611 351.916C306.857 350.893 303.933 350.893 302.179 351.916L297.209 354.84C295.455 355.863 295.455 357.471 297.209 358.494L302.179 361.417C303.933 362.44 306.857 362.44 308.611 361.417L313.581 358.494C315.335 357.617 315.335 355.863 313.581 354.84ZM311.681 366.971L316.651 369.895C318.405 370.918 321.328 370.918 323.083 369.895L328.053 366.971C329.807 365.948 329.807 364.34 328.053 363.317L323.083 360.394C321.328 359.371 318.405 359.371 316.651 360.394L311.681 363.317C309.926 364.34 309.926 365.948 311.681 366.971ZM342.817 371.649L337.847 368.725C336.093 367.702 333.169 367.702 331.415 368.725L326.445 371.649C324.691 372.672 324.691 374.28 326.445 375.303L331.415 378.226C333.169 379.249 336.093 379.249 337.847 378.226L342.817 375.303C344.571 374.426 344.571 372.672 342.817 371.649ZM364.159 384.073L352.611 377.495C350.857 376.472 347.933 376.472 346.179 377.495L341.209 380.419C339.455 381.442 339.455 383.05 341.209 384.073L352.757 390.65C354.511 391.673 357.435 391.673 359.189 390.65L364.159 387.727C365.913 386.704 365.913 385.096 364.159 384.073ZM152.49 290.673L164.039 297.25C165.793 298.273 168.716 298.273 170.471 297.25L175.441 294.327C177.195 293.304 177.195 291.696 175.441 290.673L163.892 284.095C162.138 283.072 159.215 283.072 157.46 284.095L152.49 287.019C150.736 287.896 150.736 289.65 152.49 290.673ZM173.54 302.805L178.51 305.728C180.265 306.751 183.188 306.751 184.942 305.728L189.912 302.805C191.667 301.781 191.667 300.174 189.912 299.15L184.942 296.227C183.188 295.204 180.265 295.204 178.51 296.227L173.54 299.15C171.786 300.027 171.786 301.781 173.54 302.805ZM193.128 314.059C194.883 315.082 197.806 315.082 199.56 314.059L204.53 311.136C206.285 310.113 206.285 308.505 204.53 307.482L199.56 304.559C197.806 303.535 194.883 303.535 193.128 304.559L188.158 307.482C186.404 308.505 186.404 310.113 188.158 311.136L193.128 314.059ZM207.746 322.537C209.501 323.56 212.424 323.56 214.178 322.537L219.148 319.614C220.903 318.59 220.903 316.983 219.148 315.959L214.178 313.036C212.424 312.013 209.501 312.013 207.746 313.036L202.776 315.959C201.022 316.983 201.022 318.59 202.776 319.614L207.746 322.537ZM222.218 321.368L217.248 324.291C215.494 325.314 215.494 326.922 217.248 327.945L222.218 330.868C223.972 331.892 226.896 331.892 228.65 330.868L233.62 327.945C235.375 326.922 235.375 325.314 233.62 324.291L228.65 321.368C226.896 320.344 223.972 320.344 222.218 321.368ZM237.129 329.699L231.574 332.915C229.966 333.792 229.966 335.4 231.574 336.277L237.275 339.492C238.883 340.369 241.514 340.369 243.122 339.492L248.677 336.277C250.285 335.4 250.285 333.792 248.677 332.915L242.976 329.699C241.368 328.676 238.737 328.676 237.129 329.699ZM251.747 338.031L246.192 341.246C244.584 342.123 244.584 343.731 246.192 344.608L251.893 347.824C253.501 348.701 256.132 348.701 257.74 347.824L263.295 344.608C264.903 343.731 264.903 342.123 263.295 341.246L257.594 338.031C255.84 337.154 253.355 337.154 251.747 338.031ZM266.219 346.508L260.664 349.724C259.056 350.601 259.056 352.209 260.664 353.086L266.365 356.301C267.973 357.178 270.604 357.178 272.212 356.301L277.767 353.086C279.375 352.209 279.375 350.601 277.767 349.724L272.066 346.508C270.458 345.631 267.826 345.485 266.219 346.508ZM280.837 354.84L275.282 358.055C273.674 358.932 273.674 360.54 275.282 361.417L280.983 364.633C282.591 365.51 285.222 365.51 286.83 364.633L292.385 361.417C293.993 360.54 293.993 358.932 292.385 358.055L286.684 354.84C285.076 353.963 282.445 353.963 280.837 354.84ZM295.455 363.317L289.9 366.533C288.292 367.41 288.292 369.018 289.9 369.895L295.601 373.11C297.209 373.987 299.84 373.987 301.448 373.11L307.003 369.895C308.611 369.018 308.611 367.41 307.003 366.533L301.302 363.317C299.694 362.44 297.063 362.44 295.455 363.317ZM315.92 381.588L321.475 378.372C323.083 377.495 323.083 375.887 321.475 375.01L315.774 371.795C314.166 370.918 311.534 370.918 309.926 371.795L304.372 375.01C302.764 375.887 302.764 377.495 304.372 378.372L310.073 381.588C311.681 382.465 314.312 382.465 315.92 381.588ZM330.392 390.065L335.946 386.85C337.554 385.973 337.554 384.365 335.946 383.488L330.245 380.272C328.637 379.395 326.006 379.395 324.398 380.272L318.843 383.488C317.235 384.365 317.235 385.973 318.843 386.85L324.544 390.065C326.299 390.942 328.784 390.942 330.392 390.065ZM350.857 391.966L345.156 388.75C343.548 387.873 340.917 387.873 339.309 388.75L333.754 391.966C332.146 392.843 332.146 394.45 333.754 395.327L339.455 398.543C341.063 399.42 343.694 399.42 345.302 398.543L350.857 395.327C352.465 394.45 352.465 392.989 350.857 391.966ZM138.749 298.273L157.022 308.797C158.63 309.674 161.261 309.674 162.869 308.797L168.424 305.582C170.032 304.705 170.032 303.097 168.424 302.22L150.151 291.696C148.544 290.819 145.912 290.819 144.304 291.696L138.749 294.912C137.141 295.789 137.141 297.25 138.749 298.273ZM165.939 313.913L171.64 317.129C173.248 318.006 175.879 318.006 177.487 317.129L183.042 313.913C184.65 313.036 184.65 311.428 183.042 310.551L177.341 307.336C175.733 306.459 173.102 306.459 171.494 307.336L165.939 310.551C164.331 311.575 164.331 313.036 165.939 313.913ZM180.411 322.391L186.112 325.606C187.72 326.483 190.351 326.483 191.959 325.606L197.514 322.391C199.122 321.514 199.122 319.906 197.514 319.029L191.813 315.813C190.205 314.936 187.574 314.936 185.966 315.813L180.411 319.029C178.803 319.906 178.803 321.368 180.411 322.391ZM195.029 330.722L200.73 333.938C202.338 334.815 204.969 334.815 206.577 333.938L212.132 330.722C213.74 329.845 213.74 328.237 212.132 327.36L206.431 324.145C204.823 323.268 202.192 323.268 200.584 324.145L195.029 327.36C193.421 328.384 193.421 329.845 195.029 330.722ZM221.049 342.415L226.604 339.2C228.212 338.323 228.212 336.715 226.604 335.838L220.903 332.622C219.295 331.745 216.663 331.745 215.055 332.622L209.501 335.838C207.893 336.715 207.893 338.323 209.501 339.2L215.202 342.415C216.81 343.439 219.441 343.439 221.049 342.415ZM235.667 350.893L241.222 347.677C242.83 346.8 242.83 345.193 241.222 344.316L235.521 341.1C233.913 340.223 231.281 340.223 229.673 341.1L224.119 344.316C222.511 345.193 222.511 346.8 224.119 347.677L229.82 350.893C231.428 351.77 234.059 351.77 235.667 350.893ZM250.285 359.225L255.84 356.009C257.448 355.132 257.448 353.524 255.84 352.647L250.139 349.431C248.531 348.554 245.899 348.554 244.292 349.431L238.737 352.647C237.129 353.524 237.129 355.132 238.737 356.009L244.438 359.225C246.046 360.248 248.677 360.248 250.285 359.225ZM264.757 367.702L270.312 364.486C271.92 363.609 271.92 362.002 270.312 361.125L264.611 357.909C263.003 357.032 260.371 357.032 258.763 357.909L253.208 361.125C251.6 362.002 251.6 363.609 253.208 364.486L258.91 367.702C260.664 368.579 263.149 368.579 264.757 367.702ZM279.375 376.034L284.93 372.818C286.538 371.941 286.538 370.333 284.93 369.456L279.229 366.24C277.621 365.363 274.989 365.363 273.381 366.24L267.826 369.456C266.219 370.333 266.219 371.941 267.826 372.818L273.528 376.034C275.136 377.057 277.767 377.057 279.375 376.034ZM293.993 384.511L299.548 381.296C301.156 380.419 301.156 378.811 299.548 377.934L293.847 374.718C292.239 373.841 289.607 373.841 287.999 374.718L282.444 377.934C280.837 378.811 280.837 380.419 282.444 381.296L288.146 384.511C289.754 385.388 292.385 385.388 293.993 384.511ZM297.062 389.627L302.764 392.843C304.372 393.72 307.003 393.72 308.611 392.843L314.166 389.627C315.774 388.75 315.774 387.142 314.166 386.265L308.465 383.05C306.857 382.173 304.225 382.173 302.617 383.05L297.062 386.265C295.455 387.288 295.455 388.75 297.062 389.627ZM337.408 399.859L323.083 391.527C321.475 390.65 318.843 390.65 317.235 391.527L311.681 394.743C310.073 395.62 310.073 397.228 311.681 398.105L326.006 406.436C327.614 407.313 330.245 407.313 331.853 406.436L337.408 403.22C339.016 402.197 339.016 400.736 337.408 399.859ZM125.301 306.459L151.175 321.368C152.929 322.391 155.853 322.391 157.753 321.368L162.577 318.59C164.331 317.567 164.331 315.813 162.577 314.79L136.703 299.881C134.949 298.858 132.025 298.858 130.125 299.881L125.301 302.658C123.401 303.682 123.401 305.436 125.301 306.459ZM160.823 326.922L165.793 329.699C167.547 330.722 170.471 330.722 172.371 329.699L177.195 326.922C178.949 325.899 178.949 324.145 177.195 323.122L172.225 320.344C170.471 319.321 167.547 319.321 165.647 320.344L160.823 323.122C159.068 324.291 159.068 325.899 160.823 326.922ZM175.441 335.4L180.411 338.177C182.165 339.2 185.089 339.2 186.989 338.177L191.813 335.4C193.567 334.376 193.567 332.622 191.813 331.599L186.843 328.822C185.089 327.799 182.165 327.799 180.265 328.822L175.441 331.599C173.54 332.622 173.54 334.376 175.441 335.4ZM190.059 343.877L195.029 346.654C196.783 347.677 199.707 347.677 201.607 346.654L206.431 343.877C208.185 342.854 208.185 341.1 206.431 340.077L201.461 337.3C199.707 336.277 196.783 336.277 194.883 337.3L190.059 340.077C188.158 341.1 188.158 342.708 190.059 343.877ZM204.53 352.209L209.501 354.986C211.255 356.009 214.178 356.009 216.079 354.986L220.903 352.209C222.657 351.185 222.657 349.431 220.903 348.408L215.933 345.631C214.178 344.608 211.255 344.608 209.354 345.631L204.53 348.408C202.776 349.431 202.776 351.185 204.53 352.209ZM219.148 360.686L224.119 363.463C225.873 364.486 228.796 364.486 230.697 363.463L235.521 360.686C237.275 359.663 237.275 357.909 235.521 356.886L230.551 354.109C228.796 353.086 225.873 353.086 223.972 354.109L219.148 356.886C217.394 357.909 217.394 359.517 219.148 360.686ZM233.767 369.018L238.737 371.795C240.491 372.818 243.414 372.818 245.315 371.795L250.139 369.018C251.893 367.994 251.893 366.24 250.139 365.217L245.169 362.44C243.414 361.417 240.491 361.417 238.59 362.44L233.767 365.217C231.866 366.24 231.866 367.994 233.767 369.018ZM248.238 377.495L253.208 380.272C254.963 381.296 257.886 381.296 259.787 380.272L264.611 377.495C266.365 376.472 266.365 374.718 264.611 373.695L259.64 370.918C257.886 369.895 254.963 369.895 253.062 370.918L248.238 373.695C246.484 374.718 246.484 376.472 248.238 377.495ZM262.856 385.827L267.826 388.604C269.581 389.627 272.504 389.627 274.405 388.604L279.229 385.827C280.983 384.804 280.983 383.05 279.229 382.026L274.258 379.249C272.504 378.226 269.581 378.226 267.68 379.249L262.856 382.026C261.102 383.196 261.102 384.804 262.856 385.827ZM277.474 394.304L282.444 397.081C284.199 398.105 287.122 398.105 289.023 397.081L293.847 394.304C295.601 393.281 295.601 391.527 293.847 390.504L288.876 387.727C287.122 386.704 284.199 386.704 282.298 387.727L277.474 390.504C275.574 391.527 275.574 393.281 277.474 394.304ZM291.946 402.636L296.916 405.413C298.671 406.436 301.594 406.436 303.494 405.413L308.318 402.636C310.073 401.613 310.073 399.859 308.318 398.835L303.348 396.058C301.594 395.035 298.671 395.035 296.77 396.058L291.946 398.835C290.192 400.005 290.192 401.613 291.946 402.636ZM323.229 407.605L318.259 404.828C316.504 403.805 313.581 403.805 311.681 404.828L306.857 407.605C305.102 408.629 305.102 410.383 306.857 411.406L311.827 414.183C313.581 415.206 316.504 415.206 318.405 414.183L323.229 411.406C324.983 410.236 324.983 408.629 323.229 407.605ZM134.51 314.206L123.108 307.628C121.354 306.605 118.43 306.605 116.53 307.628L111.706 310.405C109.952 311.428 109.952 313.182 111.706 314.206L123.108 320.783C124.862 321.806 127.786 321.806 129.686 320.783L134.51 318.006C136.411 316.983 136.411 315.229 134.51 314.206ZM149.128 322.683L144.158 319.906C142.404 318.883 139.48 318.883 137.58 319.906L132.756 322.683C131.002 323.706 131.002 325.46 132.756 326.483L137.726 329.261C139.48 330.284 142.404 330.284 144.304 329.261L149.128 326.483C150.882 325.314 150.882 323.706 149.128 322.683ZM163.746 331.015L158.776 328.237C157.022 327.214 154.098 327.214 152.198 328.237L147.374 331.015C145.62 332.038 145.62 333.792 147.374 334.815L152.344 337.592C154.098 338.615 157.022 338.615 158.922 337.592L163.746 334.815C165.5 333.792 165.5 332.038 163.746 331.015ZM265.634 389.919L173.248 336.569C171.494 335.546 168.57 335.546 166.67 336.569L161.846 339.346C160.092 340.369 160.092 342.123 161.846 343.146L254.232 396.497C255.986 397.52 258.91 397.52 260.81 396.497L265.634 393.72C267.534 392.696 267.534 390.942 265.634 389.919ZM280.252 398.397L275.282 395.62C273.528 394.597 270.604 394.597 268.704 395.62L263.88 398.397C262.125 399.42 262.125 401.174 263.88 402.197L268.85 404.974C270.604 405.998 273.528 405.998 275.428 404.974L280.252 402.197C282.152 401.028 282.152 399.42 280.252 398.397ZM294.87 406.728L289.9 403.951C288.146 402.928 285.222 402.928 283.322 403.951L278.498 406.728C276.743 407.752 276.743 409.506 278.498 410.529L283.468 413.306C285.222 414.329 288.146 414.329 290.046 413.306L294.87 410.529C296.624 409.506 296.624 407.752 294.87 406.728ZM309.78 415.352L304.81 412.575C303.056 411.552 300.132 411.552 298.232 412.575L293.408 415.352C291.654 416.375 291.654 418.129 293.408 419.152L298.378 421.93C300.132 422.953 303.056 422.953 304.956 421.93L309.78 419.152C311.534 418.129 311.534 416.375 309.78 415.352Z" fill="white"/>
<path d="M424.385 377.641L181.726 237.761C173.393 232.937 166.669 220.075 166.669 208.966V17.1969C166.669 6.08829 173.393 0.972493 181.726 5.79596L424.385 145.676C432.717 150.5 439.441 163.363 439.441 174.471V366.094C439.588 377.349 432.717 382.465 424.385 377.641Z" fill="#FAD2D4"/>
<path d="M426.432 368.871L185.965 230.306C179.241 226.068 175.148 217.59 175.148 208.82V16.3199C175.148 14.2735 177.341 12.958 179.241 13.9812C179.387 14.1274 179.68 14.1274 179.68 14.2735L420.292 152.985C428.332 157.662 431.109 165.701 431.109 174.471V366.533C431.109 368.725 428.771 370.187 426.724 369.018C426.578 369.018 426.432 369.018 426.432 368.871Z" fill="#660806"/>
<path d="M420.146 153.131L179.68 14.4197C179.533 14.4197 179.387 14.2735 179.241 14.1274C177.487 13.1042 175.148 14.4197 175.148 16.466V208.966C175.148 217.736 179.241 226.214 185.965 230.453L426.432 369.018C426.578 369.018 426.578 369.164 426.724 369.164C428.624 370.333 431.109 368.872 431.109 366.679V174.617C431.109 165.847 428.186 157.662 420.146 153.131ZM429.355 366.679C429.355 367.41 428.771 367.848 428.186 367.848C428.04 367.848 427.747 367.848 427.601 367.702L186.842 228.845C180.849 225.044 176.902 217.152 176.902 208.82V16.3199C176.902 15.7352 177.487 15.2967 177.925 15.2967C178.072 15.2967 178.218 15.2967 178.364 15.4429L419.415 154.446C427.747 159.27 429.355 168.04 429.355 174.471V366.679Z" fill="white"/>
<path d="M431.402 141.73L188.743 1.84947C185.38 -0.0506883 182.457 -0.34302 179.972 0.533974C179.679 0.68014 172.809 4.62661 172.517 4.77278C175.148 3.45729 178.364 3.74962 181.872 5.79594L424.531 145.677C432.863 150.5 439.588 163.363 439.588 174.471V366.094C439.588 372.964 436.956 377.641 433.01 378.957C433.302 378.957 433.741 378.811 434.325 378.518C434.471 378.372 441.78 374.134 441.927 373.987C444.85 371.941 446.604 367.848 446.604 362.148V170.525C446.458 159.416 439.734 146.554 431.402 141.73Z" fill="white"/>
<path d="M431.255 141.73L188.596 1.84947C185.234 -0.0506883 182.311 -0.34302 179.826 0.533974C179.533 0.68014 172.809 4.62661 172.517 4.77278C175.148 3.45729 178.364 3.74962 181.872 5.79594L424.531 145.677C432.863 150.5 439.588 163.363 439.588 174.471V366.094C439.588 372.964 436.957 377.641 433.01 378.957C433.302 378.957 433.741 378.811 434.325 378.518C434.471 378.372 441.634 374.134 441.78 373.987C444.704 371.941 446.458 367.848 446.458 362.148V170.671C446.312 159.562 439.588 146.554 431.255 141.73Z" fill="white"/>
<path d="M431.109 141.876L188.45 1.99558C185.088 0.0954299 182.164 -0.196902 179.679 0.680093C179.387 0.826258 172.809 4.62657 172.37 4.77273C175.001 3.45724 178.217 3.74957 181.726 5.79589L424.385 145.676C432.717 150.5 439.441 163.363 439.441 174.471V366.094C439.441 372.964 436.81 377.641 432.863 378.957C433.155 378.957 433.594 378.811 434.179 378.518C434.325 378.372 441.341 374.28 441.488 374.133C444.411 372.087 446.165 367.994 446.165 362.294V170.671C446.165 159.562 439.441 146.7 431.109 141.876Z" fill="white"/>
<path d="M430.963 142.022L188.304 2.14179C184.941 0.24164 182.018 -0.0506918 179.533 0.826302C179.24 0.972468 172.662 4.62661 172.37 4.91894C175.001 3.60345 178.217 3.89578 181.726 5.9421L424.385 145.823C432.717 150.646 439.441 163.509 439.441 174.617V366.241C439.441 373.11 436.81 377.788 432.863 379.103C433.155 379.103 433.594 378.957 434.179 378.665C434.325 378.518 441.195 374.426 441.341 374.28C444.265 372.233 446.019 368.141 446.019 362.44V170.817C446.165 159.708 439.295 146.7 430.963 142.022Z" fill="url(#paint0_linear_1_84036)"/>
<path d="M430.817 142.022L188.157 2.14179C184.795 0.24164 181.872 -0.0506919 179.387 0.826302C179.094 0.972468 172.662 4.62661 172.37 4.77278C175.001 3.45728 178.217 3.74962 181.726 5.79594L424.385 145.677C432.717 150.5 439.441 163.363 439.441 174.471V366.094C439.441 372.964 436.81 377.641 432.863 378.957C433.155 378.957 433.594 378.811 434.179 378.518C434.325 378.372 441.049 374.426 441.341 374.28C444.265 372.233 446.019 368.141 446.019 362.44V170.817C446.019 159.708 439.149 146.846 430.817 142.022Z" fill="white"/>
<path d="M430.817 142.169L188.158 2.28794C184.796 0.387788 181.872 0.0954568 179.387 0.972451C179.095 1.11862 172.809 4.62659 172.517 4.77276C175.148 3.45727 178.364 3.7496 181.872 5.79592L424.531 145.676C432.863 150.5 439.588 163.363 439.588 174.471V366.094C439.588 372.964 436.956 377.641 433.01 378.957C433.302 378.957 433.741 378.811 434.325 378.518C434.471 378.372 441.049 374.426 441.342 374.426C444.265 372.38 446.02 368.287 446.02 362.586V170.963C445.873 159.855 439.149 146.992 430.817 142.169Z" fill="url(#paint1_linear_1_84036)"/>
<path d="M430.671 142.169L188.012 2.28794C184.65 0.387788 181.726 0.0954568 179.241 0.972451C178.949 1.11862 172.809 4.62659 172.517 4.77276C175.148 3.45727 178.364 3.7496 181.872 5.79592L424.531 145.676C432.863 150.5 439.588 163.363 439.588 174.471V366.094C439.588 372.964 436.956 377.641 433.01 378.957C433.302 378.957 433.741 378.811 434.325 378.518C434.471 378.372 441.049 374.572 441.196 374.426C444.119 372.38 445.873 368.287 445.873 362.586V171.109C445.727 160.001 439.003 146.992 430.671 142.169Z" fill="url(#paint2_linear_1_84036)"/>
<path d="M430.525 142.315L187.866 2.43412C184.503 0.533968 181.58 0.241636 179.095 1.11863C178.802 1.2648 172.809 4.62661 172.517 4.77277C175.148 3.45728 178.364 3.74961 181.872 5.79593L424.531 145.676C432.863 150.5 439.588 163.363 439.588 174.471V366.094C439.588 372.964 436.957 377.641 433.01 378.957C433.302 378.957 433.741 378.811 434.325 378.518C434.471 378.372 440.903 374.718 441.05 374.572C443.973 372.526 445.727 368.433 445.727 362.733V171.109C445.581 160.001 438.857 147.138 430.525 142.315Z" fill="url(#paint3_linear_1_84036)"/>
<path d="M430.378 142.315L187.719 2.43412C184.357 0.533968 181.434 0.241636 178.949 1.11863C178.656 1.2648 172.809 4.62661 172.517 4.77277C175.148 3.45728 178.364 3.74961 181.872 5.79593L424.531 145.676C432.863 150.5 439.588 163.363 439.588 174.471V366.094C439.588 372.964 436.956 377.641 433.01 378.957C433.302 378.957 433.741 378.811 434.325 378.518C434.471 378.372 440.757 374.718 440.903 374.572C443.827 372.526 445.581 368.433 445.581 362.733V171.255C445.435 160.147 438.711 147.138 430.378 142.315Z" fill="url(#paint4_linear_1_84036)"/>
<path d="M430.232 142.461L187.573 2.58027C184.211 0.680116 181.287 0.387785 178.802 1.26478C178.51 1.41094 172.809 4.62659 172.517 4.77276C175.148 3.45726 178.364 3.7496 181.872 5.79592L424.531 145.676C432.863 150.5 439.588 163.363 439.588 174.471V366.094C439.588 372.964 436.957 377.641 433.01 378.957C433.302 378.957 433.741 378.811 434.325 378.518C434.471 378.372 440.611 374.864 440.757 374.718C443.681 372.672 445.435 368.579 445.435 362.879V171.255C445.289 160.147 438.564 147.284 430.232 142.461Z" fill="url(#paint5_linear_1_84036)"/>
<path d="M430.086 142.607L187.427 2.72645C184.064 0.826295 181.141 0.533964 178.656 1.41096C178.363 1.55712 172.662 4.6266 172.37 4.91894C175.001 3.60344 178.217 3.89577 181.726 5.94209L424.385 145.823C432.717 150.646 439.441 163.509 439.441 174.617V366.241C439.441 373.11 436.81 377.788 432.863 379.103C433.155 379.103 433.594 378.957 434.179 378.665C434.325 378.518 440.318 375.01 440.464 374.864C443.388 372.818 445.142 368.725 445.142 363.025V171.402C445.142 160.293 438.418 147.284 430.086 142.607Z" fill="url(#paint6_linear_1_84036)"/>
<path d="M429.939 142.607L187.28 2.72645C183.918 0.826295 180.995 0.533964 178.51 1.41096C178.217 1.55712 172.662 4.6266 172.37 4.77277C175.001 3.45728 178.217 3.74961 181.726 5.79593L424.385 145.676C432.717 150.5 439.441 163.363 439.441 174.471V366.094C439.441 372.964 436.81 377.641 432.863 378.957C433.155 378.957 433.594 378.811 434.179 378.518C434.325 378.372 440.172 375.01 440.464 374.864C443.388 372.818 445.142 368.725 445.142 363.025V171.402C445.142 160.293 438.272 147.43 429.939 142.607Z" fill="#FAD2D4"/>
<path d="M429.793 142.753L187.134 2.72645C183.772 0.826295 180.848 0.533964 178.363 1.41096C178.071 1.55712 172.662 4.48044 172.37 4.6266C175.001 3.31111 178.217 3.60344 181.726 5.64976L424.385 145.53C432.717 150.354 439.441 163.216 439.441 174.325V365.948C439.441 372.818 436.81 377.495 432.863 378.811C433.155 378.811 433.594 378.665 434.179 378.372C434.325 378.226 440.026 374.864 440.318 374.864C443.242 372.818 444.996 368.725 444.996 363.025V171.548C444.996 160.439 438.126 147.577 429.793 142.753Z" fill="url(#paint7_linear_1_84036)"/>
<path d="M429.793 142.753L186.988 2.8726C183.626 0.972444 180.702 0.680113 178.217 1.55711C177.925 1.70327 172.662 4.62659 172.37 4.77275C175.001 3.45726 178.217 3.74959 181.726 5.79591L424.385 145.676C432.717 150.5 439.441 163.363 439.441 174.471V366.094C439.441 372.964 436.81 377.641 432.863 378.957C433.155 378.957 433.594 378.811 434.179 378.518C434.325 378.372 440.026 375.157 440.172 375.01C443.096 372.964 444.85 368.871 444.85 363.171V171.694C444.85 160.585 438.126 147.577 429.793 142.753Z" fill="url(#paint8_linear_1_84036)"/>
<path d="M429.647 142.899L186.842 2.8726C183.48 0.972444 180.556 0.680113 178.071 1.55711C177.779 1.70327 172.662 4.48042 172.37 4.62659C175.001 3.3111 178.217 3.60343 181.726 5.64975L424.385 145.53C432.717 150.354 439.441 163.216 439.441 174.325V365.948C439.441 372.818 436.81 377.495 432.863 378.811C433.155 378.811 433.594 378.665 434.179 378.372C434.325 378.226 439.88 375.157 440.026 375.01C442.949 372.964 444.704 368.872 444.704 363.171V171.694C444.704 160.585 437.979 147.723 429.647 142.899Z" fill="url(#paint9_linear_1_84036)"/>
<path d="M429.501 142.899L186.842 3.01878C183.48 1.11862 180.557 0.826292 178.071 1.70329C177.779 1.84945 172.809 4.6266 172.517 4.77277C175.148 3.45727 178.364 3.74961 181.872 5.79593L424.531 145.676C432.863 150.5 439.588 163.363 439.588 174.471V366.094C439.588 372.964 436.956 377.641 433.01 378.957C433.302 378.957 433.741 378.811 434.325 378.518C434.471 378.372 439.88 375.303 440.026 375.157C442.95 373.11 444.704 369.018 444.704 363.317V171.84C444.558 160.732 437.834 147.723 429.501 142.899Z" fill="url(#paint10_linear_1_84036)"/>
<path d="M429.355 143.045L186.696 3.16493C183.334 1.26477 180.41 0.97244 177.925 1.84943C177.633 1.9956 172.809 4.62658 172.517 4.77275C175.148 3.45726 178.364 3.74959 181.872 5.79591L424.531 145.676C432.863 150.5 439.588 163.363 439.588 174.471V366.094C439.588 372.964 436.957 377.641 433.01 378.957C433.302 378.957 433.741 378.811 434.325 378.518C434.471 378.372 439.734 375.449 439.88 375.303C442.804 373.256 444.558 369.164 444.558 363.463V171.84C444.412 160.732 437.687 147.869 429.355 143.045Z" fill="#FAD2D4"/>
<path d="M429.209 143.192L186.55 3.31107C183.188 1.41092 180.264 1.11859 177.779 1.99558C177.487 2.14175 172.809 4.62657 172.517 4.9189C175.148 3.60341 178.364 3.89574 181.872 5.94206L424.531 145.823C432.863 150.646 439.588 163.509 439.588 174.617V366.24C439.588 373.11 436.957 377.788 433.01 379.103C433.302 379.103 433.741 378.957 434.325 378.665C434.471 378.518 439.588 375.595 439.734 375.449C442.658 373.403 444.412 369.31 444.412 363.609V171.986C444.266 160.878 437.541 147.869 429.209 143.192Z" fill="url(#paint11_linear_1_84036)"/>
<path d="M429.062 143.192L186.403 3.31107C183.041 1.41092 180.118 1.11859 177.632 1.99558C177.34 2.14175 172.662 4.62657 172.37 4.77273C175.001 3.45724 178.217 3.74957 181.726 5.79589L424.385 145.676C432.717 150.5 439.441 163.363 439.441 174.471V366.094C439.441 372.964 436.81 377.641 432.863 378.957C433.155 378.957 433.594 378.811 434.179 378.518C434.325 378.372 439.295 375.595 439.441 375.449C442.365 373.403 444.119 369.31 444.119 363.609V171.986C444.119 160.878 437.395 148.015 429.062 143.192Z" fill="url(#paint12_linear_1_84036)"/>
<path d="M428.916 143.338L186.257 3.45725C182.895 1.5571 179.971 1.26477 177.486 2.14176C177.194 2.28793 172.662 4.62658 172.37 4.77274C175.001 3.45725 178.217 3.74958 181.726 5.7959L424.385 145.676C432.717 150.5 439.441 163.363 439.441 174.471V366.094C439.441 372.964 436.81 377.641 432.863 378.957C433.155 378.957 433.594 378.811 434.179 378.518C434.325 378.372 439.149 375.595 439.441 375.595C442.365 373.549 444.119 369.456 444.119 363.756V172.132C444.119 161.024 437.248 148.161 428.916 143.338Z" fill="url(#paint13_linear_1_84036)"/>
<path d="M428.77 143.338L186.111 3.45725C182.749 1.5571 179.825 1.26477 177.34 2.14176C177.048 2.28793 172.662 4.62658 172.37 4.77274C175.001 3.45725 178.217 3.74958 181.726 5.7959L424.385 145.676C432.717 150.5 439.441 163.363 439.441 174.471V366.094C439.441 372.964 436.81 377.641 432.863 378.957C433.155 378.957 433.594 378.811 434.179 378.518C434.325 378.372 439.003 375.741 439.295 375.595C442.219 373.549 443.973 369.456 443.973 363.756V172.279C443.973 161.17 437.248 148.161 428.77 143.338Z" fill="url(#paint14_linear_1_84036)"/>
<path d="M428.77 143.484L186.111 3.60343C182.749 1.70328 179.826 1.41095 177.341 2.28794C177.048 2.43411 172.809 4.62659 172.517 4.77276C175.148 3.45727 178.364 3.7496 181.872 5.79592L424.531 145.676C432.863 150.5 439.588 163.363 439.588 174.471V366.094C439.588 372.964 436.956 377.641 433.01 378.957C433.302 378.957 433.741 378.811 434.325 378.518C434.471 378.372 439.149 375.887 439.295 375.741C442.219 373.695 443.973 369.602 443.973 363.902V172.279C443.827 161.17 437.103 148.307 428.77 143.484Z" fill="#FAD2D4"/>
<path d="M425.116 145.384L182.457 5.50359C179.095 3.45727 175.879 3.3111 173.394 4.33426C175.587 4.04193 178.072 4.48043 180.703 6.08825L423.362 145.969C431.694 150.792 438.419 163.655 438.419 174.763V366.387C438.419 372.964 436.08 377.349 432.425 378.957C437.103 378.226 440.173 373.403 440.173 365.802V174.179C440.319 163.07 433.449 150.208 425.116 145.384Z" fill="white"/>
<defs>
<linearGradient id="paint0_linear_1_84036" x1="249.647" y1="-35.5299" x2="455.127" y2="376.184" gradientUnits="userSpaceOnUse">
<stop stop-color="#B7BDE9"/>
<stop offset="0.1919" stop-color="#BCC1EB"/>
<stop offset="0.2828" stop-color="#BFC5EC"/>
<stop offset="0.4091" stop-color="#B7BDE9"/>
<stop offset="0.4343" stop-color="#B7BDE9"/>
<stop offset="0.5354" stop-color="#BAC0E9"/>
<stop offset="0.7222" stop-color="#AFB6E5"/>
<stop offset="0.9091" stop-color="#AFB6E5"/>
<stop offset="1" stop-color="#B7BDE9"/>
</linearGradient>
<linearGradient id="paint1_linear_1_84036" x1="249.529" y1="-35.4298" x2="454.992" y2="376.251" gradientUnits="userSpaceOnUse">
<stop stop-color="#B9C0EA"/>
<stop offset="0.1919" stop-color="#BFC4ED"/>
<stop offset="0.2828" stop-color="#C2C8ED"/>
<stop offset="0.4091" stop-color="#BCC2EB"/>
<stop offset="0.4343" stop-color="#BCC2EB"/>
<stop offset="0.5354" stop-color="#C2C7EB"/>
<stop offset="0.7222" stop-color="#AFB6E5"/>
<stop offset="0.9091" stop-color="#AFB6E5"/>
<stop offset="1" stop-color="#B9C0EA"/>
</linearGradient>
<linearGradient id="paint2_linear_1_84036" x1="249.469" y1="-35.3797" x2="454.924" y2="376.284" gradientUnits="userSpaceOnUse">
<stop stop-color="#BAC1EA"/>
<stop offset="0.1919" stop-color="#C0C6ED"/>
<stop offset="0.2828" stop-color="#C4C9EE"/>
<stop offset="0.4091" stop-color="#BEC4EC"/>
<stop offset="0.4343" stop-color="#BEC5EC"/>
<stop offset="0.5354" stop-color="#C6CBEC"/>
<stop offset="0.698" stop-color="#B2B9E6"/>
<stop offset="0.7222" stop-color="#AFB6E5"/>
<stop offset="0.9091" stop-color="#AFB6E5"/>
<stop offset="0.999" stop-color="#BAC1EA"/>
<stop offset="1" stop-color="#BAC1EA"/>
</linearGradient>
<linearGradient id="paint3_linear_1_84036" x1="249.41" y1="-35.3297" x2="454.856" y2="376.318" gradientUnits="userSpaceOnUse">
<stop stop-color="#BCC2EB"/>
<stop offset="0.1919" stop-color="#C2C7EE"/>
<stop offset="0.2828" stop-color="#C6CBEF"/>
<stop offset="0.4091" stop-color="#C1C7ED"/>
<stop offset="0.4343" stop-color="#C1C7EE"/>
<stop offset="0.5354" stop-color="#CACEEE"/>
<stop offset="0.6768" stop-color="#B6BDE7"/>
<stop offset="0.7222" stop-color="#AFB6E5"/>
<stop offset="0.9091" stop-color="#AFB6E5"/>
<stop offset="0.9881" stop-color="#BAC0EA"/>
<stop offset="1" stop-color="#BCC2EB"/>
</linearGradient>
<linearGradient id="paint4_linear_1_84036" x1="249.35" y1="-35.2795" x2="454.789" y2="376.351" gradientUnits="userSpaceOnUse">
<stop stop-color="#BDC3EC"/>
<stop offset="0.1919" stop-color="#C4C9EF"/>
<stop offset="0.2828" stop-color="#C7CDF0"/>
<stop offset="0.4091" stop-color="#C3C9EF"/>
<stop offset="0.4343" stop-color="#C4C9EF"/>
<stop offset="0.5354" stop-color="#CDD2EF"/>
<stop offset="0.6644" stop-color="#B9C0E8"/>
<stop offset="0.7222" stop-color="#AFB6E5"/>
<stop offset="0.9091" stop-color="#AFB6E5"/>
<stop offset="0.9836" stop-color="#BAC0EA"/>
<stop offset="1" stop-color="#BDC3EC"/>
</linearGradient>
<linearGradient id="paint5_linear_1_84036" x1="249.291" y1="-35.2296" x2="454.721" y2="376.385" gradientUnits="userSpaceOnUse">
<stop stop-color="#BEC4EC"/>
<stop offset="0.1919" stop-color="#C5CAEF"/>
<stop offset="0.2828" stop-color="#C9CEF1"/>
<stop offset="0.4091" stop-color="#C6CBF0"/>
<stop offset="0.4343" stop-color="#C6CCF0"/>
<stop offset="0.5289" stop-color="#D0D4F0"/>
<stop offset="0.5354" stop-color="#D1D5F0"/>
<stop offset="0.651" stop-color="#BDC3EA"/>
<stop offset="0.7222" stop-color="#AFB6E5"/>
<stop offset="0.9091" stop-color="#AFB6E5"/>
<stop offset="0.9797" stop-color="#BAC0EA"/>
<stop offset="1" stop-color="#BEC4EC"/>
</linearGradient>
<linearGradient id="paint6_linear_1_84036" x1="249.231" y1="-35.1796" x2="454.653" y2="376.419" gradientUnits="userSpaceOnUse">
<stop stop-color="#BFC5ED"/>
<stop offset="0.1919" stop-color="#C7CCF0"/>
<stop offset="0.2828" stop-color="#CBD0F2"/>
<stop offset="0.4091" stop-color="#C8CEF1"/>
<stop offset="0.4343" stop-color="#C9CEF1"/>
<stop offset="0.5228" stop-color="#D3D7F1"/>
<stop offset="0.5354" stop-color="#D5D9F1"/>
<stop offset="0.6403" stop-color="#C1C7EB"/>
<stop offset="0.7222" stop-color="#AFB6E5"/>
<stop offset="0.9091" stop-color="#AFB6E5"/>
<stop offset="0.9763" stop-color="#BAC0EA"/>
<stop offset="1" stop-color="#BFC5ED"/>
</linearGradient>
<linearGradient id="paint7_linear_1_84036" x1="249.112" y1="-35.0795" x2="454.517" y2="376.485" gradientUnits="userSpaceOnUse">
<stop stop-color="#C2C8EE"/>
<stop offset="0.1919" stop-color="#CACFF2"/>
<stop offset="0.2828" stop-color="#CED3F3"/>
<stop offset="0.4091" stop-color="#CDD3F3"/>
<stop offset="0.4343" stop-color="#CED3F4"/>
<stop offset="0.509" stop-color="#D8DCF4"/>
<stop offset="0.5354" stop-color="#DDE0F4"/>
<stop offset="0.6245" stop-color="#C9CEEE"/>
<stop offset="0.7222" stop-color="#AFB6E5"/>
<stop offset="0.9091" stop-color="#AFB6E5"/>
<stop offset="0.9679" stop-color="#BAC0EA"/>
<stop offset="1" stop-color="#C2C8EE"/>
</linearGradient>
<linearGradient id="paint8_linear_1_84036" x1="249.052" y1="-35.0295" x2="454.449" y2="376.519" gradientUnits="userSpaceOnUse">
<stop stop-color="#C3C9EE"/>
<stop offset="0.1919" stop-color="#CBD0F2"/>
<stop offset="0.2828" stop-color="#D0D4F4"/>
<stop offset="0.4091" stop-color="#D0D5F4"/>
<stop offset="0.4343" stop-color="#D0D6F5"/>
<stop offset="0.5022" stop-color="#DADEF5"/>
<stop offset="0.5354" stop-color="#E1E3F5"/>
<stop offset="0.6182" stop-color="#CDD1EF"/>
<stop offset="0.7222" stop-color="#AFB6E5"/>
<stop offset="0.9091" stop-color="#AFB6E5"/>
<stop offset="0.9656" stop-color="#BAC0EA"/>
<stop offset="1" stop-color="#C3C9EE"/>
</linearGradient>
<linearGradient id="paint9_linear_1_84036" x1="248.993" y1="-34.9795" x2="454.382" y2="376.553" gradientUnits="userSpaceOnUse">
<stop stop-color="#C4CAEF"/>
<stop offset="0.1919" stop-color="#CDD2F3"/>
<stop offset="0.2828" stop-color="#D1D6F5"/>
<stop offset="0.4091" stop-color="#D2D7F6"/>
<stop offset="0.4343" stop-color="#D3D8F6"/>
<stop offset="0.5022" stop-color="#DDE1F6"/>
<stop offset="0.5354" stop-color="#E4E7F6"/>
<stop offset="0.6142" stop-color="#D0D5F0"/>
<stop offset="0.7222" stop-color="#AFB6E5"/>
<stop offset="0.9091" stop-color="#AFB6E5"/>
<stop offset="0.9635" stop-color="#BAC0EA"/>
<stop offset="1" stop-color="#C4CAEF"/>
</linearGradient>
<linearGradient id="paint10_linear_1_84036" x1="248.933" y1="-34.9295" x2="454.314" y2="376.586" gradientUnits="userSpaceOnUse">
<stop stop-color="#C6CBF0"/>
<stop offset="0.1919" stop-color="#CFD3F4"/>
<stop offset="0.2828" stop-color="#D3D8F6"/>
<stop offset="0.4091" stop-color="#D5DAF7"/>
<stop offset="0.4343" stop-color="#D6DAF8"/>
<stop offset="0.4993" stop-color="#E0E3F8"/>
<stop offset="0.5354" stop-color="#E8EAF8"/>
<stop offset="0.6093" stop-color="#D4D8F1"/>
<stop offset="0.7222" stop-color="#AFB6E5"/>
<stop offset="0.9091" stop-color="#AFB6E5"/>
<stop offset="0.9597" stop-color="#BAC0EA"/>
<stop offset="1" stop-color="#C6CBF0"/>
</linearGradient>
<linearGradient id="paint11_linear_1_84036" x1="248.814" y1="-34.8297" x2="454.179" y2="376.653" gradientUnits="userSpaceOnUse">
<stop stop-color="#C8CDF1"/>
<stop offset="0.1919" stop-color="#D2D6F5"/>
<stop offset="0.2828" stop-color="#D6DBF8"/>
<stop offset="0.4091" stop-color="#DADEF9"/>
<stop offset="0.4343" stop-color="#DBDFFA"/>
<stop offset="0.4921" stop-color="#E5E8FA"/>
<stop offset="0.5354" stop-color="#F0F1FA"/>
<stop offset="0.6013" stop-color="#DCDFF4"/>
<stop offset="0.7222" stop-color="#AFB6E5"/>
<stop offset="0.9091" stop-color="#AFB6E5"/>
<stop offset="0.9566" stop-color="#BAC0EA"/>
<stop offset="1" stop-color="#C8CDF1"/>
</linearGradient>
<linearGradient id="paint12_linear_1_84036" x1="248.754" y1="-34.7798" x2="454.11" y2="376.686" gradientUnits="userSpaceOnUse">
<stop stop-color="#C9CFF1"/>
<stop offset="0.1919" stop-color="#D3D8F6"/>
<stop offset="0.2828" stop-color="#D8DCF8"/>
<stop offset="0.4091" stop-color="#DCE1FA"/>
<stop offset="0.4343" stop-color="#DDE2FB"/>
<stop offset="0.4882" stop-color="#E7EAFB"/>
<stop offset="0.5354" stop-color="#F4F5FB"/>
<stop offset="0.598" stop-color="#E0E3F5"/>
<stop offset="0.7222" stop-color="#AFB6E5"/>
<stop offset="0.9091" stop-color="#AFB6E5"/>
<stop offset="0.9551" stop-color="#BAC0EA"/>
<stop offset="1" stop-color="#C9CFF1"/>
</linearGradient>
<linearGradient id="paint13_linear_1_84036" x1="248.695" y1="-34.7301" x2="454.043" y2="376.72" gradientUnits="userSpaceOnUse">
<stop stop-color="#CBD0F2"/>
<stop offset="0.1919" stop-color="#D5D9F7"/>
<stop offset="0.2828" stop-color="#DADEF9"/>
<stop offset="0.4091" stop-color="#DFE3FC"/>
<stop offset="0.4343" stop-color="#E0E4FD"/>
<stop offset="0.4882" stop-color="#EAEDFD"/>
<stop offset="0.5354" stop-color="#F7F8FD"/>
<stop offset="0.5957" stop-color="#E3E6F6"/>
<stop offset="0.7185" stop-color="#B1B8E6"/>
<stop offset="0.7222" stop-color="#AFB6E5"/>
<stop offset="0.9091" stop-color="#AFB6E5"/>
<stop offset="0.9526" stop-color="#BAC0EA"/>
<stop offset="1" stop-color="#CBD0F2"/>
</linearGradient>
<linearGradient id="paint14_linear_1_84036" x1="248.635" y1="-34.6804" x2="453.975" y2="376.754" gradientUnits="userSpaceOnUse">
<stop stop-color="#CCD1F2"/>
<stop offset="0.1919" stop-color="#D6DBF7"/>
<stop offset="0.2828" stop-color="#DBDFFA"/>
<stop offset="0.4091" stop-color="#E1E6FD"/>
<stop offset="0.4343" stop-color="#E2E7FE"/>
<stop offset="0.4849" stop-color="#ECEFFE"/>
<stop offset="0.5354" stop-color="#FBFCFE"/>
<stop offset="0.593" stop-color="#E7EAF8"/>
<stop offset="0.7101" stop-color="#B5BBE7"/>
<stop offset="0.7222" stop-color="#AFB6E5"/>
<stop offset="0.9091" stop-color="#AFB6E5"/>
<stop offset="0.9514" stop-color="#BAC0EA"/>
<stop offset="1" stop-color="#CCD1F2"/>
</linearGradient>
</defs>
</svg>
