<svg width="143" height="175" viewBox="0 0 143 175" fill="none" xmlns="http://www.w3.org/2000/svg">
<g opacity="0.3">
<path opacity="0.0909091" d="M83.925 38.3389C78.5163 35.1233 73.9847 43.7471 73.9847 50.0322V128.962C73.9847 135.247 78.3701 142.847 83.925 146.063L129.972 172.519C135.38 175.735 141.812 172.811 141.812 166.526V81.604C141.812 75.3188 135.38 68.0106 129.972 64.7949L83.925 38.3389Z" fill="#A7ADDF"/>
<path opacity="0.1818" d="M83.7789 38.7774C78.3702 35.5618 73.8386 43.6009 73.8386 49.886V128.377C73.8386 134.662 78.224 142.263 83.7789 145.478L129.679 171.934C135.088 175.15 141.374 172.227 141.374 165.942V81.8963C141.374 75.6112 135.088 68.3029 129.679 65.0872L83.7789 38.7774Z" fill="#A0A5D9"/>
<path opacity="0.2727" d="M83.6326 39.2159C78.224 36.0003 73.6924 43.4547 73.6924 49.7398V127.792C73.6924 134.077 78.0778 141.678 83.6326 144.894L129.387 171.204C134.796 174.419 140.789 171.642 140.789 165.357V82.3348C140.789 76.0497 134.796 68.7414 129.387 65.5257L83.6326 39.2159Z" fill="#989CD3"/>
<path opacity="0.3636" d="M83.4865 39.5083C78.0778 36.2926 73.6924 43.1624 73.6924 49.4475V127.208C73.6924 133.493 78.0778 141.093 83.4865 144.163L129.095 170.327C134.503 173.542 140.351 170.765 140.351 164.48V82.6271C140.351 76.342 134.503 69.0337 129.095 65.8181L83.4865 39.5083Z" fill="#9094CD"/>
<path opacity="0.4545" d="M83.3403 39.9467C77.9317 36.8773 73.5463 43.0162 73.5463 49.1552V126.477C73.5463 132.762 77.9317 140.363 83.3403 143.432L128.802 169.596C134.211 172.665 139.912 170.034 139.912 163.749V82.9195C139.912 76.6343 134.357 69.3261 128.802 66.1104L83.3403 39.9467Z" fill="#898BC7"/>
<path opacity="0.5455" d="M83.3403 40.3852C77.9317 37.3158 73.5463 42.8701 73.5463 49.009V125.892C73.5463 132.177 77.9317 139.778 83.3403 142.847L128.656 168.865C134.065 171.934 139.474 169.303 139.474 163.164V83.358C139.474 77.0728 134.065 69.6184 128.656 66.5489L83.3403 40.3852Z" fill="#8183C1"/>
<path opacity="0.6364" d="M83.1942 40.8237C77.7855 37.7542 73.4001 42.5777 73.4001 48.8628V125.307C73.4001 131.593 77.7855 139.193 83.1942 142.263L128.218 168.28C133.626 171.35 138.889 168.719 138.889 162.58V83.6503C138.889 77.3652 133.626 69.9107 128.218 66.8412L83.1942 40.8237Z" fill="#7A7ABB"/>
<path opacity="0.7273" d="M83.048 41.2622C77.6393 38.1927 73.2539 42.4316 73.2539 48.7167V124.723C73.2539 131.008 77.6393 138.462 83.048 141.678L127.925 167.549C133.334 170.619 138.304 168.134 138.304 161.849V83.9426C138.304 77.6575 133.334 70.203 127.925 67.1336L83.048 41.2622Z" fill="#7272B5"/>
<path opacity="0.8182" d="M82.9019 41.7007C77.4932 38.6313 73.1078 42.2854 73.1078 48.5705V124.138C73.1078 130.277 77.4932 137.878 82.9019 141.093L127.633 166.819C133.042 169.888 137.866 167.403 137.866 161.118V84.3811C137.866 78.2422 133.042 70.6416 127.633 67.5721L82.9019 41.7007Z" fill="#6A69AF"/>
<path opacity="0.9091" d="M82.7556 42.1392C77.347 39.0698 72.9615 42.1392 72.9615 48.2782V123.407C72.9615 129.546 77.347 137.147 82.7556 140.363L127.341 166.088C132.749 169.157 137.281 166.672 137.281 160.533V84.6734C137.281 78.5345 132.749 70.9339 127.341 67.8644L82.7556 42.1392Z" fill="#6361A9"/>
<path opacity="0.3" d="M82.6095 42.5777C77.2008 39.5082 72.8154 41.9931 72.8154 48.132V122.969C72.8154 129.108 77.2008 136.708 82.6095 139.778L127.048 165.357C132.457 168.426 136.842 165.942 136.842 159.803V84.9658C136.842 78.8268 132.457 71.2262 127.048 68.1567L82.6095 42.5777Z" fill="#930309"/>
</g>
<path opacity="0.9" d="M128.803 165.649L10.2506 98.2669C5.13425 95.3435 0.89502 87.3044 0.89502 80.4346L0.89502 8.9596C0.89502 2.08981 5.13425 -1.12584 10.2506 1.94364L128.803 69.326C133.919 72.2494 138.158 80.2885 138.158 87.1583V158.633C138.158 165.503 133.919 168.573 128.803 165.649Z" fill="url(#paint0_linear_1_84180)"/>
<path d="M128.803 69.326L10.2509 1.79749C6.30399 -0.541165 2.94184 0.774326 1.62622 4.57463C3.2342 1.50515 6.30398 0.481995 9.95848 2.52831L128.511 69.9107C133.627 72.834 137.866 80.8731 137.866 87.7429V159.218C137.866 160.826 137.574 162.287 137.135 163.457C137.72 162.141 138.158 160.387 138.158 158.341V87.1583C138.158 80.2885 133.919 72.2494 128.803 69.326Z" fill="url(#paint1_radial_1_84180)"/>
<path d="M14.928 25.3302L46.2105 43.0162L46.3567 40.3852L14.928 22.553V25.3302Z" fill="white"/>
<path d="M67.9915 55.148C67.9915 57.1943 66.5297 58.0713 64.7755 57.0481C63.0214 56.025 61.5596 53.5402 61.5596 51.4938C61.5596 49.4475 63.0214 48.5705 64.7755 49.5937C66.5297 50.6168 67.9915 53.1017 67.9915 55.148Z" fill="white"/>
<path d="M86.2641 65.3796C86.2641 67.4259 84.8023 68.3029 83.0481 67.2797C81.294 66.2566 79.8322 63.7717 79.8322 61.7254C79.8322 59.6791 81.294 58.8021 83.0481 59.8253C84.8023 60.8484 86.2641 63.3332 86.2641 65.3796Z" fill="white"/>
<path d="M103.43 77.4841C104.685 76.7508 104.678 74.4049 103.415 72.2446C102.152 70.0842 100.111 68.9273 98.8563 69.6607C97.6017 70.394 97.6087 72.7399 98.8718 74.9003C100.135 77.0607 102.176 78.2175 103.43 77.4841Z" fill="white"/>
<path d="M121.732 87.6684C122.987 86.9351 122.98 84.5892 121.717 82.4289C120.454 80.2685 118.413 79.1116 117.158 79.845C115.904 80.5783 115.911 82.9242 117.174 85.0846C118.437 87.245 120.478 88.4018 121.732 87.6684Z" fill="white"/>
<path d="M14.928 53.6863L46.2105 71.3723L46.3567 68.7414L14.928 51.0553V53.6863Z" fill="white"/>
<path d="M67.9915 83.6503C67.9915 85.6966 66.5297 86.5736 64.7755 85.5504C63.0214 84.5273 61.5596 82.0424 61.5596 79.9961C61.5596 77.9498 63.0214 77.0728 64.7755 78.096C66.5297 78.973 67.9915 81.4578 67.9915 83.6503Z" fill="white"/>
<path d="M86.2641 93.7357C86.2641 95.7821 84.8023 96.659 83.0481 95.6359C81.294 94.6127 79.8322 92.1279 79.8322 90.0816C79.8322 88.0353 81.294 87.1583 83.0481 88.1814C84.8023 89.2046 86.2641 91.6894 86.2641 93.7357Z" fill="white"/>
<path d="M104.39 103.821C104.39 105.867 102.928 106.744 101.174 105.721C99.42 104.698 97.9583 102.213 97.9583 100.167C97.9583 98.1207 99.42 97.2437 101.174 98.2668C102.928 99.29 104.39 101.775 104.39 103.821Z" fill="white"/>
<path d="M121.716 116.029C122.971 115.296 122.964 112.95 121.7 110.79C120.437 108.629 118.396 107.472 117.142 108.206C115.887 108.939 115.894 111.285 117.157 113.445C118.42 115.606 120.461 116.763 121.716 116.029Z" fill="white"/>
<path d="M14.928 83.3579L46.2105 101.19L46.3567 98.413L14.928 80.727V83.3579Z" fill="white"/>
<path d="M67.9915 113.322C67.9915 115.368 66.5297 116.245 64.7755 115.222C63.0214 114.199 61.5596 111.714 61.5596 109.668C61.5596 107.621 63.0214 106.744 64.7755 107.768C66.5297 108.645 67.9915 111.276 67.9915 113.322Z" fill="white"/>
<path d="M86.2641 123.407C86.2641 125.454 84.8023 126.331 83.0481 125.308C81.294 124.284 79.8322 121.8 79.8322 119.753C79.8322 117.707 81.294 116.83 83.0481 117.853C84.8023 118.876 86.2641 121.361 86.2641 123.407Z" fill="white"/>
<path d="M104.39 133.639C104.39 135.685 102.928 136.562 101.174 135.539C99.42 134.516 97.9583 132.031 97.9583 129.985C97.9583 127.938 99.42 127.061 101.174 128.085C102.928 128.962 104.39 131.446 104.39 133.639Z" fill="white"/>
<path d="M122.663 143.724C122.663 145.771 121.201 146.648 119.447 145.625C117.693 144.601 116.231 142.117 116.231 140.07C116.231 138.024 117.693 137.147 119.447 138.17C121.201 139.193 122.663 141.678 122.663 143.724Z" fill="white"/>
<g opacity="0.3">
<path opacity="0.5" d="M133.627 105.867C133.48 105.867 133.48 105.867 133.334 105.867L4.54945 32.4923C4.25709 32.3461 4.25709 32.0538 4.40327 31.7614C4.54945 31.4691 4.84181 31.4691 5.13417 31.6153L134.065 104.844C134.357 104.99 134.357 105.283 134.211 105.575C134.065 105.721 133.919 105.867 133.627 105.867Z" fill="white"/>
</g>
<g opacity="0.3">
<path opacity="0.5" d="M133.627 135.978C133.48 135.978 133.48 135.978 133.334 135.978L4.54945 62.6024C4.25709 62.4563 4.25709 62.1639 4.40327 61.8716C4.54945 61.5793 4.84181 61.5793 5.13417 61.7254L134.065 134.954C134.357 135.101 134.357 135.393 134.211 135.685C134.065 135.831 133.919 135.978 133.627 135.978Z" fill="white"/>
</g>
<path d="M66.6762 54.4171C66.6762 55.5865 65.7991 56.0249 64.7758 55.4403C63.7526 54.8556 62.8755 53.394 62.8755 52.2246C62.8755 51.0553 63.7526 50.6168 64.7758 51.2015C65.7991 51.7861 66.6762 53.2478 66.6762 54.4171Z" fill="#930309"/>
<path d="M103.075 103.09C103.075 104.26 102.198 104.698 101.175 104.113C100.151 103.529 99.2742 102.067 99.2742 100.898C99.2742 99.7285 100.151 99.29 101.175 99.8746C102.198 100.459 103.075 101.921 103.075 103.09Z" fill="#930309"/>
<path d="M84.8022 122.677C84.8022 123.846 83.9251 124.284 82.9018 123.7C81.8785 123.115 81.0015 121.653 81.0015 120.484C81.0015 119.315 81.8785 118.876 82.9018 119.461C84.0713 120.046 84.8022 121.507 84.8022 122.677Z" fill="#930309"/>
<defs>
<linearGradient id="paint0_linear_1_84180" x1="3.92807" y1="4.91632" x2="211.018" y2="76.1266" gradientUnits="userSpaceOnUse">
<stop stop-color="#F79009"/>
<stop offset="1" stop-color="#DC6803"/>
</linearGradient>
<radialGradient id="paint1_radial_1_84180" cx="0" cy="0" r="1" gradientUnits="userSpaceOnUse" gradientTransform="translate(69.8836 82.2002) scale(75.1493 75.1419)">
<stop stop-color="white"/>
<stop offset="1"/>
</radialGradient>
</defs>
</svg>
