<svg width="70" height="146" viewBox="0 0 70 146" fill="none" xmlns="http://www.w3.org/2000/svg">
<path d="M41.5149 22.5761C41.5149 22.5761 45.3156 19.7989 47.3621 19.7989C49.4086 19.6528 53.5017 20.6759 53.9402 21.5529C54.3787 22.2838 52.9169 23.5993 51.4551 24.1839C49.8471 24.7686 49.4086 25.0609 48.2391 25.4994C47.0697 25.9379 45.7541 25.6456 43.5614 26.3764C42.5381 26.6688 41.5149 22.5761 41.5149 22.5761Z" fill="#FFD4C0"/>
<path d="M50.5782 19.3604C51.0167 19.5066 51.1629 20.2374 50.432 20.6759C49.7011 21.1144 48.6778 21.4068 47.9469 21.6991C47.216 21.9914 44.731 21.9914 44.731 21.9914L50.5782 19.3604Z" fill="#D1D3D4"/>
<path d="M45.7544 19.799C46.0467 19.5066 48.0932 19.2143 48.8241 19.0681C49.555 18.922 49.9936 18.4835 50.2859 18.6296C50.5783 18.7758 51.0168 19.6528 49.2627 20.2375C47.5085 20.9683 46.6314 21.2606 45.7544 21.8453C44.8773 22.43 43.2693 23.5993 42.5384 23.3069C41.9537 23.0146 42.0999 21.9915 42.0999 21.9915C42.0999 21.9915 45.3158 19.9451 45.7544 19.799Z" fill="#FFD4C0"/>
<path d="M43.2693 20.9683C43.2693 20.9683 44.4387 21.4068 44.7311 22.7223C45.0235 24.1839 44.2926 26.5226 44.2926 26.5226L26.3124 31.6384C26.3124 31.6384 19.8805 34.2694 18.8572 28.8612C17.834 23.5993 21.4885 23.5993 29.5284 22.5761C37.8606 21.5529 43.2693 20.9683 43.2693 20.9683Z" fill="#3F0706"/>
<path d="M44.585 24.7686C44.4389 25.9379 44.1465 26.5226 44.1465 26.5226L26.1664 31.6384C26.1664 31.6384 19.7344 34.2694 18.7112 28.8612C22.0733 28.7151 24.1199 30.1767 31.2827 28.4227C38.007 26.9611 43.2694 25.2071 44.585 24.7686Z" fill="#D1D3D4"/>
<g opacity="0.1">
<path opacity="0.047619" d="M3.65448 122.553L9.94025 116.414C11.5482 115.391 13.5947 114.807 15.6413 114.661C17.3954 114.514 19.0034 114.807 20.319 115.537L28.3589 120.069L45.462 128.985C47.2162 129.862 48.0933 131.323 48.0933 133.077C48.0933 134.977 46.9238 136.732 44.8773 138.047L37.7145 141.263C37.7145 141.263 33.6214 143.017 33.6214 143.163C32.0134 144.186 29.9669 144.771 27.9204 144.917C26.1662 145.063 24.5583 144.771 23.2426 144.04L13.7409 138.047L3.06977 131.762C1.46179 130.885 0.292358 129.423 0.292358 127.669C0.292358 126.5 0.584701 125.331 1.46178 124.307C2.0465 123.869 2.92358 123.138 3.65448 122.553Z" fill="#3F0706"/>
<path opacity="0.0952381" d="M4.09232 122.7C4.2385 122.7 10.2319 116.853 10.2319 116.853C11.8398 115.83 13.7402 115.245 15.7867 115.245C17.5409 115.099 19.0027 115.391 20.3183 116.122L28.2121 120.799L45.169 129.423C46.777 130.3 47.8002 131.762 47.8002 133.37C47.8002 135.27 46.6308 137.024 44.5842 138.193L37.5676 141.409L33.6207 143.163C32.0127 144.186 30.1124 144.771 28.0659 144.771C26.3117 144.917 24.7037 144.624 23.5343 143.894L14.1787 137.901L3.65375 131.908C2.04577 131.031 0.876333 129.716 0.876333 128.108C0.730153 126.938 1.16872 125.769 2.0458 124.746C2.48434 124.015 3.36142 123.138 4.09232 122.7Z" fill="#3F0706"/>
<path opacity="0.1429" d="M4.53133 122.7C4.67751 122.553 10.3785 117.145 10.5247 116.999C12.1327 116.122 14.0331 115.537 15.9334 115.391C17.5414 115.245 19.1494 115.537 20.3188 116.268L28.0663 120.946L44.877 129.277C46.485 130.154 47.5083 131.47 47.5083 133.224C47.5083 134.977 46.3389 136.732 44.4385 138.047L37.568 141.116C37.4219 141.116 33.7673 142.87 33.6212 142.87C32.0132 143.747 30.1129 144.332 28.2125 144.478C26.4584 144.624 24.9965 144.332 23.6809 143.601L14.6177 137.608L4.09281 131.908C2.63101 131.177 1.46157 129.716 1.16921 128.254C1.02303 127.085 1.31537 125.915 2.33863 124.746C2.77717 124.161 3.80043 123.138 4.53133 122.7Z" fill="#3F0706"/>
<path opacity="0.1905" d="M4.96968 122.7C5.11586 122.553 10.6707 117.291 10.963 117.291C12.4248 116.414 14.3252 115.83 16.2255 115.83C17.8335 115.83 19.2953 115.976 20.4647 116.707L27.9199 121.53L44.5844 129.569C46.1924 130.446 47.0695 131.762 47.0695 133.37C47.0695 135.124 45.9001 136.732 43.9997 138.047L37.2754 141.116C37.1293 141.263 33.621 142.724 33.4748 142.87C31.8668 143.747 30.1126 144.332 28.2123 144.478C26.6043 144.624 24.9963 144.332 23.8269 143.601L15.0561 137.462L4.6773 132.054C3.2155 131.323 2.04606 130.008 1.7537 128.546C1.60752 127.377 1.75371 126.208 2.77697 125.038C3.06933 124.307 4.23878 123.138 4.96968 122.7Z" fill="#3F0706"/>
<path opacity="0.2381" d="M5.26193 122.846C5.55429 122.7 10.6706 117.73 11.1091 117.73C12.5709 116.853 14.3251 116.414 16.2254 116.268C17.8334 116.268 19.1491 116.414 20.3185 116.999L27.6275 121.823L44.1458 129.423C45.7538 130.154 46.6309 131.616 46.6309 133.077C46.6309 134.685 45.6077 136.439 43.7073 137.608L37.1292 140.678C36.983 140.824 33.6209 142.286 33.3285 142.286C31.8667 143.163 29.9664 143.747 28.066 143.747C26.458 143.747 24.9963 143.601 23.8268 143.017L15.2022 136.878L4.82341 131.762C3.50779 131.031 1.89981 129.862 1.89981 128.4C1.46127 127.231 1.89978 126.061 2.92304 124.892C3.36158 124.454 4.67721 123.284 5.26193 122.846Z" fill="#3F0706"/>
<path opacity="0.2857" d="M5.70092 122.846C5.99328 122.7 10.9634 118.022 11.4019 117.876C12.8637 117.145 14.6179 116.561 16.2259 116.561C17.6877 116.561 19.1495 116.707 20.1727 117.291L27.1894 122.261L43.7078 129.569C45.3158 130.3 46.0466 131.616 46.0466 133.077C46.0466 134.685 45.0234 136.293 43.123 137.462L36.6911 140.386C36.5449 140.532 33.3289 141.993 33.0366 141.993C31.5748 142.87 29.8206 143.309 27.9203 143.455C26.3123 143.455 24.8505 143.309 23.8273 142.724L15.495 136.585L5.26235 131.616C3.94673 131.031 2.19256 129.716 2.19256 128.546C1.60784 127.377 2.04639 126.208 3.21584 124.892C3.80056 124.6 5.1162 123.284 5.70092 122.846Z" fill="#3F0706"/>
<path opacity="0.3333" d="M6.13924 122.992C6.4316 122.846 11.2555 118.461 11.6941 118.315C13.1559 117.584 14.7639 117.145 16.3719 116.999C17.8337 116.999 19.1493 117.145 20.1726 117.73L27.043 122.7L43.4152 129.716C44.877 130.446 45.7541 131.762 45.7541 133.223C45.7541 134.831 44.7308 136.293 42.9767 137.462L36.8371 140.386C36.5447 140.532 33.6211 141.847 33.3288 141.993C31.867 142.724 30.1128 143.309 28.3587 143.309C26.8969 143.309 25.435 143.163 24.2656 142.578L16.0795 136.439L5.99306 131.762C4.82361 131.177 2.92326 130.008 2.92326 128.839C2.19236 127.815 2.63092 126.5 3.94654 125.184C4.09272 124.746 5.55452 123.284 6.13924 122.992Z" fill="#3F0706"/>
<path opacity="0.381" d="M6.57795 122.992C7.01649 122.7 11.4019 118.607 11.9866 118.607C13.3023 117.876 14.9102 117.438 16.5182 117.438C17.98 117.438 19.1495 117.584 20.1727 118.168L26.7508 123.284L42.9768 130.008C44.4386 130.739 45.3157 131.908 45.1695 133.37C45.1695 134.831 44.1462 136.439 42.3921 137.462L36.3987 140.239C36.1064 140.386 33.1827 141.701 32.8904 141.847C31.4286 142.578 29.8206 143.017 28.0664 143.163C26.6046 143.163 25.1428 143.017 24.1196 142.432L16.2258 136.147L6.13943 131.762C5.11617 131.177 3.06963 130.154 3.06963 128.985C2.19255 127.962 2.77728 126.646 3.94672 125.331C4.38526 124.892 5.99323 123.284 6.57795 122.992Z" fill="#3F0706"/>
<path opacity="0.4286" d="M6.87017 122.992C7.30871 122.7 11.5479 118.899 12.1327 118.753C13.4483 118.022 15.0563 117.73 16.5181 117.73C17.8337 117.73 19.1493 117.876 20.1726 118.461L26.6045 123.577L42.6843 130.008C44.1461 130.739 44.877 131.908 44.877 133.223C44.877 134.685 43.8538 136.147 42.0996 137.17L36.2524 139.947C35.96 140.093 33.1826 141.409 32.8902 141.409C31.4284 142.14 29.8205 142.578 28.2125 142.578C26.7507 142.578 25.4351 142.432 24.4118 141.847L16.8104 135.562L6.87017 131.47C5.8469 130.885 3.65418 129.862 3.65418 128.985C2.7771 127.962 3.21565 126.646 4.53127 125.184C4.67745 125.038 6.43163 123.284 6.87017 122.992Z" fill="#3F0706"/>
<path opacity="0.4762" d="M7.30859 123.138C7.74713 122.846 11.8402 119.338 12.4249 119.192C13.7405 118.607 15.2024 118.168 16.6642 118.168C17.9798 118.168 19.1492 118.315 20.1725 118.899L26.312 124.161L42.2457 130.3C43.7075 131.031 44.4384 132.054 44.4384 133.37C44.4384 134.831 43.4151 136.147 41.8071 137.17L36.1061 139.801C35.8138 139.947 33.1825 141.116 32.744 141.263C31.4284 141.993 29.8204 142.286 28.2124 142.432C26.7506 142.432 25.5812 142.286 24.5579 141.701L17.1027 135.416L7.16245 131.616C6.28537 131.177 3.94646 130.154 3.94646 129.277C2.9232 128.254 3.36175 126.938 4.82355 125.477C5.11592 125.184 6.87005 123.43 7.30859 123.138Z" fill="#3F0706"/>
<path opacity="0.5238" d="M7.74738 123.138C8.3321 122.846 11.9866 119.484 12.7175 119.484C14.0331 118.899 15.3487 118.607 16.8105 118.607C18.1261 118.607 19.1494 118.753 20.1727 119.338L26.1661 124.6L41.9535 130.446C43.2691 131.177 44 132.2 44 133.37C44 134.685 43.1229 136.001 41.3688 137.024L35.8139 139.655C35.5215 139.801 33.0365 140.97 32.598 141.116C31.2824 141.701 29.6744 142.14 28.0664 142.14C26.7508 142.14 25.4351 141.993 24.4119 141.409L17.2491 135.124L7.455 131.616C6.57792 131.177 4.23906 130.3 4.23906 129.423C3.06962 128.4 3.65431 127.085 5.11611 125.623C5.40847 125.331 7.30884 123.43 7.74738 123.138Z" fill="#3F0706"/>
<path opacity="0.5714" d="M8.18603 123.284C8.77075 122.992 12.2791 119.922 13.01 119.776C14.1794 119.192 15.6412 118.899 16.9568 118.899C18.1263 118.899 19.2957 119.045 20.1728 119.484L25.8738 124.892L41.5151 130.446C42.8308 131.031 43.5617 132.2 43.5617 133.37C43.5617 134.685 42.6846 136.001 41.0766 136.878L35.6679 139.509C35.2294 139.801 33.0367 140.678 32.5981 140.824C31.2825 141.409 29.8207 141.847 28.2127 141.847C26.8971 141.847 25.7277 141.701 24.7044 141.116L17.6877 134.685L7.8937 131.47C7.16279 131.031 4.53152 130.3 4.53152 129.423C3.36208 128.4 3.80062 127.085 5.26242 125.623C5.70097 125.477 7.74749 123.43 8.18603 123.284Z" fill="#3F0706"/>
<path opacity="0.619" d="M8.47789 123.284C9.06261 122.846 12.4247 120.215 13.1556 120.069C14.3251 119.63 15.6407 119.338 16.9563 119.338C18.1258 119.338 19.149 119.484 20.0261 119.922L25.581 125.331L41.0761 130.446C42.3917 131.031 43.1226 132.054 42.9764 133.224C42.9764 134.393 42.0993 135.708 40.4914 136.731L35.2289 139.216C34.7903 139.509 32.7438 140.386 32.1591 140.532C30.8434 141.116 29.3817 141.409 27.9198 141.409C26.6042 141.409 25.4348 141.263 24.5577 140.824L17.8334 134.393L8.18551 131.47C7.45461 131.177 4.82338 130.3 4.82338 129.716C3.50776 128.692 3.9463 127.377 5.55428 125.769C5.99282 125.623 8.18553 123.43 8.47789 123.284Z" fill="#3F0706"/>
<path opacity="0.6667" d="M8.91655 123.284C9.64745 122.846 12.5711 120.507 13.4481 120.361C14.6176 119.922 15.787 119.63 17.1026 119.63C18.2721 119.63 19.1492 119.776 20.0262 120.215L25.2887 125.769L40.7838 130.593C42.0995 131.177 42.6842 132.2 42.6842 133.224C42.6842 134.393 41.8071 135.562 40.3453 136.585L35.3752 139.07C34.9366 139.362 33.0363 140.239 32.4516 140.386C31.1359 140.97 29.8203 141.263 28.3585 141.263C27.1891 141.263 26.0196 141.116 24.9964 140.678L18.5644 134.247L9.06274 131.47C8.47802 131.177 5.55442 130.446 5.55442 129.862C4.09262 128.839 4.67734 127.523 6.28532 125.915C6.28532 125.769 8.62419 123.577 8.91655 123.284Z" fill="#3F0706"/>
<path opacity="0.7143" d="M9.35525 123.43C10.0862 122.992 12.8636 120.799 13.7407 120.653C14.9101 120.215 16.0795 120.069 17.249 120.069C18.2722 120.069 19.2955 120.215 20.0264 120.653L25.1427 126.354L40.4916 130.885C41.661 131.469 42.3919 132.347 42.3919 133.37C42.3919 134.539 41.5149 135.708 40.0531 136.585L35.2291 138.924C34.7906 139.216 33.0364 139.947 32.3055 140.093C31.1361 140.678 29.6743 140.824 28.3587 140.97C27.1892 140.97 26.0198 140.824 25.1427 140.386L18.857 133.954L9.35525 131.47C8.91671 131.177 5.84689 130.593 5.84689 130.008C4.38509 128.985 4.82363 127.523 6.57779 126.061C6.72397 125.915 9.06289 123.577 9.35525 123.43Z" fill="#3F0706"/>
<path opacity="0.7619" d="M9.79366 123.43C10.5246 122.992 13.0096 121.092 14.0329 120.946C15.0561 120.653 16.2256 120.361 17.3951 120.361C18.4183 120.361 19.2954 120.507 20.0263 120.946L24.8502 126.646L40.053 130.885C41.2224 131.469 41.8071 132.347 41.8071 133.37C41.8071 134.393 40.93 135.562 39.6144 136.439L34.9367 138.778C34.352 139.07 32.7439 139.801 32.1592 139.947C30.9898 140.386 29.6742 140.678 28.3586 140.678C27.1891 140.678 26.1659 140.532 25.2888 140.093L19.2954 133.516L9.93985 131.323C9.50131 131.177 6.43153 130.446 6.43153 130.008C4.82355 128.985 5.26208 127.523 7.01625 125.915C7.01625 126.061 9.5013 123.577 9.79366 123.43Z" fill="#3F0706"/>
<path opacity="0.8095" d="M10.0862 123.43C10.9633 122.992 13.156 121.384 14.1792 121.238C15.2025 120.946 16.372 120.799 17.3952 120.799C18.2723 120.799 19.1494 120.946 19.8803 121.384L24.558 127.231L39.6146 131.177C40.784 131.762 41.3687 132.493 41.3687 133.516C41.3687 134.539 40.6378 135.562 39.176 136.439L34.6444 138.778C34.0597 139.07 32.5979 139.801 32.0132 139.947C30.8438 140.386 29.5282 140.678 28.2125 140.678C27.0431 140.678 26.0198 140.532 25.2889 140.093L19.4417 133.516L10.0862 131.616C9.79386 131.469 6.43172 130.885 6.43172 130.593C4.67756 129.569 5.26227 128.108 7.01643 126.5C7.30879 126.208 9.94004 123.577 10.0862 123.43Z" fill="#3F0706"/>
<path opacity="0.8571" d="M10.5248 123.577C11.4019 122.992 13.4484 121.823 14.4717 121.53C15.4949 121.238 16.5181 121.092 17.5414 121.238C18.4185 121.238 19.2956 121.384 19.8803 121.823L24.2657 127.669L39.1761 131.323C40.3455 131.908 40.9303 132.639 40.7841 133.516C40.7841 134.539 40.0532 135.416 38.7375 136.293L34.3521 138.485C33.7674 138.778 32.4518 139.362 31.7209 139.655C30.5515 140.093 29.2358 140.239 28.0664 140.239C27.0431 140.239 26.0199 140.093 25.1428 139.655L19.588 133.077L10.3786 131.469C10.0862 131.323 6.72408 130.885 6.72408 130.592C4.96992 129.569 5.40845 128.108 7.30879 126.5C7.60115 126.354 10.3786 123.577 10.5248 123.577Z" fill="#3F0706"/>
<path opacity="0.9048" d="M10.9633 123.577C11.8404 122.992 13.5945 121.969 14.764 121.823C15.641 121.53 16.6643 121.53 17.6876 121.53C18.5647 121.53 19.2956 121.676 19.8803 121.969L24.1195 127.962L38.8837 131.323C40.0531 131.762 40.4917 132.639 40.4917 133.37C40.4917 134.247 39.7608 135.27 38.4452 136.001L34.206 138.193C33.6212 138.632 32.4518 139.07 31.7209 139.216C30.5514 139.655 29.382 139.801 28.2126 139.801C27.1893 139.801 26.166 139.655 25.4351 139.216L20.1727 132.639L10.9633 131.323C10.8171 131.177 7.30877 130.739 7.30877 130.593C5.40843 129.569 5.84699 128.108 7.74734 126.354C7.89352 126.5 10.8171 123.723 10.9633 123.577Z" fill="#3F0706"/>
<path opacity="0.9524" d="M11.4019 123.723C12.4252 123.138 13.887 122.407 15.0564 122.261C15.9335 122.115 16.9567 121.969 17.8338 122.115C18.5647 122.115 19.2956 122.261 20.0265 122.553L23.9734 128.546L38.5914 131.616C39.6147 132.054 40.1994 132.785 40.0532 133.662C40.0532 134.539 39.3223 135.416 38.1528 136.147L34.0598 138.193C33.4751 138.632 32.4518 138.924 31.5747 139.216C30.5515 139.509 29.2359 139.655 28.2126 139.655C27.1894 139.655 26.3123 139.509 25.5814 139.07L20.465 132.347L11.4019 131.323C11.2557 131.323 7.60122 130.885 7.60122 130.739C5.5547 129.862 5.84704 127.962 8.03974 126.5C8.18592 126.646 11.2557 123.723 11.4019 123.723Z" fill="#3F0706"/>
<path opacity="0.2" d="M25.7274 138.778L20.9035 132.054L8.18579 130.885C5.99309 130.008 6.28547 128.108 8.62435 126.646L11.8403 123.577C14.1792 122.115 17.8337 121.676 20.0264 122.7L23.8271 128.839L38.2989 131.47C40.4916 132.347 40.1992 134.247 37.8603 135.708L34.0597 137.755C31.4284 139.362 27.9201 139.801 25.7274 138.778Z" fill="#3F0706"/>
</g>
<path d="M7.45518 127.231C7.45518 127.231 7.01663 128.985 7.30899 129.716C7.60135 130.446 9.20935 131.031 10.525 130.446C11.8406 129.862 12.2791 128.546 12.8639 128.108C13.3024 127.815 16.0798 127.523 18.1264 125.769C20.1729 124.015 19.8805 122.115 17.834 122.115C15.7875 122.115 12.133 122.992 10.8173 123.869C9.50173 124.746 7.45518 127.231 7.45518 127.231Z" fill="#660806"/>
<path d="M8.47794 129.131C9.93975 129.423 11.8401 128.108 12.571 127.377C13.4481 126.646 14.9099 127.085 16.9564 125.477C18.8567 123.869 19.5877 122.846 18.7106 122.407C17.8335 121.823 14.6175 121.969 11.9863 123.43C9.5012 124.746 7.74704 125.769 7.74704 125.769C7.74704 125.769 7.1623 127.669 7.45466 128.108C7.74702 128.546 7.60086 128.985 8.47794 129.131Z" fill="#3F0706"/>
<path d="M9.93975 59.556C9.93975 59.556 6.57759 62.0408 6.86995 67.5951C7.01613 69.2029 9.20884 96.6821 9.20884 96.6821C9.20884 96.6821 6.72376 127.085 7.45466 127.669C8.33174 128.254 9.35501 128.254 10.3783 127.962C11.8401 127.523 13.1557 126.5 13.8866 125.769C14.6175 125.038 17.5411 109.399 19.1491 96.9744C21.3418 80.3116 22.6574 64.0872 22.6574 64.0872L9.93975 59.556Z" fill="#C55D02"/>
<path d="M24.9961 135.708C24.9961 135.708 24.119 137.901 25.1423 138.339C26.1655 138.778 27.7735 139.07 28.943 138.632C30.2586 138.193 30.6971 137.609 32.0128 137.609C33.3284 137.609 38.5908 135.27 39.6141 134.101C40.6374 132.931 39.6141 131.616 37.1291 131.762C34.644 131.908 31.1357 132.2 30.4048 132.347C29.8201 132.639 24.9961 135.708 24.9961 135.708Z" fill="#660806"/>
<path d="M26.1657 137.316C28.5046 137.609 29.2355 137.024 31.4282 136.585C33.6209 136.147 39.7605 133.954 39.6143 132.639C39.4681 131.323 38.1525 131.616 36.8369 131.762C35.6674 131.908 31.8667 132.054 31.5743 132.054C31.282 132.054 25.1424 134.539 25.1424 134.539C25.1424 134.539 24.7039 136.439 25.1424 136.585C25.4348 137.024 25.4348 137.316 26.1657 137.316Z" fill="#3F0706"/>
<path d="M16.8108 55.7557C16.8108 55.7557 13.7411 60.7253 15.6414 68.0336C17.5418 75.1957 25.2893 102.967 25.2893 102.967C25.2893 102.967 24.8507 132.054 24.8507 135.562C24.8507 136.585 27.0434 137.17 29.3823 136.293C32.3059 135.27 32.3059 134.539 32.4521 133.077C32.5983 131.908 35.8143 106.329 35.5219 99.6054C35.0834 90.8355 33.4754 64.0872 33.4754 64.0872L16.8108 55.7557Z" fill="#C55D02"/>
<path d="M32.7441 133.077C32.8903 131.908 36.1062 106.329 35.8139 99.6054C35.3753 90.8354 33.7674 64.0871 33.7674 64.0871L25.8737 60.2868L26.6046 70.9569C26.6046 70.9569 26.8969 72.2724 27.1893 74.4649C28.6511 82.2117 32.0132 100.482 32.0132 102.821C32.0132 105.014 30.5514 125.623 29.8205 136.147C32.598 135.124 32.4518 134.393 32.7441 133.077Z" fill="#C55D02"/>
<path d="M12.7171 18.9219C9.79354 19.5066 7.01611 20.5298 6.72375 27.5457C6.43138 33.2462 6.57756 68.0336 6.57756 68.0336C6.57756 68.0336 11.8401 72.5648 25.4349 71.5416C34.6442 70.957 34.7904 68.6183 34.7904 68.6183C34.7904 68.6183 34.3519 48.3013 34.2057 35.731C34.0595 29.8844 33.3286 28.4227 31.2821 26.8149C29.6741 25.6456 25.2887 22.7223 22.2189 21.1144C19.5876 19.7989 15.2022 18.4834 12.7171 18.9219Z" fill="#3F0706"/>
<path d="M34.7906 68.6183C34.7906 68.6183 34.3521 48.4474 34.2059 35.8772C34.2059 35.731 34.2059 35.4387 34.0597 35.2925L26.6045 35.0002C28.5049 47.2781 27.3354 68.7644 27.3354 68.7644C27.3354 68.7644 27.1892 71.1031 18.2722 71.6877C20.3187 71.8339 22.8038 71.8339 25.5812 71.6877C34.6444 70.9569 34.7906 68.6183 34.7906 68.6183Z" fill="#3F0706"/>
<path d="M68.2657 35.1464C68.2657 38.0697 67.2425 40.116 65.6345 40.993C65.6345 40.993 62.7109 42.747 62.5647 42.747C60.9567 43.624 61.98 41.5776 59.3487 40.116C54.2324 37.1927 49.9932 30.0305 49.9932 24.0377C49.9932 21.1144 47.3619 21.1144 48.9699 20.0913C48.9699 20.0913 52.1859 18.3373 52.3321 18.3373C53.9401 17.4603 56.2789 17.6065 58.764 19.0681C64.1727 21.9914 68.2657 29.1536 68.2657 35.1464Z" fill="url(#paint0_linear_1_84268)"/>
<path d="M65.0499 36.9003C65.0499 42.7469 60.9569 45.2318 55.6944 42.1623C50.5781 39.239 46.3389 32.0769 46.3389 26.0841C46.3389 20.0913 50.4319 17.7526 55.6944 20.8221C60.8107 23.8916 65.0499 31.0537 65.0499 36.9003Z" fill="url(#paint1_linear_1_84268)"/>
<path d="M56.1331 20.6759C53.6481 19.2143 51.4553 19.0681 49.7012 19.9451C51.3091 19.5066 53.2095 19.799 55.256 20.9683C60.3723 23.8916 64.6115 31.0537 64.6115 37.0465C64.6115 40.116 63.4421 42.1623 61.6879 43.1855C64.0268 42.6008 65.4886 40.2621 65.4886 36.7542C65.4886 30.7614 61.2494 23.5992 56.1331 20.6759Z" fill="#E6E7E8"/>
<path d="M25.4353 24.0378C25.143 25.4994 22.5117 26.2302 19.5881 25.6456C16.6645 25.0609 14.618 23.4531 14.9103 21.9915C15.2027 20.5298 17.834 19.799 20.7576 20.3836C23.535 20.8221 25.7277 22.5761 25.4353 24.0378Z" fill="white"/>
<path d="M15.7872 21.4068C15.6411 21.6991 15.6411 22.1376 15.7872 22.4299C16.0796 23.0146 17.5414 24.4763 19.8803 24.9148C22.2191 25.3533 23.3886 24.9148 24.1195 24.6224C24.4118 24.4763 24.7042 24.1839 24.8504 23.8916L25.8736 20.8221C25.8736 20.8221 28.2125 21.4068 29.0896 20.5298C29.9667 19.799 34.352 8.69035 31.4284 5.18237C28.5049 1.6744 20.9035 1.2359 18.7108 6.35171C16.6643 11.3213 18.5647 14.537 18.5647 15.8525C18.4185 16.8756 16.5181 20.0913 15.7872 21.4068Z" fill="#FFD4C0"/>
<path d="M18.272 16.7295C18.272 16.7295 20.9032 18.045 22.0727 17.8988C24.2654 17.6065 24.9963 12.9292 26.4581 12.0522C27.3351 11.4675 27.9199 12.3445 27.7737 13.2215C27.6275 13.9523 27.6275 14.3908 27.9199 14.537C28.2122 14.6831 30.2588 10.7367 30.2588 10.7367C30.2588 10.7367 36.2522 9.42118 35.6674 6.49786C34.7904 1.38206 20.3185 -2.27207 18.1258 5.18238C15.9331 12.4907 17.1025 16.1448 18.272 16.7295Z" fill="#C55D02"/>
<path d="M17.8335 76.5112C17.2487 81.7732 15.4946 97.7052 15.4946 99.4592C15.3484 101.067 13.1557 118.607 12.1324 127.085C12.8633 126.646 13.5942 126.208 14.0328 125.623C14.7637 124.892 17.6873 109.252 19.2953 96.8283C19.7338 92.8818 20.1723 89.3738 20.6109 85.7197C19.5876 82.6502 18.7105 79.4346 17.8335 76.5112Z" fill="#C55D02"/>
<path d="M60.0793 37.6312C61.395 36.4618 62.2721 35.5848 63.003 34.854C63.7339 33.977 64.611 33.2462 64.9033 33.6847C65.6342 34.4155 62.5644 37.9235 62.5644 37.9235L60.0793 37.6312Z" fill="#FFD4C0"/>
<path d="M59.0569 42.4546C59.0569 42.4546 62.8575 42.6008 64.9041 42.4546C66.0735 42.3085 66.8044 42.1623 68.2662 40.7006C68.9971 40.116 69.4356 39.5313 69.1433 39.0928C68.9971 38.9467 68.7047 39.3851 68.7047 39.3851C68.7047 39.3851 69.5818 38.5082 69.2895 37.9235C68.9971 37.3388 68.5586 38.0697 68.5586 38.0697C68.5586 38.0697 69.4356 37.1927 69.1433 36.608C68.8509 36.0234 68.4124 36.7542 68.4124 36.7542C68.4124 36.7542 69.1433 36.0233 68.9971 35.4387C68.8509 34.854 68.5585 35.0002 67.9738 35.4387C67.2429 35.8772 65.635 37.0465 64.027 37.1927C62.419 37.3388 61.1034 36.608 60.0801 37.485C59.0568 38.362 57.1565 38.362 57.1565 38.362L59.0569 42.4546Z" fill="#FFD4C0"/>
<path d="M27.1894 27.6919C24.1196 29.2997 23.3887 33.1 25.289 36.0233C27.1894 38.9466 37.5682 46.4011 41.2227 47.2781C45.0234 48.1551 60.5185 43.6239 60.5185 43.6239C60.5185 43.6239 60.8108 41.2853 60.6646 39.8236C60.3723 38.2158 59.4952 37.7773 59.4952 37.7773C59.4952 37.7773 48.6778 39.3851 45.3157 38.6543C41.9536 37.7773 38.4452 33.5385 35.2293 30.9075C32.0133 27.8381 30.2591 26.0841 27.1894 27.6919Z" fill="#3F0706"/>
<defs>
<linearGradient id="paint0_linear_1_84268" x1="65.7405" y1="40.8209" x2="51.7052" y2="16.5017" gradientUnits="userSpaceOnUse">
<stop stop-color="#B9BFEA"/>
<stop offset="0.2172" stop-color="#E5E9FF"/>
<stop offset="0.2828" stop-color="#F1F3FF"/>
<stop offset="0.3434" stop-color="#E5E9FF"/>
<stop offset="0.6263" stop-color="#AFB6E5"/>
<stop offset="0.7878" stop-color="#BAC0EA"/>
<stop offset="0.8232" stop-color="#BDC3EC"/>
<stop offset="1" stop-color="#AFB6E5"/>
</linearGradient>
<linearGradient id="paint1_linear_1_84268" x1="47.8226" y1="45.166" x2="60.2259" y2="23.7846" gradientUnits="userSpaceOnUse">
<stop stop-color="#AFB6E5"/>
<stop offset="0.1449" stop-color="#B6BCE8"/>
<stop offset="0.3485" stop-color="#C8CDF1"/>
<stop offset="0.5808" stop-color="#E5E9FF"/>
<stop offset="0.9546" stop-color="#F5F4FC"/>
<stop offset="1" stop-color="#F7F6FB"/>
</linearGradient>
</defs>
</svg>
