<svg width="100" height="148" viewBox="0 0 100 148" fill="none" xmlns="http://www.w3.org/2000/svg">
<g opacity="0.1">
<path opacity="0.047619" d="M54.3567 119.549C55.9647 120.426 56.988 121.888 57.1342 123.496C57.1342 123.788 57.1342 124.08 57.1342 124.373C57.1342 126.419 55.6724 128.465 53.4797 129.781L38.1307 137.382L37.1075 137.966L22.7818 145.128C21.0277 146.152 18.6888 146.736 16.3499 146.736C15.1805 146.736 13.8648 146.59 12.8416 146.298C12.2568 146.152 11.5259 145.859 11.0874 145.567C11.0874 145.567 6.55582 143.667 6.55582 143.521L3.7784 142.205C2.17042 141.328 1.29334 139.866 1.00098 138.405C1.00098 138.112 1.00098 137.82 1.00098 137.382C1.00098 135.335 2.46278 133.289 4.65548 131.973L21.4662 125.542L22.7818 124.957L40.9082 118.088C42.2238 117.357 43.8318 116.772 45.2936 116.626C45.8783 116.48 46.6092 116.48 47.1939 116.48C48.9481 116.48 50.7022 116.772 52.0179 117.503C52.164 117.649 52.3102 117.649 52.4564 117.795L54.3567 119.549Z" fill="#3F0706"/>
<path opacity="0.0952381" d="M54.2109 119.695C55.8188 120.572 56.6959 122.034 56.8421 123.496C56.8421 123.788 56.8421 124.08 56.8421 124.373C56.8421 126.273 55.2341 128.319 53.0414 129.489L37.9849 136.943L36.9616 137.528L22.7821 144.397C21.1741 145.421 18.6891 146.005 16.4964 146.005C15.3269 146.005 14.0113 145.859 13.1342 145.567C12.5495 145.421 11.9648 145.128 11.3801 144.836C11.2339 144.836 6.99467 142.936 6.84849 142.936L4.07106 141.62C2.46308 140.743 1.586 139.428 1.43982 137.82C1.43982 137.528 1.43982 137.235 1.43982 136.943C1.43982 135.043 3.0478 132.997 5.2405 131.827L21.7589 125.542L23.0745 125.104L40.9085 118.38C42.0779 117.649 43.8321 117.211 45.2939 116.918C45.8786 116.772 46.6095 116.772 47.1942 116.772C48.9484 116.772 50.5563 117.065 51.872 117.795C52.0181 117.795 52.1643 117.942 52.3105 118.088L54.2109 119.695Z" fill="#3F0706"/>
<path opacity="0.1429" d="M54.0647 119.988C55.6726 120.865 56.4035 122.326 56.5497 123.788C56.5497 124.08 56.5497 124.373 56.5497 124.665C56.5497 126.565 54.7956 128.465 52.749 129.635L37.8387 136.797L36.8154 137.235L22.9283 143.959C21.3203 144.836 18.8353 145.567 16.7887 145.567C15.7655 145.567 14.4498 145.421 13.4266 145.274C12.8419 145.128 12.2571 144.982 11.6724 144.69C11.5262 144.69 7.4332 142.936 7.28702 142.79L4.5096 141.474C3.0478 140.597 2.17072 139.282 2.02454 137.82C2.02454 137.528 2.02454 137.235 2.02454 136.943C2.02454 135.043 3.7787 133.143 5.82522 131.973L22.0512 125.834L23.3668 125.396L40.9085 118.818C42.0779 118.234 43.8321 117.649 45.1477 117.357C45.7324 117.211 46.3171 117.211 47.048 117.211C48.8022 117.211 50.4102 117.503 51.7258 118.234C51.872 118.234 52.0181 118.38 52.1643 118.526L54.0647 119.988Z" fill="#3F0706"/>
<path opacity="0.1905" d="M53.9184 120.134C55.3802 121.011 56.111 122.326 56.2572 123.788C56.2572 124.08 56.2572 124.373 56.2572 124.519C56.2572 126.273 54.3569 128.173 52.4566 129.196L37.8385 136.212L36.8153 136.651L23.2205 143.082C21.7587 143.959 19.1275 144.69 17.2271 144.69C16.2039 144.69 14.8883 144.69 14.0112 144.397C13.4265 144.251 12.8417 144.105 12.257 143.813C12.1108 143.813 8.01779 142.205 7.87161 142.059L5.24037 140.743C3.77857 139.866 3.04767 138.551 2.90149 137.089C2.90149 136.797 2.90149 136.505 2.90149 136.212C2.90149 134.458 4.80183 132.558 6.70217 131.535L22.6358 125.688L23.9514 125.25L41.2007 118.818C42.2239 118.234 44.1243 117.649 45.4399 117.503C46.0246 117.357 46.6093 117.357 47.1941 117.357C48.9482 117.357 50.41 117.649 51.7257 118.234C51.8718 118.234 52.018 118.38 52.1642 118.526L53.9184 120.134Z" fill="#3F0706"/>
<path opacity="0.2381" d="M53.7721 120.426C55.2339 121.303 55.8186 122.619 55.9648 124.08C55.9648 124.373 55.9648 124.519 55.9648 124.811C55.9648 126.419 53.9183 128.319 52.1641 129.342L37.8385 136.066L36.8152 136.504L23.3666 142.79C21.9048 143.667 19.2736 144.397 17.5194 144.397C16.4962 144.397 15.1806 144.397 14.3035 144.105C13.7188 143.959 13.134 143.813 12.6955 143.667C12.4031 143.667 8.60245 142.059 8.45627 141.913L5.82503 140.743C4.36323 139.866 3.7785 138.551 3.63232 137.235C3.63232 136.943 3.63232 136.651 3.63232 136.358C3.63232 134.751 5.67884 132.85 7.43301 131.827L23.0743 126.127L24.3899 125.688L41.3468 119.403C42.3701 118.819 44.2704 118.234 45.4398 118.088C46.0246 117.942 46.6093 117.942 47.194 117.942C48.802 117.942 50.41 118.234 51.5794 118.819C51.7256 118.819 51.8718 118.965 52.018 119.111L53.7721 120.426Z" fill="#3F0706"/>
<path opacity="0.2857" d="M53.6259 120.572C55.0877 121.449 55.5262 122.765 55.6724 124.08C55.6724 124.373 55.5262 124.519 55.5262 124.811C55.5262 126.419 53.3335 128.173 51.7255 129.05L37.5461 135.481L36.5228 135.92L23.3666 141.913C22.051 142.643 19.2735 143.374 17.5194 143.374C16.6423 143.374 15.1805 143.374 14.4496 143.228C13.8649 143.082 13.2802 142.936 12.8416 142.79C12.5493 142.79 8.89474 141.328 8.60238 141.182L6.11733 140.013C4.65552 139.136 4.21698 137.82 4.0708 136.505C4.0708 136.212 4.21698 135.92 4.21698 135.774C4.21698 134.166 6.40968 132.412 8.01767 131.389L23.3666 125.834L24.536 125.396L41.2006 119.403C42.0776 118.819 44.1242 118.234 45.2936 118.088C45.8783 117.942 46.4631 117.942 47.0478 117.942C48.6558 117.942 50.1176 118.234 51.4332 118.819C51.5794 118.819 51.7255 118.965 51.8717 119.111L53.6259 120.572Z" fill="#3F0706"/>
<path opacity="0.3333" d="M53.4802 120.865C54.942 121.742 55.5267 123.057 55.3805 124.373C55.3805 124.519 55.2343 124.811 55.2343 125.104C55.2343 126.565 52.8955 128.319 51.4337 129.196L37.5465 135.481L36.6695 135.92L23.6594 141.766C22.49 142.497 19.5664 143.228 17.9584 143.228C17.0813 143.228 15.6195 143.228 14.8886 143.082C14.3039 142.936 13.7192 142.936 13.2806 142.643C12.9883 142.643 9.47994 141.328 9.18758 141.182L6.70252 140.013C5.24072 139.136 4.656 137.82 4.80218 136.651C4.80218 136.358 4.94836 136.212 4.94836 135.92C4.94836 134.458 7.28724 132.704 8.74904 131.827L23.8056 126.419L24.975 125.981L41.3472 120.134C42.2243 119.695 44.2708 119.111 45.2941 118.819C45.8788 118.672 46.4635 118.672 47.0482 118.526C48.6562 118.526 50.118 118.818 51.2875 119.403C51.4336 119.403 51.5798 119.549 51.726 119.695L53.4802 120.865Z" fill="#3F0706"/>
<path opacity="0.381" d="M53.3334 121.011C54.7952 121.888 55.3799 123.203 55.0875 124.373C55.0875 124.519 54.9414 124.811 54.9414 124.957C54.9414 126.273 52.4563 128.027 51.1407 128.904L37.5459 134.897L36.6688 135.335L23.9512 141.036C22.7817 141.766 19.8581 142.497 18.3963 142.497C17.6654 142.497 16.0574 142.497 15.4727 142.351C14.888 142.205 14.4495 142.205 13.8647 142.059C13.4262 142.205 10.064 140.743 9.77169 140.597L7.28662 139.428C5.82482 138.551 5.38628 137.381 5.67864 136.066C5.67864 135.92 5.82482 135.628 5.82482 135.335C5.82482 134.02 8.30989 132.266 9.77169 131.389L24.5359 126.127L25.7053 125.688L41.7851 119.988C42.6622 119.549 44.7087 118.965 45.732 118.672C46.3167 118.526 46.9014 118.526 47.34 118.38C48.948 118.38 50.4098 118.672 51.5792 119.257C51.7254 119.257 51.8716 119.403 52.0178 119.549L53.3334 121.011Z" fill="#3F0706"/>
<path opacity="0.4286" d="M53.1871 121.303C54.5027 122.18 55.0875 123.35 54.6489 124.665C54.6489 124.811 54.5027 125.104 54.5027 125.25C54.5027 126.419 52.0177 128.173 50.5559 128.904L37.1073 134.751L36.2302 135.189L23.8049 140.451C22.7817 141.036 19.7119 141.913 18.3962 141.913C17.6653 141.913 16.0574 142.059 15.4726 141.913C14.8879 141.766 14.4494 141.766 13.8647 141.62C13.4261 141.766 10.2102 140.451 9.9178 140.305L7.57892 139.136C6.2633 138.259 5.67858 137.089 6.11712 135.92C6.11712 135.774 6.2633 135.481 6.2633 135.335C6.2633 134.166 8.89454 132.412 10.2102 131.681L24.682 126.565L25.8514 126.127L41.4927 120.572C42.2236 120.134 44.4163 119.549 45.2934 119.403C45.8781 119.257 46.3167 119.257 46.9014 119.111C48.3632 118.965 49.825 119.257 50.9944 119.842C51.1406 119.842 51.2868 119.988 51.433 119.988L53.1871 121.303Z" fill="#3F0706"/>
<path opacity="0.4762" d="M53.041 121.449C54.3566 122.326 54.7951 123.496 54.3566 124.665C54.3566 124.811 54.2104 125.104 54.2104 125.25C54.2104 126.419 51.5792 128.027 50.2636 128.758L37.1073 134.312L36.2303 134.751L23.9511 140.013C22.9279 140.597 19.8581 141.474 18.6886 141.474C17.9577 141.474 16.3498 141.62 15.765 141.474C15.3265 141.328 14.7418 141.328 14.3032 141.182C13.7185 141.328 10.7949 140.159 10.5026 139.866L8.16367 138.697C6.84804 137.82 6.40951 136.651 6.84805 135.481C6.84805 135.335 7.1404 135.043 7.1404 134.897C7.1404 133.727 9.91783 132.12 11.0873 131.389L25.2667 126.419L26.4362 125.981L41.7851 120.572C42.516 120.134 44.7087 119.549 45.5858 119.403C46.1705 119.257 46.6091 119.111 47.1938 119.111C48.6556 118.965 50.1174 119.257 51.1406 119.842C51.2868 119.842 51.433 119.988 51.5792 119.988L53.041 121.449Z" fill="#3F0706"/>
<path opacity="0.5238" d="M52.8953 121.596C54.211 122.473 54.6495 123.642 54.0648 124.811C54.0648 124.957 53.7724 125.25 53.7724 125.396C53.7724 126.419 50.995 128.027 49.8256 128.612L36.9617 134.02L36.0846 134.312L24.0979 139.282C23.2208 139.72 20.0048 140.743 18.8354 140.743C18.2506 140.743 16.6427 140.89 16.0579 140.89C15.6194 140.743 15.0347 140.89 14.5961 140.743C14.0114 140.89 11.234 139.72 10.7955 139.574L8.60275 138.405C7.28713 137.674 6.84859 136.358 7.43331 135.335C7.43331 135.189 7.72567 134.897 7.72567 134.751C7.72567 133.727 10.6493 132.12 11.6725 131.535L25.5597 126.711L26.7291 126.273L41.7857 121.011C42.3704 120.719 44.7093 119.988 45.4402 119.842C45.8787 119.695 46.4634 119.549 47.0481 119.549C48.5099 119.403 49.8256 119.695 50.995 120.28C51.1412 120.28 51.2874 120.426 51.4335 120.426L52.8953 121.596Z" fill="#3F0706"/>
<path opacity="0.5714" d="M52.6028 121.888C53.9184 122.619 54.2108 123.934 53.6261 124.957C53.6261 125.104 53.3337 125.25 53.3337 125.396C53.3337 126.273 50.4101 127.881 49.3869 128.465L36.6692 133.581L35.7921 133.874L23.9515 138.697C23.2206 139.136 19.8585 140.013 18.8352 140.013C18.2505 140.013 16.6425 140.159 16.0578 140.159C15.6192 140.159 15.0345 140.159 14.596 140.013C14.0113 140.159 11.38 139.136 10.9415 138.843L8.74878 137.674C7.43316 136.943 7.14079 135.628 7.72551 134.604C7.72551 134.458 8.01788 134.166 8.01788 134.02C8.01788 133.143 10.9415 131.535 11.9647 130.95L25.5595 126.273L26.5828 125.834L41.3469 120.865C41.9317 120.572 44.2705 119.842 45.0015 119.695C45.44 119.549 46.0247 119.403 46.4633 119.403C47.9251 119.257 49.2407 119.549 50.2639 120.134L50.5563 120.28L52.6028 121.888Z" fill="#3F0706"/>
<path opacity="0.619" d="M52.4568 122.034C53.7725 122.765 54.0648 124.08 53.3339 125.104C53.3339 125.25 53.0416 125.396 53.0416 125.542C53.0416 126.419 49.9718 127.881 49.0947 128.465L36.6694 133.289L35.7923 133.581L24.2441 138.112C23.5132 138.551 20.151 139.428 19.274 139.428C18.8354 139.428 17.0812 139.72 16.6427 139.574C16.2042 139.574 15.6194 139.574 15.1809 139.574C14.45 139.72 11.9649 138.843 11.5264 138.551L9.3337 137.382C8.01808 136.651 7.72572 135.481 8.45662 134.458C8.45662 134.312 8.74898 134.166 8.74898 134.02C8.74898 133.143 11.8188 131.681 12.842 131.096L26.1444 126.565L27.1677 126.273L41.6395 121.449C42.0781 121.157 44.5631 120.426 45.1478 120.28C45.5864 120.134 46.1711 119.988 46.6096 119.988C47.9253 119.842 49.3871 120.134 50.2641 120.719L50.5565 120.865L52.4568 122.034Z" fill="#3F0706"/>
<path opacity="0.6667" d="M52.3104 122.326C53.4798 123.057 53.7722 124.227 53.0413 125.25C53.0413 125.396 52.7489 125.542 52.7489 125.688C52.7489 126.419 49.533 127.881 48.8021 128.319L36.6691 132.997L35.792 133.289L24.5362 137.674C23.9514 137.966 20.4431 138.989 19.7122 138.989C19.2737 138.989 17.5195 139.282 17.081 139.282C16.6424 139.282 16.2039 139.282 15.6192 139.282C14.8883 139.428 12.5494 138.551 12.1108 138.259L10.0643 137.089C8.89488 136.358 8.60252 135.189 9.33342 134.166C9.33342 134.02 9.62578 133.874 9.62578 133.727C9.62578 132.997 12.8417 131.535 13.7188 131.096L26.7289 126.858L27.7521 126.565L41.9316 121.888C42.3701 121.596 44.8552 121.011 45.4399 120.865C45.8785 120.719 46.4632 120.572 46.9017 120.572C48.2173 120.426 49.533 120.719 50.5562 121.157L50.8486 121.303L52.3104 122.326Z" fill="#3F0706"/>
<path opacity="0.7143" d="M52.1642 122.473C53.3336 123.203 53.4798 124.373 52.7489 125.25C52.7489 125.396 52.4565 125.542 52.4565 125.688C52.4565 126.273 49.0944 127.735 48.3635 128.173L36.3767 132.558L35.4997 132.85L24.39 136.943C23.8052 137.235 20.2969 138.259 19.7122 138.259C19.4198 138.259 17.5195 138.697 17.2271 138.551C16.7886 138.551 16.3501 138.697 15.9115 138.551C15.1806 138.697 12.9879 137.966 12.4032 137.674L10.3567 136.505C9.18723 135.774 9.04105 134.604 9.77195 133.727C9.77195 133.581 10.2105 133.435 10.2105 133.289C10.2105 132.704 13.5726 131.243 14.3035 130.804L27.0212 126.711L28.0445 126.419L41.9316 121.888C42.3701 121.742 44.8552 121.011 45.2937 120.865C45.7323 120.719 46.1708 120.572 46.7555 120.572C48.0711 120.426 49.3868 120.719 50.2638 121.157L50.5562 121.303L52.1642 122.473Z" fill="#3F0706"/>
<path opacity="0.7619" d="M52.0181 122.765C53.1875 123.496 53.3337 124.665 52.4566 125.542C52.4566 125.688 52.0181 125.834 52.0181 125.834C52.0181 126.419 48.5098 127.735 47.925 128.027L36.2306 132.266L35.4997 132.558L24.6824 136.505C24.2439 136.797 20.5894 137.82 20.0046 137.82C19.7123 137.82 17.8119 138.259 17.5196 138.112C17.081 138.259 16.6425 138.259 16.2039 138.259C15.3269 138.405 13.4265 137.82 12.8418 137.382L10.9415 136.212C9.77202 135.481 9.62584 134.312 10.5029 133.435C10.5029 133.289 10.9415 133.143 10.9415 132.997C10.9415 132.412 14.4498 131.096 15.0345 130.804L27.4598 126.858L28.4831 126.565L42.0778 122.18C42.3702 122.034 45.0014 121.303 45.44 121.157C45.8785 121.011 46.3171 120.865 46.7556 120.865C48.0712 120.719 49.2407 121.011 50.2639 121.45L50.5563 121.596L52.0181 122.765Z" fill="#3F0706"/>
<path opacity="0.8095" d="M51.8716 122.911C53.0411 123.642 53.0411 124.811 52.0178 125.542L51.5793 125.834C51.5793 126.273 47.9248 127.588 47.4862 127.881L36.0842 131.827L35.3533 132.12L24.6821 135.774C24.3898 135.92 20.5891 137.089 20.1505 137.089C19.8582 137.089 17.9578 137.528 17.8117 137.528C17.3731 137.674 16.9346 137.674 16.496 137.674C15.619 137.82 13.7186 137.382 13.1339 136.943L11.2335 135.92C10.0641 135.189 10.0641 134.02 11.0874 133.289L11.5259 132.997C11.5259 132.558 15.1804 131.243 15.619 130.95L27.7519 127.15L28.629 126.858L41.9314 122.765C42.2237 122.619 44.855 121.888 45.1473 121.742C45.5859 121.596 46.0244 121.449 46.463 121.449C47.6324 121.303 48.948 121.596 49.8251 122.034L50.1175 122.18L51.8716 122.911Z" fill="#3F0706"/>
<path opacity="0.8571" d="M51.7256 123.203C52.895 123.934 52.895 125.104 51.7256 125.834C51.7256 125.834 51.2871 125.981 51.2871 126.127C51.2871 126.419 47.4864 127.735 47.194 127.881L35.9382 131.535L35.2073 131.827L24.8285 135.335C24.5361 135.481 20.7354 136.505 20.4431 136.505C20.2969 136.505 18.2504 136.943 18.1042 136.943C17.6656 137.089 17.2271 137.089 16.7886 137.235C15.9115 137.381 14.1573 136.943 13.5726 136.505L11.6722 135.481C10.5028 134.751 10.5028 133.581 11.6722 132.85L12.1108 132.558C12.1108 132.266 15.9115 130.95 16.2038 130.658L28.0444 127.004L28.9215 126.711L41.9315 122.765C42.0777 122.619 44.8551 121.888 45.1475 121.888C45.586 121.742 46.0246 121.596 46.4631 121.596C47.6326 121.449 48.9482 121.596 49.6791 122.18L49.9714 122.326L51.7256 123.203Z" fill="#3F0706"/>
<path opacity="0.9048" d="M51.5796 123.35C52.7491 124.08 52.6029 125.104 51.4335 125.834C51.4335 125.834 50.9949 125.981 50.9949 126.127C50.9949 126.273 47.048 127.588 46.9019 127.735L35.9384 131.243L35.2075 131.535L25.121 134.751C24.9748 134.897 21.028 135.92 20.8818 135.92C20.7356 135.92 18.6891 136.505 18.6891 136.358C18.2506 136.505 17.812 136.651 17.3735 136.651C16.3502 136.797 14.8884 136.504 14.1575 136.066L12.4034 135.043C11.2339 134.312 11.3801 133.289 12.5495 132.558C12.5495 132.558 12.9881 132.412 12.9881 132.266C12.9881 132.12 16.9349 130.804 17.2273 130.658L28.7755 127.15L29.6526 126.858L42.3703 123.057C42.5165 123.057 45.2939 122.18 45.4401 122.18C45.8786 122.034 46.3171 121.888 46.7557 121.742C47.9251 121.596 49.0946 121.742 49.9717 122.18L50.264 122.326L51.5796 123.35Z" fill="#3F0706"/>
<path opacity="0.9524" d="M51.4335 123.496C52.4568 124.227 52.3106 125.25 51.1411 125.981L50.7026 126.127C50.7026 126.273 46.7557 127.442 46.6096 127.588L35.9384 130.804L35.2075 131.096L25.2673 134.166C25.1211 134.166 21.1742 135.335 21.1742 135.335L18.9815 135.92C18.543 136.066 18.2506 136.212 17.8121 136.212C16.7888 136.358 15.4732 136.212 14.7423 135.628L12.9881 134.604C11.9649 133.874 12.111 132.85 13.2805 132.12L13.8652 131.973C13.8652 131.827 17.9582 130.658 18.1044 130.512L29.3603 127.15L30.2374 126.858L42.6627 123.203C42.6627 123.203 45.5863 122.326 45.7325 122.326C46.171 122.18 46.4634 122.034 46.9019 121.888C48.0714 121.742 49.2408 121.888 49.9717 122.326L50.2641 122.473L51.4335 123.496Z" fill="#3F0706"/>
<path opacity="0.2" d="M49.6793 122.765L51.2873 123.788C52.3106 124.519 52.1644 125.542 50.8488 126.127L35.0613 130.658L19.2738 135.189C17.9582 135.774 16.0579 135.774 15.0346 135.189L13.4266 134.166C12.4034 133.435 12.5496 132.412 13.8652 131.827L29.6526 127.296L45.4401 122.765C46.7557 122.034 48.6561 122.034 49.6793 122.765Z" fill="#3F0706"/>
</g>
<path d="M13.4269 135.774C14.5964 135.92 16.7891 134.897 16.7891 134.458C16.7891 134.02 14.5964 132.412 14.304 132.266C14.0117 132.12 13.1346 132.12 13.1346 132.12V129.635C13.1346 129.635 11.5266 128.465 10.6495 127.735C9.77243 127.004 8.74917 126.419 8.74917 126.419C8.74917 126.419 6.41029 128.612 5.97175 129.342C5.5332 130.073 6.41029 131.389 8.31063 132.412C10.3572 133.289 12.8422 135.774 13.4269 135.774Z" fill="#3F0706"/>
<path d="M5.82508 129.489C5.09418 130.366 5.38654 131.827 6.84834 132.558C8.16396 133.289 12.6955 136.212 13.4264 136.505C14.3035 136.797 16.7886 135.481 16.7886 135.043C16.9348 134.604 16.7886 134.458 16.7886 134.458C16.7886 134.458 14.8882 135.774 13.865 135.335C12.8417 134.897 9.91812 132.558 9.18722 131.681C8.45632 130.804 5.82508 129.489 5.82508 129.489Z" fill="#660806"/>
<path d="M23.0744 58.8906C23.0744 58.8906 21.174 59.4752 21.174 66.345C21.174 73.2148 21.6126 98.94 21.6126 98.94L8.01782 127.296C8.01782 127.296 10.2105 129.05 11.2338 129.781C12.257 130.366 13.4265 130.658 13.4265 130.658L30.3834 102.448C30.3834 102.448 35.0611 93.5318 37.2539 81.4001C38.4233 74.6765 39.1542 63.8602 39.1542 63.8602L23.0744 58.8906Z" fill="#C55D02"/>
<path d="M31.8452 67.5143L27.3136 100.694L11.5261 129.781C12.4032 130.219 13.2803 130.366 13.2803 130.366L30.3834 102.448C30.3834 102.448 35.0611 93.5318 37.2538 81.4001C38.4233 74.6764 39.1542 63.8602 39.1542 63.8602L31.699 61.5215L31.8452 67.5143Z" fill="#C55D02"/>
<path d="M42.663 124.957C42.663 124.957 41.7859 127.15 42.8092 127.588C43.8324 128.027 45.2942 128.319 46.6098 127.881C47.9255 127.442 48.364 126.858 49.6796 126.858C50.9952 126.858 56.1115 124.519 57.1348 123.35C58.1581 122.18 57.1348 120.865 54.6497 121.011C52.1647 121.157 48.6564 121.449 48.0716 121.596C47.4869 121.888 42.663 124.957 42.663 124.957Z" fill="#660806"/>
<path d="M43.832 126.565C46.1709 126.858 46.9018 126.273 48.9483 125.834C51.141 125.396 57.1344 123.203 56.9882 122.034C56.842 120.865 55.5264 121.011 54.357 121.157C53.1875 121.303 49.3868 121.449 49.0945 121.449C48.8021 121.449 42.6626 123.934 42.6626 123.934C42.6626 123.934 42.224 125.688 42.6626 125.981C43.2473 126.273 43.2473 126.565 43.832 126.565Z" fill="#3F0706"/>
<path d="M29.6525 60.9369C29.6525 60.9369 26.7289 65.9065 28.4831 72.9224C30.3835 80.0846 53.1876 95.432 53.1876 95.432C53.1876 95.432 42.6626 121.157 42.6626 124.665C42.6626 125.688 44.8553 126.127 47.1942 125.396C50.1178 124.373 50.1178 123.642 50.2639 122.326C50.4101 121.157 63.7125 98.7938 63.4202 92.2163C62.9816 83.5926 46.1709 69.1222 46.1709 69.1222L29.6525 60.9369Z" fill="#C55D02"/>
<path d="M46.1708 69.1222L38.8618 65.468L41.6392 71.3147C41.6392 71.3147 59.327 88.8545 60.3503 92.9472C61.3736 97.0398 47.6326 124.373 47.4864 125.25C50.1177 124.373 49.9715 123.496 50.1177 122.326C50.2639 121.157 63.5663 98.7938 63.2739 92.2163C62.9815 83.4464 46.1708 69.1222 46.1708 69.1222Z" fill="#C55D02"/>
<path d="M32.8688 18.1103C29.799 18.4026 26.7292 18.9873 25.5598 26.1494C24.6827 31.996 20.4435 67.9528 20.4435 67.9528C20.4435 67.9528 25.4136 73.2148 39.4469 73.9456C49.0948 74.3841 49.3871 72.0455 49.3871 72.0455C49.3871 72.0455 51.4337 51.1438 52.8955 38.135C53.4802 31.996 52.8955 30.3882 50.9951 28.6342C49.5333 27.1726 45.2941 23.6646 42.2243 21.6183C39.7393 19.8643 35.5 17.9641 32.8688 18.1103Z" fill="#3F0706"/>
<path d="M49.3867 72.0455C49.3867 72.0455 51.4332 51.1438 52.895 38.135C52.895 37.9889 52.895 37.6966 52.895 37.5504L45.1475 36.2349C45.586 49.2436 41.6392 71.1685 41.6392 71.1685C41.6392 71.1685 41.2006 73.5071 31.8451 73.0686C34.0378 73.5071 36.5229 73.7994 39.3003 73.9456C49.0944 74.5303 49.3867 72.0455 49.3867 72.0455Z" fill="#3F0706"/>
<path d="M46.0247 23.9569C45.8785 25.5648 43.2473 26.7341 40.0313 26.4418C36.8154 26.2956 34.3303 24.8339 34.4765 23.2261C34.6226 21.6183 37.2539 20.449 40.4699 20.7413C43.6858 20.8875 46.1709 22.3491 46.0247 23.9569Z" fill="white"/>
<path d="M35.3538 22.6414C35.2076 22.9338 35.3538 23.3723 35.4999 23.6646C35.9385 24.2493 37.6926 25.5648 40.1777 25.7109C42.6628 25.8571 43.9784 25.2724 44.5631 24.8339C44.8555 24.6878 45.1478 24.2492 45.1478 23.9569L45.7325 20.5951C45.7325 20.5951 48.3638 20.8875 49.0947 19.8643C49.9718 18.8411 52.8954 6.56322 49.3871 3.20141C45.7325 -0.0142374 37.5465 0.570412 36.0847 6.27088C34.6229 11.9713 37.1079 15.0408 37.2541 16.3563C37.5465 17.3795 36.0847 21.1798 35.3538 22.6414Z" fill="#FFD4C0"/>
<path d="M90.6105 10.9482L87.3945 2.90907C87.3945 2.90907 99.5275 1.15509 99.966 2.03209C100.405 2.90908 90.6105 10.9482 90.6105 10.9482Z" fill="#FFD4C0"/>
<path d="M13.8658 38.2812L86.5174 3.05524C86.9559 2.7629 87.5406 2.76291 88.1254 2.76291L89.5872 2.90906C90.1719 2.90906 90.4642 3.49374 90.0257 3.93224L88.8563 5.10155L15.1815 41.0583L13.8658 38.2812Z" fill="#930309"/>
<path d="M15.4736 40.6199L89.1484 5.10158L90.7564 5.83241C91.195 5.97857 91.4873 6.41709 91.195 6.85558L90.3179 8.46339L17.374 43.6893L15.4736 40.6199Z" fill="#930309"/>
<path d="M17.3738 43.8355L17.6661 46.4665L90.4639 11.2405C90.9024 11.0944 91.1948 10.6559 91.3409 10.0712L91.4871 9.34038C91.6333 9.04805 91.3409 8.60955 91.0486 8.60955H90.4639L17.3738 43.8355Z" fill="#930309"/>
<path d="M96.6038 1.88589C97.3347 2.61672 97.7732 3.6399 98.0656 4.5169C99.235 3.34756 100.112 2.3244 99.9659 2.03206C99.8197 1.73973 98.3579 1.73972 96.6038 1.88589Z" fill="#3F0706"/>
<path d="M18.3971 43.2508L17.5201 46.3203L14.5964 44.8586L13.1346 41.643L14.0117 38.2812L16.9353 39.889L18.3971 43.2508Z" fill="#FFD4C0"/>
<path d="M16.497 43.9816C16.9355 43.6893 17.0817 42.9584 16.6432 42.2276C16.2046 41.4968 15.6199 40.9121 15.1814 41.2045C14.7428 41.4968 14.5966 42.2276 15.0352 42.9584C15.3275 43.6893 16.0584 44.1278 16.497 43.9816Z" fill="#3F0706"/>
<path d="M37.4001 17.2333C37.4001 17.2333 40.3238 18.2565 41.6394 17.9642C43.9783 17.3795 43.9783 12.2637 45.5862 11.0944C46.4633 10.3636 47.1942 11.2405 47.1942 12.1175C47.048 12.8484 47.1942 13.433 47.4866 13.433C47.7789 13.5792 49.3869 9.04807 49.3869 9.04807C49.3869 9.04807 55.3803 7.14791 53.6261 2.03211C50.8487 2.47061 39.4467 -4.10686 35.646 4.80925C32.5762 12.1175 35.9383 16.7948 37.4001 17.2333Z" fill="#C55D02"/>
<path d="M78.0382 15.7717L77.7459 14.4562C77.5997 13.8716 77.3073 13.7254 77.015 14.0177C76.7226 14.1639 76.7226 14.7486 76.7226 15.1871V16.064L76.4302 17.3795L76.1379 18.1104L76.4302 16.941C76.4302 16.7949 76.4302 16.7949 76.4302 16.6487L76.2841 15.0409C76.2841 14.8947 76.2841 14.8947 76.2841 14.8947L75.5532 13.2869C75.407 12.9946 74.9684 12.8484 74.8223 13.1407C74.5299 13.4331 74.5299 13.8716 74.6761 14.1639L75.1146 15.1871L75.2608 16.5025L74.9684 17.818L75.1146 16.6487C75.1146 16.5025 75.1146 16.5025 75.1146 16.3564L74.8223 14.3101C74.8223 14.1639 74.8223 14.1639 74.6761 14.0177L73.6528 12.4099C73.5066 12.1176 73.0681 12.1176 72.7757 12.2638C72.4834 12.5561 72.6296 13.1407 72.7757 13.4331L73.2143 14.6024L73.5066 15.7717V16.941L73.3605 15.1871C73.3605 15.0409 73.3605 14.8947 73.2143 14.8947L72.191 13.4331C72.0448 13.1407 71.6063 12.9946 71.3139 13.2869C71.1678 13.7254 71.3139 14.1639 71.4601 14.4562L71.8987 15.3332L72.0448 16.941C72.0448 16.941 71.7525 18.9874 71.3139 19.4259C70.1445 20.5952 69.5598 20.5952 69.4136 20.7413C68.975 21.1798 70.1445 22.0568 70.1445 22.0568L70.7292 22.6415L74.0914 24.1031C74.0914 24.1031 74.9684 23.2261 75.5532 22.3492C75.9917 21.7645 76.5764 20.8875 76.5764 20.449L77.5997 17.5257V17.3795L77.892 15.6256C78.0382 15.9179 78.0382 15.9179 78.0382 15.7717Z" fill="#FFD4C0"/>
<path d="M45.4404 34.4809C43.8324 37.258 46.0251 40.0352 50.7029 43.9817C55.8192 48.2205 57.281 49.8283 61.5202 50.9976C65.7595 52.0208 67.6598 47.782 68.6831 45.4433C69.7063 43.1047 75.115 24.8339 75.115 24.8339C75.115 24.8339 74.0917 23.0799 72.4837 22.4953C70.8758 21.7645 69.8525 22.3492 69.8525 22.3492L61.8126 39.5967C61.8126 39.5967 55.673 33.3116 53.4803 31.1191C53.3341 30.9729 52.3109 29.8036 52.0185 29.8036C50.2644 30.3882 49.3873 31.1191 48.5102 31.5576C47.4869 31.9961 46.756 32.4346 45.4404 34.4809Z" fill="#3F0706"/>
<path d="M72.9221 22.7876L65.4669 41.9353C65.4669 41.9353 67.5135 48.8051 64.0051 50.9976C66.4902 50.1206 67.8058 47.1973 68.5367 45.5895C69.56 43.2508 74.9686 24.9801 74.9686 24.9801C74.9686 24.9801 74.2377 23.6646 72.9221 22.7876Z" fill="#3F0706"/>
</svg>
