<svg width="115" height="161" viewBox="0 0 115 161" fill="none" xmlns="http://www.w3.org/2000/svg">
<g opacity="0.1">
<path opacity="0.047619" d="M75.802 137.195C77.7024 138.218 78.7256 139.972 78.7256 141.873C78.7256 143.919 77.41 145.819 75.2173 147.135L71.709 148.889L68.3468 150.643C68.3468 150.643 63.6691 152.981 63.5229 152.981L51.9747 158.828C50.8052 159.412 49.4896 159.997 48.174 160.143C47.4431 160.289 46.566 160.289 45.8351 160.289C43.9347 160.289 42.0344 159.851 40.7188 158.974L38.9646 157.512C37.0643 156.489 36.041 154.735 36.041 152.835C36.041 150.789 37.3566 148.889 39.5493 147.573L43.0577 144.942L46.1274 142.603C46.1274 142.603 57.091 134.272 57.2371 134.272C58.9913 133.249 61.184 132.664 63.5229 132.664C64.4 132.664 65.4232 132.81 66.1541 132.956C67.0312 133.103 67.9083 133.541 68.6392 133.833L75.802 137.195Z" fill="#3F0706"/>
<path opacity="0.0952381" d="M74.486 137.926C76.2401 138.949 77.2634 140.557 77.2634 142.457C77.2634 144.504 76.094 146.257 73.9013 147.573L70.5391 149.327L67.3231 150.935L62.7916 153.273C62.6454 153.273 51.828 158.828 51.6819 158.828C50.6586 159.412 49.343 159.851 48.0274 160.143C47.2965 160.289 46.5656 160.289 45.6885 160.289C43.7881 160.289 42.034 159.851 40.7183 159.12L38.9642 157.512C37.21 156.489 36.1868 154.881 36.1868 152.981C36.1868 150.935 37.3562 149.181 39.5489 147.865L42.9111 145.381L45.8347 143.188C45.8347 143.188 56.3596 135.295 56.5058 135.295C58.26 134.272 60.3065 133.833 62.4992 133.833C63.3763 133.833 64.2534 133.98 65.1304 134.126C66.0075 134.272 66.7384 134.71 67.4693 135.003L74.486 137.926Z" fill="#3F0706"/>
<path opacity="0.1429" d="M73.0242 138.803C74.7783 139.826 75.8016 141.288 75.8016 143.042C75.8016 144.942 74.6321 146.696 72.5856 148.012L69.3697 149.619L66.2999 151.227L61.9145 153.42C61.7683 153.42 51.3895 158.682 51.2433 158.682C50.2201 159.266 49.0506 159.705 47.735 159.851C47.0041 159.997 46.2732 159.997 45.5423 159.997C43.7881 159.997 42.034 159.559 40.8645 158.828L39.2565 157.366C37.5024 156.343 36.4791 154.881 36.4791 153.127C36.4791 151.227 37.6486 149.473 39.6951 148.158C39.6951 148.158 42.911 145.819 42.911 145.673L45.6885 143.48C45.8346 143.48 55.7749 136.026 55.9211 136.026C57.5291 135.149 59.5756 134.564 61.6221 134.71C62.4992 134.71 63.3763 134.857 64.1072 135.003C64.8381 135.149 65.7151 135.441 66.2999 135.88L73.0242 138.803Z" fill="#3F0706"/>
<path opacity="0.1905" d="M71.709 139.68C73.3169 140.703 74.3402 142.165 74.3402 143.773C74.3402 145.527 73.3169 147.281 71.2704 148.45C71.2704 148.45 68.3468 150.058 68.2006 150.058L65.277 151.52C65.277 151.52 61.184 153.566 61.0378 153.566C60.8916 153.566 50.9514 158.535 50.8052 158.535C49.7819 159.12 48.6125 159.412 47.4431 159.705C46.8583 159.851 45.9813 159.851 45.3965 159.851C43.7886 159.851 42.0344 159.412 40.865 158.682L39.257 157.22C37.649 156.343 36.6257 154.735 36.6257 153.127C36.6257 151.373 37.649 149.619 39.6955 148.45L42.7653 146.111L45.3965 144.065C45.5427 143.919 55.0444 136.903 55.1906 136.903C56.7986 136.026 58.6989 135.587 60.5993 135.587C61.4764 135.587 62.2073 135.734 62.9382 135.88C63.6691 136.026 64.4 136.318 65.1309 136.757L71.709 139.68Z" fill="#3F0706"/>
<path opacity="0.2381" d="M70.3928 140.411C72.0008 141.288 72.8779 142.75 72.8779 144.357C72.8779 146.111 71.8546 147.719 69.9543 148.889C69.9543 148.889 67.1768 150.35 67.0306 150.35L64.2532 151.812L60.3064 153.858C60.1602 153.858 50.8047 158.535 50.5123 158.535C49.489 158.974 48.4658 159.412 47.2963 159.559C46.7116 159.705 45.9807 159.705 45.2498 159.705C43.6418 159.705 42.0339 159.266 41.0106 158.682L39.5488 157.366C37.9408 156.489 37.0637 155.027 37.0637 153.42C37.0637 151.666 38.087 150.058 39.9873 148.889L42.9109 146.696L45.5422 144.796C45.6884 144.65 54.7515 138.072 54.8977 138.072C56.3595 137.195 58.2598 136.903 60.1602 136.903C60.8911 136.903 61.7682 137.049 62.3529 137.195C63.0838 137.341 63.8147 137.634 64.3994 137.926L70.3928 140.411Z" fill="#3F0706"/>
<path opacity="0.2857" d="M69.0772 141.288C70.539 142.165 71.416 143.48 71.416 144.942C71.416 146.55 70.3928 148.158 68.6386 149.181C68.6386 149.181 66.0074 150.643 65.8612 150.643L63.23 151.958C63.0838 151.958 59.5755 153.858 59.4293 153.858C59.1369 153.858 50.3661 158.243 50.2199 158.243C49.3428 158.682 48.1734 158.974 47.1501 159.12C46.5654 159.266 45.8345 159.266 45.2498 159.266C43.788 159.266 42.18 158.828 41.1568 158.243L39.695 156.928C38.2332 156.051 37.3561 154.735 37.3561 153.273C37.3561 151.666 38.3793 150.058 40.1335 149.035L42.9109 146.988L45.396 145.088C45.5422 144.942 54.0206 138.657 54.313 138.803C55.7748 138.072 57.5289 137.634 59.2831 137.634C60.014 137.634 60.7449 137.78 61.4758 137.926C62.2067 138.072 62.9376 138.365 63.3761 138.657L69.0772 141.288Z" fill="#3F0706"/>
<path opacity="0.3333" d="M67.6154 142.019C69.0772 142.896 69.8081 144.065 69.9542 145.527C69.9542 147.135 69.0772 148.596 67.323 149.619C67.323 149.619 64.8379 150.935 64.6918 150.935L62.2067 152.25C62.0605 152.25 58.6984 154.004 58.5522 154.004C58.2598 154.151 49.9276 158.097 49.7814 158.097C48.9043 158.535 47.881 158.828 46.8578 158.974C46.2731 159.12 45.6883 158.974 45.1036 158.974C43.788 158.974 42.18 158.535 41.3029 157.951L39.9873 156.781C38.5255 155.904 37.7946 154.735 37.6484 153.274C37.6484 151.666 38.5255 150.204 40.2797 149.181C40.2797 149.181 42.7647 147.281 42.9109 147.135L45.2498 145.381C45.5422 145.234 53.4359 139.388 53.7282 139.388C55.0439 138.657 56.798 138.365 58.406 138.365C59.1369 138.365 59.8678 138.511 60.4525 138.657C61.0373 138.803 61.7682 139.095 62.2067 139.388L67.6154 142.019Z" fill="#3F0706"/>
<path opacity="0.381" d="M66.2997 142.896C67.6153 143.627 68.4924 144.942 68.4924 146.258C68.4924 147.719 67.6153 149.181 66.0073 150.058C66.0073 150.058 63.6685 151.373 63.5223 151.373L61.1834 152.689C61.0372 152.689 57.8213 154.297 57.8213 154.443C57.5289 154.589 49.7813 158.243 49.489 158.243C48.6119 158.682 47.7348 158.828 46.7116 158.974C46.273 159.12 45.5421 158.974 44.9574 158.974C43.6418 158.974 42.18 158.535 41.3029 157.951L39.9873 156.781C38.6716 156.051 37.7946 154.735 37.7946 153.42C37.7946 151.958 38.6716 150.496 40.1334 149.619C40.1334 149.619 42.4723 147.719 42.6185 147.719L44.8112 146.111C45.1036 145.965 52.5588 140.557 52.8511 140.557C54.1667 139.972 55.7747 139.534 57.3827 139.68C58.1136 139.68 58.6983 139.826 59.2831 139.972C59.8678 140.119 60.5987 140.411 61.0372 140.703L66.2997 142.896Z" fill="#3F0706"/>
<path opacity="0.4286" d="M64.9841 143.773C66.2997 144.504 67.0306 145.673 67.0306 146.842C67.0306 148.304 66.2997 149.619 64.6917 150.496C64.6917 150.496 62.499 151.666 62.3528 151.812L60.1601 152.981C60.0139 152.981 57.0903 154.589 56.9442 154.589C56.6518 154.735 49.3428 158.243 49.0504 158.097C48.3195 158.389 47.2963 158.682 46.4192 158.828C45.9806 158.828 45.2497 158.828 44.8112 158.828C43.6418 158.828 42.18 158.389 41.4491 157.951L40.1334 156.928C38.8178 156.197 38.0869 155.027 38.0869 153.858C38.0869 152.397 38.8178 151.081 40.2796 150.204C40.2796 150.058 42.4723 148.45 42.6185 148.45L44.665 146.842C44.9574 146.696 51.974 141.58 52.2664 141.58C53.4358 140.996 55.0438 140.703 56.5056 140.703C57.0903 140.703 57.6751 140.849 58.2598 140.996C58.8445 141.142 59.4292 141.434 59.8678 141.726L64.9841 143.773Z" fill="#3F0706"/>
<path opacity="0.4762" d="M63.6688 144.504C64.8382 145.234 65.5691 146.258 65.5691 147.427C65.5691 148.742 64.8382 150.058 63.5226 150.935C63.3764 151.081 61.4761 152.104 61.3299 152.104L59.2833 153.273C59.1372 153.42 56.3597 154.735 56.2136 154.735C55.775 154.881 49.0507 158.097 48.7584 157.951C48.0275 158.243 47.1504 158.389 46.2733 158.535C45.8348 158.535 45.25 158.535 44.8115 158.535C43.7882 158.535 42.3265 158.097 41.5955 157.658L40.4261 156.635C39.2567 155.904 38.5258 154.881 38.5258 153.712C38.5258 152.396 39.2567 151.227 40.5723 150.204C40.7185 150.058 42.6188 148.596 42.765 148.596L44.6653 147.135C44.9577 146.988 51.5358 142.311 51.8282 142.311C52.9976 141.726 54.4594 141.434 55.775 141.58C56.3597 141.58 56.9445 141.726 57.5292 141.873C57.9677 142.019 58.6986 142.311 58.991 142.457L63.6688 144.504Z" fill="#3F0706"/>
<path opacity="0.5238" d="M62.2069 145.381C63.3764 145.965 63.9611 146.988 63.9611 148.158C63.9611 149.327 63.3764 150.496 62.0608 151.373C61.9146 151.52 60.1604 152.397 60.0142 152.543L58.1139 153.566C57.9677 153.712 55.4827 154.881 55.1903 155.027C54.7518 155.174 48.6122 158.097 48.1737 157.951C47.4428 158.243 46.7118 158.389 45.8348 158.535C45.3962 158.535 44.8115 158.535 44.373 158.535C43.3497 158.535 42.0341 158.097 41.4494 157.658L40.2799 156.781C39.1105 156.197 38.5258 155.174 38.5258 154.004C38.5258 152.835 39.1105 151.666 40.4261 150.789C40.5723 150.642 42.3264 149.327 42.4726 149.181L44.2268 147.719C44.6653 147.573 50.5125 143.334 50.9511 143.334C52.1205 142.896 53.4361 142.603 54.7518 142.603C55.3365 142.603 55.775 142.75 56.3597 142.896C56.7983 143.042 57.383 143.334 57.8215 143.48L62.2069 145.381Z" fill="#3F0706"/>
<path opacity="0.5714" d="M60.8909 146.111C61.9141 146.696 62.4989 147.573 62.645 148.596C62.645 149.766 62.0603 150.789 60.8909 151.666C60.7447 151.812 59.1367 152.689 58.9905 152.689L57.2364 153.712C57.0902 153.858 54.7513 155.028 54.6051 155.028C54.1666 155.174 48.4656 157.805 48.027 157.659C47.2961 157.951 46.5652 157.951 45.8343 158.097C45.542 158.097 44.9573 158.097 44.5187 158.097C43.6416 158.097 42.326 157.659 41.7413 157.22L40.718 156.343C39.6948 155.758 39.11 154.881 38.9639 153.858C38.9639 152.689 39.5486 151.666 40.718 150.789C40.8642 150.643 42.4722 149.473 42.6184 149.327L44.2263 148.012C44.6649 147.719 50.0736 143.919 50.5121 143.919C51.5354 143.48 52.7048 143.188 54.0204 143.334C54.6051 143.334 55.0437 143.48 55.4822 143.627C55.9208 143.773 56.5055 144.065 56.7978 144.211L60.8909 146.111Z" fill="#3F0706"/>
<path opacity="0.619" d="M59.5762 146.988C60.5994 147.573 61.1842 148.45 61.1842 149.327C61.1842 150.35 60.5994 151.373 59.5762 152.104C59.43 152.25 57.9682 152.981 57.822 153.127L56.214 154.15C56.0679 154.297 53.8752 155.32 53.729 155.32C53.2904 155.466 48.028 157.805 47.5894 157.658C47.0047 157.805 46.2738 157.951 45.5429 157.951C45.2505 157.951 44.6658 157.951 44.3734 157.951C43.6425 157.951 42.3269 157.512 41.7422 157.22L40.7189 156.489C39.6957 155.904 39.2571 155.027 39.111 154.15C39.111 153.127 39.6957 152.104 40.7189 151.373C40.8651 151.227 42.3269 150.058 42.4731 150.058L44.0811 148.889C44.5196 148.596 49.4898 145.234 50.0745 145.234C51.0977 144.796 52.121 144.65 53.2904 144.796C53.729 144.796 54.1675 144.942 54.6061 145.088C54.8984 145.234 55.4831 145.381 55.7755 145.673L59.5762 146.988Z" fill="#3F0706"/>
<path opacity="0.6667" d="M58.2604 147.865C59.1375 148.45 59.7222 149.181 59.7222 150.058C59.7222 151.081 59.2837 151.958 58.2604 152.689C58.1143 152.835 56.7986 153.566 56.6525 153.566L55.1906 154.443C55.0445 154.589 53.1441 155.466 52.8518 155.612C52.267 155.758 47.7355 157.805 47.1507 157.658C46.566 157.805 45.9813 157.951 45.2504 157.951C44.958 157.951 44.3733 157.805 44.081 157.805C43.3501 157.805 42.1806 157.366 41.7421 157.074L40.865 156.343C39.9879 155.758 39.4032 155.027 39.4032 154.15C39.4032 153.127 39.8417 152.25 40.865 151.519C41.0112 151.373 42.3268 150.35 42.473 150.204L43.9348 149.035C44.3733 148.742 48.9049 145.673 49.4896 145.819C50.3667 145.527 51.39 145.381 52.4132 145.381C52.8518 145.381 53.2903 145.527 53.5827 145.673C53.875 145.819 54.4598 145.965 54.7521 146.111L58.2604 147.865Z" fill="#3F0706"/>
<path opacity="0.7143" d="M56.7984 148.596C57.6755 149.035 58.1141 149.766 58.1141 150.496C58.1141 151.373 57.6755 152.25 56.7984 152.835C56.6523 152.981 55.4828 153.566 55.3366 153.712L54.021 154.589C53.8748 154.735 52.1207 155.466 51.9745 155.612C51.3898 155.758 47.2967 157.512 46.712 157.366C46.1273 157.512 45.5426 157.512 45.104 157.512C44.8117 157.512 44.3731 157.366 44.0808 157.366C43.496 157.366 42.3266 156.928 41.8881 156.635L41.011 155.904C40.1339 155.466 39.6954 154.735 39.6954 154.004C39.5492 153.127 40.1339 152.25 41.011 151.666C41.1572 151.52 42.3266 150.643 42.4728 150.496L43.7884 149.473C44.2269 149.181 48.1738 146.55 48.9047 146.55C49.7818 146.258 50.6589 146.111 51.6821 146.258C52.1207 146.258 52.413 146.404 52.8516 146.55C53.1439 146.696 53.7286 146.842 53.8748 146.988L56.7984 148.596Z" fill="#3F0706"/>
<path opacity="0.7619" d="M55.4823 149.473C56.2132 149.912 56.6517 150.496 56.7979 151.227C56.7979 151.958 56.5055 152.835 55.6284 153.42C55.4823 153.566 54.459 154.15 54.3128 154.15L53.1434 154.881C52.851 155.027 51.5354 155.758 51.243 155.758C50.6583 155.904 47.0038 157.366 46.5653 157.22C46.1267 157.366 45.542 157.366 45.1035 157.366C44.9573 157.366 44.3726 157.22 44.2264 157.22C43.7879 157.22 42.6184 156.781 42.3261 156.489L41.5952 155.904C40.8643 155.466 40.4257 154.881 40.2795 154.15C40.1334 153.42 40.5719 152.543 41.449 151.958C41.5951 151.812 42.6184 151.081 42.7646 150.935L43.934 150.058C44.5188 149.766 47.8809 147.573 48.6118 147.573C49.3427 147.281 50.2198 147.281 51.0969 147.281C51.3892 147.281 51.8278 147.427 52.1201 147.573C52.2663 147.573 52.851 147.865 52.9972 148.012L55.4823 149.473Z" fill="#3F0706"/>
<path opacity="0.8095" d="M54.167 150.204C54.8979 150.642 55.1902 151.227 55.3364 151.812C55.4826 152.543 55.044 153.273 54.3131 153.858C54.167 154.004 53.2899 154.443 53.1437 154.589L52.1204 155.32C51.8281 155.466 50.6586 156.051 50.3663 156.051C49.6354 156.197 46.7118 157.366 46.127 157.22C45.6885 157.366 45.25 157.22 44.8114 157.22C44.6652 157.22 44.2267 157.074 43.9343 157.074C43.4958 157.074 42.4725 156.635 42.1802 156.489L41.4493 155.904C40.7184 155.466 40.426 155.027 40.2798 154.297C40.1337 153.566 40.5722 152.835 41.3031 152.396C41.4493 152.25 42.3264 151.519 42.4725 151.519L43.4958 150.642C44.0805 150.35 47.0041 148.45 47.735 148.45C48.4659 148.304 49.1968 148.158 49.9277 148.304C50.2201 148.304 50.5124 148.45 50.8048 148.596C50.951 148.596 51.5357 148.889 51.6819 149.035L54.167 150.204Z" fill="#3F0706"/>
<path opacity="0.8571" d="M52.8515 151.081C53.4362 151.373 53.8748 151.958 53.8748 152.397C54.021 152.981 53.5824 153.712 52.9977 154.15C52.8515 154.297 52.1206 154.735 51.9744 154.735L51.0974 155.466C50.805 155.612 49.9279 156.051 49.4894 156.197C48.7585 156.343 46.2734 157.22 45.6887 157.074C45.2501 157.074 44.8116 157.074 44.5192 157.074C44.3731 157.074 43.9345 156.928 43.7883 156.928C43.496 156.928 42.4727 156.489 42.3265 156.343L41.7418 155.904C41.1571 155.612 40.8647 155.028 40.7186 154.589C40.5724 154.004 40.8647 153.274 41.5956 152.835C41.7418 152.689 42.4727 152.104 42.6189 151.958L43.496 151.227C44.0807 150.935 46.5658 149.473 47.2967 149.473C47.8814 149.327 48.6123 149.327 49.3432 149.473C49.6356 149.473 49.9279 149.619 50.0741 149.766C50.2203 149.766 50.6588 150.058 50.805 150.058L52.8515 151.081Z" fill="#3F0706"/>
<path opacity="0.9048" d="M51.3893 151.958C51.974 152.25 52.2664 152.689 52.2664 153.127C52.4126 153.712 52.1202 154.297 51.5355 154.735C51.3893 154.881 50.8046 155.174 50.6584 155.32L49.9275 155.904C49.6351 156.051 48.9042 156.489 48.6119 156.489C47.881 156.635 45.9806 157.366 45.2497 157.074C44.9574 157.074 44.5188 157.074 44.2265 156.928C44.0803 156.928 43.6417 156.781 43.6417 156.781C43.4956 156.781 42.4723 156.343 42.3261 156.197L41.7414 155.758C41.1567 155.466 40.8643 155.027 40.8643 154.589C40.7181 154.004 41.0105 153.566 41.449 152.981C41.5952 152.835 42.1799 152.397 42.3261 152.25L43.057 151.52C43.6417 151.081 45.6883 150.204 46.4192 150.204C47.0039 150.058 47.5886 150.058 48.1733 150.204C48.4657 150.204 48.6119 150.35 48.9042 150.35C49.0504 150.35 49.4889 150.643 49.4889 150.643L51.3893 151.958Z" fill="#3F0706"/>
<path opacity="0.9524" d="M50.0737 152.689C50.5122 152.981 50.8046 153.273 50.9508 153.712C51.0969 154.15 50.8046 154.589 50.366 155.027C50.2199 155.174 49.7813 155.466 49.6351 155.612L48.9042 156.197C48.6119 156.343 48.0272 156.635 47.7348 156.635C47.0039 156.781 45.5421 157.22 44.8112 156.928C44.5188 156.928 44.2265 156.781 43.9341 156.781L43.4956 156.635C43.3494 156.635 42.4723 156.197 42.4723 156.051L42.0338 155.758C41.5952 155.466 41.3029 155.174 41.3029 154.735C41.1567 154.297 41.3029 153.858 41.7414 153.42C41.8876 153.273 42.3261 152.981 42.4723 152.835L43.057 152.25C43.7879 151.812 45.1036 151.227 45.9806 151.227C46.4192 151.227 47.0039 151.227 47.4424 151.373C47.5886 151.373 47.881 151.519 48.0272 151.519C48.0272 151.519 48.4657 151.812 48.6119 151.812L50.0737 152.689Z" fill="#3F0706"/>
<path opacity="0.2" d="M43.6425 156.635L41.8884 155.758C40.8651 155.174 41.0113 154.004 42.1807 153.273L42.7655 152.835C43.9349 152.104 45.8353 152.104 47.0047 152.689L48.7588 153.566C49.7821 154.15 49.6359 155.32 48.4665 156.051L47.8818 156.489C46.7123 157.074 44.812 157.22 43.6425 156.635Z" fill="#3F0706"/>
</g>
<path d="M29.9013 69.5206L26.5392 72.2977L24.6388 73.7594L23.6156 74.7825C23.6156 74.7825 22.4461 76.098 22.1538 76.098C21.8614 76.098 21.7152 75.9518 21.7152 75.9518L22.5923 74.1979L24.0541 72.7362L22.0076 73.467L20.2534 73.6132C20.2534 73.6132 18.6455 73.6132 18.3531 73.1747C18.0607 72.7362 18.2069 72.4439 18.2069 72.4439C18.2069 72.4439 17.9146 72.1515 17.9146 71.8592C17.9146 71.5669 20.2534 71.1284 20.2534 71.1284L21.5691 70.3975L25.3697 68.0589L28.8781 67.3281L29.9013 69.5206Z" fill="#FFD4C0"/>
<path d="M28.4395 67.0358C28.4395 67.0358 25.0773 67.4742 24.4926 67.9127C23.9079 68.3512 22.4461 69.8129 22.4461 69.8129C22.4461 69.8129 21.2767 71.5669 21.569 71.8592C21.8614 72.2977 23.0308 71.1284 23.177 70.836C23.3232 70.5437 24.785 69.2282 24.785 69.2282L25.8082 69.0821C27.1239 69.0821 28.1471 68.3512 28.4395 67.0358Z" fill="#FFDECF"/>
<path d="M27.5626 66.8896C27.5626 66.8896 28.0012 67.9127 28.5859 68.7897C29.3168 69.6667 29.7553 69.6667 29.7553 69.6667C29.7553 69.6667 41.1574 57.9734 42.3268 57.2426C43.6424 56.5118 53.875 48.6189 53.875 48.6189C53.875 48.6189 59.7223 31.5175 54.7521 34.8793C49.782 38.3873 38.0876 52.7115 38.0876 52.7115L27.5626 66.8896Z" fill="#3F0706"/>
<path d="M56.0676 41.7491L40.134 56.2195L28.7319 68.9359C29.4628 69.8129 29.9014 69.8129 29.9014 69.8129C29.9014 69.8129 41.3034 58.1196 42.4729 57.3888C43.7885 56.658 54.0211 48.765 54.0211 48.765C54.0211 48.765 55.1905 45.4032 56.0676 41.7491Z" fill="#3F0706"/>
<path d="M45.8351 156.197C47.0045 156.343 49.051 155.466 49.051 154.881C49.051 154.297 47.0045 152.835 46.7122 152.689C46.4198 152.543 45.5427 152.543 45.5427 152.543V150.058C45.5427 150.058 44.0809 149.035 43.2038 148.304C42.3268 147.573 41.4497 147.135 41.4497 147.135C41.4497 147.135 39.257 149.181 38.8184 149.912C38.3799 150.496 39.257 151.812 41.1573 152.835C42.9115 153.858 45.2503 156.197 45.8351 156.197Z" fill="#3F0706"/>
<path d="M38.5258 150.058C37.7949 150.935 38.0873 152.25 39.4029 152.981C40.7185 153.566 44.9578 156.489 45.8348 156.781C46.5657 157.074 49.0508 155.758 49.0508 155.466C49.0508 155.174 49.0508 155.027 49.0508 155.027C49.0508 155.027 47.2966 156.197 46.2734 155.904C45.2501 155.466 42.4727 153.273 41.7418 152.396C41.1571 151.519 38.5258 150.058 38.5258 150.058Z" fill="#660806"/>
<path d="M9.14393 113.663C9.14393 113.663 30.4862 105.77 32.0942 104.746C33.8484 103.723 64.9848 81.36 64.9848 81.36L46.2737 72.7362L26.247 97.5844L7.97449 108.839L9.14393 113.663Z" fill="#C55D02"/>
<path d="M30.34 102.846L8.70532 111.616L9.14386 113.516C9.14386 113.516 30.4862 105.623 32.0941 104.6C33.8483 103.577 64.9847 81.2138 64.9847 81.2138L57.5295 77.7058L30.34 102.846Z" fill="#C55D02"/>
<path d="M56.0672 74.344C56.0672 74.344 54.0207 74.9287 54.0207 82.237C54.0207 89.5453 54.4593 117.024 54.4593 117.024L40.5721 147.865C40.5721 147.865 42.0339 149.181 43.2034 149.912C44.3728 150.643 45.5423 150.789 45.5423 150.789L63.961 120.971C63.961 120.971 68.9311 111.47 71.27 98.4614C72.5856 91.2993 73.1703 79.7522 73.1703 79.7522L56.0672 74.344Z" fill="#C55D02"/>
<path d="M9.5824 113.516C9.5824 113.516 6.95115 117.317 6.22025 118.778C5.48935 120.24 3.73519 124.04 2.56575 123.31C1.39631 122.433 8.26678 109.131 8.26678 109.131L9.5824 113.516Z" fill="#3F0706"/>
<path d="M7.97429 108.839C10.167 109.862 8.12047 113.663 7.09721 115.417C6.07395 117.171 3.73507 124.04 2.56563 123.31C1.39618 122.579 -0.0656135 119.802 0.519107 117.755C1.10383 115.709 3.44271 113.224 4.02743 112.201C4.61215 111.032 5.63541 107.67 7.97429 108.839Z" fill="#660806"/>
<path d="M65.4227 83.6986L60.5988 119.217L43.7881 150.204C44.8113 150.643 45.6884 150.935 45.6884 150.935L63.9609 120.971C63.9609 120.971 68.9311 111.47 71.2699 98.4614C72.5856 91.2992 73.1703 79.7521 73.1703 79.7521L65.1304 77.2673L65.4227 83.6986Z" fill="#C55D02"/>
<path d="M103.576 12.2236L106.792 13.6853C106.792 13.6853 110.008 11.2004 111.324 10.6158C112.639 10.0311 114.394 8.86178 113.955 7.83862C113.516 6.81546 111.762 5.64614 111.762 5.64614C111.762 5.64614 114.393 2.43049 114.54 1.69967C114.686 1.115 114.247 0.676498 114.247 0.676498C114.247 0.676498 110.3 5.06148 109.862 5.20764C109.57 5.35381 108.254 5.7923 107.377 6.52313C106.5 7.54629 103.576 12.2236 103.576 12.2236Z" fill="#FFD4C0"/>
<path d="M107.816 13.3929C107.816 13.3929 107.816 12.8083 106.5 11.7851C105.184 10.7619 103.869 11.2004 103.869 11.2004L91.5896 26.8402L77.9949 37.8026C76.3869 39.1181 74.1942 39.4104 72.1476 38.8258C64.5463 36.1948 57.6758 32.3945 54.3137 35.9024C50.9515 39.4104 42.3269 77.1212 42.3269 77.1212C42.3269 77.1212 48.4665 81.7985 55.9217 85.0141C63.523 88.3759 73.1709 87.7913 73.1709 87.7913C73.1709 87.7913 75.656 75.9518 77.8487 64.9894C79.6028 56.5118 83.4035 48.4727 88.9584 41.7491C92.759 37.2179 96.2674 32.833 96.7059 32.3945C97.7292 30.9328 107.816 13.3929 107.816 13.3929Z" fill="#3F0706"/>
<path d="M72.1472 40.1412C71.7087 41.7491 68.6389 42.0414 65.2768 41.0182C62.0608 39.9951 59.7219 37.9488 60.1605 36.3409C60.599 34.7331 63.6688 34.4408 67.0309 35.4639C70.3931 36.4871 72.5858 38.5334 72.1472 40.1412Z" fill="white"/>
<path d="M71.563 39.2643C71.1244 40.7259 68.4932 41.1644 65.5696 40.2874C62.7922 39.4104 60.7456 37.5103 61.1842 36.0486C61.6227 34.587 64.254 34.1485 67.1776 35.0255C69.955 35.9025 72.0015 37.8026 71.563 39.2643Z" fill="#FFD4C0"/>
<path d="M72.2934 33.8561L71.5625 39.2643L61.3299 36.0486C61.3299 36.0486 62.6455 33.71 62.0608 32.3945C61.4761 31.079 53.8747 24.3553 62.7917 18.2164C71.5625 11.9313 73.9014 21.8705 74.9246 24.6477C75.9479 27.4248 76.2402 30.3482 75.8017 31.079C75.217 31.6636 72.7319 33.2715 72.2934 33.8561Z" fill="#FFD4C0"/>
<path d="M72.878 14.5623C75.6554 16.3162 69.9544 23.3322 69.9544 23.3322C69.9544 23.3322 71.27 26.2555 71.1239 26.9863C70.9777 27.7172 69.6621 25.3785 68.4926 26.8402C67.3232 28.3018 67.6155 33.2715 67.0308 33.8561C66.1537 34.7331 62.7916 34.1485 62.0607 32.9791C61.476 32.1021 54.8979 24.6477 60.0142 19.0934C64.9843 13.6853 70.2468 12.9544 72.878 14.5623Z" fill="#C55D02"/>
<path d="M78.5794 54.027C76.6791 55.781 67.6159 85.1603 67.1774 87.6451C70.5395 87.9374 73.0246 87.7913 73.0246 87.7913C73.0246 87.7913 75.5096 75.9518 77.7023 64.9894C79.018 58.7043 81.3568 52.7115 84.719 47.3034C82.5263 49.7882 79.7489 53.0038 78.5794 54.027Z" fill="#3F0706"/>
</svg>
